%TF.GenerationSoftware,KiCad,Pcbnew,(7.0.0)*%
%TF.CreationDate,2023-04-10T20:49:18+02:00*%
%TF.ProjectId,STM32 Talnet console,53544d33-3220-4546-916c-6e657420636f,rev?*%
%TF.SameCoordinates,Original*%
%TF.FileFunction,Copper,L1,Top*%
%TF.FilePolarity,Positive*%
%FSLAX46Y46*%
G04 Gerber Fmt 4.6, Leading zero omitted, Abs format (unit mm)*
G04 Created by KiCad (PCBNEW (7.0.0)) date 2023-04-10 20:49:18*
%MOMM*%
%LPD*%
G01*
G04 APERTURE LIST*
G04 Aperture macros list*
%AMRoundRect*
0 Rectangle with rounded corners*
0 $1 Rounding radius*
0 $2 $3 $4 $5 $6 $7 $8 $9 X,Y pos of 4 corners*
0 Add a 4 corners polygon primitive as box body*
4,1,4,$2,$3,$4,$5,$6,$7,$8,$9,$2,$3,0*
0 Add four circle primitives for the rounded corners*
1,1,$1+$1,$2,$3*
1,1,$1+$1,$4,$5*
1,1,$1+$1,$6,$7*
1,1,$1+$1,$8,$9*
0 Add four rect primitives between the rounded corners*
20,1,$1+$1,$2,$3,$4,$5,0*
20,1,$1+$1,$4,$5,$6,$7,0*
20,1,$1+$1,$6,$7,$8,$9,0*
20,1,$1+$1,$8,$9,$2,$3,0*%
G04 Aperture macros list end*
%TA.AperFunction,ComponentPad*%
%ADD10C,2.300000*%
%TD*%
%TA.AperFunction,ComponentPad*%
%ADD11C,2.000000*%
%TD*%
%TA.AperFunction,SMDPad,CuDef*%
%ADD12RoundRect,0.250000X0.475000X-0.337500X0.475000X0.337500X-0.475000X0.337500X-0.475000X-0.337500X0*%
%TD*%
%TA.AperFunction,ComponentPad*%
%ADD13R,1.700000X1.700000*%
%TD*%
%TA.AperFunction,ComponentPad*%
%ADD14O,1.700000X1.700000*%
%TD*%
%TA.AperFunction,ComponentPad*%
%ADD15C,1.600000*%
%TD*%
%TA.AperFunction,ComponentPad*%
%ADD16C,2.200000*%
%TD*%
%TA.AperFunction,ComponentPad*%
%ADD17C,1.800000*%
%TD*%
%TA.AperFunction,ComponentPad*%
%ADD18C,6.200000*%
%TD*%
%TA.AperFunction,SMDPad,CuDef*%
%ADD19RoundRect,0.250000X0.450000X-0.350000X0.450000X0.350000X-0.450000X0.350000X-0.450000X-0.350000X0*%
%TD*%
%TA.AperFunction,ViaPad*%
%ADD20C,0.800000*%
%TD*%
%TA.AperFunction,Conductor*%
%ADD21C,0.500000*%
%TD*%
%TA.AperFunction,Conductor*%
%ADD22C,0.300000*%
%TD*%
G04 APERTURE END LIST*
D10*
%TO.P,SW8,*%
%TO.N,*%
X98192900Y-73207100D03*
X105192900Y-73207100D03*
D11*
%TO.P,SW8,1,1*%
%TO.N,Net-(R18-Pad2)*%
X99442900Y-70707100D03*
%TO.P,SW8,2,2*%
%TO.N,GND2*%
X103942900Y-70707100D03*
%TD*%
D12*
%TO.P,C19,1*%
%TO.N,Net-(J5-Pin_5)*%
X101692900Y-79244600D03*
%TO.P,C19,2*%
%TO.N,GND2*%
X101692900Y-77169600D03*
%TD*%
D13*
%TO.P,J5,1,Pin_1*%
%TO.N,GND2*%
X101292899Y-131032099D03*
D14*
%TO.P,J5,2,Pin_2*%
%TO.N,Net-(J5-Pin_2)*%
X101292899Y-128492099D03*
%TO.P,J5,3,Pin_3*%
%TO.N,/Vstupy/VRx*%
X101292899Y-125952099D03*
%TO.P,J5,4,Pin_4*%
%TO.N,/Vstupy/VRy*%
X101292899Y-123412099D03*
%TO.P,J5,5,Pin_5*%
%TO.N,Net-(J5-Pin_5)*%
X101292899Y-120872099D03*
%TO.P,J5,6,Pin_6*%
%TO.N,+3.3VP*%
X101292899Y-118332099D03*
%TD*%
D15*
%TO.P,P1,1,B*%
%TO.N,GND2*%
X106192900Y-84477100D03*
%TO.P,P1,2,D*%
%TO.N,/Vstupy/VRx*%
X108692900Y-84477100D03*
%TO.P,P1,3,A*%
%TO.N,+3.3VP*%
X111192900Y-84477100D03*
%TO.P,P1,4,A*%
X117422900Y-90707100D03*
%TO.P,P1,5,D*%
%TO.N,/Vstupy/VRy*%
X117422900Y-93207100D03*
%TO.P,P1,6,B*%
%TO.N,GND2*%
X117422900Y-95707100D03*
D16*
%TO.P,P1,SH*%
X102367900Y-88207100D03*
X102367900Y-98207100D03*
X115017900Y-88207100D03*
X115017900Y-98207100D03*
D17*
%TO.P,P1,a,a*%
%TO.N,Net-(P1-Pada)*%
X105442900Y-99007100D03*
%TO.P,P1,b,b*%
%TO.N,GND2*%
X105442900Y-103507100D03*
%TO.P,P1,c,c*%
%TO.N,Net-(P1-Pada)*%
X111942900Y-99007100D03*
%TO.P,P1,d,d*%
%TO.N,GND2*%
X111942900Y-103507100D03*
%TD*%
D18*
%TO.P,H6,*%
%TO.N,*%
X99442900Y-112707100D03*
%TD*%
D19*
%TO.P,R17,1*%
%TO.N,Net-(J5-Pin_2)*%
X107442900Y-109707100D03*
%TO.P,R17,2*%
%TO.N,Net-(P1-Pada)*%
X107442900Y-107707100D03*
%TD*%
%TO.P,R15,1*%
%TO.N,Net-(J5-Pin_2)*%
X105442900Y-109707098D03*
%TO.P,R15,2*%
%TO.N,+3.3VP*%
X105442900Y-107707098D03*
%TD*%
%TO.P,R18,1*%
%TO.N,Net-(J5-Pin_5)*%
X103692900Y-79207100D03*
%TO.P,R18,2*%
%TO.N,Net-(R18-Pad2)*%
X103692900Y-77207100D03*
%TD*%
%TO.P,R16,1*%
%TO.N,Net-(J5-Pin_5)*%
X105692900Y-79207100D03*
%TO.P,R16,2*%
%TO.N,+3.3VP*%
X105692900Y-77207100D03*
%TD*%
D12*
%TO.P,C18,2*%
%TO.N,GND2*%
X109442900Y-107669600D03*
%TO.P,C18,1*%
%TO.N,Net-(J5-Pin_2)*%
X109442900Y-109744600D03*
%TD*%
D20*
%TO.N,Net-(J5-Pin_5)*%
X99942900Y-79457100D03*
%TO.N,/Vstupy/VRx*%
X106692900Y-120957100D03*
%TO.N,GND2*%
X110692900Y-106707100D03*
%TD*%
D21*
%TO.N,Net-(J5-Pin_5)*%
X105692900Y-79207100D02*
X100546453Y-79207100D01*
%TO.N,Net-(J5-Pin_2)*%
X101292900Y-128492100D02*
X107775595Y-128492100D01*
%TO.N,+3.3VP*%
X102296364Y-117328636D02*
X101292900Y-118332100D01*
%TO.N,Net-(J5-Pin_5)*%
X105692900Y-79207100D02*
X101783433Y-79207100D01*
%TO.N,+3.3VP*%
X97942900Y-90096187D02*
X97942900Y-97550246D01*
%TO.N,/Vstupy/VRx*%
X101292900Y-125952100D02*
X103644311Y-125952100D01*
D22*
%TO.N,Net-(J5-Pin_5)*%
X101692900Y-79244600D02*
X100455920Y-79244600D01*
D21*
%TO.N,Net-(R18-Pad2)*%
X102632240Y-74646440D02*
X99973231Y-71987431D01*
%TO.N,Net-(J5-Pin_5)*%
X101783433Y-79207114D02*
G75*
G03*
X101692900Y-79244600I-33J-127986D01*
G01*
%TO.N,+3.3VP*%
X100692904Y-83457104D02*
G75*
G03*
X97942900Y-90096187I6639096J-6639096D01*
G01*
%TO.N,Net-(J5-Pin_5)*%
X100546453Y-79207123D02*
G75*
G03*
X99942901Y-79457101I-53J-853477D01*
G01*
%TO.N,+3.3VP*%
X103692910Y-111431973D02*
G75*
G03*
X101942899Y-107207101I-5974910J-27D01*
G01*
X97942905Y-97550246D02*
G75*
G03*
X101942900Y-107207100I13656855J-4D01*
G01*
X103107113Y-82457106D02*
G75*
G03*
X100692900Y-83457100I-13J-3414194D01*
G01*
D22*
%TO.N,Net-(J5-Pin_5)*%
X100455920Y-79244609D02*
G75*
G03*
X99942900Y-79457100I-20J-725491D01*
G01*
D21*
%TO.N,Net-(R18-Pad2)*%
X99442912Y-70707100D02*
G75*
G03*
X99973231Y-71987431I1810688J0D01*
G01*
%TO.N,Net-(P1-Pada)*%
X105692900Y-105689758D02*
X106547480Y-105689758D01*
X103692900Y-101457100D02*
X103692900Y-103457101D01*
X107442900Y-106560653D02*
X107442900Y-107707100D01*
X107442900Y-106664208D02*
X107442900Y-107707100D01*
X104223230Y-104737430D02*
X104809742Y-105323942D01*
X105442900Y-99007100D02*
X104187875Y-100262125D01*
D22*
X107766124Y-105883877D02*
X107692900Y-105957100D01*
D21*
X108192901Y-105707086D02*
G75*
G03*
X107766125Y-105883878I-1J-603514D01*
G01*
X107192906Y-105957094D02*
G75*
G03*
X106547480Y-105689758I-645406J-645406D01*
G01*
X107442919Y-106560653D02*
G75*
G03*
X107192900Y-105957100I-853619J-47D01*
G01*
X103692912Y-103457101D02*
G75*
G03*
X104223230Y-104737430I1810688J1D01*
G01*
X104809745Y-105323939D02*
G75*
G03*
X105692900Y-105689758I883155J883139D01*
G01*
X104187885Y-100262135D02*
G75*
G03*
X103692900Y-101457100I1194915J-1194965D01*
G01*
X107766110Y-105883863D02*
G75*
G03*
X107442900Y-106664208I780390J-780337D01*
G01*
D22*
X107692914Y-105957114D02*
G75*
G03*
X107442900Y-106560653I603586J-603586D01*
G01*
D21*
%TO.N,+3.3VP*%
X104546458Y-107707052D02*
G75*
G03*
X103942900Y-107957100I42J-853548D01*
G01*
X104546458Y-107707098D02*
X105442900Y-107707098D01*
D22*
%TO.N,GND2*%
X110202107Y-106910393D02*
X109442900Y-107669600D01*
D21*
%TO.N,+3.3VP*%
X108442900Y-79396440D02*
X108442900Y-78457100D01*
X103692900Y-111431973D02*
X103692900Y-113957100D01*
%TO.N,Net-(J5-Pin_2)*%
X105442900Y-109707098D02*
X109352363Y-109707098D01*
X109442900Y-125457100D02*
X109442900Y-109744600D01*
X107442900Y-109707100D02*
X109352367Y-109707100D01*
%TO.N,+3.3VP*%
X107339347Y-77207100D02*
X105692900Y-77207100D01*
X108089347Y-77603546D02*
X107942900Y-77457100D01*
X103612832Y-110457100D02*
X103612832Y-108753954D01*
X105442900Y-82457100D02*
X103107113Y-82457100D01*
%TO.N,/Vstupy/VRx*%
X106692900Y-120957100D02*
X106692900Y-122189334D01*
%TO.N,+3.3VP*%
X108605535Y-80294465D02*
X107150007Y-81749993D01*
%TO.N,Net-(J5-Pin_2)*%
X105442900Y-109707098D02*
X107442896Y-109707098D01*
X109442900Y-126167186D02*
X109442900Y-125457100D01*
%TO.N,+3.3VP*%
X110294874Y-82309075D02*
X109192900Y-81207100D01*
X107942886Y-77457114D02*
G75*
G03*
X107339347Y-77207100I-603586J-603586D01*
G01*
%TO.N,Net-(J5-Pin_2)*%
X108625757Y-128139957D02*
G75*
G03*
X109442900Y-126167186I-1972757J1972757D01*
G01*
%TO.N,+3.3VP*%
X102296370Y-117328642D02*
G75*
G03*
X103692900Y-113957100I-3371570J3371542D01*
G01*
X103942913Y-107957113D02*
G75*
G03*
X103612832Y-108753954I796887J-796887D01*
G01*
X108442902Y-78457100D02*
G75*
G03*
X108089347Y-77603546I-1207102J0D01*
G01*
%TO.N,Net-(J5-Pin_2)*%
X107775595Y-128492097D02*
G75*
G03*
X108625752Y-128139952I5J1202297D01*
G01*
X107442898Y-109707099D02*
G75*
G03*
X107442896Y-109707098I-1J1D01*
G01*
%TO.N,/Vstupy/VRx*%
X103644311Y-125952104D02*
G75*
G03*
X105442900Y-125207100I-11J2543604D01*
G01*
%TO.N,+3.3VP*%
X108442884Y-79396440D02*
G75*
G03*
X109192900Y-81207100I2560716J40D01*
G01*
X105442900Y-82457103D02*
G75*
G03*
X107150006Y-81749992I0J2414203D01*
G01*
%TO.N,Net-(J5-Pin_2)*%
X109442911Y-109744589D02*
G75*
G03*
X109352363Y-109707098I-90511J-90511D01*
G01*
X109442910Y-109744590D02*
G75*
G03*
X109352367Y-109707100I-90510J-90510D01*
G01*
%TO.N,/Vstupy/VRx*%
X105442890Y-125207090D02*
G75*
G03*
X106692900Y-122189334I-3017790J3017790D01*
G01*
%TO.N,Net-(R18-Pad2)*%
X103692905Y-77207100D02*
G75*
G03*
X102632239Y-74646441I-3621305J0D01*
G01*
%TO.N,Net-(P1-Pada)*%
X110942900Y-105707100D02*
X108192901Y-105707100D01*
D22*
%TO.N,GND2*%
X110692900Y-106707104D02*
G75*
G03*
X110202107Y-106910393I0J-694096D01*
G01*
D21*
%TO.N,Net-(P1-Pada)*%
X110942900Y-105707092D02*
G75*
G03*
X112632301Y-105007327I0J2389192D01*
G01*
X113692889Y-102457100D02*
G75*
G03*
X112490818Y-99555018I-4104189J0D01*
G01*
X113692900Y-102457100D02*
X113692900Y-103232288D01*
X111942900Y-99007100D02*
X112490818Y-99555018D01*
%TO.N,+3.3VP*%
X111192914Y-84477100D02*
G75*
G03*
X110294874Y-82309075I-3066014J0D01*
G01*
%TO.N,Net-(P1-Pada)*%
X113187718Y-104451918D02*
G75*
G03*
X113692900Y-103232288I-1219618J1219618D01*
G01*
X113187714Y-104451914D02*
X112632301Y-105007327D01*
%TO.N,+3.3VP*%
X117422905Y-90707100D02*
G75*
G03*
X115640991Y-86405191I-6083805J0D01*
G01*
X115494809Y-86259009D02*
X115640991Y-86405191D01*
X115494805Y-86259013D02*
G75*
G03*
X111192900Y-84477100I-4301905J-4301887D01*
G01*
%TD*%
%TA.AperFunction,Conductor*%
%TO.N,GND2*%
G36*
X110641285Y-110568012D02*
G01*
X110678885Y-110612035D01*
X110692400Y-110668330D01*
X110692400Y-133082600D01*
X110675787Y-133144600D01*
X110630400Y-133189987D01*
X110568400Y-133206600D01*
X108692999Y-133206600D01*
X108692900Y-133206559D01*
X108692801Y-133206600D01*
X108692517Y-133206717D01*
X108692359Y-133207100D01*
X108692400Y-133207199D01*
X108692400Y-133219125D01*
X108692400Y-138082600D01*
X108675787Y-138144600D01*
X108630400Y-138189987D01*
X108568400Y-138206600D01*
X97744469Y-138206600D01*
X97697016Y-138197161D01*
X97656788Y-138170281D01*
X95729719Y-136243211D01*
X95702839Y-136202983D01*
X95693400Y-136155530D01*
X95693400Y-131926618D01*
X99942900Y-131926618D01*
X99943253Y-131933214D01*
X99948473Y-131981767D01*
X99952011Y-131996741D01*
X99996447Y-132115877D01*
X100004862Y-132131289D01*
X100080398Y-132232192D01*
X100092807Y-132244601D01*
X100193710Y-132320137D01*
X100209122Y-132328552D01*
X100328258Y-132372988D01*
X100343232Y-132376526D01*
X100391785Y-132381746D01*
X100398382Y-132382100D01*
X101026574Y-132382100D01*
X101039449Y-132378649D01*
X101042900Y-132365774D01*
X101542900Y-132365774D01*
X101546350Y-132378649D01*
X101559226Y-132382100D01*
X102187418Y-132382100D01*
X102194014Y-132381746D01*
X102242567Y-132376526D01*
X102257541Y-132372988D01*
X102376677Y-132328552D01*
X102392089Y-132320137D01*
X102492992Y-132244601D01*
X102505401Y-132232192D01*
X102580937Y-132131289D01*
X102589352Y-132115877D01*
X102633788Y-131996741D01*
X102637326Y-131981767D01*
X102642546Y-131933214D01*
X102642900Y-131926618D01*
X102642900Y-131298426D01*
X102639449Y-131285550D01*
X102626574Y-131282100D01*
X101559226Y-131282100D01*
X101546350Y-131285550D01*
X101542900Y-131298426D01*
X101542900Y-132365774D01*
X101042900Y-132365774D01*
X101042900Y-131298426D01*
X101039449Y-131285550D01*
X101026574Y-131282100D01*
X99959226Y-131282100D01*
X99946350Y-131285550D01*
X99942900Y-131298426D01*
X99942900Y-131926618D01*
X95693400Y-131926618D01*
X95693400Y-113566911D01*
X95707411Y-113509654D01*
X95746277Y-113465336D01*
X95801215Y-113443972D01*
X95859811Y-113450389D01*
X95908822Y-113483138D01*
X95937175Y-113534818D01*
X96013922Y-113821243D01*
X96015079Y-113824258D01*
X96015082Y-113824266D01*
X96148002Y-114170533D01*
X96149166Y-114173565D01*
X96150635Y-114176448D01*
X96150639Y-114176457D01*
X96319022Y-114506927D01*
X96320497Y-114509821D01*
X96526037Y-114826325D01*
X96763535Y-115119611D01*
X97030389Y-115386465D01*
X97323675Y-115623963D01*
X97640179Y-115829503D01*
X97721419Y-115870897D01*
X97907853Y-115965890D01*
X97976435Y-116000834D01*
X98328757Y-116136078D01*
X98693287Y-116233753D01*
X99066029Y-116292790D01*
X99442900Y-116312541D01*
X99819771Y-116292790D01*
X100192513Y-116233753D01*
X100557043Y-116136078D01*
X100909365Y-116000834D01*
X101245621Y-115829503D01*
X101562125Y-115623963D01*
X101855411Y-115386465D01*
X102122265Y-115119611D01*
X102359763Y-114826325D01*
X102565303Y-114509821D01*
X102689592Y-114265889D01*
X102736397Y-114215786D01*
X102802673Y-114198213D01*
X102868155Y-114218546D01*
X102912821Y-114270567D01*
X102923015Y-114338371D01*
X102882071Y-114649373D01*
X102880193Y-114660026D01*
X102806676Y-114991642D01*
X102803876Y-115002091D01*
X102701740Y-115326028D01*
X102698040Y-115336194D01*
X102568056Y-115650004D01*
X102563484Y-115659808D01*
X102406651Y-115961082D01*
X102401243Y-115970450D01*
X102218739Y-116256927D01*
X102212534Y-116265788D01*
X102005763Y-116535259D01*
X101998809Y-116543546D01*
X101767633Y-116795831D01*
X101763892Y-116799739D01*
X101604401Y-116959230D01*
X101559131Y-116988071D01*
X101505913Y-116995077D01*
X101298296Y-116976913D01*
X101298295Y-116976913D01*
X101292900Y-116976441D01*
X101287505Y-116976913D01*
X101062882Y-116996565D01*
X101062877Y-116996565D01*
X101057492Y-116997037D01*
X101052271Y-116998435D01*
X101052265Y-116998437D01*
X100834469Y-117056794D01*
X100834457Y-117056798D01*
X100829237Y-117058197D01*
X100824332Y-117060483D01*
X100824327Y-117060486D01*
X100619981Y-117155775D01*
X100619977Y-117155777D01*
X100615071Y-117158065D01*
X100610638Y-117161168D01*
X100610631Y-117161173D01*
X100425934Y-117290499D01*
X100425929Y-117290502D01*
X100421499Y-117293605D01*
X100417675Y-117297428D01*
X100417669Y-117297434D01*
X100258234Y-117456869D01*
X100258228Y-117456875D01*
X100254405Y-117460699D01*
X100251302Y-117465129D01*
X100251299Y-117465134D01*
X100121973Y-117649831D01*
X100121968Y-117649838D01*
X100118865Y-117654271D01*
X100116577Y-117659177D01*
X100116575Y-117659181D01*
X100021286Y-117863527D01*
X100021283Y-117863532D01*
X100018997Y-117868437D01*
X100017598Y-117873657D01*
X100017594Y-117873669D01*
X99959237Y-118091465D01*
X99959235Y-118091471D01*
X99957837Y-118096692D01*
X99957365Y-118102077D01*
X99957365Y-118102082D01*
X99937713Y-118326705D01*
X99937241Y-118332100D01*
X99957837Y-118567508D01*
X99959236Y-118572730D01*
X99959237Y-118572734D01*
X100017594Y-118790530D01*
X100017597Y-118790538D01*
X100018997Y-118795763D01*
X100021285Y-118800670D01*
X100021286Y-118800672D01*
X100116578Y-119005027D01*
X100116581Y-119005033D01*
X100118865Y-119009930D01*
X100121964Y-119014357D01*
X100121966Y-119014359D01*
X100251299Y-119199066D01*
X100251302Y-119199070D01*
X100254405Y-119203501D01*
X100421499Y-119370595D01*
X100425932Y-119373699D01*
X100425938Y-119373704D01*
X100607058Y-119500525D01*
X100645924Y-119544843D01*
X100659935Y-119602100D01*
X100645924Y-119659357D01*
X100607059Y-119703675D01*
X100425941Y-119830495D01*
X100421499Y-119833605D01*
X100417675Y-119837428D01*
X100417669Y-119837434D01*
X100258234Y-119996869D01*
X100258228Y-119996875D01*
X100254405Y-120000699D01*
X100251302Y-120005129D01*
X100251299Y-120005134D01*
X100121973Y-120189831D01*
X100121968Y-120189838D01*
X100118865Y-120194271D01*
X100116577Y-120199177D01*
X100116575Y-120199181D01*
X100021286Y-120403527D01*
X100021283Y-120403532D01*
X100018997Y-120408437D01*
X100017598Y-120413657D01*
X100017594Y-120413669D01*
X99959237Y-120631465D01*
X99959235Y-120631471D01*
X99957837Y-120636692D01*
X99957365Y-120642077D01*
X99957365Y-120642082D01*
X99946275Y-120768844D01*
X99937241Y-120872100D01*
X99937713Y-120877495D01*
X99944112Y-120950640D01*
X99957837Y-121107508D01*
X99959236Y-121112730D01*
X99959237Y-121112734D01*
X100017594Y-121330530D01*
X100017597Y-121330538D01*
X100018997Y-121335763D01*
X100021285Y-121340670D01*
X100021286Y-121340672D01*
X100116578Y-121545027D01*
X100116581Y-121545033D01*
X100118865Y-121549930D01*
X100121964Y-121554357D01*
X100121966Y-121554359D01*
X100251299Y-121739066D01*
X100251302Y-121739070D01*
X100254405Y-121743501D01*
X100421499Y-121910595D01*
X100425932Y-121913699D01*
X100425938Y-121913704D01*
X100607058Y-122040525D01*
X100645924Y-122084843D01*
X100659935Y-122142100D01*
X100645924Y-122199357D01*
X100607060Y-122243674D01*
X100421499Y-122373605D01*
X100417675Y-122377428D01*
X100417669Y-122377434D01*
X100258234Y-122536869D01*
X100258228Y-122536875D01*
X100254405Y-122540699D01*
X100251302Y-122545129D01*
X100251299Y-122545134D01*
X100121973Y-122729831D01*
X100121968Y-122729838D01*
X100118865Y-122734271D01*
X100116577Y-122739177D01*
X100116575Y-122739181D01*
X100021286Y-122943527D01*
X100021283Y-122943532D01*
X100018997Y-122948437D01*
X100017598Y-122953657D01*
X100017594Y-122953669D01*
X99959237Y-123171465D01*
X99959235Y-123171471D01*
X99957837Y-123176692D01*
X99957365Y-123182077D01*
X99957365Y-123182082D01*
X99954391Y-123216075D01*
X99937241Y-123412100D01*
X99937713Y-123417495D01*
X99949730Y-123554853D01*
X99957837Y-123647508D01*
X99959236Y-123652730D01*
X99959237Y-123652734D01*
X100017594Y-123870530D01*
X100017597Y-123870538D01*
X100018997Y-123875763D01*
X100021285Y-123880670D01*
X100021286Y-123880672D01*
X100116578Y-124085027D01*
X100116581Y-124085033D01*
X100118865Y-124089930D01*
X100121964Y-124094357D01*
X100121966Y-124094359D01*
X100251299Y-124279066D01*
X100251302Y-124279070D01*
X100254405Y-124283501D01*
X100421499Y-124450595D01*
X100425932Y-124453699D01*
X100425938Y-124453704D01*
X100607058Y-124580525D01*
X100645924Y-124624843D01*
X100659935Y-124682100D01*
X100645924Y-124739357D01*
X100607059Y-124783675D01*
X100425941Y-124910495D01*
X100421499Y-124913605D01*
X100417675Y-124917428D01*
X100417669Y-124917434D01*
X100258234Y-125076869D01*
X100258228Y-125076875D01*
X100254405Y-125080699D01*
X100251302Y-125085129D01*
X100251299Y-125085134D01*
X100121973Y-125269831D01*
X100121968Y-125269838D01*
X100118865Y-125274271D01*
X100116577Y-125279177D01*
X100116575Y-125279181D01*
X100021286Y-125483527D01*
X100021283Y-125483532D01*
X100018997Y-125488437D01*
X100017598Y-125493657D01*
X100017594Y-125493669D01*
X99959237Y-125711465D01*
X99959235Y-125711471D01*
X99957837Y-125716692D01*
X99957365Y-125722077D01*
X99957365Y-125722082D01*
X99951111Y-125793566D01*
X99937241Y-125952100D01*
X99937713Y-125957495D01*
X99956058Y-126167182D01*
X99957837Y-126187508D01*
X99959236Y-126192730D01*
X99959237Y-126192734D01*
X100017594Y-126410530D01*
X100017597Y-126410538D01*
X100018997Y-126415763D01*
X100021285Y-126420670D01*
X100021286Y-126420672D01*
X100116578Y-126625027D01*
X100116581Y-126625033D01*
X100118865Y-126629930D01*
X100121964Y-126634357D01*
X100121966Y-126634359D01*
X100251299Y-126819066D01*
X100251302Y-126819070D01*
X100254405Y-126823501D01*
X100421499Y-126990595D01*
X100425932Y-126993699D01*
X100425938Y-126993704D01*
X100607058Y-127120525D01*
X100645924Y-127164843D01*
X100659935Y-127222100D01*
X100645924Y-127279357D01*
X100607059Y-127323675D01*
X100425941Y-127450495D01*
X100421499Y-127453605D01*
X100417675Y-127457428D01*
X100417669Y-127457434D01*
X100258234Y-127616869D01*
X100258228Y-127616875D01*
X100254405Y-127620699D01*
X100251302Y-127625129D01*
X100251299Y-127625134D01*
X100121973Y-127809831D01*
X100121968Y-127809838D01*
X100118865Y-127814271D01*
X100116577Y-127819177D01*
X100116575Y-127819181D01*
X100021286Y-128023527D01*
X100021283Y-128023532D01*
X100018997Y-128028437D01*
X100017598Y-128033657D01*
X100017594Y-128033669D01*
X99959237Y-128251465D01*
X99959235Y-128251471D01*
X99957837Y-128256692D01*
X99957365Y-128262077D01*
X99957365Y-128262082D01*
X99955701Y-128281102D01*
X99937241Y-128492100D01*
X99937713Y-128497495D01*
X99952862Y-128670652D01*
X99957837Y-128727508D01*
X99959236Y-128732730D01*
X99959237Y-128732734D01*
X100017594Y-128950530D01*
X100017597Y-128950538D01*
X100018997Y-128955763D01*
X100021285Y-128960670D01*
X100021286Y-128960672D01*
X100116578Y-129165027D01*
X100116581Y-129165033D01*
X100118865Y-129169930D01*
X100121964Y-129174357D01*
X100121966Y-129174359D01*
X100251299Y-129359066D01*
X100251302Y-129359070D01*
X100254405Y-129363501D01*
X100258235Y-129367331D01*
X100258236Y-129367332D01*
X100376718Y-129485814D01*
X100408014Y-129538560D01*
X100410203Y-129599853D01*
X100382750Y-129654697D01*
X100332371Y-129689676D01*
X100209126Y-129735644D01*
X100193710Y-129744062D01*
X100092807Y-129819598D01*
X100080398Y-129832007D01*
X100004862Y-129932910D01*
X99996447Y-129948322D01*
X99952011Y-130067458D01*
X99948473Y-130082432D01*
X99943253Y-130130985D01*
X99942900Y-130137582D01*
X99942900Y-130765774D01*
X99946350Y-130778649D01*
X99959226Y-130782100D01*
X102626574Y-130782100D01*
X102639449Y-130778649D01*
X102642900Y-130765774D01*
X102642900Y-130137582D01*
X102642546Y-130130985D01*
X102637326Y-130082432D01*
X102633788Y-130067458D01*
X102589352Y-129948322D01*
X102580937Y-129932910D01*
X102505401Y-129832007D01*
X102492992Y-129819598D01*
X102392089Y-129744062D01*
X102376679Y-129735648D01*
X102253428Y-129689677D01*
X102203049Y-129654697D01*
X102175596Y-129599853D01*
X102177785Y-129538560D01*
X102209078Y-129485817D01*
X102331395Y-129363501D01*
X102379026Y-129295476D01*
X102423345Y-129256611D01*
X102480602Y-129242600D01*
X107819252Y-129242600D01*
X107819304Y-129242600D01*
X107819321Y-129242598D01*
X107819356Y-129242597D01*
X107899533Y-129242597D01*
X107903586Y-129242597D01*
X108157383Y-129209185D01*
X108404648Y-129142931D01*
X108641150Y-129044970D01*
X108862842Y-128916976D01*
X109065931Y-128761141D01*
X109100654Y-128726417D01*
X109100660Y-128726414D01*
X109156425Y-128670648D01*
X109156438Y-128670638D01*
X109156441Y-128670641D01*
X109279428Y-128547654D01*
X109500108Y-128278755D01*
X109693368Y-127989520D01*
X109857347Y-127682735D01*
X109990466Y-127361354D01*
X110091444Y-127028473D01*
X110159306Y-126687297D01*
X110193401Y-126341112D01*
X110193400Y-126167182D01*
X110193400Y-126088302D01*
X110193400Y-125413391D01*
X110193400Y-110863158D01*
X110209123Y-110802726D01*
X110252302Y-110757620D01*
X110386556Y-110674812D01*
X110480719Y-110580648D01*
X110530082Y-110550399D01*
X110587798Y-110545857D01*
X110641285Y-110568012D01*
G37*
%TD.AperFunction*%
%TA.AperFunction,Conductor*%
G36*
X108630400Y-66474213D02*
G01*
X108675787Y-66519600D01*
X108692400Y-66581600D01*
X108692400Y-71457001D01*
X108692359Y-71457100D01*
X108692400Y-71457199D01*
X108692517Y-71457483D01*
X108692900Y-71457641D01*
X108692999Y-71457600D01*
X110568400Y-71457600D01*
X110630400Y-71474213D01*
X110675787Y-71519600D01*
X110692400Y-71581600D01*
X110692400Y-80706999D01*
X110692358Y-80707100D01*
X110692476Y-80707384D01*
X110692517Y-80707483D01*
X110692615Y-80707523D01*
X110701201Y-80716109D01*
X110701202Y-80716110D01*
X114093228Y-84108136D01*
X114126324Y-84167731D01*
X114122919Y-84235815D01*
X114084041Y-84291810D01*
X114021440Y-84318794D01*
X113954036Y-84308611D01*
X113811958Y-84243726D01*
X113811948Y-84243722D01*
X113809947Y-84242808D01*
X113807892Y-84242041D01*
X113807886Y-84242039D01*
X113354606Y-84072973D01*
X113354594Y-84072969D01*
X113352551Y-84072207D01*
X113078177Y-83991643D01*
X112886282Y-83935297D01*
X112886273Y-83935294D01*
X112884149Y-83934671D01*
X112881990Y-83934201D01*
X112881973Y-83934197D01*
X112409282Y-83831370D01*
X112409272Y-83831368D01*
X112407129Y-83830902D01*
X112404973Y-83830592D01*
X112404951Y-83830588D01*
X112372327Y-83825898D01*
X112325016Y-83808784D01*
X112288401Y-83774284D01*
X112196053Y-83642397D01*
X112196052Y-83642395D01*
X112196050Y-83642392D01*
X112192947Y-83637961D01*
X112032039Y-83477053D01*
X111919703Y-83398395D01*
X111850065Y-83349634D01*
X111850060Y-83349631D01*
X111845634Y-83346532D01*
X111840741Y-83344250D01*
X111840725Y-83344241D01*
X111809346Y-83329609D01*
X111770329Y-83301001D01*
X111745231Y-83259641D01*
X111656250Y-83015171D01*
X111515402Y-82713127D01*
X111348764Y-82424508D01*
X111157606Y-82151510D01*
X110943381Y-81896213D01*
X110825551Y-81778385D01*
X110822640Y-81775474D01*
X109779362Y-80732196D01*
X109779361Y-80732193D01*
X109726457Y-80679289D01*
X109720910Y-80673367D01*
X109572820Y-80504503D01*
X109562946Y-80491635D01*
X109456466Y-80332278D01*
X109440426Y-80308272D01*
X109432318Y-80294229D01*
X109334773Y-80096432D01*
X109328570Y-80081454D01*
X109314978Y-80041414D01*
X109312622Y-80033646D01*
X109309627Y-80022469D01*
X109309626Y-80022468D01*
X109307757Y-80015490D01*
X109304328Y-80009131D01*
X109303365Y-80006706D01*
X109301185Y-80000784D01*
X109261059Y-79882580D01*
X109257679Y-79872622D01*
X109253485Y-79856970D01*
X109210458Y-79640670D01*
X109208342Y-79624593D01*
X109206989Y-79603960D01*
X109193666Y-79400729D01*
X109193400Y-79392617D01*
X109193400Y-78457107D01*
X109193401Y-78457100D01*
X109193402Y-78457100D01*
X109193402Y-78328791D01*
X109159906Y-78074369D01*
X109093488Y-77826496D01*
X108995285Y-77589413D01*
X108866975Y-77367176D01*
X108710756Y-77163589D01*
X108682058Y-77134891D01*
X108682057Y-77134889D01*
X108529362Y-76982194D01*
X108529361Y-76982193D01*
X108473583Y-76926416D01*
X108442675Y-76895508D01*
X108442590Y-76895440D01*
X108442430Y-76895290D01*
X108402104Y-76854963D01*
X108402103Y-76854962D01*
X108399232Y-76852091D01*
X108396016Y-76849623D01*
X108396009Y-76849617D01*
X108235643Y-76726562D01*
X108235639Y-76726559D01*
X108232421Y-76724090D01*
X108050331Y-76618956D01*
X108046588Y-76617405D01*
X108046585Y-76617404D01*
X107953203Y-76578721D01*
X107856076Y-76538487D01*
X107852157Y-76537436D01*
X107852152Y-76537435D01*
X107656909Y-76485111D01*
X107656899Y-76485109D01*
X107652981Y-76484059D01*
X107648951Y-76483528D01*
X107648950Y-76483528D01*
X107448549Y-76457135D01*
X107448537Y-76457134D01*
X107444519Y-76456605D01*
X107440468Y-76456604D01*
X107440457Y-76456604D01*
X107427095Y-76456604D01*
X107427081Y-76456603D01*
X107427068Y-76456600D01*
X107427027Y-76456600D01*
X107339388Y-76456600D01*
X107260551Y-76456596D01*
X107260508Y-76456596D01*
X107260493Y-76456599D01*
X107260476Y-76456600D01*
X106846858Y-76456600D01*
X106786425Y-76440877D01*
X106743946Y-76400210D01*
X106743885Y-76400259D01*
X106743535Y-76399816D01*
X106741318Y-76397694D01*
X106739407Y-76394597D01*
X106735612Y-76388444D01*
X106611556Y-76264388D01*
X106605415Y-76260600D01*
X106605411Y-76260597D01*
X106468380Y-76176077D01*
X106462234Y-76172286D01*
X106452091Y-76168925D01*
X106302125Y-76119231D01*
X106302124Y-76119230D01*
X106295697Y-76117101D01*
X106288964Y-76116413D01*
X106288959Y-76116412D01*
X106196040Y-76106919D01*
X106196023Y-76106918D01*
X106192909Y-76106600D01*
X106189760Y-76106600D01*
X105196040Y-76106600D01*
X105196020Y-76106600D01*
X105192892Y-76106601D01*
X105189760Y-76106920D01*
X105189758Y-76106921D01*
X105096838Y-76116412D01*
X105096828Y-76116413D01*
X105090103Y-76117101D01*
X105083681Y-76119228D01*
X105083676Y-76119230D01*
X104930421Y-76170014D01*
X104930417Y-76170015D01*
X104923566Y-76172286D01*
X104917422Y-76176075D01*
X104917419Y-76176077D01*
X104780391Y-76260596D01*
X104780390Y-76260597D01*
X104774244Y-76264388D01*
X104769537Y-76269094D01*
X104720320Y-76292626D01*
X104665471Y-76292624D01*
X104616260Y-76269092D01*
X104611556Y-76264388D01*
X104565515Y-76235990D01*
X104468380Y-76176077D01*
X104462234Y-76172286D01*
X104455378Y-76170014D01*
X104369987Y-76141718D01*
X104318797Y-76109105D01*
X104289217Y-76056105D01*
X104288613Y-76053852D01*
X104245035Y-75891214D01*
X104114466Y-75532481D01*
X103953128Y-75186493D01*
X103762249Y-74855883D01*
X103543282Y-74543167D01*
X103297893Y-74250726D01*
X103224952Y-74177786D01*
X103224952Y-74177785D01*
X103162921Y-74115754D01*
X103162922Y-74115754D01*
X103107144Y-74059977D01*
X100977516Y-71930348D01*
X103078649Y-71930348D01*
X103086755Y-71941539D01*
X103115617Y-71964003D01*
X103124179Y-71969596D01*
X103333785Y-72083029D01*
X103343139Y-72087132D01*
X103568556Y-72164517D01*
X103578469Y-72167028D01*
X103683763Y-72184598D01*
X103738806Y-72208505D01*
X103776177Y-72255458D01*
X103787124Y-72314461D01*
X103769082Y-72371696D01*
X103720290Y-72451319D01*
X103720287Y-72451325D01*
X103717746Y-72455472D01*
X103715886Y-72459960D01*
X103715883Y-72459968D01*
X103620191Y-72690989D01*
X103618327Y-72695490D01*
X103617192Y-72700214D01*
X103617189Y-72700226D01*
X103558815Y-72943372D01*
X103558813Y-72943378D01*
X103557679Y-72948106D01*
X103557297Y-72952954D01*
X103557297Y-72952957D01*
X103545232Y-73106261D01*
X103537296Y-73207100D01*
X103557679Y-73466094D01*
X103558814Y-73470823D01*
X103558815Y-73470827D01*
X103617189Y-73713973D01*
X103617191Y-73713981D01*
X103618327Y-73718710D01*
X103717746Y-73958728D01*
X103720282Y-73962867D01*
X103720286Y-73962874D01*
X103850942Y-74176086D01*
X103853488Y-74180240D01*
X104022211Y-74377789D01*
X104219760Y-74546512D01*
X104441272Y-74682254D01*
X104681290Y-74781673D01*
X104933906Y-74842321D01*
X105192900Y-74862704D01*
X105451894Y-74842321D01*
X105704510Y-74781673D01*
X105944528Y-74682254D01*
X106166040Y-74546512D01*
X106363589Y-74377789D01*
X106532312Y-74180240D01*
X106668054Y-73958728D01*
X106767473Y-73718710D01*
X106828121Y-73466094D01*
X106848504Y-73207100D01*
X106828121Y-72948106D01*
X106767473Y-72695490D01*
X106668054Y-72455472D01*
X106532312Y-72233960D01*
X106363589Y-72036411D01*
X106166040Y-71867688D01*
X106161889Y-71865144D01*
X106161886Y-71865142D01*
X105948674Y-71734486D01*
X105948667Y-71734482D01*
X105944528Y-71731946D01*
X105940033Y-71730084D01*
X105940031Y-71730083D01*
X105709010Y-71634391D01*
X105704510Y-71632527D01*
X105699781Y-71631391D01*
X105699773Y-71631389D01*
X105456627Y-71573015D01*
X105456623Y-71573014D01*
X105451894Y-71571879D01*
X105447043Y-71571497D01*
X105447042Y-71571497D01*
X105383782Y-71566518D01*
X105328176Y-71548291D01*
X105287120Y-71506593D01*
X105269758Y-71450711D01*
X105279956Y-71393090D01*
X105364427Y-71200514D01*
X105367746Y-71190847D01*
X105426253Y-70959812D01*
X105427937Y-70949718D01*
X105447617Y-70712217D01*
X105447617Y-70701983D01*
X105427937Y-70464481D01*
X105426253Y-70454387D01*
X105367746Y-70223352D01*
X105364427Y-70213685D01*
X105268692Y-69995430D01*
X105263824Y-69986435D01*
X105173902Y-69848799D01*
X105165934Y-69841074D01*
X105156553Y-69846998D01*
X103942900Y-71060653D01*
X103085308Y-71918243D01*
X103078649Y-71930348D01*
X100977516Y-71930348D01*
X100721230Y-71674062D01*
X100691630Y-71626643D01*
X100685863Y-71571042D01*
X100705103Y-71518559D01*
X100764266Y-71428004D01*
X100764267Y-71428000D01*
X100767073Y-71423707D01*
X100866963Y-71195981D01*
X100928008Y-70954921D01*
X100948119Y-70712217D01*
X102438183Y-70712217D01*
X102457862Y-70949718D01*
X102459546Y-70959812D01*
X102518053Y-71190847D01*
X102521372Y-71200514D01*
X102617108Y-71418773D01*
X102621970Y-71427756D01*
X102711899Y-71565404D01*
X102719863Y-71573124D01*
X102729245Y-71567200D01*
X103577804Y-70718642D01*
X103584468Y-70707100D01*
X103577804Y-70695557D01*
X102729245Y-69846998D01*
X102719864Y-69841074D01*
X102711897Y-69848799D01*
X102621972Y-69986438D01*
X102617107Y-69995428D01*
X102521372Y-70213685D01*
X102518053Y-70223352D01*
X102459546Y-70454387D01*
X102457862Y-70464481D01*
X102438183Y-70701983D01*
X102438183Y-70712217D01*
X100948119Y-70712217D01*
X100948543Y-70707100D01*
X100928008Y-70459279D01*
X100866963Y-70218219D01*
X100767073Y-69990493D01*
X100631064Y-69782315D01*
X100462644Y-69599362D01*
X100314233Y-69483849D01*
X103078648Y-69483849D01*
X103085308Y-69495955D01*
X103931357Y-70342004D01*
X103942900Y-70348668D01*
X103954442Y-70342004D01*
X104800490Y-69495955D01*
X104807150Y-69483849D01*
X104799043Y-69472659D01*
X104770186Y-69450199D01*
X104761619Y-69444603D01*
X104552014Y-69331170D01*
X104542660Y-69327067D01*
X104317243Y-69249682D01*
X104307331Y-69247171D01*
X104072256Y-69207944D01*
X104062061Y-69207100D01*
X103823739Y-69207100D01*
X103813543Y-69207944D01*
X103578468Y-69247171D01*
X103568556Y-69249682D01*
X103343139Y-69327067D01*
X103333785Y-69331170D01*
X103124176Y-69444604D01*
X103115617Y-69450196D01*
X103086754Y-69472660D01*
X103078648Y-69483849D01*
X100314233Y-69483849D01*
X100270459Y-69449778D01*
X100270457Y-69449776D01*
X100266409Y-69446626D01*
X100261897Y-69444184D01*
X100052216Y-69330710D01*
X100052210Y-69330707D01*
X100047710Y-69328272D01*
X100042869Y-69326610D01*
X100042862Y-69326607D01*
X99817365Y-69249194D01*
X99817361Y-69249193D01*
X99812514Y-69247529D01*
X99803668Y-69246052D01*
X99572298Y-69207444D01*
X99572287Y-69207443D01*
X99567235Y-69206600D01*
X99318565Y-69206600D01*
X99313513Y-69207443D01*
X99313501Y-69207444D01*
X99078343Y-69246685D01*
X99078341Y-69246685D01*
X99073286Y-69247529D01*
X99068441Y-69249192D01*
X99068434Y-69249194D01*
X98842937Y-69326607D01*
X98842926Y-69326611D01*
X98838090Y-69328272D01*
X98833593Y-69330705D01*
X98833583Y-69330710D01*
X98623902Y-69444184D01*
X98623895Y-69444188D01*
X98619391Y-69446626D01*
X98615348Y-69449772D01*
X98615340Y-69449778D01*
X98427204Y-69596211D01*
X98423156Y-69599362D01*
X98419693Y-69603123D01*
X98419684Y-69603132D01*
X98258211Y-69778539D01*
X98258205Y-69778546D01*
X98254736Y-69782315D01*
X98251931Y-69786606D01*
X98251928Y-69786612D01*
X98121531Y-69986199D01*
X98121524Y-69986211D01*
X98118727Y-69990493D01*
X98116672Y-69995177D01*
X98116666Y-69995189D01*
X98020897Y-70213522D01*
X98018837Y-70218219D01*
X98017579Y-70223184D01*
X98017578Y-70223189D01*
X97959051Y-70454304D01*
X97959049Y-70454313D01*
X97957792Y-70459279D01*
X97957368Y-70464388D01*
X97957367Y-70464398D01*
X97938213Y-70695557D01*
X97937257Y-70707100D01*
X97937681Y-70712217D01*
X97957367Y-70949801D01*
X97957368Y-70949809D01*
X97957792Y-70954921D01*
X97959049Y-70959888D01*
X97959051Y-70959895D01*
X97984567Y-71060653D01*
X98018837Y-71195981D01*
X98020897Y-71200677D01*
X98105315Y-71393132D01*
X98115513Y-71450754D01*
X98098150Y-71506636D01*
X98057094Y-71548333D01*
X98001488Y-71566560D01*
X97938758Y-71571497D01*
X97938756Y-71571497D01*
X97933906Y-71571879D01*
X97929178Y-71573013D01*
X97929172Y-71573015D01*
X97686026Y-71631389D01*
X97686014Y-71631392D01*
X97681290Y-71632527D01*
X97676793Y-71634389D01*
X97676789Y-71634391D01*
X97445768Y-71730083D01*
X97445760Y-71730086D01*
X97441272Y-71731946D01*
X97437137Y-71734479D01*
X97437125Y-71734486D01*
X97223913Y-71865142D01*
X97223903Y-71865148D01*
X97219760Y-71867688D01*
X97216059Y-71870848D01*
X97216052Y-71870854D01*
X97025911Y-72033250D01*
X97025904Y-72033256D01*
X97022211Y-72036411D01*
X97019056Y-72040104D01*
X97019050Y-72040111D01*
X96856654Y-72230252D01*
X96856648Y-72230259D01*
X96853488Y-72233960D01*
X96850948Y-72238103D01*
X96850942Y-72238113D01*
X96720286Y-72451325D01*
X96720279Y-72451337D01*
X96717746Y-72455472D01*
X96715886Y-72459960D01*
X96715883Y-72459968D01*
X96620191Y-72690989D01*
X96618327Y-72695490D01*
X96617192Y-72700214D01*
X96617189Y-72700226D01*
X96558815Y-72943372D01*
X96558813Y-72943378D01*
X96557679Y-72948106D01*
X96557297Y-72952954D01*
X96557297Y-72952957D01*
X96545232Y-73106261D01*
X96537296Y-73207100D01*
X96557679Y-73466094D01*
X96558814Y-73470823D01*
X96558815Y-73470827D01*
X96617189Y-73713973D01*
X96617191Y-73713981D01*
X96618327Y-73718710D01*
X96717746Y-73958728D01*
X96720282Y-73962867D01*
X96720286Y-73962874D01*
X96850942Y-74176086D01*
X96853488Y-74180240D01*
X97022211Y-74377789D01*
X97219760Y-74546512D01*
X97441272Y-74682254D01*
X97681290Y-74781673D01*
X97933906Y-74842321D01*
X98192900Y-74862704D01*
X98451894Y-74842321D01*
X98704510Y-74781673D01*
X98944528Y-74682254D01*
X99166040Y-74546512D01*
X99363589Y-74377789D01*
X99532312Y-74180240D01*
X99668054Y-73958728D01*
X99767473Y-73718710D01*
X99828121Y-73466094D01*
X99848050Y-73212865D01*
X99872799Y-73147756D01*
X99928748Y-73106261D01*
X99998241Y-73101478D01*
X100059348Y-73134916D01*
X102045779Y-75121346D01*
X102045781Y-75121349D01*
X102099403Y-75174971D01*
X102103600Y-75179379D01*
X102286661Y-75381355D01*
X102294381Y-75390761D01*
X102454956Y-75607270D01*
X102461716Y-75617388D01*
X102600286Y-75848576D01*
X102606023Y-75859308D01*
X102668784Y-75992005D01*
X102680374Y-76053852D01*
X102660115Y-76113426D01*
X102613223Y-76155385D01*
X102551773Y-76168925D01*
X102500347Y-76153231D01*
X102499716Y-76154586D01*
X102480167Y-76145470D01*
X102327025Y-76094724D01*
X102313858Y-76091905D01*
X102221009Y-76082419D01*
X102214732Y-76082100D01*
X101959226Y-76082100D01*
X101946350Y-76085550D01*
X101942900Y-76098426D01*
X101942900Y-77295600D01*
X101926287Y-77357600D01*
X101880900Y-77402987D01*
X101818900Y-77419600D01*
X100484227Y-77419600D01*
X100471351Y-77423050D01*
X100467901Y-77435926D01*
X100467901Y-77553929D01*
X100468221Y-77560211D01*
X100477705Y-77653059D01*
X100480523Y-77666222D01*
X100531270Y-77819367D01*
X100537332Y-77832366D01*
X100621790Y-77969294D01*
X100630694Y-77980555D01*
X100744444Y-78094305D01*
X100761371Y-78107690D01*
X100760163Y-78109217D01*
X100795729Y-78146362D01*
X100811459Y-78206789D01*
X100795745Y-78267222D01*
X100759910Y-78304666D01*
X100761057Y-78306116D01*
X100755386Y-78310599D01*
X100749244Y-78314388D01*
X100744142Y-78319489D01*
X100744138Y-78319493D01*
X100643351Y-78420281D01*
X100603123Y-78447161D01*
X100555670Y-78456600D01*
X100502744Y-78456600D01*
X100502635Y-78456612D01*
X100502387Y-78456619D01*
X100445422Y-78456617D01*
X100445418Y-78456617D01*
X100441361Y-78456617D01*
X100437347Y-78457145D01*
X100437335Y-78457146D01*
X100236907Y-78483523D01*
X100236902Y-78483523D01*
X100232882Y-78484053D01*
X100228961Y-78485103D01*
X100228958Y-78485104D01*
X100033682Y-78537419D01*
X100033679Y-78537419D01*
X100029767Y-78538468D01*
X100026032Y-78540014D01*
X100026020Y-78540019D01*
X100008772Y-78547163D01*
X99961324Y-78556600D01*
X99848254Y-78556600D01*
X99841895Y-78557951D01*
X99841891Y-78557952D01*
X99669459Y-78594603D01*
X99669452Y-78594605D01*
X99663097Y-78595956D01*
X99657162Y-78598598D01*
X99657154Y-78598601D01*
X99496107Y-78670305D01*
X99496102Y-78670307D01*
X99490170Y-78672949D01*
X99484916Y-78676765D01*
X99484911Y-78676769D01*
X99342288Y-78780390D01*
X99342281Y-78780395D01*
X99337029Y-78784212D01*
X99332684Y-78789037D01*
X99332679Y-78789042D01*
X99214713Y-78920056D01*
X99214708Y-78920062D01*
X99210367Y-78924884D01*
X99207122Y-78930504D01*
X99207118Y-78930510D01*
X99118969Y-79083189D01*
X99118966Y-79083194D01*
X99115721Y-79088816D01*
X99113715Y-79094988D01*
X99113713Y-79094994D01*
X99059233Y-79262664D01*
X99059231Y-79262673D01*
X99057226Y-79268844D01*
X99056548Y-79275294D01*
X99056546Y-79275304D01*
X99038862Y-79443564D01*
X99037440Y-79457100D01*
X99038119Y-79463560D01*
X99056546Y-79638895D01*
X99056547Y-79638903D01*
X99057226Y-79645356D01*
X99059231Y-79651528D01*
X99059233Y-79651535D01*
X99080285Y-79716325D01*
X99115721Y-79825384D01*
X99118968Y-79831008D01*
X99118969Y-79831010D01*
X99148918Y-79882884D01*
X99210367Y-79989316D01*
X99214711Y-79994141D01*
X99214713Y-79994143D01*
X99329452Y-80121573D01*
X99337029Y-80129988D01*
X99342287Y-80133808D01*
X99342288Y-80133809D01*
X99375818Y-80158170D01*
X99490170Y-80241251D01*
X99663097Y-80318244D01*
X99848254Y-80357600D01*
X100031043Y-80357600D01*
X100037546Y-80357600D01*
X100222703Y-80318244D01*
X100395630Y-80241251D01*
X100548771Y-80129988D01*
X100549496Y-80130986D01*
X100597818Y-80105828D01*
X100659894Y-80107451D01*
X100713399Y-80138967D01*
X100749244Y-80174812D01*
X100755385Y-80178600D01*
X100755388Y-80178602D01*
X100812458Y-80213802D01*
X100898566Y-80266914D01*
X101065103Y-80322099D01*
X101167891Y-80332600D01*
X102217908Y-80332599D01*
X102320697Y-80322099D01*
X102487234Y-80266914D01*
X102636556Y-80174812D01*
X102641667Y-80169700D01*
X102645786Y-80166444D01*
X102690602Y-80143935D01*
X102740668Y-80141018D01*
X102787794Y-80158170D01*
X102839135Y-80189837D01*
X102923566Y-80241914D01*
X103090103Y-80297099D01*
X103192891Y-80307600D01*
X104192908Y-80307599D01*
X104295697Y-80297099D01*
X104462234Y-80241914D01*
X104611556Y-80149812D01*
X104616259Y-80145108D01*
X104665469Y-80121575D01*
X104720322Y-80121573D01*
X104769537Y-80145105D01*
X104774244Y-80149812D01*
X104923566Y-80241914D01*
X105090103Y-80297099D01*
X105192891Y-80307600D01*
X106192908Y-80307599D01*
X106295697Y-80297099D01*
X106462234Y-80241914D01*
X106611556Y-80149812D01*
X106735612Y-80025756D01*
X106827714Y-79876434D01*
X106882899Y-79709897D01*
X106893400Y-79607109D01*
X106893399Y-78807092D01*
X106882899Y-78704303D01*
X106827714Y-78537766D01*
X106735612Y-78388444D01*
X106641949Y-78294781D01*
X106609855Y-78239194D01*
X106609855Y-78175006D01*
X106641949Y-78119419D01*
X106682973Y-78078395D01*
X106735612Y-78025756D01*
X106740552Y-78017745D01*
X106741318Y-78016506D01*
X106743535Y-78014383D01*
X106743885Y-78013941D01*
X106743946Y-78013989D01*
X106786425Y-77973323D01*
X106846858Y-77957600D01*
X107330669Y-77957600D01*
X107378122Y-77967039D01*
X107418350Y-77993918D01*
X107554360Y-78129927D01*
X107562532Y-78138944D01*
X107607702Y-78193984D01*
X107621207Y-78214195D01*
X107651886Y-78271590D01*
X107661189Y-78294049D01*
X107680083Y-78356334D01*
X107684825Y-78380174D01*
X107691803Y-78451019D01*
X107692400Y-78463174D01*
X107692400Y-79317566D01*
X107692399Y-79317571D01*
X107692399Y-79317579D01*
X107692399Y-79317580D01*
X107692399Y-79396394D01*
X107692392Y-79396452D01*
X107692384Y-79396452D01*
X107692384Y-79396514D01*
X107692384Y-79396515D01*
X107692386Y-79556069D01*
X107692386Y-79556088D01*
X107692387Y-79559118D01*
X107692684Y-79562137D01*
X107692685Y-79562149D01*
X107723981Y-79879863D01*
X107724279Y-79882884D01*
X107724870Y-79885856D01*
X107724872Y-79885868D01*
X107749752Y-80010942D01*
X107746796Y-80071129D01*
X107715816Y-80122815D01*
X106622193Y-81216437D01*
X106616272Y-81221984D01*
X106461814Y-81357442D01*
X106448945Y-81367316D01*
X106281512Y-81479191D01*
X106267465Y-81487301D01*
X106086861Y-81576366D01*
X106071876Y-81582573D01*
X105881198Y-81647300D01*
X105865531Y-81651498D01*
X105668035Y-81690783D01*
X105651953Y-81692901D01*
X105446989Y-81706335D01*
X105438879Y-81706600D01*
X103063404Y-81706600D01*
X103063370Y-81706603D01*
X103063304Y-81706605D01*
X102925280Y-81706605D01*
X102922585Y-81706840D01*
X102922579Y-81706841D01*
X102565692Y-81738063D01*
X102565670Y-81738065D01*
X102562994Y-81738300D01*
X102560338Y-81738768D01*
X102560325Y-81738770D01*
X102207505Y-81800980D01*
X102207493Y-81800982D01*
X102204848Y-81801449D01*
X102202259Y-81802142D01*
X102202244Y-81802146D01*
X101856186Y-81894871D01*
X101856175Y-81894874D01*
X101853568Y-81895573D01*
X101851034Y-81896495D01*
X101851019Y-81896500D01*
X101514365Y-82019031D01*
X101514345Y-82019039D01*
X101511829Y-82019955D01*
X101509394Y-82021090D01*
X101509383Y-82021095D01*
X101184689Y-82172502D01*
X101184665Y-82172514D01*
X101182232Y-82173649D01*
X101179895Y-82174997D01*
X101179882Y-82175005D01*
X100869617Y-82354135D01*
X100869592Y-82354150D01*
X100867283Y-82355484D01*
X100865085Y-82357022D01*
X100865074Y-82357030D01*
X100571589Y-82562529D01*
X100571574Y-82562539D01*
X100569381Y-82564076D01*
X100567331Y-82565795D01*
X100567322Y-82565803D01*
X100292856Y-82796107D01*
X100292843Y-82796118D01*
X100290793Y-82797839D01*
X100288891Y-82799740D01*
X100288880Y-82799751D01*
X100106485Y-82982146D01*
X100106474Y-82982157D01*
X100106439Y-82982193D01*
X100106430Y-82982205D01*
X100106410Y-82982228D01*
X99962269Y-83126370D01*
X99962251Y-83126388D01*
X99961056Y-83127584D01*
X99959931Y-83128842D01*
X99959911Y-83128864D01*
X99583064Y-83550557D01*
X99583052Y-83550570D01*
X99581919Y-83551839D01*
X99580855Y-83553172D01*
X99580845Y-83553185D01*
X99228247Y-83995328D01*
X99228224Y-83995358D01*
X99227167Y-83996684D01*
X99226162Y-83998099D01*
X99226157Y-83998107D01*
X99043248Y-84255893D01*
X98897915Y-84460720D01*
X98897001Y-84462173D01*
X98896984Y-84462200D01*
X98604095Y-84928331D01*
X98595200Y-84942488D01*
X98594370Y-84943989D01*
X98594361Y-84944005D01*
X98320809Y-85438958D01*
X98320791Y-85438991D01*
X98319974Y-85440471D01*
X98319226Y-85442023D01*
X98319223Y-85442030D01*
X98073854Y-85951542D01*
X98073844Y-85951563D01*
X98073103Y-85953103D01*
X98072443Y-85954695D01*
X98072440Y-85954703D01*
X97856021Y-86477182D01*
X97856011Y-86477205D01*
X97855364Y-86478770D01*
X97854810Y-86480352D01*
X97854799Y-86480382D01*
X97695415Y-86935876D01*
X97667442Y-87015819D01*
X97666968Y-87017461D01*
X97666968Y-87017464D01*
X97510406Y-87560898D01*
X97510396Y-87560934D01*
X97509928Y-87562561D01*
X97509550Y-87564216D01*
X97509541Y-87564252D01*
X97421201Y-87951297D01*
X97383318Y-88117273D01*
X97383028Y-88118974D01*
X97383028Y-88118979D01*
X97288300Y-88676502D01*
X97288296Y-88676526D01*
X97288010Y-88678213D01*
X97287815Y-88679935D01*
X97287815Y-88679942D01*
X97224500Y-89241866D01*
X97224497Y-89241895D01*
X97224304Y-89243613D01*
X97224207Y-89245331D01*
X97224205Y-89245361D01*
X97192497Y-89809971D01*
X97192496Y-89810004D01*
X97192401Y-89811697D01*
X97192400Y-89813390D01*
X97192400Y-89813426D01*
X97192400Y-97550133D01*
X97192388Y-97550213D01*
X97192382Y-97550196D01*
X97192381Y-97550254D01*
X97192381Y-97550261D01*
X97192381Y-97765092D01*
X97192381Y-97903878D01*
X97192454Y-97905374D01*
X97192455Y-97905394D01*
X97227015Y-98608866D01*
X97227090Y-98610390D01*
X97227236Y-98611875D01*
X97227239Y-98611912D01*
X97296276Y-99312849D01*
X97296424Y-99314348D01*
X97296644Y-99315837D01*
X97296645Y-99315838D01*
X97399990Y-100012544D01*
X97399993Y-100012566D01*
X97400215Y-100014057D01*
X97400508Y-100015534D01*
X97400514Y-100015564D01*
X97527649Y-100654711D01*
X97538215Y-100707829D01*
X97538578Y-100709281D01*
X97538585Y-100709309D01*
X97709720Y-101392521D01*
X97709728Y-101392550D01*
X97710090Y-101393995D01*
X97719641Y-101425480D01*
X97914986Y-102069448D01*
X97914992Y-102069467D01*
X97915427Y-102070900D01*
X97915934Y-102072319D01*
X97915943Y-102072344D01*
X98083825Y-102541542D01*
X98153731Y-102736915D01*
X98154309Y-102738310D01*
X98154310Y-102738313D01*
X98416498Y-103371294D01*
X98424427Y-103390435D01*
X98425073Y-103391802D01*
X98425078Y-103391812D01*
X98726211Y-104028506D01*
X98726223Y-104028531D01*
X98726864Y-104029885D01*
X98727583Y-104031231D01*
X98727589Y-104031242D01*
X99056710Y-104646985D01*
X99060313Y-104653724D01*
X99061097Y-104655032D01*
X99423184Y-105259139D01*
X99423195Y-105259157D01*
X99423971Y-105260451D01*
X99424819Y-105261720D01*
X99697547Y-105669888D01*
X99816961Y-105848603D01*
X99817833Y-105849779D01*
X99817848Y-105849800D01*
X100072771Y-106193524D01*
X100238337Y-106416764D01*
X100687084Y-106963564D01*
X101162121Y-107487687D01*
X101163209Y-107488775D01*
X101356429Y-107681995D01*
X101356436Y-107682003D01*
X101356439Y-107682007D01*
X101356449Y-107682017D01*
X101356450Y-107682018D01*
X101410491Y-107736059D01*
X101413866Y-107739569D01*
X101687362Y-108035435D01*
X101693685Y-108042838D01*
X101941617Y-108357338D01*
X101947340Y-108365215D01*
X102020490Y-108474692D01*
X102099289Y-108592623D01*
X102169834Y-108698200D01*
X102174921Y-108706502D01*
X102370593Y-109055899D01*
X102375014Y-109064574D01*
X102542680Y-109428268D01*
X102546406Y-109437263D01*
X102685022Y-109812993D01*
X102688030Y-109822253D01*
X102796732Y-110207679D01*
X102799005Y-110217146D01*
X102871198Y-110580079D01*
X102872742Y-110589873D01*
X102876447Y-110621572D01*
X102877591Y-110631355D01*
X102880037Y-110638075D01*
X102882495Y-110651963D01*
X102925730Y-111017236D01*
X102926494Y-111026943D01*
X102929267Y-111097522D01*
X102914025Y-111162128D01*
X102867644Y-111209614D01*
X102803415Y-111226375D01*
X102739745Y-111207605D01*
X102694878Y-111158685D01*
X102566777Y-110907273D01*
X102565303Y-110904380D01*
X102359763Y-110587875D01*
X102122265Y-110294589D01*
X101855411Y-110027735D01*
X101562125Y-109790237D01*
X101245621Y-109584697D01*
X101242733Y-109583225D01*
X101242727Y-109583222D01*
X100912257Y-109414839D01*
X100912248Y-109414835D01*
X100909365Y-109413366D01*
X100906333Y-109412202D01*
X100560066Y-109279282D01*
X100560058Y-109279279D01*
X100557043Y-109278122D01*
X100553918Y-109277284D01*
X100553913Y-109277283D01*
X100195646Y-109181286D01*
X100195637Y-109181284D01*
X100192513Y-109180447D01*
X100189317Y-109179940D01*
X100189304Y-109179938D01*
X99822976Y-109121917D01*
X99822964Y-109121915D01*
X99819771Y-109121410D01*
X99816538Y-109121240D01*
X99816533Y-109121240D01*
X99446144Y-109101829D01*
X99442900Y-109101659D01*
X99439656Y-109101829D01*
X99069266Y-109121240D01*
X99069259Y-109121240D01*
X99066029Y-109121410D01*
X99062837Y-109121915D01*
X99062823Y-109121917D01*
X98696495Y-109179938D01*
X98696478Y-109179941D01*
X98693287Y-109180447D01*
X98690166Y-109181283D01*
X98690153Y-109181286D01*
X98331886Y-109277283D01*
X98331875Y-109277286D01*
X98328757Y-109278122D01*
X98325746Y-109279277D01*
X98325733Y-109279282D01*
X97979466Y-109412202D01*
X97979457Y-109412205D01*
X97976435Y-109413366D01*
X97973558Y-109414831D01*
X97973542Y-109414839D01*
X97643073Y-109583222D01*
X97643059Y-109583229D01*
X97640180Y-109584697D01*
X97637460Y-109586463D01*
X97637452Y-109586468D01*
X97326403Y-109788465D01*
X97326397Y-109788468D01*
X97323675Y-109790237D01*
X97321155Y-109792277D01*
X97321149Y-109792282D01*
X97032907Y-110025695D01*
X97032896Y-110025704D01*
X97030389Y-110027735D01*
X97028104Y-110030019D01*
X97028094Y-110030029D01*
X96765829Y-110292294D01*
X96765819Y-110292304D01*
X96763535Y-110294589D01*
X96761504Y-110297096D01*
X96761495Y-110297107D01*
X96528082Y-110585349D01*
X96528077Y-110585355D01*
X96526037Y-110587875D01*
X96524268Y-110590597D01*
X96524265Y-110590603D01*
X96322268Y-110901652D01*
X96322263Y-110901660D01*
X96320497Y-110904380D01*
X96319029Y-110907259D01*
X96319022Y-110907273D01*
X96150639Y-111237742D01*
X96150631Y-111237758D01*
X96149166Y-111240635D01*
X96148005Y-111243657D01*
X96148002Y-111243666D01*
X96015082Y-111589933D01*
X96015077Y-111589946D01*
X96013922Y-111592957D01*
X96013086Y-111596075D01*
X96013083Y-111596086D01*
X95937175Y-111879382D01*
X95908822Y-111931062D01*
X95859811Y-111963811D01*
X95801215Y-111970228D01*
X95746277Y-111948864D01*
X95707411Y-111904546D01*
X95693400Y-111847289D01*
X95693400Y-76903274D01*
X100467900Y-76903274D01*
X100471350Y-76916149D01*
X100484226Y-76919600D01*
X101426574Y-76919600D01*
X101439449Y-76916149D01*
X101442900Y-76903274D01*
X101442900Y-76098427D01*
X101439449Y-76085551D01*
X101426574Y-76082101D01*
X101171071Y-76082101D01*
X101164788Y-76082421D01*
X101071940Y-76091905D01*
X101058777Y-76094723D01*
X100905632Y-76145470D01*
X100892633Y-76151532D01*
X100755705Y-76235990D01*
X100744444Y-76244894D01*
X100630694Y-76358644D01*
X100621790Y-76369905D01*
X100537332Y-76506833D01*
X100531270Y-76519832D01*
X100480524Y-76672974D01*
X100477705Y-76686141D01*
X100468219Y-76778990D01*
X100467900Y-76785268D01*
X100467900Y-76903274D01*
X95693400Y-76903274D01*
X95693400Y-68508670D01*
X95702839Y-68461217D01*
X95729719Y-68420989D01*
X97656788Y-66493919D01*
X97697016Y-66467039D01*
X97744469Y-66457600D01*
X108568400Y-66457600D01*
X108630400Y-66474213D01*
G37*
%TD.AperFunction*%
%TA.AperFunction,Conductor*%
G36*
X111770209Y-106368023D02*
G01*
X111825092Y-106400549D01*
X111856539Y-106456057D01*
X111856228Y-106519853D01*
X111824239Y-106575051D01*
X110879580Y-107519710D01*
X110830217Y-107549960D01*
X110772501Y-107554502D01*
X110719014Y-107532347D01*
X110681414Y-107488324D01*
X110667899Y-107432029D01*
X110667899Y-107285271D01*
X110667578Y-107278988D01*
X110658094Y-107186140D01*
X110655276Y-107172977D01*
X110604529Y-107019832D01*
X110598467Y-107006833D01*
X110514009Y-106869905D01*
X110505105Y-106858644D01*
X110391355Y-106744894D01*
X110380088Y-106735985D01*
X110300895Y-106687138D01*
X110257191Y-106641084D01*
X110242011Y-106579436D01*
X110259333Y-106518355D01*
X110304618Y-106473854D01*
X110365992Y-106457600D01*
X110986472Y-106457600D01*
X110986609Y-106457600D01*
X110986654Y-106457594D01*
X110986746Y-106457592D01*
X111094092Y-106457592D01*
X111097142Y-106457592D01*
X111404140Y-106427355D01*
X111706696Y-106367174D01*
X111706950Y-106367096D01*
X111770209Y-106368023D01*
G37*
%TD.AperFunction*%
%TA.AperFunction,Conductor*%
G36*
X108483966Y-81575196D02*
G01*
X108539961Y-81613948D01*
X108547194Y-81622761D01*
X108574347Y-81649913D01*
X108600184Y-81675750D01*
X108600188Y-81675755D01*
X108662213Y-81737780D01*
X108662216Y-81737784D01*
X108717993Y-81793561D01*
X108717995Y-81793562D01*
X109708417Y-82783984D01*
X109708419Y-82783988D01*
X109708426Y-82783995D01*
X109708427Y-82783996D01*
X109761720Y-82837288D01*
X109766499Y-82842342D01*
X109918756Y-83012714D01*
X109932588Y-83028191D01*
X109941258Y-83039063D01*
X110083462Y-83239478D01*
X110090860Y-83251252D01*
X110209729Y-83466324D01*
X110215763Y-83478853D01*
X110223947Y-83498611D01*
X110233386Y-83546059D01*
X110223951Y-83593508D01*
X110199792Y-83629671D01*
X110200163Y-83629983D01*
X110197324Y-83633365D01*
X110197078Y-83633735D01*
X110196685Y-83634127D01*
X110196674Y-83634139D01*
X110192853Y-83637961D01*
X110189751Y-83642390D01*
X110189746Y-83642397D01*
X110065440Y-83819926D01*
X110065435Y-83819933D01*
X110062332Y-83824366D01*
X110060043Y-83829273D01*
X110060041Y-83829278D01*
X110055281Y-83839486D01*
X110009524Y-83891660D01*
X109942900Y-83911079D01*
X109876276Y-83891660D01*
X109830519Y-83839486D01*
X109826734Y-83831370D01*
X109823468Y-83824366D01*
X109692947Y-83637961D01*
X109532039Y-83477053D01*
X109345634Y-83346532D01*
X109281045Y-83316413D01*
X109144305Y-83252650D01*
X109144303Y-83252649D01*
X109139396Y-83250361D01*
X109134171Y-83248961D01*
X109134163Y-83248958D01*
X108924816Y-83192864D01*
X108924807Y-83192862D01*
X108919592Y-83191465D01*
X108914204Y-83190993D01*
X108914201Y-83190993D01*
X108698295Y-83172104D01*
X108692900Y-83171632D01*
X108687505Y-83172104D01*
X108471598Y-83190993D01*
X108471593Y-83190993D01*
X108466208Y-83191465D01*
X108460994Y-83192862D01*
X108460983Y-83192864D01*
X108251636Y-83248958D01*
X108251624Y-83248962D01*
X108246404Y-83250361D01*
X108241499Y-83252647D01*
X108241494Y-83252650D01*
X108045076Y-83344242D01*
X108045072Y-83344244D01*
X108040166Y-83346532D01*
X108035736Y-83349634D01*
X108035726Y-83349640D01*
X107858196Y-83473947D01*
X107858191Y-83473950D01*
X107853761Y-83477053D01*
X107849937Y-83480876D01*
X107849931Y-83480882D01*
X107696682Y-83634131D01*
X107696676Y-83634137D01*
X107692853Y-83637961D01*
X107689750Y-83642391D01*
X107689747Y-83642396D01*
X107565440Y-83819926D01*
X107565435Y-83819933D01*
X107562332Y-83824366D01*
X107560042Y-83829275D01*
X107560040Y-83829280D01*
X107555004Y-83840079D01*
X107509246Y-83892253D01*
X107442621Y-83911670D01*
X107375997Y-83892249D01*
X107330241Y-83840074D01*
X107325320Y-83829522D01*
X107319925Y-83820177D01*
X107279714Y-83762750D01*
X107271603Y-83755317D01*
X107262324Y-83761228D01*
X106557995Y-84465557D01*
X106551331Y-84477100D01*
X106557995Y-84488642D01*
X107262321Y-85192967D01*
X107271603Y-85198880D01*
X107279714Y-85191448D01*
X107319926Y-85134020D01*
X107325320Y-85124678D01*
X107330240Y-85114128D01*
X107375996Y-85061950D01*
X107442621Y-85042529D01*
X107509247Y-85061947D01*
X107555005Y-85114123D01*
X107560038Y-85124917D01*
X107560043Y-85124927D01*
X107562332Y-85129834D01*
X107692853Y-85316239D01*
X107853761Y-85477147D01*
X108040166Y-85607668D01*
X108246404Y-85703839D01*
X108466208Y-85762735D01*
X108692900Y-85782568D01*
X108919592Y-85762735D01*
X109139396Y-85703839D01*
X109345634Y-85607668D01*
X109532039Y-85477147D01*
X109692947Y-85316239D01*
X109823468Y-85129834D01*
X109830517Y-85114716D01*
X109876275Y-85062540D01*
X109942900Y-85043120D01*
X110009525Y-85062540D01*
X110055282Y-85114716D01*
X110060039Y-85124919D01*
X110060044Y-85124928D01*
X110062332Y-85129834D01*
X110192853Y-85316239D01*
X110353761Y-85477147D01*
X110540166Y-85607668D01*
X110746404Y-85703839D01*
X110966208Y-85762735D01*
X111192900Y-85782568D01*
X111419592Y-85762735D01*
X111639396Y-85703839D01*
X111845634Y-85607668D01*
X112032039Y-85477147D01*
X112137747Y-85371437D01*
X112189433Y-85340458D01*
X112249618Y-85337501D01*
X112433161Y-85374010D01*
X112442621Y-85376281D01*
X112836294Y-85487309D01*
X112845547Y-85490315D01*
X113229300Y-85631888D01*
X113238289Y-85635611D01*
X113557059Y-85782568D01*
X113609757Y-85806862D01*
X113618409Y-85811270D01*
X113975320Y-86011150D01*
X113983585Y-86016215D01*
X114086543Y-86085010D01*
X114323691Y-86243468D01*
X114331565Y-86249188D01*
X114594834Y-86456733D01*
X114634816Y-86512336D01*
X114639184Y-86580684D01*
X114606605Y-86640925D01*
X114547015Y-86674684D01*
X114526685Y-86679565D01*
X114517443Y-86682568D01*
X114293773Y-86775215D01*
X114285110Y-86779629D01*
X114083426Y-86903221D01*
X114079176Y-86909580D01*
X114085848Y-86921494D01*
X115017900Y-87853547D01*
X116303514Y-89139160D01*
X116316761Y-89146583D01*
X116337163Y-89145794D01*
X116390950Y-89155791D01*
X116435201Y-89187961D01*
X116461300Y-89236042D01*
X116523722Y-89457372D01*
X116525995Y-89466840D01*
X116562502Y-89650373D01*
X116559546Y-89710559D01*
X116528567Y-89762244D01*
X116426686Y-89864126D01*
X116426675Y-89864138D01*
X116422853Y-89867961D01*
X116419751Y-89872390D01*
X116419746Y-89872397D01*
X116295440Y-90049926D01*
X116295435Y-90049933D01*
X116292332Y-90054366D01*
X116290044Y-90059272D01*
X116290042Y-90059276D01*
X116198450Y-90255694D01*
X116198447Y-90255699D01*
X116196161Y-90260604D01*
X116194762Y-90265824D01*
X116194758Y-90265836D01*
X116138664Y-90475183D01*
X116138662Y-90475194D01*
X116137265Y-90480408D01*
X116136793Y-90485793D01*
X116136793Y-90485798D01*
X116117904Y-90701705D01*
X116117432Y-90707100D01*
X116137265Y-90933792D01*
X116138662Y-90939007D01*
X116138664Y-90939016D01*
X116194758Y-91148363D01*
X116194761Y-91148371D01*
X116196161Y-91153596D01*
X116198449Y-91158503D01*
X116198450Y-91158505D01*
X116225988Y-91217560D01*
X116292332Y-91359834D01*
X116295439Y-91364271D01*
X116295440Y-91364273D01*
X116315431Y-91392823D01*
X116422853Y-91546239D01*
X116583761Y-91707147D01*
X116770166Y-91837668D01*
X116780960Y-91842701D01*
X116785286Y-91844719D01*
X116837460Y-91890476D01*
X116856879Y-91957100D01*
X116837460Y-92023724D01*
X116785286Y-92069481D01*
X116775078Y-92074241D01*
X116775073Y-92074243D01*
X116770166Y-92076532D01*
X116765733Y-92079635D01*
X116765726Y-92079640D01*
X116588196Y-92203947D01*
X116588191Y-92203950D01*
X116583761Y-92207053D01*
X116579937Y-92210876D01*
X116579931Y-92210882D01*
X116426682Y-92364131D01*
X116426676Y-92364137D01*
X116422853Y-92367961D01*
X116419750Y-92372391D01*
X116419747Y-92372396D01*
X116295440Y-92549926D01*
X116295435Y-92549933D01*
X116292332Y-92554366D01*
X116290044Y-92559272D01*
X116290042Y-92559276D01*
X116198450Y-92755694D01*
X116198447Y-92755699D01*
X116196161Y-92760604D01*
X116194762Y-92765824D01*
X116194758Y-92765836D01*
X116138664Y-92975183D01*
X116138662Y-92975194D01*
X116137265Y-92980408D01*
X116117432Y-93207100D01*
X116117904Y-93212495D01*
X116136298Y-93422746D01*
X116137265Y-93433792D01*
X116138662Y-93439007D01*
X116138664Y-93439016D01*
X116194758Y-93648363D01*
X116194761Y-93648371D01*
X116196161Y-93653596D01*
X116198449Y-93658503D01*
X116198450Y-93658505D01*
X116261423Y-93793550D01*
X116292332Y-93859834D01*
X116422853Y-94046239D01*
X116583761Y-94207147D01*
X116770166Y-94337668D01*
X116785873Y-94344992D01*
X116838049Y-94390748D01*
X116857470Y-94457372D01*
X116838053Y-94523996D01*
X116785880Y-94569755D01*
X116775324Y-94574677D01*
X116765981Y-94580071D01*
X116708551Y-94620283D01*
X116701117Y-94628396D01*
X116707028Y-94637674D01*
X117411357Y-95342003D01*
X117422900Y-95348667D01*
X117434442Y-95342003D01*
X118138770Y-94637674D01*
X118144681Y-94628395D01*
X118137248Y-94620284D01*
X118079822Y-94580074D01*
X118070470Y-94574675D01*
X118059922Y-94569756D01*
X118007747Y-94523998D01*
X117988329Y-94457372D01*
X118007751Y-94390747D01*
X118059925Y-94344992D01*
X118075634Y-94337668D01*
X118262039Y-94207147D01*
X118422947Y-94046239D01*
X118553468Y-93859834D01*
X118649639Y-93653596D01*
X118708535Y-93433792D01*
X118728368Y-93207100D01*
X118708535Y-92980408D01*
X118694749Y-92928959D01*
X118651041Y-92765836D01*
X118651040Y-92765834D01*
X118649639Y-92760604D01*
X118553468Y-92554366D01*
X118422947Y-92367961D01*
X118262039Y-92207053D01*
X118086081Y-92083847D01*
X118080073Y-92079640D01*
X118080071Y-92079639D01*
X118075634Y-92076532D01*
X118070728Y-92074244D01*
X118070719Y-92074239D01*
X118060516Y-92069482D01*
X118008340Y-92023725D01*
X117988920Y-91957100D01*
X118008340Y-91890475D01*
X118060516Y-91844718D01*
X118070719Y-91839960D01*
X118070719Y-91839959D01*
X118075634Y-91837668D01*
X118262039Y-91707147D01*
X118422947Y-91546239D01*
X118553468Y-91359834D01*
X118649639Y-91153596D01*
X118708535Y-90933792D01*
X118728368Y-90707100D01*
X118708535Y-90480408D01*
X118676160Y-90359583D01*
X118651041Y-90265836D01*
X118651040Y-90265834D01*
X118649639Y-90260604D01*
X118553468Y-90054366D01*
X118422947Y-89867961D01*
X118262039Y-89707053D01*
X118158522Y-89634570D01*
X118125722Y-89611603D01*
X118091221Y-89574985D01*
X118074107Y-89527675D01*
X118069103Y-89492871D01*
X117965334Y-89015850D01*
X117827798Y-88547448D01*
X117657197Y-88090051D01*
X117591398Y-87945972D01*
X117581216Y-87878571D01*
X117608199Y-87815970D01*
X117664195Y-87777091D01*
X117732279Y-87773686D01*
X117791874Y-87806782D01*
X119656081Y-89670989D01*
X119682961Y-89711217D01*
X119692400Y-89758670D01*
X119692400Y-98655530D01*
X119682961Y-98702983D01*
X119656081Y-98743211D01*
X114616231Y-103783059D01*
X114561538Y-103814910D01*
X114498251Y-103815619D01*
X114442857Y-103785004D01*
X114409788Y-103731039D01*
X114407659Y-103667787D01*
X114412274Y-103647568D01*
X114443401Y-103371294D01*
X114443400Y-103232283D01*
X114443400Y-103195243D01*
X114443400Y-102413391D01*
X114443392Y-102413328D01*
X114443389Y-102413202D01*
X114443389Y-102268805D01*
X114443389Y-102266360D01*
X114413459Y-101886057D01*
X114353783Y-101509274D01*
X114264729Y-101138334D01*
X114146846Y-100775525D01*
X114000862Y-100423084D01*
X113827675Y-100083183D01*
X113628354Y-99757917D01*
X113444325Y-99504620D01*
X114079170Y-99504620D01*
X114083404Y-99510965D01*
X114285110Y-99634570D01*
X114293773Y-99638984D01*
X114517443Y-99731631D01*
X114526680Y-99734633D01*
X114762097Y-99791151D01*
X114771683Y-99792669D01*
X115013046Y-99811666D01*
X115022754Y-99811666D01*
X115264116Y-99792669D01*
X115273702Y-99791151D01*
X115509119Y-99734633D01*
X115518356Y-99731631D01*
X115742026Y-99638984D01*
X115750689Y-99634570D01*
X115952409Y-99510956D01*
X115956632Y-99504622D01*
X115949960Y-99492714D01*
X115029442Y-98572195D01*
X115017900Y-98565531D01*
X115006357Y-98572195D01*
X114085842Y-99492710D01*
X114079170Y-99504620D01*
X113444325Y-99504620D01*
X113404127Y-99449292D01*
X113346679Y-99382028D01*
X113320219Y-99329694D01*
X113320764Y-99271057D01*
X113329034Y-99238405D01*
X113348200Y-99007100D01*
X113346397Y-98985343D01*
X113360194Y-98917445D01*
X113408268Y-98867547D01*
X113475608Y-98851232D01*
X113541188Y-98873593D01*
X113584533Y-98927649D01*
X113586013Y-98931223D01*
X113590429Y-98939889D01*
X113714032Y-99141591D01*
X113720378Y-99145827D01*
X113732289Y-99139155D01*
X114652803Y-98218642D01*
X114659466Y-98207100D01*
X115376331Y-98207100D01*
X115382995Y-98218642D01*
X116303514Y-99139160D01*
X116315422Y-99145832D01*
X116321756Y-99141609D01*
X116445370Y-98939889D01*
X116449784Y-98931226D01*
X116542431Y-98707556D01*
X116545433Y-98698319D01*
X116601951Y-98462902D01*
X116603469Y-98453316D01*
X116622466Y-98211954D01*
X116622466Y-98202246D01*
X116603469Y-97960883D01*
X116601951Y-97951297D01*
X116545433Y-97715880D01*
X116542431Y-97706643D01*
X116449784Y-97482973D01*
X116445370Y-97474310D01*
X116321765Y-97272604D01*
X116315420Y-97268370D01*
X116303510Y-97275042D01*
X115382995Y-98195557D01*
X115376331Y-98207100D01*
X114659466Y-98207100D01*
X114659467Y-98207099D01*
X114652803Y-98195557D01*
X113732294Y-97275048D01*
X113720380Y-97268376D01*
X113714021Y-97272626D01*
X113590429Y-97474310D01*
X113586015Y-97482973D01*
X113493368Y-97706643D01*
X113490366Y-97715880D01*
X113433848Y-97951297D01*
X113432330Y-97960883D01*
X113413334Y-98202246D01*
X113413334Y-98211954D01*
X113419154Y-98285907D01*
X113405362Y-98353206D01*
X113357861Y-98402835D01*
X113291231Y-98419561D01*
X113225922Y-98398251D01*
X113183550Y-98347333D01*
X113183324Y-98347456D01*
X113182712Y-98346326D01*
X113181980Y-98345446D01*
X113180883Y-98342945D01*
X113180882Y-98342944D01*
X113178824Y-98338251D01*
X113051879Y-98143947D01*
X113048411Y-98140180D01*
X113048409Y-98140177D01*
X112895246Y-97973798D01*
X112864393Y-97911534D01*
X112871879Y-97842450D01*
X112915352Y-97788240D01*
X113031716Y-97706762D01*
X113192562Y-97545916D01*
X113323034Y-97359583D01*
X113419167Y-97153425D01*
X113478041Y-96933705D01*
X113480152Y-96909580D01*
X114079176Y-96909580D01*
X114085848Y-96921494D01*
X115006357Y-97842003D01*
X115017900Y-97848667D01*
X115029442Y-97842003D01*
X115949955Y-96921489D01*
X115956627Y-96909578D01*
X115952391Y-96903232D01*
X115760764Y-96785803D01*
X116701117Y-96785803D01*
X116708550Y-96793914D01*
X116765977Y-96834125D01*
X116775327Y-96839523D01*
X116971668Y-96931079D01*
X116981802Y-96934767D01*
X117191062Y-96990839D01*
X117201693Y-96992713D01*
X117417505Y-97011594D01*
X117428295Y-97011594D01*
X117644106Y-96992713D01*
X117654737Y-96990839D01*
X117863997Y-96934767D01*
X117874131Y-96931079D01*
X118070475Y-96839522D01*
X118079820Y-96834126D01*
X118137248Y-96793914D01*
X118144680Y-96785803D01*
X118138767Y-96776521D01*
X117434442Y-96072195D01*
X117422899Y-96065531D01*
X117411357Y-96072195D01*
X116707028Y-96776524D01*
X116701117Y-96785803D01*
X115760764Y-96785803D01*
X115750689Y-96779629D01*
X115742026Y-96775215D01*
X115518356Y-96682568D01*
X115509119Y-96679566D01*
X115273702Y-96623048D01*
X115264116Y-96621530D01*
X115022754Y-96602534D01*
X115013046Y-96602534D01*
X114771683Y-96621530D01*
X114762097Y-96623048D01*
X114526680Y-96679566D01*
X114517443Y-96682568D01*
X114293773Y-96775215D01*
X114285110Y-96779629D01*
X114083426Y-96903221D01*
X114079176Y-96909580D01*
X113480152Y-96909580D01*
X113497866Y-96707100D01*
X113478041Y-96480495D01*
X113419167Y-96260775D01*
X113323034Y-96054617D01*
X113192562Y-95868284D01*
X113036773Y-95712495D01*
X116118406Y-95712495D01*
X116137286Y-95928306D01*
X116139160Y-95938937D01*
X116195232Y-96148197D01*
X116198920Y-96158331D01*
X116290476Y-96354672D01*
X116295874Y-96364022D01*
X116336084Y-96421448D01*
X116344195Y-96428881D01*
X116353474Y-96422970D01*
X117057803Y-95718641D01*
X117064467Y-95707099D01*
X117781331Y-95707099D01*
X117787995Y-95718641D01*
X118492321Y-96422967D01*
X118501603Y-96428880D01*
X118509714Y-96421448D01*
X118549926Y-96364020D01*
X118555322Y-96354675D01*
X118646879Y-96158331D01*
X118650567Y-96148197D01*
X118706639Y-95938937D01*
X118708513Y-95928306D01*
X118727394Y-95712495D01*
X118727394Y-95701705D01*
X118708513Y-95485893D01*
X118706639Y-95475262D01*
X118650567Y-95266002D01*
X118646879Y-95255868D01*
X118555323Y-95059527D01*
X118549925Y-95050177D01*
X118509714Y-94992750D01*
X118501603Y-94985317D01*
X118492324Y-94991228D01*
X117787995Y-95695556D01*
X117781331Y-95707099D01*
X117064467Y-95707099D01*
X117057803Y-95695556D01*
X116353474Y-94991228D01*
X116344196Y-94985317D01*
X116336083Y-94992751D01*
X116295871Y-95050181D01*
X116290477Y-95059525D01*
X116198920Y-95255868D01*
X116195232Y-95266002D01*
X116139160Y-95475262D01*
X116137286Y-95485893D01*
X116118406Y-95701705D01*
X116118406Y-95712495D01*
X113036773Y-95712495D01*
X113031716Y-95707438D01*
X113027285Y-95704335D01*
X113027281Y-95704332D01*
X112849812Y-95580067D01*
X112849810Y-95580065D01*
X112845383Y-95576966D01*
X112840486Y-95574682D01*
X112840480Y-95574679D01*
X112644131Y-95483120D01*
X112644124Y-95483117D01*
X112639225Y-95480833D01*
X112633998Y-95479432D01*
X112633997Y-95479432D01*
X112424737Y-95423360D01*
X112424727Y-95423358D01*
X112419505Y-95421959D01*
X112414113Y-95421487D01*
X112414106Y-95421486D01*
X112198295Y-95402606D01*
X112192900Y-95402134D01*
X112187505Y-95402606D01*
X111971693Y-95421486D01*
X111971684Y-95421487D01*
X111966295Y-95421959D01*
X111961074Y-95423357D01*
X111961062Y-95423360D01*
X111751802Y-95479432D01*
X111751797Y-95479433D01*
X111746575Y-95480833D01*
X111741679Y-95483115D01*
X111741668Y-95483120D01*
X111545319Y-95574679D01*
X111545308Y-95574685D01*
X111540417Y-95576966D01*
X111535994Y-95580062D01*
X111535987Y-95580067D01*
X111358518Y-95704332D01*
X111358508Y-95704339D01*
X111354084Y-95707438D01*
X111350258Y-95711263D01*
X111350252Y-95711269D01*
X111197069Y-95864452D01*
X111197063Y-95864458D01*
X111193238Y-95868284D01*
X111190139Y-95872708D01*
X111190132Y-95872718D01*
X111065867Y-96050187D01*
X111065862Y-96050194D01*
X111062766Y-96054617D01*
X111060485Y-96059508D01*
X111060479Y-96059519D01*
X110968920Y-96255868D01*
X110968915Y-96255879D01*
X110966633Y-96260775D01*
X110965233Y-96265997D01*
X110965232Y-96266002D01*
X110909160Y-96475262D01*
X110909157Y-96475274D01*
X110907759Y-96480495D01*
X110907287Y-96485884D01*
X110907286Y-96485893D01*
X110897082Y-96602534D01*
X110887934Y-96707100D01*
X110888406Y-96712495D01*
X110907286Y-96928306D01*
X110907287Y-96928313D01*
X110907759Y-96933705D01*
X110909158Y-96938927D01*
X110909160Y-96938937D01*
X110928629Y-97011594D01*
X110966633Y-97153425D01*
X110968917Y-97158324D01*
X110968920Y-97158331D01*
X111060479Y-97354680D01*
X111060482Y-97354686D01*
X111062766Y-97359583D01*
X111065865Y-97364010D01*
X111065867Y-97364012D01*
X111190132Y-97541481D01*
X111190135Y-97541485D01*
X111193238Y-97545916D01*
X111197069Y-97549747D01*
X111253728Y-97606406D01*
X111283738Y-97655038D01*
X111288752Y-97711963D01*
X111267704Y-97765092D01*
X111225067Y-97803141D01*
X111178782Y-97828189D01*
X111178769Y-97828197D01*
X111174274Y-97830630D01*
X111170234Y-97833774D01*
X111170227Y-97833779D01*
X110995163Y-97970036D01*
X110995155Y-97970043D01*
X110991116Y-97973187D01*
X110987646Y-97976955D01*
X110987642Y-97976960D01*
X110837391Y-98140177D01*
X110837388Y-98140180D01*
X110833921Y-98143947D01*
X110831126Y-98148224D01*
X110831119Y-98148234D01*
X110741174Y-98285907D01*
X110706976Y-98338251D01*
X110704921Y-98342935D01*
X110704916Y-98342945D01*
X110615803Y-98546103D01*
X110613743Y-98550800D01*
X110612485Y-98555765D01*
X110612484Y-98555770D01*
X110558025Y-98770820D01*
X110558023Y-98770829D01*
X110556766Y-98775795D01*
X110556342Y-98780902D01*
X110556341Y-98780913D01*
X110543169Y-98939889D01*
X110537600Y-99007100D01*
X110538024Y-99012217D01*
X110556341Y-99233286D01*
X110556342Y-99233295D01*
X110556766Y-99238405D01*
X110558023Y-99243372D01*
X110558025Y-99243379D01*
X110609701Y-99447440D01*
X110613743Y-99463400D01*
X110615803Y-99468096D01*
X110704916Y-99671254D01*
X110704919Y-99671259D01*
X110706976Y-99675949D01*
X110743355Y-99731631D01*
X110831119Y-99865965D01*
X110831122Y-99865969D01*
X110833921Y-99870253D01*
X110991116Y-100041013D01*
X110995162Y-100044162D01*
X110995163Y-100044163D01*
X111045296Y-100083183D01*
X111174274Y-100183570D01*
X111378397Y-100294036D01*
X111597919Y-100369398D01*
X111826851Y-100407600D01*
X112053816Y-100407600D01*
X112058949Y-100407600D01*
X112144376Y-100393344D01*
X112211200Y-100400667D01*
X112264383Y-100441787D01*
X112373568Y-100589007D01*
X112380329Y-100599125D01*
X112543265Y-100870970D01*
X112549001Y-100881702D01*
X112684502Y-101168197D01*
X112689159Y-101179439D01*
X112795932Y-101477851D01*
X112799464Y-101489496D01*
X112876469Y-101796923D01*
X112878843Y-101808858D01*
X112925345Y-102122355D01*
X112926538Y-102134464D01*
X112931878Y-102243155D01*
X112915561Y-102310985D01*
X112865205Y-102359270D01*
X112796750Y-102372726D01*
X112731865Y-102347093D01*
X112715303Y-102334202D01*
X112706745Y-102328611D01*
X112511705Y-102223060D01*
X112502352Y-102218958D01*
X112292609Y-102146953D01*
X112282700Y-102144444D01*
X112063970Y-102107944D01*
X112053773Y-102107100D01*
X111832027Y-102107100D01*
X111821829Y-102107944D01*
X111603099Y-102144444D01*
X111593190Y-102146953D01*
X111383447Y-102218958D01*
X111374094Y-102223060D01*
X111179056Y-102328610D01*
X111170500Y-102334200D01*
X111158012Y-102343918D01*
X111149907Y-102355106D01*
X111156567Y-102367214D01*
X112208771Y-103419418D01*
X112240865Y-103475005D01*
X112240865Y-103539193D01*
X112208771Y-103594780D01*
X111156566Y-104646985D01*
X111149906Y-104659091D01*
X111158013Y-104670281D01*
X111170502Y-104680001D01*
X111179051Y-104685587D01*
X111217983Y-104706656D01*
X111262351Y-104747247D01*
X111282405Y-104803939D01*
X111273428Y-104863399D01*
X111237532Y-104911644D01*
X111183159Y-104937327D01*
X111164763Y-104940986D01*
X111148687Y-104943104D01*
X110946821Y-104956335D01*
X110938711Y-104956600D01*
X108192953Y-104956600D01*
X108192902Y-104956593D01*
X108192902Y-104956586D01*
X108192847Y-104956586D01*
X108108201Y-104956586D01*
X108108186Y-104956586D01*
X108104148Y-104956587D01*
X108100131Y-104957115D01*
X108100129Y-104957116D01*
X107932191Y-104979227D01*
X107932188Y-104979227D01*
X107928159Y-104979758D01*
X107924236Y-104980809D01*
X107924227Y-104980811D01*
X107760635Y-105024648D01*
X107760623Y-105024651D01*
X107756701Y-105025703D01*
X107752949Y-105027257D01*
X107752938Y-105027261D01*
X107596464Y-105092081D01*
X107596455Y-105092085D01*
X107592707Y-105093638D01*
X107589197Y-105095664D01*
X107589180Y-105095673D01*
X107488640Y-105153725D01*
X107426640Y-105170340D01*
X107364638Y-105153728D01*
X107288209Y-105109603D01*
X107288208Y-105109602D01*
X107284698Y-105107576D01*
X107117629Y-105038376D01*
X107087009Y-105025693D01*
X107087005Y-105025691D01*
X107083259Y-105024140D01*
X107079338Y-105023089D01*
X107079334Y-105023088D01*
X106876577Y-104968762D01*
X106876567Y-104968760D01*
X106872652Y-104967711D01*
X106868626Y-104967181D01*
X106868621Y-104967180D01*
X106660504Y-104939785D01*
X106660495Y-104939784D01*
X106656481Y-104939256D01*
X106652427Y-104939256D01*
X106547464Y-104939258D01*
X106227672Y-104939258D01*
X106165081Y-104922302D01*
X106119608Y-104876071D01*
X106103689Y-104813208D01*
X106121678Y-104750906D01*
X106168654Y-104706203D01*
X106206745Y-104685588D01*
X106215297Y-104680001D01*
X106227788Y-104670279D01*
X106235892Y-104659092D01*
X106229231Y-104646984D01*
X105177028Y-103594781D01*
X105144934Y-103539194D01*
X105144934Y-103507100D01*
X105801331Y-103507100D01*
X105807995Y-103518642D01*
X106584305Y-104294952D01*
X106593686Y-104300876D01*
X106601654Y-104293151D01*
X106675575Y-104180006D01*
X106680443Y-104171011D01*
X106769521Y-103967933D01*
X106772840Y-103958266D01*
X106827278Y-103743296D01*
X106828962Y-103733202D01*
X106847274Y-103512217D01*
X110538526Y-103512217D01*
X110556837Y-103733202D01*
X110558521Y-103743296D01*
X110612959Y-103958266D01*
X110616278Y-103967933D01*
X110705356Y-104171013D01*
X110710222Y-104180003D01*
X110784145Y-104293151D01*
X110792112Y-104300876D01*
X110801492Y-104294953D01*
X111577804Y-103518642D01*
X111584468Y-103507100D01*
X111577804Y-103495557D01*
X110801492Y-102719245D01*
X110792112Y-102713322D01*
X110784145Y-102721046D01*
X110710222Y-102834196D01*
X110705356Y-102843186D01*
X110616278Y-103046266D01*
X110612959Y-103055933D01*
X110558521Y-103270903D01*
X110556837Y-103280997D01*
X110538526Y-103501983D01*
X110538526Y-103512217D01*
X106847274Y-103512217D01*
X106847274Y-103501983D01*
X106828962Y-103280997D01*
X106827278Y-103270903D01*
X106772840Y-103055933D01*
X106769521Y-103046266D01*
X106680443Y-102843186D01*
X106675578Y-102834196D01*
X106601653Y-102721047D01*
X106593686Y-102713322D01*
X106584305Y-102719246D01*
X105807995Y-103495557D01*
X105801331Y-103507100D01*
X105144934Y-103507100D01*
X105144934Y-103475006D01*
X105177028Y-103419419D01*
X105442900Y-103153547D01*
X106229232Y-102367213D01*
X106235892Y-102355107D01*
X106227786Y-102343918D01*
X106215294Y-102334196D01*
X106206747Y-102328612D01*
X106011705Y-102223060D01*
X106002352Y-102218958D01*
X105792609Y-102146953D01*
X105782700Y-102144444D01*
X105563970Y-102107944D01*
X105553773Y-102107100D01*
X105332027Y-102107100D01*
X105321829Y-102107944D01*
X105103099Y-102144444D01*
X105093190Y-102146953D01*
X104883447Y-102218958D01*
X104874094Y-102223060D01*
X104679054Y-102328611D01*
X104670502Y-102334198D01*
X104643563Y-102355167D01*
X104580192Y-102380652D01*
X104512940Y-102368715D01*
X104462212Y-102322976D01*
X104443400Y-102257314D01*
X104443400Y-101461975D01*
X104443782Y-101452246D01*
X104448253Y-101395442D01*
X104454200Y-101319867D01*
X104457244Y-101300652D01*
X104457654Y-101298945D01*
X104487103Y-101176285D01*
X104493111Y-101157793D01*
X104542065Y-101039612D01*
X104550888Y-101022298D01*
X104617724Y-100913234D01*
X104629151Y-100897508D01*
X104715508Y-100796400D01*
X104722116Y-100789252D01*
X104730939Y-100780429D01*
X104774326Y-100737044D01*
X104774329Y-100737038D01*
X105090538Y-100420828D01*
X105140387Y-100390422D01*
X105198623Y-100386202D01*
X105326851Y-100407600D01*
X105553816Y-100407600D01*
X105558949Y-100407600D01*
X105787881Y-100369398D01*
X106007403Y-100294036D01*
X106211526Y-100183570D01*
X106394684Y-100041013D01*
X106551879Y-99870253D01*
X106678824Y-99675949D01*
X106772057Y-99463400D01*
X106829034Y-99238405D01*
X106848200Y-99007100D01*
X106829034Y-98775795D01*
X106772057Y-98550800D01*
X106678824Y-98338251D01*
X106551879Y-98143947D01*
X106394684Y-97973187D01*
X106366560Y-97951297D01*
X106215574Y-97833780D01*
X106215568Y-97833776D01*
X106211526Y-97830630D01*
X106207019Y-97828191D01*
X106207013Y-97828187D01*
X106160734Y-97803143D01*
X106118095Y-97765095D01*
X106097046Y-97711965D01*
X106102060Y-97655039D01*
X106132066Y-97606411D01*
X106192562Y-97545916D01*
X106323034Y-97359583D01*
X106419167Y-97153425D01*
X106478041Y-96933705D01*
X106497866Y-96707100D01*
X106478041Y-96480495D01*
X106419167Y-96260775D01*
X106323034Y-96054617D01*
X106192562Y-95868284D01*
X106031716Y-95707438D01*
X106027285Y-95704335D01*
X106027281Y-95704332D01*
X105849812Y-95580067D01*
X105849810Y-95580065D01*
X105845383Y-95576966D01*
X105840486Y-95574682D01*
X105840480Y-95574679D01*
X105644131Y-95483120D01*
X105644124Y-95483117D01*
X105639225Y-95480833D01*
X105633998Y-95479432D01*
X105633997Y-95479432D01*
X105424737Y-95423360D01*
X105424727Y-95423358D01*
X105419505Y-95421959D01*
X105414113Y-95421487D01*
X105414106Y-95421486D01*
X105198295Y-95402606D01*
X105192900Y-95402134D01*
X105187505Y-95402606D01*
X104971693Y-95421486D01*
X104971684Y-95421487D01*
X104966295Y-95421959D01*
X104961074Y-95423357D01*
X104961062Y-95423360D01*
X104751802Y-95479432D01*
X104751797Y-95479433D01*
X104746575Y-95480833D01*
X104741679Y-95483115D01*
X104741668Y-95483120D01*
X104545319Y-95574679D01*
X104545308Y-95574685D01*
X104540417Y-95576966D01*
X104535994Y-95580062D01*
X104535987Y-95580067D01*
X104358518Y-95704332D01*
X104358508Y-95704339D01*
X104354084Y-95707438D01*
X104350258Y-95711263D01*
X104350252Y-95711269D01*
X104197069Y-95864452D01*
X104197063Y-95864458D01*
X104193238Y-95868284D01*
X104190139Y-95872708D01*
X104190132Y-95872718D01*
X104065867Y-96050187D01*
X104065862Y-96050194D01*
X104062766Y-96054617D01*
X104060485Y-96059508D01*
X104060479Y-96059519D01*
X103968920Y-96255868D01*
X103968915Y-96255879D01*
X103966633Y-96260775D01*
X103965233Y-96265997D01*
X103965232Y-96266002D01*
X103909160Y-96475262D01*
X103909157Y-96475274D01*
X103907759Y-96480495D01*
X103907287Y-96485884D01*
X103907286Y-96485893D01*
X103897082Y-96602534D01*
X103887934Y-96707100D01*
X103888406Y-96712495D01*
X103907286Y-96928306D01*
X103907287Y-96928313D01*
X103907759Y-96933705D01*
X103909158Y-96938927D01*
X103909160Y-96938937D01*
X103928629Y-97011594D01*
X103966633Y-97153425D01*
X103968917Y-97158324D01*
X103968920Y-97158331D01*
X104060479Y-97354680D01*
X104060482Y-97354686D01*
X104062766Y-97359583D01*
X104065865Y-97364010D01*
X104065867Y-97364012D01*
X104190132Y-97541481D01*
X104190135Y-97541485D01*
X104193238Y-97545916D01*
X104354084Y-97706762D01*
X104358517Y-97709866D01*
X104358523Y-97709871D01*
X104470446Y-97788240D01*
X104513920Y-97842450D01*
X104521406Y-97911534D01*
X104490553Y-97973798D01*
X104337391Y-98140177D01*
X104337388Y-98140180D01*
X104333921Y-98143947D01*
X104331126Y-98148224D01*
X104331119Y-98148234D01*
X104241174Y-98285907D01*
X104206976Y-98338251D01*
X104204921Y-98342933D01*
X104204911Y-98342954D01*
X104203813Y-98345459D01*
X104203080Y-98346339D01*
X104202476Y-98347456D01*
X104202251Y-98347334D01*
X104159867Y-98398258D01*
X104094559Y-98419562D01*
X104027932Y-98402832D01*
X103980435Y-98353202D01*
X103966645Y-98285906D01*
X103972466Y-98211952D01*
X103972466Y-98202246D01*
X103953469Y-97960883D01*
X103951951Y-97951297D01*
X103895433Y-97715880D01*
X103892431Y-97706643D01*
X103799784Y-97482973D01*
X103795370Y-97474310D01*
X103671765Y-97272604D01*
X103665420Y-97268370D01*
X103653510Y-97275042D01*
X102732995Y-98195557D01*
X102726331Y-98207100D01*
X102732995Y-98218642D01*
X103653514Y-99139160D01*
X103665422Y-99145832D01*
X103671756Y-99141609D01*
X103795370Y-98939889D01*
X103799783Y-98931229D01*
X103801261Y-98927661D01*
X103844601Y-98873600D01*
X103910181Y-98851233D01*
X103977524Y-98867543D01*
X104025602Y-98917438D01*
X104039403Y-98985340D01*
X104037600Y-99007100D01*
X104038024Y-99012217D01*
X104056341Y-99233286D01*
X104056342Y-99233295D01*
X104056766Y-99238405D01*
X104058024Y-99243376D01*
X104058026Y-99243383D01*
X104058355Y-99244681D01*
X104058348Y-99245313D01*
X104058870Y-99248440D01*
X104058315Y-99248532D01*
X104057700Y-99308038D01*
X104025830Y-99362801D01*
X103626452Y-99762179D01*
X103626433Y-99762198D01*
X103626284Y-99762348D01*
X103626239Y-99762402D01*
X103626124Y-99762525D01*
X103562761Y-99825887D01*
X103562743Y-99825906D01*
X103560300Y-99828350D01*
X103558141Y-99831056D01*
X103558134Y-99831065D01*
X103391559Y-100039935D01*
X103391546Y-100039953D01*
X103389393Y-100042653D01*
X103387555Y-100045576D01*
X103387545Y-100045592D01*
X103245396Y-100271813D01*
X103245390Y-100271822D01*
X103243555Y-100274744D01*
X103242059Y-100277848D01*
X103242053Y-100277861D01*
X103126133Y-100518565D01*
X103126128Y-100518575D01*
X103124622Y-100521704D01*
X103123474Y-100524983D01*
X103123468Y-100524999D01*
X103035241Y-100777132D01*
X103035237Y-100777143D01*
X103034088Y-100780429D01*
X103033314Y-100783817D01*
X103033311Y-100783830D01*
X102973865Y-101044275D01*
X102973092Y-101047663D01*
X102972704Y-101051105D01*
X102972702Y-101051118D01*
X102944585Y-101300652D01*
X102942400Y-101320046D01*
X102942400Y-101369379D01*
X102942400Y-103500810D01*
X102942407Y-103500876D01*
X102942411Y-103501011D01*
X102942411Y-103600932D01*
X102942800Y-103604390D01*
X102942801Y-103604396D01*
X102974229Y-103883325D01*
X102974619Y-103886784D01*
X102975392Y-103890172D01*
X102975393Y-103890176D01*
X103037853Y-104163839D01*
X103037855Y-104163848D01*
X103038628Y-104167232D01*
X103039771Y-104170500D01*
X103039775Y-104170512D01*
X103132488Y-104435475D01*
X103132492Y-104435485D01*
X103133635Y-104438751D01*
X103135136Y-104441868D01*
X103135139Y-104441875D01*
X103256940Y-104694803D01*
X103256944Y-104694810D01*
X103258444Y-104697925D01*
X103411486Y-104941496D01*
X103413654Y-104944215D01*
X103413655Y-104944216D01*
X103580727Y-105153725D01*
X103590836Y-105166401D01*
X103630514Y-105206080D01*
X103630518Y-105206086D01*
X103706563Y-105282131D01*
X103748314Y-105323883D01*
X103748317Y-105323885D01*
X104309965Y-105885532D01*
X104309982Y-105885546D01*
X104310013Y-105885575D01*
X104358456Y-105934018D01*
X104534037Y-106074040D01*
X104724190Y-106193524D01*
X104926527Y-106290965D01*
X105138500Y-106365138D01*
X105138501Y-106365139D01*
X105138130Y-106366198D01*
X105184158Y-106392465D01*
X105216030Y-106441613D01*
X105221785Y-106499908D01*
X105200138Y-106554340D01*
X105155920Y-106592761D01*
X105099000Y-106606598D01*
X104946041Y-106606598D01*
X104946021Y-106606598D01*
X104942892Y-106606599D01*
X104939760Y-106606918D01*
X104939758Y-106606919D01*
X104846838Y-106616410D01*
X104846828Y-106616411D01*
X104840103Y-106617099D01*
X104833681Y-106619226D01*
X104833676Y-106619228D01*
X104680421Y-106670012D01*
X104680417Y-106670013D01*
X104673566Y-106672284D01*
X104667422Y-106676073D01*
X104667419Y-106676075D01*
X104530388Y-106760595D01*
X104530380Y-106760601D01*
X104524244Y-106764386D01*
X104519142Y-106769487D01*
X104519138Y-106769491D01*
X104405298Y-106883331D01*
X104405294Y-106883335D01*
X104400188Y-106888442D01*
X104396395Y-106894590D01*
X104396396Y-106894590D01*
X104381755Y-106918326D01*
X104343604Y-106957318D01*
X104292412Y-106976164D01*
X104236820Y-106983486D01*
X104236806Y-106983488D01*
X104232803Y-106984016D01*
X104228903Y-106985061D01*
X104228889Y-106985064D01*
X104033610Y-107037402D01*
X104033607Y-107037402D01*
X104029693Y-107038452D01*
X104025946Y-107040004D01*
X104025944Y-107040005D01*
X103839173Y-107117382D01*
X103839164Y-107117386D01*
X103835426Y-107118935D01*
X103831931Y-107120952D01*
X103831915Y-107120961D01*
X103656834Y-107222061D01*
X103656824Y-107222067D01*
X103653327Y-107224087D01*
X103650122Y-107226546D01*
X103650111Y-107226554D01*
X103489731Y-107349638D01*
X103489723Y-107349644D01*
X103486511Y-107352110D01*
X103483642Y-107354978D01*
X103483639Y-107354982D01*
X103423609Y-107415022D01*
X103423606Y-107415025D01*
X103412216Y-107426416D01*
X103412172Y-107426460D01*
X103356473Y-107482168D01*
X103356463Y-107482178D01*
X103356400Y-107482242D01*
X103356383Y-107482266D01*
X103356319Y-107482338D01*
X103346608Y-107492049D01*
X103285285Y-107525534D01*
X103215594Y-107520550D01*
X103159660Y-107478679D01*
X102959344Y-107211088D01*
X102959337Y-107211079D01*
X102958020Y-107209320D01*
X102643428Y-106846262D01*
X102529362Y-106732196D01*
X102529361Y-106732194D01*
X102474765Y-106677598D01*
X102472539Y-106675314D01*
X102010684Y-106188620D01*
X102006353Y-106183809D01*
X101571732Y-105674934D01*
X101567646Y-105669888D01*
X101211759Y-105206086D01*
X101160260Y-105138970D01*
X101156447Y-105133723D01*
X101128897Y-105093638D01*
X100777398Y-104582202D01*
X100773864Y-104576760D01*
X100712510Y-104476639D01*
X100424200Y-104006161D01*
X100420962Y-104000552D01*
X100408179Y-103977009D01*
X100101642Y-103412435D01*
X100098699Y-103406660D01*
X100083483Y-103374760D01*
X99810592Y-102802631D01*
X99807954Y-102796705D01*
X99551862Y-102178443D01*
X99549537Y-102172387D01*
X99541613Y-102150011D01*
X99326146Y-101541548D01*
X99324143Y-101535383D01*
X99316409Y-101509274D01*
X99134072Y-100893717D01*
X99132396Y-100887458D01*
X99131014Y-100881702D01*
X98976175Y-100236748D01*
X98974826Y-100230403D01*
X98947942Y-100085348D01*
X98852865Y-99572358D01*
X98851859Y-99566002D01*
X98843778Y-99504620D01*
X101429170Y-99504620D01*
X101433404Y-99510965D01*
X101635110Y-99634570D01*
X101643773Y-99638984D01*
X101867443Y-99731631D01*
X101876680Y-99734633D01*
X102112097Y-99791151D01*
X102121683Y-99792669D01*
X102363046Y-99811666D01*
X102372754Y-99811666D01*
X102614116Y-99792669D01*
X102623702Y-99791151D01*
X102859119Y-99734633D01*
X102868356Y-99731631D01*
X103092026Y-99638984D01*
X103100689Y-99634570D01*
X103302409Y-99510956D01*
X103306632Y-99504622D01*
X103299960Y-99492714D01*
X102379442Y-98572195D01*
X102367900Y-98565531D01*
X102356357Y-98572195D01*
X101435842Y-99492710D01*
X101429170Y-99504620D01*
X98843778Y-99504620D01*
X98764504Y-98902479D01*
X98763832Y-98896088D01*
X98711324Y-98228904D01*
X98710985Y-98222424D01*
X98710711Y-98211954D01*
X100763334Y-98211954D01*
X100782330Y-98453316D01*
X100783848Y-98462902D01*
X100840366Y-98698319D01*
X100843368Y-98707556D01*
X100936015Y-98931226D01*
X100940429Y-98939889D01*
X101064032Y-99141591D01*
X101070378Y-99145827D01*
X101082289Y-99139155D01*
X102002803Y-98218642D01*
X102009467Y-98207099D01*
X102002803Y-98195557D01*
X101082294Y-97275048D01*
X101070380Y-97268376D01*
X101064021Y-97272626D01*
X100940429Y-97474310D01*
X100936015Y-97482973D01*
X100843368Y-97706643D01*
X100840366Y-97715880D01*
X100783848Y-97951297D01*
X100782330Y-97960883D01*
X100763334Y-98202246D01*
X100763334Y-98211954D01*
X98710711Y-98211954D01*
X98710281Y-98195557D01*
X98693441Y-97552486D01*
X98693400Y-97549241D01*
X98693400Y-96909580D01*
X101429176Y-96909580D01*
X101435848Y-96921494D01*
X102356357Y-97842003D01*
X102367900Y-97848667D01*
X102379442Y-97842003D01*
X103299955Y-96921489D01*
X103306627Y-96909578D01*
X103302391Y-96903232D01*
X103100689Y-96779629D01*
X103092026Y-96775215D01*
X102868356Y-96682568D01*
X102859119Y-96679566D01*
X102623702Y-96623048D01*
X102614116Y-96621530D01*
X102372754Y-96602534D01*
X102363046Y-96602534D01*
X102121683Y-96621530D01*
X102112097Y-96623048D01*
X101876680Y-96679566D01*
X101867443Y-96682568D01*
X101643773Y-96775215D01*
X101635110Y-96779629D01*
X101433426Y-96903221D01*
X101429176Y-96909580D01*
X98693400Y-96909580D01*
X98693400Y-93207100D01*
X103337317Y-93207100D01*
X103337914Y-93213161D01*
X103357002Y-93406969D01*
X103357003Y-93406975D01*
X103357600Y-93413034D01*
X103359367Y-93418859D01*
X103359368Y-93418864D01*
X103365481Y-93439016D01*
X103417668Y-93611054D01*
X103420538Y-93616423D01*
X103420540Y-93616428D01*
X103512344Y-93788179D01*
X103515215Y-93793550D01*
X103646490Y-93953510D01*
X103806450Y-94084785D01*
X103988946Y-94182332D01*
X104186966Y-94242400D01*
X104341292Y-94257600D01*
X104441458Y-94257600D01*
X104444508Y-94257600D01*
X104598834Y-94242400D01*
X104796854Y-94182332D01*
X104979350Y-94084785D01*
X105139310Y-93953510D01*
X105270585Y-93793550D01*
X105368132Y-93611054D01*
X105428200Y-93413034D01*
X105448483Y-93207100D01*
X105442280Y-93144118D01*
X106688780Y-93144118D01*
X106688952Y-93148500D01*
X106688952Y-93148506D01*
X106699727Y-93422746D01*
X106699728Y-93422757D01*
X106699900Y-93427129D01*
X106700685Y-93431430D01*
X106700687Y-93431443D01*
X106749996Y-93701434D01*
X106749998Y-93701444D01*
X106750785Y-93705750D01*
X106840421Y-93974422D01*
X106842375Y-93978333D01*
X106842379Y-93978342D01*
X106965055Y-94223856D01*
X106967018Y-94227784D01*
X107128052Y-94460780D01*
X107131026Y-94463997D01*
X107317329Y-94665540D01*
X107317333Y-94665544D01*
X107320308Y-94668762D01*
X107539952Y-94847579D01*
X107540855Y-94848122D01*
X107578940Y-94891666D01*
X107592900Y-94948826D01*
X107592900Y-99787582D01*
X107582069Y-99838264D01*
X107551469Y-99880093D01*
X107433961Y-99984972D01*
X107433952Y-99984980D01*
X107430526Y-99988039D01*
X107427592Y-99991566D01*
X107427582Y-99991577D01*
X107267141Y-100184486D01*
X107267133Y-100184496D01*
X107264203Y-100188020D01*
X107261823Y-100191941D01*
X107261818Y-100191949D01*
X107131654Y-100406452D01*
X107131648Y-100406462D01*
X107129266Y-100410389D01*
X107127487Y-100414629D01*
X107127485Y-100414635D01*
X107030456Y-100646022D01*
X107030451Y-100646035D01*
X107028680Y-100650260D01*
X107027551Y-100654703D01*
X107027549Y-100654711D01*
X106965787Y-100897902D01*
X106964654Y-100902364D01*
X106964193Y-100906937D01*
X106964192Y-100906946D01*
X106939055Y-101156576D01*
X106939054Y-101156586D01*
X106938594Y-101161162D01*
X106938815Y-101165763D01*
X106938815Y-101165766D01*
X106949847Y-101395442D01*
X106951074Y-101420969D01*
X106951970Y-101425476D01*
X106951971Y-101425480D01*
X107000920Y-101671567D01*
X107000922Y-101671576D01*
X107001818Y-101676078D01*
X107003369Y-101680399D01*
X107003370Y-101680401D01*
X107088160Y-101916562D01*
X107088164Y-101916572D01*
X107089713Y-101920885D01*
X107091887Y-101924931D01*
X107156116Y-102044469D01*
X107212826Y-102150011D01*
X107368455Y-102358423D01*
X107553179Y-102541542D01*
X107556885Y-102544259D01*
X107556887Y-102544261D01*
X107669524Y-102626850D01*
X107762941Y-102695346D01*
X107767015Y-102697489D01*
X107767016Y-102697490D01*
X107892902Y-102763722D01*
X107993132Y-102816455D01*
X108238697Y-102902210D01*
X108494239Y-102950726D01*
X108754145Y-102960938D01*
X109012706Y-102932621D01*
X109264242Y-102866397D01*
X109503226Y-102763722D01*
X109724408Y-102626850D01*
X109922931Y-102458788D01*
X110094431Y-102263229D01*
X110235142Y-102044469D01*
X110341973Y-101807314D01*
X110412577Y-101556972D01*
X110445402Y-101298945D01*
X110447807Y-101207100D01*
X110428531Y-100947708D01*
X110371126Y-100694015D01*
X110276853Y-100451593D01*
X110147784Y-100225768D01*
X110096327Y-100160495D01*
X109989598Y-100025110D01*
X109989593Y-100025104D01*
X109986753Y-100021502D01*
X109831937Y-99875865D01*
X109803077Y-99834744D01*
X109792900Y-99785547D01*
X109792900Y-94943885D01*
X109807542Y-94885432D01*
X109848009Y-94840783D01*
X109921845Y-94791447D01*
X110132822Y-94602481D01*
X110315067Y-94385673D01*
X110464946Y-94145350D01*
X110579468Y-93886306D01*
X110656348Y-93613711D01*
X110694052Y-93333002D01*
X110698009Y-93207100D01*
X111937317Y-93207100D01*
X111937914Y-93213161D01*
X111957002Y-93406969D01*
X111957003Y-93406975D01*
X111957600Y-93413034D01*
X111959367Y-93418859D01*
X111959368Y-93418864D01*
X111965481Y-93439016D01*
X112017668Y-93611054D01*
X112020538Y-93616423D01*
X112020540Y-93616428D01*
X112112344Y-93788179D01*
X112115215Y-93793550D01*
X112246490Y-93953510D01*
X112406450Y-94084785D01*
X112588946Y-94182332D01*
X112786966Y-94242400D01*
X112941292Y-94257600D01*
X113041458Y-94257600D01*
X113044508Y-94257600D01*
X113198834Y-94242400D01*
X113396854Y-94182332D01*
X113579350Y-94084785D01*
X113739310Y-93953510D01*
X113870585Y-93793550D01*
X113968132Y-93611054D01*
X114028200Y-93413034D01*
X114048483Y-93207100D01*
X114028200Y-93001166D01*
X113968132Y-92803146D01*
X113870585Y-92620650D01*
X113739310Y-92460690D01*
X113579350Y-92329415D01*
X113563959Y-92321188D01*
X113402228Y-92234740D01*
X113402223Y-92234738D01*
X113396854Y-92231868D01*
X113304810Y-92203947D01*
X113204664Y-92173568D01*
X113204659Y-92173567D01*
X113198834Y-92171800D01*
X113192775Y-92171203D01*
X113192769Y-92171202D01*
X113047541Y-92156898D01*
X113047526Y-92156897D01*
X113044508Y-92156600D01*
X112941292Y-92156600D01*
X112938274Y-92156897D01*
X112938258Y-92156898D01*
X112793030Y-92171202D01*
X112793022Y-92171203D01*
X112786966Y-92171800D01*
X112781142Y-92173566D01*
X112781135Y-92173568D01*
X112594777Y-92230099D01*
X112594775Y-92230099D01*
X112588946Y-92231868D01*
X112583579Y-92234736D01*
X112583571Y-92234740D01*
X112411820Y-92326544D01*
X112411815Y-92326547D01*
X112406450Y-92329415D01*
X112401746Y-92333274D01*
X112401742Y-92333278D01*
X112251196Y-92456827D01*
X112251190Y-92456832D01*
X112246490Y-92460690D01*
X112242632Y-92465390D01*
X112242627Y-92465396D01*
X112119078Y-92615942D01*
X112119074Y-92615946D01*
X112115215Y-92620650D01*
X112112347Y-92626015D01*
X112112344Y-92626020D01*
X112020540Y-92797771D01*
X112020536Y-92797779D01*
X112017668Y-92803146D01*
X112015899Y-92808975D01*
X112015899Y-92808977D01*
X111959368Y-92995335D01*
X111959366Y-92995342D01*
X111957600Y-93001166D01*
X111957003Y-93007222D01*
X111957002Y-93007230D01*
X111943950Y-93139750D01*
X111937317Y-93207100D01*
X110698009Y-93207100D01*
X110678005Y-92924578D01*
X110618394Y-92647692D01*
X110520363Y-92381969D01*
X110492006Y-92329415D01*
X110406962Y-92171800D01*
X110385870Y-92132709D01*
X110217597Y-91904886D01*
X110018902Y-91703046D01*
X109793751Y-91531215D01*
X109789941Y-91529081D01*
X109789933Y-91529076D01*
X109550454Y-91394962D01*
X109550450Y-91394960D01*
X109546634Y-91392823D01*
X109542552Y-91391243D01*
X109542544Y-91391240D01*
X109286582Y-91292216D01*
X109286572Y-91292212D01*
X109282483Y-91290631D01*
X109278199Y-91289638D01*
X109010841Y-91227667D01*
X109010835Y-91227666D01*
X109006568Y-91226677D01*
X109002204Y-91226299D01*
X108728760Y-91202616D01*
X108728759Y-91202615D01*
X108724395Y-91202238D01*
X108720030Y-91202478D01*
X108720018Y-91202478D01*
X108445975Y-91217560D01*
X108445963Y-91217561D01*
X108441593Y-91217802D01*
X108437287Y-91218658D01*
X108437283Y-91218659D01*
X108168113Y-91272200D01*
X108168109Y-91272201D01*
X108163806Y-91273057D01*
X108159665Y-91274511D01*
X108159662Y-91274512D01*
X107900714Y-91365448D01*
X107900708Y-91365450D01*
X107896575Y-91366902D01*
X107892691Y-91368919D01*
X107892683Y-91368923D01*
X107649122Y-91495443D01*
X107649113Y-91495448D01*
X107645233Y-91497464D01*
X107641677Y-91500004D01*
X107641669Y-91500010D01*
X107418361Y-91659588D01*
X107418354Y-91659593D01*
X107414795Y-91662137D01*
X107411623Y-91665162D01*
X107411618Y-91665167D01*
X107213042Y-91854600D01*
X107213038Y-91854604D01*
X107209859Y-91857637D01*
X107207147Y-91861076D01*
X107207137Y-91861088D01*
X107037225Y-92076621D01*
X107037220Y-92076627D01*
X107034513Y-92080062D01*
X107032317Y-92083841D01*
X107032314Y-92083847D01*
X106894455Y-92321188D01*
X106894449Y-92321199D01*
X106892257Y-92324974D01*
X106890615Y-92329027D01*
X106890612Y-92329034D01*
X106787575Y-92583419D01*
X106787572Y-92583427D01*
X106785928Y-92587487D01*
X106784871Y-92591741D01*
X106784870Y-92591745D01*
X106718704Y-92858108D01*
X106718701Y-92858120D01*
X106717648Y-92862363D01*
X106717202Y-92866712D01*
X106717200Y-92866726D01*
X106689227Y-93139750D01*
X106689226Y-93139757D01*
X106688780Y-93144118D01*
X105442280Y-93144118D01*
X105428200Y-93001166D01*
X105368132Y-92803146D01*
X105270585Y-92620650D01*
X105139310Y-92460690D01*
X104979350Y-92329415D01*
X104963959Y-92321188D01*
X104802228Y-92234740D01*
X104802223Y-92234738D01*
X104796854Y-92231868D01*
X104704810Y-92203947D01*
X104604664Y-92173568D01*
X104604659Y-92173567D01*
X104598834Y-92171800D01*
X104592775Y-92171203D01*
X104592769Y-92171202D01*
X104447541Y-92156898D01*
X104447526Y-92156897D01*
X104444508Y-92156600D01*
X104341292Y-92156600D01*
X104338274Y-92156897D01*
X104338258Y-92156898D01*
X104193030Y-92171202D01*
X104193022Y-92171203D01*
X104186966Y-92171800D01*
X104181142Y-92173566D01*
X104181135Y-92173568D01*
X103994777Y-92230099D01*
X103994775Y-92230099D01*
X103988946Y-92231868D01*
X103983579Y-92234736D01*
X103983571Y-92234740D01*
X103811820Y-92326544D01*
X103811815Y-92326547D01*
X103806450Y-92329415D01*
X103801746Y-92333274D01*
X103801742Y-92333278D01*
X103651196Y-92456827D01*
X103651190Y-92456832D01*
X103646490Y-92460690D01*
X103642632Y-92465390D01*
X103642627Y-92465396D01*
X103519078Y-92615942D01*
X103519074Y-92615946D01*
X103515215Y-92620650D01*
X103512347Y-92626015D01*
X103512344Y-92626020D01*
X103420540Y-92797771D01*
X103420536Y-92797779D01*
X103417668Y-92803146D01*
X103415899Y-92808975D01*
X103415899Y-92808977D01*
X103359368Y-92995335D01*
X103359366Y-92995342D01*
X103357600Y-93001166D01*
X103357003Y-93007222D01*
X103357002Y-93007230D01*
X103343950Y-93139750D01*
X103337317Y-93207100D01*
X98693400Y-93207100D01*
X98693400Y-90098045D01*
X98693457Y-90094300D01*
X98696051Y-90008464D01*
X98709048Y-89578328D01*
X98709497Y-89570900D01*
X98715520Y-89504620D01*
X101429170Y-89504620D01*
X101433404Y-89510965D01*
X101635110Y-89634570D01*
X101643773Y-89638984D01*
X101867443Y-89731631D01*
X101876680Y-89734633D01*
X102112097Y-89791151D01*
X102121683Y-89792669D01*
X102363046Y-89811666D01*
X102372754Y-89811666D01*
X102614116Y-89792669D01*
X102623702Y-89791151D01*
X102859119Y-89734633D01*
X102868356Y-89731631D01*
X102927579Y-89707100D01*
X103887934Y-89707100D01*
X103888406Y-89712495D01*
X103907286Y-89928306D01*
X103907287Y-89928313D01*
X103907759Y-89933705D01*
X103909158Y-89938927D01*
X103909160Y-89938937D01*
X103951794Y-90098045D01*
X103966633Y-90153425D01*
X103968917Y-90158324D01*
X103968920Y-90158331D01*
X104060479Y-90354680D01*
X104060482Y-90354686D01*
X104062766Y-90359583D01*
X104065865Y-90364010D01*
X104065867Y-90364012D01*
X104190132Y-90541481D01*
X104190135Y-90541485D01*
X104193238Y-90545916D01*
X104354084Y-90706762D01*
X104358516Y-90709865D01*
X104358518Y-90709867D01*
X104497818Y-90807406D01*
X104540417Y-90837234D01*
X104746575Y-90933367D01*
X104910565Y-90977308D01*
X104961062Y-90990839D01*
X104961063Y-90990839D01*
X104966295Y-90992241D01*
X105192900Y-91012066D01*
X105419505Y-90992241D01*
X105639225Y-90933367D01*
X105845383Y-90837234D01*
X106031716Y-90706762D01*
X106192562Y-90545916D01*
X106323034Y-90359583D01*
X106419167Y-90153425D01*
X106478041Y-89933705D01*
X106497866Y-89707100D01*
X110887934Y-89707100D01*
X110888406Y-89712495D01*
X110907286Y-89928306D01*
X110907287Y-89928313D01*
X110907759Y-89933705D01*
X110909158Y-89938927D01*
X110909160Y-89938937D01*
X110951794Y-90098045D01*
X110966633Y-90153425D01*
X110968917Y-90158324D01*
X110968920Y-90158331D01*
X111060479Y-90354680D01*
X111060482Y-90354686D01*
X111062766Y-90359583D01*
X111065865Y-90364010D01*
X111065867Y-90364012D01*
X111190132Y-90541481D01*
X111190135Y-90541485D01*
X111193238Y-90545916D01*
X111354084Y-90706762D01*
X111358516Y-90709865D01*
X111358518Y-90709867D01*
X111497818Y-90807406D01*
X111540417Y-90837234D01*
X111746575Y-90933367D01*
X111910565Y-90977308D01*
X111961062Y-90990839D01*
X111961063Y-90990839D01*
X111966295Y-90992241D01*
X112192900Y-91012066D01*
X112419505Y-90992241D01*
X112639225Y-90933367D01*
X112845383Y-90837234D01*
X113031716Y-90706762D01*
X113192562Y-90545916D01*
X113323034Y-90359583D01*
X113419167Y-90153425D01*
X113478041Y-89933705D01*
X113497866Y-89707100D01*
X113480152Y-89504620D01*
X114079170Y-89504620D01*
X114083404Y-89510965D01*
X114285110Y-89634570D01*
X114293773Y-89638984D01*
X114517443Y-89731631D01*
X114526680Y-89734633D01*
X114762097Y-89791151D01*
X114771683Y-89792669D01*
X115013046Y-89811666D01*
X115022754Y-89811666D01*
X115264116Y-89792669D01*
X115273702Y-89791151D01*
X115509119Y-89734633D01*
X115518356Y-89731631D01*
X115742026Y-89638984D01*
X115750689Y-89634570D01*
X115952409Y-89510956D01*
X115956632Y-89504622D01*
X115949960Y-89492714D01*
X115029442Y-88572195D01*
X115017900Y-88565531D01*
X115006357Y-88572195D01*
X114085842Y-89492710D01*
X114079170Y-89504620D01*
X113480152Y-89504620D01*
X113478041Y-89480495D01*
X113419167Y-89260775D01*
X113411979Y-89245361D01*
X113325320Y-89059519D01*
X113325319Y-89059517D01*
X113323034Y-89054617D01*
X113293206Y-89012018D01*
X113195667Y-88872718D01*
X113195665Y-88872716D01*
X113192562Y-88868284D01*
X113031716Y-88707438D01*
X113027285Y-88704335D01*
X113027281Y-88704332D01*
X112849812Y-88580067D01*
X112849810Y-88580065D01*
X112845383Y-88576966D01*
X112840486Y-88574682D01*
X112840480Y-88574679D01*
X112644131Y-88483120D01*
X112644124Y-88483117D01*
X112639225Y-88480833D01*
X112633998Y-88479432D01*
X112633997Y-88479432D01*
X112424737Y-88423360D01*
X112424727Y-88423358D01*
X112419505Y-88421959D01*
X112414113Y-88421487D01*
X112414106Y-88421486D01*
X112198295Y-88402606D01*
X112192900Y-88402134D01*
X112187505Y-88402606D01*
X111971693Y-88421486D01*
X111971684Y-88421487D01*
X111966295Y-88421959D01*
X111961074Y-88423357D01*
X111961062Y-88423360D01*
X111751802Y-88479432D01*
X111751797Y-88479433D01*
X111746575Y-88480833D01*
X111741679Y-88483115D01*
X111741668Y-88483120D01*
X111545319Y-88574679D01*
X111545308Y-88574685D01*
X111540417Y-88576966D01*
X111535994Y-88580062D01*
X111535987Y-88580067D01*
X111358518Y-88704332D01*
X111358508Y-88704339D01*
X111354084Y-88707438D01*
X111350258Y-88711263D01*
X111350252Y-88711269D01*
X111197069Y-88864452D01*
X111197063Y-88864458D01*
X111193238Y-88868284D01*
X111190139Y-88872708D01*
X111190132Y-88872718D01*
X111065867Y-89050187D01*
X111065862Y-89050194D01*
X111062766Y-89054617D01*
X111060485Y-89059508D01*
X111060479Y-89059519D01*
X110968920Y-89255868D01*
X110968915Y-89255879D01*
X110966633Y-89260775D01*
X110965233Y-89265997D01*
X110965232Y-89266002D01*
X110909160Y-89475262D01*
X110909157Y-89475274D01*
X110907759Y-89480495D01*
X110907287Y-89485884D01*
X110907286Y-89485893D01*
X110894279Y-89634570D01*
X110887934Y-89707100D01*
X106497866Y-89707100D01*
X106478041Y-89480495D01*
X106419167Y-89260775D01*
X106411979Y-89245361D01*
X106325320Y-89059519D01*
X106325319Y-89059517D01*
X106323034Y-89054617D01*
X106293206Y-89012018D01*
X106195667Y-88872718D01*
X106195665Y-88872716D01*
X106192562Y-88868284D01*
X106031716Y-88707438D01*
X106027285Y-88704335D01*
X106027281Y-88704332D01*
X105849812Y-88580067D01*
X105849810Y-88580065D01*
X105845383Y-88576966D01*
X105840486Y-88574682D01*
X105840480Y-88574679D01*
X105644131Y-88483120D01*
X105644124Y-88483117D01*
X105639225Y-88480833D01*
X105633998Y-88479432D01*
X105633997Y-88479432D01*
X105424737Y-88423360D01*
X105424727Y-88423358D01*
X105419505Y-88421959D01*
X105414113Y-88421487D01*
X105414106Y-88421486D01*
X105198295Y-88402606D01*
X105192900Y-88402134D01*
X105187505Y-88402606D01*
X104971693Y-88421486D01*
X104971684Y-88421487D01*
X104966295Y-88421959D01*
X104961074Y-88423357D01*
X104961062Y-88423360D01*
X104751802Y-88479432D01*
X104751797Y-88479433D01*
X104746575Y-88480833D01*
X104741679Y-88483115D01*
X104741668Y-88483120D01*
X104545319Y-88574679D01*
X104545308Y-88574685D01*
X104540417Y-88576966D01*
X104535994Y-88580062D01*
X104535987Y-88580067D01*
X104358518Y-88704332D01*
X104358508Y-88704339D01*
X104354084Y-88707438D01*
X104350258Y-88711263D01*
X104350252Y-88711269D01*
X104197069Y-88864452D01*
X104197063Y-88864458D01*
X104193238Y-88868284D01*
X104190139Y-88872708D01*
X104190132Y-88872718D01*
X104065867Y-89050187D01*
X104065862Y-89050194D01*
X104062766Y-89054617D01*
X104060485Y-89059508D01*
X104060479Y-89059519D01*
X103968920Y-89255868D01*
X103968915Y-89255879D01*
X103966633Y-89260775D01*
X103965233Y-89265997D01*
X103965232Y-89266002D01*
X103909160Y-89475262D01*
X103909157Y-89475274D01*
X103907759Y-89480495D01*
X103907287Y-89485884D01*
X103907286Y-89485893D01*
X103894279Y-89634570D01*
X103887934Y-89707100D01*
X102927579Y-89707100D01*
X103092026Y-89638984D01*
X103100689Y-89634570D01*
X103302409Y-89510956D01*
X103306632Y-89504622D01*
X103299960Y-89492714D01*
X102379442Y-88572195D01*
X102367900Y-88565531D01*
X102356357Y-88572195D01*
X101435842Y-89492710D01*
X101429170Y-89504620D01*
X98715520Y-89504620D01*
X98756047Y-89058650D01*
X98756950Y-89051216D01*
X98762333Y-89015850D01*
X98834340Y-88542735D01*
X98835689Y-88535377D01*
X98847398Y-88480833D01*
X98905116Y-88211954D01*
X100763334Y-88211954D01*
X100782330Y-88453316D01*
X100783848Y-88462902D01*
X100840366Y-88698319D01*
X100843368Y-88707556D01*
X100936015Y-88931226D01*
X100940429Y-88939889D01*
X101064032Y-89141591D01*
X101070378Y-89145827D01*
X101082289Y-89139155D01*
X102002803Y-88218642D01*
X102009467Y-88207100D01*
X102726331Y-88207100D01*
X102732995Y-88218642D01*
X103653514Y-89139160D01*
X103665422Y-89145832D01*
X103671756Y-89141609D01*
X103795370Y-88939889D01*
X103799784Y-88931226D01*
X103892431Y-88707556D01*
X103895433Y-88698319D01*
X103951951Y-88462902D01*
X103953469Y-88453316D01*
X103972466Y-88211954D01*
X113413334Y-88211954D01*
X113432330Y-88453316D01*
X113433848Y-88462902D01*
X113490366Y-88698319D01*
X113493368Y-88707556D01*
X113586015Y-88931226D01*
X113590429Y-88939889D01*
X113714032Y-89141591D01*
X113720378Y-89145827D01*
X113732289Y-89139155D01*
X114652803Y-88218642D01*
X114659467Y-88207100D01*
X114652803Y-88195557D01*
X113732294Y-87275048D01*
X113720380Y-87268376D01*
X113714021Y-87272626D01*
X113590429Y-87474310D01*
X113586015Y-87482973D01*
X113493368Y-87706643D01*
X113490366Y-87715880D01*
X113433848Y-87951297D01*
X113432330Y-87960883D01*
X113413334Y-88202246D01*
X113413334Y-88211954D01*
X103972466Y-88211954D01*
X103972466Y-88202246D01*
X103953469Y-87960883D01*
X103951951Y-87951297D01*
X103895433Y-87715880D01*
X103892431Y-87706643D01*
X103799784Y-87482973D01*
X103795370Y-87474310D01*
X103671765Y-87272604D01*
X103665420Y-87268370D01*
X103653510Y-87275042D01*
X102732995Y-88195557D01*
X102726331Y-88207100D01*
X102009467Y-88207100D01*
X102002803Y-88195557D01*
X101082294Y-87275048D01*
X101070380Y-87268376D01*
X101064021Y-87272626D01*
X100940429Y-87474310D01*
X100936015Y-87482973D01*
X100843368Y-87706643D01*
X100840366Y-87715880D01*
X100783848Y-87951297D01*
X100782330Y-87960883D01*
X100763334Y-88202246D01*
X100763334Y-88211954D01*
X98905116Y-88211954D01*
X98943639Y-88032495D01*
X98945422Y-88025257D01*
X99083553Y-87529760D01*
X99085769Y-87522652D01*
X99253550Y-87036439D01*
X99256203Y-87029446D01*
X99261166Y-87017464D01*
X99305853Y-86909580D01*
X101429176Y-86909580D01*
X101435848Y-86921494D01*
X102356357Y-87842003D01*
X102367900Y-87848667D01*
X102379442Y-87842003D01*
X103299955Y-86921489D01*
X103306627Y-86909578D01*
X103302391Y-86903232D01*
X103100689Y-86779629D01*
X103092026Y-86775215D01*
X102868356Y-86682568D01*
X102859119Y-86679566D01*
X102623702Y-86623048D01*
X102614116Y-86621530D01*
X102372754Y-86602534D01*
X102363046Y-86602534D01*
X102121683Y-86621530D01*
X102112097Y-86623048D01*
X101876680Y-86679566D01*
X101867443Y-86682568D01*
X101643773Y-86775215D01*
X101635110Y-86779629D01*
X101433426Y-86903221D01*
X101429176Y-86909580D01*
X99305853Y-86909580D01*
X99453040Y-86554240D01*
X99456093Y-86547456D01*
X99681275Y-86084979D01*
X99684723Y-86078407D01*
X99937418Y-85630368D01*
X99941274Y-85623991D01*
X99985361Y-85555803D01*
X105471117Y-85555803D01*
X105478550Y-85563914D01*
X105535977Y-85604125D01*
X105545327Y-85609523D01*
X105741668Y-85701079D01*
X105751802Y-85704767D01*
X105961062Y-85760839D01*
X105971693Y-85762713D01*
X106187505Y-85781594D01*
X106198295Y-85781594D01*
X106414106Y-85762713D01*
X106424737Y-85760839D01*
X106633997Y-85704767D01*
X106644131Y-85701079D01*
X106840475Y-85609522D01*
X106849820Y-85604126D01*
X106907248Y-85563914D01*
X106914680Y-85555803D01*
X106908767Y-85546521D01*
X106204442Y-84842195D01*
X106192900Y-84835531D01*
X106181357Y-84842195D01*
X105477028Y-85546524D01*
X105471117Y-85555803D01*
X99985361Y-85555803D01*
X100220564Y-85192020D01*
X100224770Y-85185927D01*
X100529638Y-84771600D01*
X100534227Y-84765744D01*
X100770286Y-84482495D01*
X104888406Y-84482495D01*
X104907286Y-84698306D01*
X104909160Y-84708937D01*
X104965232Y-84918197D01*
X104968920Y-84928331D01*
X105060476Y-85124672D01*
X105065874Y-85134022D01*
X105106084Y-85191448D01*
X105114195Y-85198881D01*
X105123474Y-85192970D01*
X105827803Y-84488642D01*
X105834467Y-84477100D01*
X105827803Y-84465557D01*
X105123474Y-83761228D01*
X105114196Y-83755317D01*
X105106083Y-83762751D01*
X105065871Y-83820181D01*
X105060477Y-83829525D01*
X104968920Y-84025868D01*
X104965232Y-84036002D01*
X104909160Y-84245262D01*
X104907286Y-84255893D01*
X104888406Y-84471705D01*
X104888406Y-84482495D01*
X100770286Y-84482495D01*
X100863517Y-84370626D01*
X100868461Y-84365044D01*
X101219959Y-83991640D01*
X101227620Y-83984176D01*
X101282316Y-83935297D01*
X101441131Y-83793371D01*
X101451985Y-83784715D01*
X101684258Y-83619909D01*
X101696021Y-83612518D01*
X101945284Y-83474756D01*
X101957803Y-83468728D01*
X102220910Y-83359746D01*
X102234027Y-83355156D01*
X102507694Y-83276314D01*
X102521237Y-83273223D01*
X102802017Y-83225518D01*
X102815809Y-83223964D01*
X103103744Y-83207794D01*
X103110696Y-83207600D01*
X103185991Y-83207600D01*
X105364019Y-83207600D01*
X105364138Y-83207600D01*
X105419467Y-83220628D01*
X105463169Y-83256976D01*
X105486062Y-83309004D01*
X105483334Y-83365781D01*
X105477284Y-83376582D01*
X105470642Y-83397649D01*
X105477028Y-83407674D01*
X106181356Y-84112003D01*
X106192899Y-84118667D01*
X106204441Y-84112003D01*
X106908770Y-83407674D01*
X106914681Y-83398395D01*
X106907248Y-83390284D01*
X106849822Y-83350074D01*
X106840472Y-83344676D01*
X106644131Y-83253120D01*
X106633997Y-83249432D01*
X106584518Y-83236174D01*
X106531256Y-83206345D01*
X106498681Y-83154717D01*
X106494688Y-83093802D01*
X106520246Y-83038363D01*
X106569157Y-83001839D01*
X106797623Y-82907205D01*
X107071852Y-82760626D01*
X107330394Y-82587873D01*
X107570757Y-82390610D01*
X107618659Y-82342707D01*
X107618663Y-82342705D01*
X108356432Y-81604934D01*
X108415952Y-81571857D01*
X108483966Y-81575196D01*
G37*
%TD.AperFunction*%
%TD*%
M02*
