%TF.GenerationSoftware,KiCad,Pcbnew,(7.0.0)*%
%TF.CreationDate,2023-04-10T20:49:18+02:00*%
%TF.ProjectId,STM32 Talnet console,53544d33-3220-4546-916c-6e657420636f,rev?*%
%TF.SameCoordinates,Original*%
%TF.FileFunction,Copper,L4,Bot*%
%TF.FilePolarity,Positive*%
%FSLAX46Y46*%
G04 Gerber Fmt 4.6, Leading zero omitted, Abs format (unit mm)*
G04 Created by KiCad (PCBNEW (7.0.0)) date 2023-04-10 20:49:18*
%MOMM*%
%LPD*%
G01*
G04 APERTURE LIST*
%TA.AperFunction,ComponentPad*%
%ADD10C,2.300000*%
%TD*%
%TA.AperFunction,ComponentPad*%
%ADD11C,2.000000*%
%TD*%
%TA.AperFunction,ComponentPad*%
%ADD12R,1.700000X1.700000*%
%TD*%
%TA.AperFunction,ComponentPad*%
%ADD13O,1.700000X1.700000*%
%TD*%
%TA.AperFunction,ComponentPad*%
%ADD14C,1.600000*%
%TD*%
%TA.AperFunction,ComponentPad*%
%ADD15C,2.200000*%
%TD*%
%TA.AperFunction,ComponentPad*%
%ADD16C,1.800000*%
%TD*%
%TA.AperFunction,ComponentPad*%
%ADD17C,6.200000*%
%TD*%
%TA.AperFunction,ViaPad*%
%ADD18C,0.800000*%
%TD*%
%TA.AperFunction,Conductor*%
%ADD19C,0.500000*%
%TD*%
G04 APERTURE END LIST*
D10*
%TO.P,SW8,*%
%TO.N,*%
X98192900Y-73207100D03*
X105192900Y-73207100D03*
D11*
%TO.P,SW8,1,1*%
%TO.N,Net-(R18-Pad2)*%
X99442900Y-70707100D03*
%TO.P,SW8,2,2*%
%TO.N,GND2*%
X103942900Y-70707100D03*
%TD*%
D12*
%TO.P,J5,1,Pin_1*%
%TO.N,GND2*%
X101292899Y-131032099D03*
D13*
%TO.P,J5,2,Pin_2*%
%TO.N,Net-(J5-Pin_2)*%
X101292899Y-128492099D03*
%TO.P,J5,3,Pin_3*%
%TO.N,/Vstupy/VRx*%
X101292899Y-125952099D03*
%TO.P,J5,4,Pin_4*%
%TO.N,/Vstupy/VRy*%
X101292899Y-123412099D03*
%TO.P,J5,5,Pin_5*%
%TO.N,Net-(J5-Pin_5)*%
X101292899Y-120872099D03*
%TO.P,J5,6,Pin_6*%
%TO.N,+3.3VP*%
X101292899Y-118332099D03*
%TD*%
D14*
%TO.P,P1,1,B*%
%TO.N,GND2*%
X106192900Y-84477100D03*
%TO.P,P1,2,D*%
%TO.N,/Vstupy/VRx*%
X108692900Y-84477100D03*
%TO.P,P1,3,A*%
%TO.N,+3.3VP*%
X111192900Y-84477100D03*
%TO.P,P1,4,A*%
X117422900Y-90707100D03*
%TO.P,P1,5,D*%
%TO.N,/Vstupy/VRy*%
X117422900Y-93207100D03*
%TO.P,P1,6,B*%
%TO.N,GND2*%
X117422900Y-95707100D03*
D15*
%TO.P,P1,SH*%
X102367900Y-88207100D03*
X102367900Y-98207100D03*
X115017900Y-88207100D03*
X115017900Y-98207100D03*
D16*
%TO.P,P1,a,a*%
%TO.N,Net-(P1-Pada)*%
X105442900Y-99007100D03*
%TO.P,P1,b,b*%
%TO.N,GND2*%
X105442900Y-103507100D03*
%TO.P,P1,c,c*%
%TO.N,Net-(P1-Pada)*%
X111942900Y-99007100D03*
%TO.P,P1,d,d*%
%TO.N,GND2*%
X111942900Y-103507100D03*
%TD*%
D17*
%TO.P,H6,*%
%TO.N,*%
X99442900Y-112707100D03*
%TD*%
D18*
%TO.N,Net-(J5-Pin_5)*%
X99942900Y-79457100D03*
%TO.N,/Vstupy/VRx*%
X106692900Y-120957100D03*
%TO.N,GND2*%
X110692900Y-106707100D03*
%TD*%
D19*
%TO.N,/Vstupy/VRy*%
X105187601Y-123412100D02*
X101292900Y-123412100D01*
%TO.N,Net-(J5-Pin_5)*%
X101292900Y-120872100D02*
X101483895Y-120872100D01*
X98692900Y-82474866D02*
X98692900Y-99153800D01*
X101483895Y-120872097D02*
G75*
G03*
X103692899Y-119957099I5J3123997D01*
G01*
X99942910Y-79457110D02*
G75*
G03*
X98692900Y-82474866I3017790J-3017790D01*
G01*
X98692901Y-99153800D02*
G75*
G03*
X102442900Y-108207100I12803299J0D01*
G01*
%TO.N,/Vstupy/VRx*%
X107692900Y-118542887D02*
X107692900Y-92753570D01*
X108692900Y-90339357D02*
X108692900Y-84477100D01*
%TO.N,/Vstupy/VRy*%
X109192900Y-102957100D02*
X109192900Y-119343161D01*
%TO.N,Net-(J5-Pin_5)*%
X104692900Y-113639080D02*
X104692900Y-115207100D01*
X104692900Y-115207100D02*
X104692900Y-117542887D01*
%TO.N,/Vstupy/VRy*%
X109192900Y-99871313D02*
X109192900Y-102957100D01*
%TO.N,/Vstupy/VRx*%
X108219087Y-91483287D02*
G75*
G03*
X108692900Y-90339357I-1143887J1143887D01*
G01*
X108219083Y-91483283D02*
G75*
G03*
X107692900Y-92753570I1270317J-1270317D01*
G01*
%TO.N,Net-(J5-Pin_5)*%
X103692904Y-119957104D02*
G75*
G03*
X104692900Y-117542887I-2414204J2414204D01*
G01*
X104692908Y-113639080D02*
G75*
G03*
X102442900Y-108207100I-7682008J-20D01*
G01*
%TO.N,/Vstupy/VRx*%
X106692904Y-120957104D02*
G75*
G03*
X107692900Y-118542887I-2414204J2414204D01*
G01*
%TO.N,/Vstupy/VRy*%
X105187601Y-123412100D02*
G75*
G03*
X107987955Y-122252155I-1J3960300D01*
G01*
X107987967Y-122252167D02*
G75*
G03*
X109192900Y-119343161I-2908967J2908967D01*
G01*
X111692900Y-96915388D02*
X111500708Y-96915388D01*
X111500708Y-96915392D02*
G75*
G03*
X110192900Y-97457100I-8J-1849508D01*
G01*
X111692900Y-96915380D02*
G75*
G03*
X113044437Y-96355563I0J1911380D01*
G01*
X110192896Y-97457096D02*
G75*
G03*
X109192900Y-99871313I2414204J-2414204D01*
G01*
X113942900Y-95457100D02*
X113044437Y-96355563D01*
X115323158Y-94076841D02*
X113942900Y-95457100D01*
X117422900Y-93207105D02*
G75*
G03*
X115323158Y-94076841I0J-2969495D01*
G01*
%TD*%
%TA.AperFunction,Conductor*%
%TO.N,GND2*%
G36*
X108630400Y-66474213D02*
G01*
X108675787Y-66519600D01*
X108692400Y-66581600D01*
X108692400Y-71457001D01*
X108692359Y-71457100D01*
X108692400Y-71457199D01*
X108692517Y-71457483D01*
X108692900Y-71457641D01*
X108692999Y-71457600D01*
X110568400Y-71457600D01*
X110630400Y-71474213D01*
X110675787Y-71519600D01*
X110692400Y-71581600D01*
X110692400Y-80706999D01*
X110692358Y-80707100D01*
X110692476Y-80707384D01*
X110692517Y-80707483D01*
X110692615Y-80707523D01*
X110701201Y-80716109D01*
X110701202Y-80716110D01*
X119656081Y-89670989D01*
X119682961Y-89711217D01*
X119692400Y-89758670D01*
X119692400Y-98655530D01*
X119682961Y-98702983D01*
X119656081Y-98743211D01*
X110700961Y-107698328D01*
X110700956Y-107698334D01*
X110692615Y-107706676D01*
X110692517Y-107706717D01*
X110692476Y-107706815D01*
X110692476Y-107706816D01*
X110692358Y-107707100D01*
X110692400Y-107707201D01*
X110692400Y-107719151D01*
X110692400Y-133082600D01*
X110675787Y-133144600D01*
X110630400Y-133189987D01*
X110568400Y-133206600D01*
X108692999Y-133206600D01*
X108692900Y-133206559D01*
X108692801Y-133206600D01*
X108692517Y-133206717D01*
X108692359Y-133207100D01*
X108692400Y-133207199D01*
X108692400Y-133219125D01*
X108692400Y-138082600D01*
X108675787Y-138144600D01*
X108630400Y-138189987D01*
X108568400Y-138206600D01*
X97744469Y-138206600D01*
X97697016Y-138197161D01*
X97656788Y-138170281D01*
X95729719Y-136243211D01*
X95702839Y-136202983D01*
X95693400Y-136155530D01*
X95693400Y-131926618D01*
X99942900Y-131926618D01*
X99943253Y-131933214D01*
X99948473Y-131981767D01*
X99952011Y-131996741D01*
X99996447Y-132115877D01*
X100004862Y-132131289D01*
X100080398Y-132232192D01*
X100092807Y-132244601D01*
X100193710Y-132320137D01*
X100209122Y-132328552D01*
X100328258Y-132372988D01*
X100343232Y-132376526D01*
X100391785Y-132381746D01*
X100398382Y-132382100D01*
X101026574Y-132382100D01*
X101039449Y-132378649D01*
X101042900Y-132365774D01*
X101542900Y-132365774D01*
X101546350Y-132378649D01*
X101559226Y-132382100D01*
X102187418Y-132382100D01*
X102194014Y-132381746D01*
X102242567Y-132376526D01*
X102257541Y-132372988D01*
X102376677Y-132328552D01*
X102392089Y-132320137D01*
X102492992Y-132244601D01*
X102505401Y-132232192D01*
X102580937Y-132131289D01*
X102589352Y-132115877D01*
X102633788Y-131996741D01*
X102637326Y-131981767D01*
X102642546Y-131933214D01*
X102642900Y-131926618D01*
X102642900Y-131298426D01*
X102639449Y-131285550D01*
X102626574Y-131282100D01*
X101559226Y-131282100D01*
X101546350Y-131285550D01*
X101542900Y-131298426D01*
X101542900Y-132365774D01*
X101042900Y-132365774D01*
X101042900Y-131298426D01*
X101039449Y-131285550D01*
X101026574Y-131282100D01*
X99959226Y-131282100D01*
X99946350Y-131285550D01*
X99942900Y-131298426D01*
X99942900Y-131926618D01*
X95693400Y-131926618D01*
X95693400Y-113566911D01*
X95707411Y-113509654D01*
X95746277Y-113465336D01*
X95801215Y-113443972D01*
X95859811Y-113450389D01*
X95908822Y-113483138D01*
X95937175Y-113534818D01*
X95965645Y-113641072D01*
X96013922Y-113821243D01*
X96149166Y-114173565D01*
X96150635Y-114176448D01*
X96150639Y-114176457D01*
X96319022Y-114506927D01*
X96320497Y-114509821D01*
X96526037Y-114826325D01*
X96763535Y-115119611D01*
X97030389Y-115386465D01*
X97323675Y-115623963D01*
X97640179Y-115829503D01*
X97976435Y-116000834D01*
X98328757Y-116136078D01*
X98693287Y-116233753D01*
X99066029Y-116292790D01*
X99442900Y-116312541D01*
X99819771Y-116292790D01*
X100192513Y-116233753D01*
X100557043Y-116136078D01*
X100909365Y-116000834D01*
X101245621Y-115829503D01*
X101562125Y-115623963D01*
X101855411Y-115386465D01*
X102122265Y-115119611D01*
X102359763Y-114826325D01*
X102565303Y-114509821D01*
X102736634Y-114173565D01*
X102871878Y-113821243D01*
X102969553Y-113456713D01*
X103028590Y-113083971D01*
X103048341Y-112707100D01*
X103028590Y-112330229D01*
X102969553Y-111957487D01*
X102871878Y-111592957D01*
X102736634Y-111240635D01*
X102565303Y-110904380D01*
X102359763Y-110587875D01*
X102122265Y-110294589D01*
X101855411Y-110027735D01*
X101562125Y-109790237D01*
X101245621Y-109584697D01*
X101242733Y-109583225D01*
X101242727Y-109583222D01*
X100912257Y-109414839D01*
X100912248Y-109414835D01*
X100909365Y-109413366D01*
X100906333Y-109412202D01*
X100560066Y-109279282D01*
X100560058Y-109279279D01*
X100557043Y-109278122D01*
X100553918Y-109277284D01*
X100553913Y-109277283D01*
X100195646Y-109181286D01*
X100195637Y-109181284D01*
X100192513Y-109180447D01*
X100189317Y-109179940D01*
X100189304Y-109179938D01*
X99822976Y-109121917D01*
X99822964Y-109121915D01*
X99819771Y-109121410D01*
X99816538Y-109121240D01*
X99816533Y-109121240D01*
X99446144Y-109101829D01*
X99442900Y-109101659D01*
X99439656Y-109101829D01*
X99069266Y-109121240D01*
X99069259Y-109121240D01*
X99066029Y-109121410D01*
X99062837Y-109121915D01*
X99062823Y-109121917D01*
X98696495Y-109179938D01*
X98696478Y-109179941D01*
X98693287Y-109180447D01*
X98690166Y-109181283D01*
X98690153Y-109181286D01*
X98331886Y-109277283D01*
X98331875Y-109277286D01*
X98328757Y-109278122D01*
X98325746Y-109279277D01*
X98325733Y-109279282D01*
X97979466Y-109412202D01*
X97979457Y-109412205D01*
X97976435Y-109413366D01*
X97973558Y-109414831D01*
X97973542Y-109414839D01*
X97643073Y-109583222D01*
X97643059Y-109583229D01*
X97640180Y-109584697D01*
X97637460Y-109586463D01*
X97637452Y-109586468D01*
X97326403Y-109788465D01*
X97326397Y-109788468D01*
X97323675Y-109790237D01*
X97321155Y-109792277D01*
X97321149Y-109792282D01*
X97032907Y-110025695D01*
X97032896Y-110025704D01*
X97030389Y-110027735D01*
X97028104Y-110030019D01*
X97028094Y-110030029D01*
X96765829Y-110292294D01*
X96765819Y-110292304D01*
X96763535Y-110294589D01*
X96761504Y-110297096D01*
X96761495Y-110297107D01*
X96528082Y-110585349D01*
X96528077Y-110585355D01*
X96526037Y-110587875D01*
X96524268Y-110590597D01*
X96524265Y-110590603D01*
X96322268Y-110901652D01*
X96322263Y-110901660D01*
X96320497Y-110904380D01*
X96319029Y-110907259D01*
X96319022Y-110907273D01*
X96150639Y-111237742D01*
X96150631Y-111237758D01*
X96149166Y-111240635D01*
X96148005Y-111243657D01*
X96148002Y-111243666D01*
X96015082Y-111589933D01*
X96015077Y-111589946D01*
X96013922Y-111592957D01*
X96013086Y-111596075D01*
X96013083Y-111596086D01*
X95937175Y-111879382D01*
X95908822Y-111931062D01*
X95859811Y-111963811D01*
X95801215Y-111970228D01*
X95746277Y-111948864D01*
X95707411Y-111904546D01*
X95693400Y-111847289D01*
X95693400Y-82553741D01*
X97942399Y-82553741D01*
X97942400Y-82553746D01*
X97942400Y-99197509D01*
X97942401Y-99197518D01*
X97942401Y-99508719D01*
X97942484Y-99510320D01*
X97942485Y-99510323D01*
X97970099Y-100037239D01*
X97979551Y-100217583D01*
X97979717Y-100219170D01*
X97979719Y-100219185D01*
X98053578Y-100921911D01*
X98053581Y-100921934D01*
X98053749Y-100923532D01*
X98054002Y-100925130D01*
X98054005Y-100925152D01*
X98162996Y-101613294D01*
X98164792Y-101624630D01*
X98165129Y-101626218D01*
X98165134Y-101626242D01*
X98312033Y-102317346D01*
X98312039Y-102317374D01*
X98312376Y-102318956D01*
X98312790Y-102320504D01*
X98312798Y-102320534D01*
X98487555Y-102972734D01*
X98496095Y-103004606D01*
X98496590Y-103006130D01*
X98496597Y-103006153D01*
X98659365Y-103507100D01*
X98715447Y-103679702D01*
X98716031Y-103681225D01*
X98716032Y-103681226D01*
X98907494Y-104180003D01*
X98969830Y-104342392D01*
X98970470Y-104343829D01*
X98970481Y-104343856D01*
X99169625Y-104791139D01*
X99258547Y-104990861D01*
X99580807Y-105623331D01*
X99581620Y-105624739D01*
X99581621Y-105624741D01*
X99758266Y-105930699D01*
X99935725Y-106238068D01*
X99936599Y-106239414D01*
X99936612Y-106239435D01*
X100177752Y-106610757D01*
X100322330Y-106833388D01*
X100739562Y-107407658D01*
X100740562Y-107408893D01*
X100740569Y-107408902D01*
X100982045Y-107707100D01*
X101186278Y-107959306D01*
X101187354Y-107960501D01*
X101187360Y-107960508D01*
X101660170Y-108485618D01*
X101660180Y-108485628D01*
X101661251Y-108486818D01*
X101662394Y-108487961D01*
X101662395Y-108487962D01*
X101856429Y-108681995D01*
X101856436Y-108682003D01*
X101856439Y-108682007D01*
X101856450Y-108682018D01*
X101910640Y-108736208D01*
X101913714Y-108739393D01*
X102246364Y-109096683D01*
X102252157Y-109103369D01*
X102313861Y-109179938D01*
X102557080Y-109481755D01*
X102562384Y-109488841D01*
X102839522Y-109887995D01*
X102844308Y-109895441D01*
X103092277Y-110313369D01*
X103096519Y-110321139D01*
X103314036Y-110755683D01*
X103317713Y-110763734D01*
X103503678Y-111212691D01*
X103506771Y-111220985D01*
X103660230Y-111682053D01*
X103662724Y-111690546D01*
X103782902Y-112161391D01*
X103784784Y-112170040D01*
X103871068Y-112648281D01*
X103872327Y-112657043D01*
X103924271Y-113140185D01*
X103924903Y-113149014D01*
X103942321Y-113636646D01*
X103942400Y-113641072D01*
X103942400Y-117539410D01*
X103942205Y-117546363D01*
X103926042Y-117834180D01*
X103924485Y-117847998D01*
X103876783Y-118128755D01*
X103873689Y-118142311D01*
X103794850Y-118415970D01*
X103790257Y-118429095D01*
X103681279Y-118692193D01*
X103675246Y-118704722D01*
X103537489Y-118953975D01*
X103530091Y-118965749D01*
X103365291Y-119198014D01*
X103356620Y-119208886D01*
X103166893Y-119421189D01*
X103157061Y-119431022D01*
X102968942Y-119599135D01*
X102958070Y-119607805D01*
X102752354Y-119753768D01*
X102740580Y-119761166D01*
X102519810Y-119883181D01*
X102507281Y-119889214D01*
X102380625Y-119941676D01*
X102333173Y-119951115D01*
X102285720Y-119941676D01*
X102245492Y-119914796D01*
X102168132Y-119837436D01*
X102168130Y-119837434D01*
X102164301Y-119833605D01*
X102159868Y-119830501D01*
X102159861Y-119830495D01*
X101978742Y-119703675D01*
X101939876Y-119659357D01*
X101925865Y-119602100D01*
X101939876Y-119544843D01*
X101978742Y-119500525D01*
X102159861Y-119373704D01*
X102159861Y-119373703D01*
X102164301Y-119370595D01*
X102331395Y-119203501D01*
X102466935Y-119009930D01*
X102566803Y-118795763D01*
X102627963Y-118567508D01*
X102648559Y-118332100D01*
X102627963Y-118096692D01*
X102566803Y-117868437D01*
X102466935Y-117654271D01*
X102331395Y-117460699D01*
X102164301Y-117293605D01*
X102159870Y-117290502D01*
X102159866Y-117290499D01*
X101975159Y-117161166D01*
X101975157Y-117161164D01*
X101970730Y-117158065D01*
X101965833Y-117155781D01*
X101965827Y-117155778D01*
X101761472Y-117060486D01*
X101761470Y-117060485D01*
X101756563Y-117058197D01*
X101751338Y-117056797D01*
X101751330Y-117056794D01*
X101533534Y-116998437D01*
X101533530Y-116998436D01*
X101528308Y-116997037D01*
X101522920Y-116996565D01*
X101522917Y-116996565D01*
X101298295Y-116976913D01*
X101292900Y-116976441D01*
X101287505Y-116976913D01*
X101062882Y-116996565D01*
X101062877Y-116996565D01*
X101057492Y-116997037D01*
X101052271Y-116998435D01*
X101052265Y-116998437D01*
X100834469Y-117056794D01*
X100834457Y-117056798D01*
X100829237Y-117058197D01*
X100824332Y-117060483D01*
X100824327Y-117060486D01*
X100619981Y-117155775D01*
X100619977Y-117155777D01*
X100615071Y-117158065D01*
X100610638Y-117161168D01*
X100610631Y-117161173D01*
X100425934Y-117290499D01*
X100425929Y-117290502D01*
X100421499Y-117293605D01*
X100417675Y-117297428D01*
X100417669Y-117297434D01*
X100258234Y-117456869D01*
X100258228Y-117456875D01*
X100254405Y-117460699D01*
X100251302Y-117465129D01*
X100251299Y-117465134D01*
X100121973Y-117649831D01*
X100121968Y-117649838D01*
X100118865Y-117654271D01*
X100116577Y-117659177D01*
X100116575Y-117659181D01*
X100021286Y-117863527D01*
X100021283Y-117863532D01*
X100018997Y-117868437D01*
X100017598Y-117873657D01*
X100017594Y-117873669D01*
X99959237Y-118091465D01*
X99959235Y-118091471D01*
X99957837Y-118096692D01*
X99957365Y-118102077D01*
X99957365Y-118102082D01*
X99937713Y-118326705D01*
X99937241Y-118332100D01*
X99937713Y-118337495D01*
X99955378Y-118539410D01*
X99957837Y-118567508D01*
X99959236Y-118572730D01*
X99959237Y-118572734D01*
X100017594Y-118790530D01*
X100017597Y-118790538D01*
X100018997Y-118795763D01*
X100021285Y-118800670D01*
X100021286Y-118800672D01*
X100116578Y-119005027D01*
X100116581Y-119005033D01*
X100118865Y-119009930D01*
X100121964Y-119014357D01*
X100121966Y-119014359D01*
X100251299Y-119199066D01*
X100251302Y-119199070D01*
X100254405Y-119203501D01*
X100421499Y-119370595D01*
X100425932Y-119373699D01*
X100425938Y-119373704D01*
X100607058Y-119500525D01*
X100645924Y-119544843D01*
X100659935Y-119602100D01*
X100645924Y-119659357D01*
X100607059Y-119703675D01*
X100425941Y-119830495D01*
X100421499Y-119833605D01*
X100417675Y-119837428D01*
X100417669Y-119837434D01*
X100258234Y-119996869D01*
X100258228Y-119996875D01*
X100254405Y-120000699D01*
X100251302Y-120005129D01*
X100251299Y-120005134D01*
X100121973Y-120189831D01*
X100121968Y-120189838D01*
X100118865Y-120194271D01*
X100116577Y-120199177D01*
X100116575Y-120199181D01*
X100021286Y-120403527D01*
X100021283Y-120403532D01*
X100018997Y-120408437D01*
X100017598Y-120413657D01*
X100017594Y-120413669D01*
X99959237Y-120631465D01*
X99959235Y-120631471D01*
X99957837Y-120636692D01*
X99957365Y-120642077D01*
X99957365Y-120642082D01*
X99937713Y-120866705D01*
X99937241Y-120872100D01*
X99937713Y-120877495D01*
X99955484Y-121080622D01*
X99957837Y-121107508D01*
X99959236Y-121112730D01*
X99959237Y-121112734D01*
X100017594Y-121330530D01*
X100017597Y-121330538D01*
X100018997Y-121335763D01*
X100021285Y-121340670D01*
X100021286Y-121340672D01*
X100116578Y-121545027D01*
X100116581Y-121545033D01*
X100118865Y-121549930D01*
X100121964Y-121554357D01*
X100121966Y-121554359D01*
X100251299Y-121739066D01*
X100251302Y-121739070D01*
X100254405Y-121743501D01*
X100421499Y-121910595D01*
X100425932Y-121913699D01*
X100425938Y-121913704D01*
X100607058Y-122040525D01*
X100645924Y-122084843D01*
X100659935Y-122142100D01*
X100645924Y-122199357D01*
X100607060Y-122243674D01*
X100421499Y-122373605D01*
X100417675Y-122377428D01*
X100417669Y-122377434D01*
X100258234Y-122536869D01*
X100258228Y-122536875D01*
X100254405Y-122540699D01*
X100251302Y-122545129D01*
X100251299Y-122545134D01*
X100121973Y-122729831D01*
X100121968Y-122729838D01*
X100118865Y-122734271D01*
X100116577Y-122739177D01*
X100116575Y-122739181D01*
X100021286Y-122943527D01*
X100021283Y-122943532D01*
X100018997Y-122948437D01*
X100017598Y-122953657D01*
X100017594Y-122953669D01*
X99959237Y-123171465D01*
X99959235Y-123171471D01*
X99957837Y-123176692D01*
X99937241Y-123412100D01*
X99957837Y-123647508D01*
X99959236Y-123652730D01*
X99959237Y-123652734D01*
X100017594Y-123870530D01*
X100017597Y-123870538D01*
X100018997Y-123875763D01*
X100021285Y-123880670D01*
X100021286Y-123880672D01*
X100116578Y-124085027D01*
X100116581Y-124085033D01*
X100118865Y-124089930D01*
X100121964Y-124094357D01*
X100121966Y-124094359D01*
X100251299Y-124279066D01*
X100251302Y-124279070D01*
X100254405Y-124283501D01*
X100421499Y-124450595D01*
X100425932Y-124453699D01*
X100425938Y-124453704D01*
X100607058Y-124580525D01*
X100645924Y-124624843D01*
X100659935Y-124682100D01*
X100645924Y-124739357D01*
X100607059Y-124783675D01*
X100425941Y-124910495D01*
X100421499Y-124913605D01*
X100417675Y-124917428D01*
X100417669Y-124917434D01*
X100258234Y-125076869D01*
X100258228Y-125076875D01*
X100254405Y-125080699D01*
X100251302Y-125085129D01*
X100251299Y-125085134D01*
X100121973Y-125269831D01*
X100121968Y-125269838D01*
X100118865Y-125274271D01*
X100116577Y-125279177D01*
X100116575Y-125279181D01*
X100021286Y-125483527D01*
X100021283Y-125483532D01*
X100018997Y-125488437D01*
X100017598Y-125493657D01*
X100017594Y-125493669D01*
X99959237Y-125711465D01*
X99959235Y-125711471D01*
X99957837Y-125716692D01*
X99937241Y-125952100D01*
X99957837Y-126187508D01*
X99959236Y-126192730D01*
X99959237Y-126192734D01*
X100017594Y-126410530D01*
X100017597Y-126410538D01*
X100018997Y-126415763D01*
X100021285Y-126420670D01*
X100021286Y-126420672D01*
X100116578Y-126625027D01*
X100116581Y-126625033D01*
X100118865Y-126629930D01*
X100121964Y-126634357D01*
X100121966Y-126634359D01*
X100251299Y-126819066D01*
X100251302Y-126819070D01*
X100254405Y-126823501D01*
X100421499Y-126990595D01*
X100425932Y-126993699D01*
X100425938Y-126993704D01*
X100607058Y-127120525D01*
X100645924Y-127164843D01*
X100659935Y-127222100D01*
X100645924Y-127279357D01*
X100607059Y-127323675D01*
X100425941Y-127450495D01*
X100421499Y-127453605D01*
X100417675Y-127457428D01*
X100417669Y-127457434D01*
X100258234Y-127616869D01*
X100258228Y-127616875D01*
X100254405Y-127620699D01*
X100251302Y-127625129D01*
X100251299Y-127625134D01*
X100121973Y-127809831D01*
X100121968Y-127809838D01*
X100118865Y-127814271D01*
X100116577Y-127819177D01*
X100116575Y-127819181D01*
X100021286Y-128023527D01*
X100021283Y-128023532D01*
X100018997Y-128028437D01*
X100017598Y-128033657D01*
X100017594Y-128033669D01*
X99959237Y-128251465D01*
X99959235Y-128251471D01*
X99957837Y-128256692D01*
X99937241Y-128492100D01*
X99957837Y-128727508D01*
X99959236Y-128732730D01*
X99959237Y-128732734D01*
X100017594Y-128950530D01*
X100017597Y-128950538D01*
X100018997Y-128955763D01*
X100021285Y-128960670D01*
X100021286Y-128960672D01*
X100116578Y-129165027D01*
X100116581Y-129165033D01*
X100118865Y-129169930D01*
X100121964Y-129174357D01*
X100121966Y-129174359D01*
X100251299Y-129359066D01*
X100251302Y-129359070D01*
X100254405Y-129363501D01*
X100258235Y-129367331D01*
X100258236Y-129367332D01*
X100376718Y-129485814D01*
X100408014Y-129538560D01*
X100410203Y-129599853D01*
X100382750Y-129654697D01*
X100332371Y-129689676D01*
X100209126Y-129735644D01*
X100193710Y-129744062D01*
X100092807Y-129819598D01*
X100080398Y-129832007D01*
X100004862Y-129932910D01*
X99996447Y-129948322D01*
X99952011Y-130067458D01*
X99948473Y-130082432D01*
X99943253Y-130130985D01*
X99942900Y-130137582D01*
X99942900Y-130765774D01*
X99946350Y-130778649D01*
X99959226Y-130782100D01*
X102626574Y-130782100D01*
X102639449Y-130778649D01*
X102642900Y-130765774D01*
X102642900Y-130137582D01*
X102642546Y-130130985D01*
X102637326Y-130082432D01*
X102633788Y-130067458D01*
X102589352Y-129948322D01*
X102580937Y-129932910D01*
X102505401Y-129832007D01*
X102492992Y-129819598D01*
X102392089Y-129744062D01*
X102376679Y-129735648D01*
X102253428Y-129689677D01*
X102203049Y-129654697D01*
X102175596Y-129599853D01*
X102177785Y-129538560D01*
X102209078Y-129485817D01*
X102331395Y-129363501D01*
X102466935Y-129169930D01*
X102566803Y-128955763D01*
X102627963Y-128727508D01*
X102648559Y-128492100D01*
X102627963Y-128256692D01*
X102566803Y-128028437D01*
X102466935Y-127814271D01*
X102331395Y-127620699D01*
X102164301Y-127453605D01*
X102159868Y-127450501D01*
X102159861Y-127450495D01*
X101978742Y-127323675D01*
X101939876Y-127279357D01*
X101925865Y-127222100D01*
X101939876Y-127164843D01*
X101978742Y-127120525D01*
X102159861Y-126993704D01*
X102159861Y-126993703D01*
X102164301Y-126990595D01*
X102331395Y-126823501D01*
X102466935Y-126629930D01*
X102566803Y-126415763D01*
X102627963Y-126187508D01*
X102648559Y-125952100D01*
X102627963Y-125716692D01*
X102566803Y-125488437D01*
X102466935Y-125274271D01*
X102331395Y-125080699D01*
X102164301Y-124913605D01*
X102159868Y-124910501D01*
X102159861Y-124910495D01*
X101978742Y-124783675D01*
X101939876Y-124739357D01*
X101925865Y-124682100D01*
X101939876Y-124624843D01*
X101978742Y-124580525D01*
X102159861Y-124453704D01*
X102159861Y-124453703D01*
X102164301Y-124450595D01*
X102331395Y-124283501D01*
X102379026Y-124215476D01*
X102423345Y-124176611D01*
X102480602Y-124162600D01*
X105370244Y-124162600D01*
X105372689Y-124162600D01*
X105741723Y-124133557D01*
X106107342Y-124075648D01*
X106467289Y-123989232D01*
X106819347Y-123874842D01*
X107161345Y-123733182D01*
X107491173Y-123565126D01*
X107806800Y-123371709D01*
X108106278Y-123154126D01*
X108387762Y-122913716D01*
X108518604Y-122782873D01*
X108518643Y-122782843D01*
X108518650Y-122782850D01*
X108653796Y-122647704D01*
X108902047Y-122357039D01*
X109126728Y-122047791D01*
X109326452Y-121721869D01*
X109499989Y-121381281D01*
X109646268Y-121028127D01*
X109764387Y-120664585D01*
X109853620Y-120292896D01*
X109913414Y-119915351D01*
X109943402Y-119534279D01*
X109943400Y-119343154D01*
X109943400Y-119317174D01*
X109943400Y-104659091D01*
X111149906Y-104659091D01*
X111158013Y-104670281D01*
X111170502Y-104680001D01*
X111179051Y-104685587D01*
X111374094Y-104791139D01*
X111383447Y-104795241D01*
X111593190Y-104867246D01*
X111603099Y-104869755D01*
X111821829Y-104906255D01*
X111832027Y-104907100D01*
X112053773Y-104907100D01*
X112063970Y-104906255D01*
X112282700Y-104869755D01*
X112292609Y-104867246D01*
X112502352Y-104795241D01*
X112511705Y-104791139D01*
X112706745Y-104685588D01*
X112715297Y-104680001D01*
X112727788Y-104670279D01*
X112735892Y-104659092D01*
X112729231Y-104646984D01*
X111954442Y-103872195D01*
X111942900Y-103865531D01*
X111931357Y-103872195D01*
X111156566Y-104646985D01*
X111149906Y-104659091D01*
X109943400Y-104659091D01*
X109943400Y-103512217D01*
X110538526Y-103512217D01*
X110556837Y-103733202D01*
X110558521Y-103743296D01*
X110612959Y-103958266D01*
X110616278Y-103967933D01*
X110705356Y-104171013D01*
X110710222Y-104180003D01*
X110784145Y-104293151D01*
X110792112Y-104300876D01*
X110801492Y-104294953D01*
X111577804Y-103518642D01*
X111584468Y-103507100D01*
X112301331Y-103507100D01*
X112307995Y-103518642D01*
X113084305Y-104294952D01*
X113093686Y-104300876D01*
X113101654Y-104293151D01*
X113175575Y-104180006D01*
X113180443Y-104171011D01*
X113269521Y-103967933D01*
X113272840Y-103958266D01*
X113327278Y-103743296D01*
X113328962Y-103733202D01*
X113347274Y-103512217D01*
X113347274Y-103501983D01*
X113328962Y-103280997D01*
X113327278Y-103270903D01*
X113272840Y-103055933D01*
X113269521Y-103046266D01*
X113180443Y-102843186D01*
X113175578Y-102834196D01*
X113101653Y-102721047D01*
X113093686Y-102713322D01*
X113084305Y-102719246D01*
X112307995Y-103495557D01*
X112301331Y-103507100D01*
X111584468Y-103507100D01*
X111577804Y-103495557D01*
X110801492Y-102719245D01*
X110792112Y-102713322D01*
X110784145Y-102721046D01*
X110710222Y-102834196D01*
X110705356Y-102843186D01*
X110616278Y-103046266D01*
X110612959Y-103055933D01*
X110558521Y-103270903D01*
X110556837Y-103280997D01*
X110538526Y-103501983D01*
X110538526Y-103512217D01*
X109943400Y-103512217D01*
X109943400Y-102913391D01*
X109943400Y-102355106D01*
X111149907Y-102355106D01*
X111156567Y-102367214D01*
X111931357Y-103142004D01*
X111942900Y-103148668D01*
X111954442Y-103142004D01*
X112729232Y-102367213D01*
X112735892Y-102355107D01*
X112727786Y-102343918D01*
X112715294Y-102334196D01*
X112706747Y-102328612D01*
X112511705Y-102223060D01*
X112502352Y-102218958D01*
X112292609Y-102146953D01*
X112282700Y-102144444D01*
X112063970Y-102107944D01*
X112053773Y-102107100D01*
X111832027Y-102107100D01*
X111821829Y-102107944D01*
X111603099Y-102144444D01*
X111593190Y-102146953D01*
X111383447Y-102218958D01*
X111374094Y-102223060D01*
X111179056Y-102328610D01*
X111170500Y-102334200D01*
X111158012Y-102343918D01*
X111149907Y-102355106D01*
X109943400Y-102355106D01*
X109943400Y-99874790D01*
X109943595Y-99867838D01*
X109947901Y-99791151D01*
X109959758Y-99580008D01*
X109961312Y-99566216D01*
X110009017Y-99285436D01*
X110012110Y-99271888D01*
X110020324Y-99243379D01*
X110090950Y-98998225D01*
X110095542Y-98985104D01*
X110204522Y-98722001D01*
X110210553Y-98709477D01*
X110216720Y-98698319D01*
X110348313Y-98460218D01*
X110355708Y-98448450D01*
X110447173Y-98319541D01*
X110492802Y-98280412D01*
X110551474Y-98267339D01*
X110609401Y-98283396D01*
X110652970Y-98324810D01*
X110671941Y-98381849D01*
X110661858Y-98441108D01*
X110615803Y-98546103D01*
X110613743Y-98550800D01*
X110612485Y-98555765D01*
X110612484Y-98555770D01*
X110558025Y-98770820D01*
X110558023Y-98770829D01*
X110556766Y-98775795D01*
X110556342Y-98780902D01*
X110556341Y-98780913D01*
X110543169Y-98939889D01*
X110537600Y-99007100D01*
X110538024Y-99012217D01*
X110556341Y-99233286D01*
X110556342Y-99233295D01*
X110556766Y-99238405D01*
X110558023Y-99243372D01*
X110558025Y-99243379D01*
X110579250Y-99327193D01*
X110613743Y-99463400D01*
X110615803Y-99468096D01*
X110704916Y-99671254D01*
X110704918Y-99671258D01*
X110706976Y-99675949D01*
X110743355Y-99731631D01*
X110831119Y-99865965D01*
X110831122Y-99865969D01*
X110833921Y-99870253D01*
X110991116Y-100041013D01*
X111174274Y-100183570D01*
X111378397Y-100294036D01*
X111597919Y-100369398D01*
X111826851Y-100407600D01*
X112053816Y-100407600D01*
X112058949Y-100407600D01*
X112287881Y-100369398D01*
X112507403Y-100294036D01*
X112711526Y-100183570D01*
X112894684Y-100041013D01*
X113051879Y-99870253D01*
X113178824Y-99675949D01*
X113253976Y-99504620D01*
X114079170Y-99504620D01*
X114083404Y-99510965D01*
X114285110Y-99634570D01*
X114293773Y-99638984D01*
X114517443Y-99731631D01*
X114526680Y-99734633D01*
X114762097Y-99791151D01*
X114771683Y-99792669D01*
X115013046Y-99811666D01*
X115022754Y-99811666D01*
X115264116Y-99792669D01*
X115273702Y-99791151D01*
X115509119Y-99734633D01*
X115518356Y-99731631D01*
X115742026Y-99638984D01*
X115750689Y-99634570D01*
X115952409Y-99510956D01*
X115956632Y-99504622D01*
X115949960Y-99492714D01*
X115029442Y-98572195D01*
X115017900Y-98565531D01*
X115006357Y-98572195D01*
X114085842Y-99492710D01*
X114079170Y-99504620D01*
X113253976Y-99504620D01*
X113272057Y-99463400D01*
X113329034Y-99238405D01*
X113348200Y-99007100D01*
X113346397Y-98985343D01*
X113360194Y-98917445D01*
X113408268Y-98867547D01*
X113475608Y-98851232D01*
X113541188Y-98873593D01*
X113584533Y-98927649D01*
X113586013Y-98931223D01*
X113590429Y-98939889D01*
X113714032Y-99141591D01*
X113720378Y-99145827D01*
X113732289Y-99139155D01*
X114652803Y-98218642D01*
X114659466Y-98207100D01*
X115376331Y-98207100D01*
X115382995Y-98218642D01*
X116303514Y-99139160D01*
X116315422Y-99145832D01*
X116321756Y-99141609D01*
X116445370Y-98939889D01*
X116449784Y-98931226D01*
X116542431Y-98707556D01*
X116545433Y-98698319D01*
X116601951Y-98462902D01*
X116603469Y-98453316D01*
X116622466Y-98211954D01*
X116622466Y-98202246D01*
X116603469Y-97960883D01*
X116601951Y-97951297D01*
X116545433Y-97715880D01*
X116542431Y-97706643D01*
X116449784Y-97482973D01*
X116445370Y-97474310D01*
X116321765Y-97272604D01*
X116315420Y-97268370D01*
X116303510Y-97275042D01*
X115382995Y-98195557D01*
X115376331Y-98207100D01*
X114659466Y-98207100D01*
X114659467Y-98207099D01*
X114652803Y-98195557D01*
X113732294Y-97275048D01*
X113720380Y-97268376D01*
X113714021Y-97272626D01*
X113590429Y-97474310D01*
X113586015Y-97482973D01*
X113493368Y-97706643D01*
X113490366Y-97715880D01*
X113433848Y-97951297D01*
X113432330Y-97960883D01*
X113413334Y-98202246D01*
X113413334Y-98211954D01*
X113419154Y-98285907D01*
X113405362Y-98353206D01*
X113357861Y-98402835D01*
X113291231Y-98419561D01*
X113225922Y-98398251D01*
X113183550Y-98347333D01*
X113183324Y-98347456D01*
X113182712Y-98346326D01*
X113181980Y-98345446D01*
X113180883Y-98342945D01*
X113180881Y-98342941D01*
X113178824Y-98338251D01*
X113051879Y-98143947D01*
X112894684Y-97973187D01*
X112860305Y-97946429D01*
X112715572Y-97833779D01*
X112715571Y-97833778D01*
X112711526Y-97830630D01*
X112550879Y-97743692D01*
X112508472Y-97705973D01*
X112487311Y-97653311D01*
X112491831Y-97596736D01*
X112521085Y-97548102D01*
X112568942Y-97517595D01*
X112713151Y-97467136D01*
X112982516Y-97337418D01*
X113235664Y-97178357D01*
X113469412Y-96991953D01*
X113513087Y-96948278D01*
X113513093Y-96948275D01*
X113551788Y-96909580D01*
X114079176Y-96909580D01*
X114085848Y-96921494D01*
X115006357Y-97842003D01*
X115017900Y-97848667D01*
X115029442Y-97842003D01*
X115949955Y-96921489D01*
X115956627Y-96909578D01*
X115952391Y-96903232D01*
X115760764Y-96785803D01*
X116701117Y-96785803D01*
X116708550Y-96793914D01*
X116765977Y-96834125D01*
X116775327Y-96839523D01*
X116971668Y-96931079D01*
X116981802Y-96934767D01*
X117191062Y-96990839D01*
X117201693Y-96992713D01*
X117417505Y-97011594D01*
X117428295Y-97011594D01*
X117644106Y-96992713D01*
X117654737Y-96990839D01*
X117863997Y-96934767D01*
X117874131Y-96931079D01*
X118070475Y-96839522D01*
X118079820Y-96834126D01*
X118137248Y-96793914D01*
X118144680Y-96785803D01*
X118138767Y-96776521D01*
X117434442Y-96072195D01*
X117422899Y-96065531D01*
X117411357Y-96072195D01*
X116707028Y-96776524D01*
X116701117Y-96785803D01*
X115760764Y-96785803D01*
X115750689Y-96779629D01*
X115742026Y-96775215D01*
X115518356Y-96682568D01*
X115509119Y-96679566D01*
X115273702Y-96623048D01*
X115264116Y-96621530D01*
X115022754Y-96602534D01*
X115013046Y-96602534D01*
X114771683Y-96621530D01*
X114762097Y-96623048D01*
X114526680Y-96679566D01*
X114517443Y-96682568D01*
X114293773Y-96775215D01*
X114285110Y-96779629D01*
X114083426Y-96903221D01*
X114079176Y-96909580D01*
X113551788Y-96909580D01*
X114411553Y-96049813D01*
X114411556Y-96049812D01*
X114748873Y-95712495D01*
X116118406Y-95712495D01*
X116137286Y-95928306D01*
X116139160Y-95938937D01*
X116195232Y-96148197D01*
X116198920Y-96158331D01*
X116290476Y-96354672D01*
X116295874Y-96364022D01*
X116336084Y-96421448D01*
X116344195Y-96428881D01*
X116353474Y-96422970D01*
X117057803Y-95718641D01*
X117064467Y-95707099D01*
X117781331Y-95707099D01*
X117787995Y-95718641D01*
X118492321Y-96422967D01*
X118501603Y-96428880D01*
X118509714Y-96421448D01*
X118549926Y-96364020D01*
X118555322Y-96354675D01*
X118646879Y-96158331D01*
X118650567Y-96148197D01*
X118706639Y-95938937D01*
X118708513Y-95928306D01*
X118727394Y-95712495D01*
X118727394Y-95701705D01*
X118708513Y-95485893D01*
X118706639Y-95475262D01*
X118650567Y-95266002D01*
X118646879Y-95255868D01*
X118555323Y-95059527D01*
X118549925Y-95050177D01*
X118509714Y-94992750D01*
X118501603Y-94985317D01*
X118492324Y-94991228D01*
X117787995Y-95695556D01*
X117781331Y-95707099D01*
X117064467Y-95707099D01*
X117057803Y-95695556D01*
X116353474Y-94991228D01*
X116344196Y-94985317D01*
X116336083Y-94992751D01*
X116295871Y-95050181D01*
X116290477Y-95059525D01*
X116198920Y-95255868D01*
X116195232Y-95266002D01*
X116139160Y-95475262D01*
X116137286Y-95485893D01*
X116118406Y-95701705D01*
X116118406Y-95712495D01*
X114748873Y-95712495D01*
X115851389Y-94609977D01*
X115856407Y-94605232D01*
X116034199Y-94446349D01*
X116045057Y-94437690D01*
X116236655Y-94301745D01*
X116248418Y-94294354D01*
X116439212Y-94188906D01*
X116486332Y-94174104D01*
X116535496Y-94178870D01*
X116578899Y-94202450D01*
X116579924Y-94203310D01*
X116583761Y-94207147D01*
X116770166Y-94337668D01*
X116785873Y-94344992D01*
X116838049Y-94390748D01*
X116857470Y-94457372D01*
X116838053Y-94523996D01*
X116785880Y-94569755D01*
X116775324Y-94574677D01*
X116765981Y-94580071D01*
X116708551Y-94620283D01*
X116701117Y-94628396D01*
X116707028Y-94637674D01*
X117411357Y-95342003D01*
X117422900Y-95348667D01*
X117434442Y-95342003D01*
X118138770Y-94637674D01*
X118144681Y-94628395D01*
X118137248Y-94620284D01*
X118079822Y-94580074D01*
X118070470Y-94574675D01*
X118059922Y-94569756D01*
X118007747Y-94523998D01*
X117988329Y-94457372D01*
X118007751Y-94390747D01*
X118059925Y-94344992D01*
X118075634Y-94337668D01*
X118262039Y-94207147D01*
X118422947Y-94046239D01*
X118553468Y-93859834D01*
X118649639Y-93653596D01*
X118708535Y-93433792D01*
X118728368Y-93207100D01*
X118708535Y-92980408D01*
X118668884Y-92832428D01*
X118651041Y-92765836D01*
X118651040Y-92765834D01*
X118649639Y-92760604D01*
X118553468Y-92554366D01*
X118422947Y-92367961D01*
X118262039Y-92207053D01*
X118075634Y-92076532D01*
X118070728Y-92074244D01*
X118070719Y-92074239D01*
X118060516Y-92069482D01*
X118008340Y-92023725D01*
X117988920Y-91957100D01*
X118008340Y-91890475D01*
X118060516Y-91844718D01*
X118070719Y-91839960D01*
X118070719Y-91839959D01*
X118075634Y-91837668D01*
X118262039Y-91707147D01*
X118422947Y-91546239D01*
X118553468Y-91359834D01*
X118649639Y-91153596D01*
X118708535Y-90933792D01*
X118728368Y-90707100D01*
X118708535Y-90480408D01*
X118649639Y-90260604D01*
X118553468Y-90054366D01*
X118422947Y-89867961D01*
X118262039Y-89707053D01*
X118075634Y-89576532D01*
X117895887Y-89492714D01*
X117874305Y-89482650D01*
X117874303Y-89482649D01*
X117869396Y-89480361D01*
X117864171Y-89478961D01*
X117864163Y-89478958D01*
X117654816Y-89422864D01*
X117654807Y-89422862D01*
X117649592Y-89421465D01*
X117644204Y-89420993D01*
X117644201Y-89420993D01*
X117428295Y-89402104D01*
X117422900Y-89401632D01*
X117417505Y-89402104D01*
X117201598Y-89420993D01*
X117201593Y-89420993D01*
X117196208Y-89421465D01*
X117190994Y-89422862D01*
X117190983Y-89422864D01*
X116981636Y-89478958D01*
X116981624Y-89478962D01*
X116976404Y-89480361D01*
X116971499Y-89482647D01*
X116971494Y-89482650D01*
X116775076Y-89574242D01*
X116775072Y-89574244D01*
X116770166Y-89576532D01*
X116765733Y-89579635D01*
X116765726Y-89579640D01*
X116588196Y-89703947D01*
X116588191Y-89703950D01*
X116583761Y-89707053D01*
X116579937Y-89710876D01*
X116579931Y-89710882D01*
X116426682Y-89864131D01*
X116426676Y-89864137D01*
X116422853Y-89867961D01*
X116419750Y-89872391D01*
X116419747Y-89872396D01*
X116295440Y-90049926D01*
X116295435Y-90049933D01*
X116292332Y-90054366D01*
X116290044Y-90059272D01*
X116290042Y-90059276D01*
X116198450Y-90255694D01*
X116198447Y-90255699D01*
X116196161Y-90260604D01*
X116194762Y-90265824D01*
X116194758Y-90265836D01*
X116138664Y-90475183D01*
X116138662Y-90475194D01*
X116137265Y-90480408D01*
X116136793Y-90485793D01*
X116136793Y-90485798D01*
X116125369Y-90616377D01*
X116117432Y-90707100D01*
X116117904Y-90712495D01*
X116129857Y-90849124D01*
X116137265Y-90933792D01*
X116138662Y-90939007D01*
X116138664Y-90939016D01*
X116194758Y-91148363D01*
X116194761Y-91148371D01*
X116196161Y-91153596D01*
X116292332Y-91359834D01*
X116422853Y-91546239D01*
X116583761Y-91707147D01*
X116770166Y-91837668D01*
X116780960Y-91842701D01*
X116785286Y-91844719D01*
X116837460Y-91890476D01*
X116856879Y-91957100D01*
X116837460Y-92023724D01*
X116785286Y-92069481D01*
X116775078Y-92074241D01*
X116775073Y-92074243D01*
X116770166Y-92076532D01*
X116765733Y-92079635D01*
X116765726Y-92079640D01*
X116588196Y-92203947D01*
X116588191Y-92203950D01*
X116583761Y-92207053D01*
X116579937Y-92210876D01*
X116579931Y-92210882D01*
X116426682Y-92364131D01*
X116426676Y-92364137D01*
X116422853Y-92367961D01*
X116419750Y-92372391D01*
X116419747Y-92372396D01*
X116295434Y-92549934D01*
X116295427Y-92549944D01*
X116292332Y-92554366D01*
X116290052Y-92559254D01*
X116290040Y-92559276D01*
X116271918Y-92598138D01*
X116243310Y-92637153D01*
X116201949Y-92662252D01*
X116000509Y-92735571D01*
X116000491Y-92735578D01*
X115997970Y-92736496D01*
X115995526Y-92737635D01*
X115995513Y-92737641D01*
X115706032Y-92872627D01*
X115706022Y-92872631D01*
X115703569Y-92873776D01*
X115701224Y-92875129D01*
X115701218Y-92875133D01*
X115424587Y-93034844D01*
X115424562Y-93034859D01*
X115422253Y-93036193D01*
X115420055Y-93037731D01*
X115420044Y-93037739D01*
X115158383Y-93220955D01*
X115158374Y-93220961D01*
X115156163Y-93222510D01*
X115154100Y-93224240D01*
X115154087Y-93224251D01*
X114909402Y-93429565D01*
X114907324Y-93431309D01*
X114905414Y-93433218D01*
X114905403Y-93433229D01*
X114792477Y-93546155D01*
X114736699Y-93601932D01*
X114736697Y-93601934D01*
X113381309Y-94957323D01*
X113381305Y-94957327D01*
X112517207Y-95821424D01*
X112510057Y-95828034D01*
X112382661Y-95936839D01*
X112366919Y-95948276D01*
X112228241Y-96033257D01*
X112210904Y-96042090D01*
X112060645Y-96104328D01*
X112042140Y-96110341D01*
X111883989Y-96148309D01*
X111864771Y-96151353D01*
X111697652Y-96164506D01*
X111687923Y-96164888D01*
X111456999Y-96164888D01*
X111456977Y-96164890D01*
X111456935Y-96164891D01*
X111354697Y-96164891D01*
X111351241Y-96165280D01*
X111351230Y-96165281D01*
X111067962Y-96197197D01*
X111067953Y-96197198D01*
X111064505Y-96197587D01*
X111061130Y-96198357D01*
X111061114Y-96198360D01*
X110783195Y-96261792D01*
X110783183Y-96261795D01*
X110779798Y-96262568D01*
X110776532Y-96263710D01*
X110776514Y-96263716D01*
X110507434Y-96357872D01*
X110507428Y-96357874D01*
X110504157Y-96359019D01*
X110501024Y-96360527D01*
X110501021Y-96360529D01*
X110244187Y-96484212D01*
X110244175Y-96484218D01*
X110241049Y-96485724D01*
X110238117Y-96487566D01*
X110238103Y-96487574D01*
X109996724Y-96639242D01*
X109996714Y-96639248D01*
X109993781Y-96641092D01*
X109991065Y-96643257D01*
X109991062Y-96643260D01*
X109768185Y-96820999D01*
X109765464Y-96823169D01*
X109763008Y-96825624D01*
X109762999Y-96825633D01*
X109717992Y-96870640D01*
X109662229Y-96926402D01*
X109662213Y-96926413D01*
X109662212Y-96926412D01*
X109662200Y-96926423D01*
X109662196Y-96926427D01*
X109535544Y-97053079D01*
X109535533Y-97053090D01*
X109533635Y-97054989D01*
X109531915Y-97057037D01*
X109531901Y-97057054D01*
X109301613Y-97331502D01*
X109301602Y-97331515D01*
X109299872Y-97333578D01*
X109298323Y-97335789D01*
X109298317Y-97335798D01*
X109092825Y-97629271D01*
X109092817Y-97629282D01*
X109091279Y-97631480D01*
X109089939Y-97633800D01*
X109089930Y-97633815D01*
X108910800Y-97944078D01*
X108909443Y-97946429D01*
X108908298Y-97948882D01*
X108908294Y-97948892D01*
X108759801Y-98267339D01*
X108755750Y-98276027D01*
X108754825Y-98278567D01*
X108754821Y-98278578D01*
X108683922Y-98473375D01*
X108643742Y-98528678D01*
X108580362Y-98554286D01*
X108513042Y-98542416D01*
X108462242Y-98496675D01*
X108443400Y-98430965D01*
X108443400Y-93207100D01*
X111937317Y-93207100D01*
X111937914Y-93213161D01*
X111957002Y-93406969D01*
X111957003Y-93406975D01*
X111957600Y-93413034D01*
X111959367Y-93418859D01*
X111959368Y-93418864D01*
X111965481Y-93439016D01*
X112017668Y-93611054D01*
X112115215Y-93793550D01*
X112246490Y-93953510D01*
X112406450Y-94084785D01*
X112588946Y-94182332D01*
X112786966Y-94242400D01*
X112941292Y-94257600D01*
X113041458Y-94257600D01*
X113044508Y-94257600D01*
X113198834Y-94242400D01*
X113396854Y-94182332D01*
X113579350Y-94084785D01*
X113739310Y-93953510D01*
X113870585Y-93793550D01*
X113968132Y-93611054D01*
X114028200Y-93413034D01*
X114048483Y-93207100D01*
X114028200Y-93001166D01*
X113968132Y-92803146D01*
X113870585Y-92620650D01*
X113739310Y-92460690D01*
X113579350Y-92329415D01*
X113573440Y-92326256D01*
X113402228Y-92234740D01*
X113402223Y-92234738D01*
X113396854Y-92231868D01*
X113304810Y-92203947D01*
X113204664Y-92173568D01*
X113204659Y-92173567D01*
X113198834Y-92171800D01*
X113192775Y-92171203D01*
X113192769Y-92171202D01*
X113047541Y-92156898D01*
X113047526Y-92156897D01*
X113044508Y-92156600D01*
X112941292Y-92156600D01*
X112938274Y-92156897D01*
X112938258Y-92156898D01*
X112793030Y-92171202D01*
X112793022Y-92171203D01*
X112786966Y-92171800D01*
X112781142Y-92173566D01*
X112781135Y-92173568D01*
X112594777Y-92230099D01*
X112594775Y-92230099D01*
X112588946Y-92231868D01*
X112583579Y-92234736D01*
X112583571Y-92234740D01*
X112411820Y-92326544D01*
X112411815Y-92326547D01*
X112406450Y-92329415D01*
X112401746Y-92333274D01*
X112401742Y-92333278D01*
X112251196Y-92456827D01*
X112251190Y-92456832D01*
X112246490Y-92460690D01*
X112242632Y-92465390D01*
X112242627Y-92465396D01*
X112119078Y-92615942D01*
X112119074Y-92615946D01*
X112115215Y-92620650D01*
X112112347Y-92626015D01*
X112112344Y-92626020D01*
X112020540Y-92797771D01*
X112020536Y-92797779D01*
X112017668Y-92803146D01*
X112015899Y-92808975D01*
X112015899Y-92808977D01*
X111959368Y-92995335D01*
X111959366Y-92995342D01*
X111957600Y-93001166D01*
X111957003Y-93007222D01*
X111957002Y-93007230D01*
X111938790Y-93192140D01*
X111937317Y-93207100D01*
X108443400Y-93207100D01*
X108443400Y-92758461D01*
X108443782Y-92748731D01*
X108450306Y-92665849D01*
X108455514Y-92599684D01*
X108458558Y-92580468D01*
X108465891Y-92549926D01*
X108492321Y-92439837D01*
X108498333Y-92421341D01*
X108553678Y-92287731D01*
X108562504Y-92270405D01*
X108638075Y-92147087D01*
X108649506Y-92131355D01*
X108746571Y-92017706D01*
X108753142Y-92010597D01*
X108843815Y-91919925D01*
X109009662Y-91711957D01*
X109151180Y-91486728D01*
X109266591Y-91247070D01*
X109354441Y-90995996D01*
X109413626Y-90736664D01*
X109443403Y-90472337D01*
X109443400Y-90339337D01*
X109443400Y-89504620D01*
X114079170Y-89504620D01*
X114083404Y-89510965D01*
X114285110Y-89634570D01*
X114293773Y-89638984D01*
X114517443Y-89731631D01*
X114526680Y-89734633D01*
X114762097Y-89791151D01*
X114771683Y-89792669D01*
X115013046Y-89811666D01*
X115022754Y-89811666D01*
X115264116Y-89792669D01*
X115273702Y-89791151D01*
X115509119Y-89734633D01*
X115518356Y-89731631D01*
X115742026Y-89638984D01*
X115750689Y-89634570D01*
X115952409Y-89510956D01*
X115956632Y-89504622D01*
X115949960Y-89492714D01*
X115029442Y-88572195D01*
X115017900Y-88565531D01*
X115006357Y-88572195D01*
X114085842Y-89492710D01*
X114079170Y-89504620D01*
X109443400Y-89504620D01*
X109443400Y-88211954D01*
X113413334Y-88211954D01*
X113432330Y-88453316D01*
X113433848Y-88462902D01*
X113490366Y-88698319D01*
X113493368Y-88707556D01*
X113586015Y-88931226D01*
X113590429Y-88939889D01*
X113714032Y-89141591D01*
X113720378Y-89145827D01*
X113732289Y-89139155D01*
X114652803Y-88218642D01*
X114659467Y-88207100D01*
X115376331Y-88207100D01*
X115382995Y-88218642D01*
X116303514Y-89139160D01*
X116315422Y-89145832D01*
X116321756Y-89141609D01*
X116445370Y-88939889D01*
X116449784Y-88931226D01*
X116542431Y-88707556D01*
X116545433Y-88698319D01*
X116601951Y-88462902D01*
X116603469Y-88453316D01*
X116622466Y-88211954D01*
X116622466Y-88202246D01*
X116603469Y-87960883D01*
X116601951Y-87951297D01*
X116545433Y-87715880D01*
X116542431Y-87706643D01*
X116449784Y-87482973D01*
X116445370Y-87474310D01*
X116321765Y-87272604D01*
X116315420Y-87268370D01*
X116303510Y-87275042D01*
X115382995Y-88195557D01*
X115376331Y-88207100D01*
X114659467Y-88207100D01*
X114652803Y-88195557D01*
X113732294Y-87275048D01*
X113720380Y-87268376D01*
X113714021Y-87272626D01*
X113590429Y-87474310D01*
X113586015Y-87482973D01*
X113493368Y-87706643D01*
X113490366Y-87715880D01*
X113433848Y-87951297D01*
X113432330Y-87960883D01*
X113413334Y-88202246D01*
X113413334Y-88211954D01*
X109443400Y-88211954D01*
X109443400Y-86909580D01*
X114079176Y-86909580D01*
X114085848Y-86921494D01*
X115006357Y-87842003D01*
X115017900Y-87848667D01*
X115029442Y-87842003D01*
X115949955Y-86921489D01*
X115956627Y-86909578D01*
X115952391Y-86903232D01*
X115750689Y-86779629D01*
X115742026Y-86775215D01*
X115518356Y-86682568D01*
X115509119Y-86679566D01*
X115273702Y-86623048D01*
X115264116Y-86621530D01*
X115022754Y-86602534D01*
X115013046Y-86602534D01*
X114771683Y-86621530D01*
X114762097Y-86623048D01*
X114526680Y-86679566D01*
X114517443Y-86682568D01*
X114293773Y-86775215D01*
X114285110Y-86779629D01*
X114083426Y-86903221D01*
X114079176Y-86909580D01*
X109443400Y-86909580D01*
X109443400Y-85603763D01*
X109457411Y-85546506D01*
X109496276Y-85502188D01*
X109532039Y-85477147D01*
X109692947Y-85316239D01*
X109823468Y-85129834D01*
X109830517Y-85114716D01*
X109876275Y-85062540D01*
X109942900Y-85043120D01*
X110009525Y-85062540D01*
X110055282Y-85114716D01*
X110060039Y-85124919D01*
X110060044Y-85124928D01*
X110062332Y-85129834D01*
X110192853Y-85316239D01*
X110353761Y-85477147D01*
X110540166Y-85607668D01*
X110746404Y-85703839D01*
X110966208Y-85762735D01*
X111192900Y-85782568D01*
X111419592Y-85762735D01*
X111639396Y-85703839D01*
X111845634Y-85607668D01*
X112032039Y-85477147D01*
X112192947Y-85316239D01*
X112323468Y-85129834D01*
X112419639Y-84923596D01*
X112478535Y-84703792D01*
X112498368Y-84477100D01*
X112478535Y-84250408D01*
X112419639Y-84030604D01*
X112323468Y-83824366D01*
X112192947Y-83637961D01*
X112032039Y-83477053D01*
X111908119Y-83390284D01*
X111850073Y-83349640D01*
X111850071Y-83349639D01*
X111845634Y-83346532D01*
X111639396Y-83250361D01*
X111634171Y-83248961D01*
X111634163Y-83248958D01*
X111424816Y-83192864D01*
X111424807Y-83192862D01*
X111419592Y-83191465D01*
X111414204Y-83190993D01*
X111414201Y-83190993D01*
X111198295Y-83172104D01*
X111192900Y-83171632D01*
X111187505Y-83172104D01*
X110971598Y-83190993D01*
X110971593Y-83190993D01*
X110966208Y-83191465D01*
X110960994Y-83192862D01*
X110960983Y-83192864D01*
X110751636Y-83248958D01*
X110751624Y-83248962D01*
X110746404Y-83250361D01*
X110741499Y-83252647D01*
X110741494Y-83252650D01*
X110545076Y-83344242D01*
X110545072Y-83344244D01*
X110540166Y-83346532D01*
X110535733Y-83349635D01*
X110535726Y-83349640D01*
X110358196Y-83473947D01*
X110358191Y-83473950D01*
X110353761Y-83477053D01*
X110349937Y-83480876D01*
X110349931Y-83480882D01*
X110196682Y-83634131D01*
X110196676Y-83634137D01*
X110192853Y-83637961D01*
X110189750Y-83642391D01*
X110189747Y-83642396D01*
X110065440Y-83819926D01*
X110065435Y-83819933D01*
X110062332Y-83824366D01*
X110060043Y-83829273D01*
X110060041Y-83829278D01*
X110055281Y-83839486D01*
X110009524Y-83891660D01*
X109942900Y-83911079D01*
X109876276Y-83891660D01*
X109830519Y-83839486D01*
X109828501Y-83835160D01*
X109823468Y-83824366D01*
X109692947Y-83637961D01*
X109532039Y-83477053D01*
X109408119Y-83390284D01*
X109350073Y-83349640D01*
X109350071Y-83349639D01*
X109345634Y-83346532D01*
X109139396Y-83250361D01*
X109134171Y-83248961D01*
X109134163Y-83248958D01*
X108924816Y-83192864D01*
X108924807Y-83192862D01*
X108919592Y-83191465D01*
X108914204Y-83190993D01*
X108914201Y-83190993D01*
X108698295Y-83172104D01*
X108692900Y-83171632D01*
X108687505Y-83172104D01*
X108471598Y-83190993D01*
X108471593Y-83190993D01*
X108466208Y-83191465D01*
X108460994Y-83192862D01*
X108460983Y-83192864D01*
X108251636Y-83248958D01*
X108251624Y-83248962D01*
X108246404Y-83250361D01*
X108241499Y-83252647D01*
X108241494Y-83252650D01*
X108045076Y-83344242D01*
X108045072Y-83344244D01*
X108040166Y-83346532D01*
X108035733Y-83349635D01*
X108035726Y-83349640D01*
X107858196Y-83473947D01*
X107858191Y-83473950D01*
X107853761Y-83477053D01*
X107849937Y-83480876D01*
X107849931Y-83480882D01*
X107696682Y-83634131D01*
X107696676Y-83634137D01*
X107692853Y-83637961D01*
X107689750Y-83642391D01*
X107689747Y-83642396D01*
X107565440Y-83819926D01*
X107565435Y-83819933D01*
X107562332Y-83824366D01*
X107560042Y-83829275D01*
X107560040Y-83829280D01*
X107555004Y-83840079D01*
X107509246Y-83892253D01*
X107442621Y-83911670D01*
X107375997Y-83892249D01*
X107330241Y-83840074D01*
X107325320Y-83829522D01*
X107319925Y-83820177D01*
X107279714Y-83762750D01*
X107271603Y-83755317D01*
X107262324Y-83761228D01*
X106557995Y-84465557D01*
X106551331Y-84477100D01*
X106557995Y-84488642D01*
X107262321Y-85192967D01*
X107271603Y-85198880D01*
X107279714Y-85191448D01*
X107319926Y-85134020D01*
X107325320Y-85124678D01*
X107330240Y-85114128D01*
X107375996Y-85061950D01*
X107442621Y-85042529D01*
X107509247Y-85061947D01*
X107555005Y-85114123D01*
X107560038Y-85124917D01*
X107560043Y-85124927D01*
X107562332Y-85129834D01*
X107692853Y-85316239D01*
X107853761Y-85477147D01*
X107889524Y-85502188D01*
X107928389Y-85546506D01*
X107942400Y-85603763D01*
X107942400Y-90260487D01*
X107942398Y-90260496D01*
X107942398Y-90260516D01*
X107942398Y-90260517D01*
X107942399Y-90334505D01*
X107942017Y-90344233D01*
X107932491Y-90465315D01*
X107929447Y-90484535D01*
X107902238Y-90597873D01*
X107896226Y-90616377D01*
X107851619Y-90724075D01*
X107842785Y-90741414D01*
X107781881Y-90840802D01*
X107770443Y-90856545D01*
X107691709Y-90948730D01*
X107685101Y-90955878D01*
X107632701Y-91008278D01*
X107632691Y-91008288D01*
X107632613Y-91008367D01*
X107632592Y-91008397D01*
X107632537Y-91008459D01*
X107589714Y-91051283D01*
X107589706Y-91051291D01*
X107587259Y-91053739D01*
X107585105Y-91056439D01*
X107585096Y-91056450D01*
X107411063Y-91274680D01*
X107411053Y-91274693D01*
X107408899Y-91277395D01*
X107407058Y-91280323D01*
X107407050Y-91280336D01*
X107258548Y-91516674D01*
X107256701Y-91519614D01*
X107255200Y-91522729D01*
X107255197Y-91522736D01*
X107134084Y-91774224D01*
X107132579Y-91777350D01*
X107131437Y-91780613D01*
X107131431Y-91780628D01*
X107039246Y-92044071D01*
X107039241Y-92044086D01*
X107038095Y-92047363D01*
X107037321Y-92050749D01*
X107037319Y-92050760D01*
X106975208Y-92322869D01*
X106975204Y-92322887D01*
X106974436Y-92326256D01*
X106974048Y-92329693D01*
X106974046Y-92329709D01*
X106949230Y-92549934D01*
X106942402Y-92610524D01*
X106942401Y-92613990D01*
X106942401Y-92614007D01*
X106942401Y-92644686D01*
X106942401Y-92665843D01*
X106942400Y-92665849D01*
X106942400Y-92736496D01*
X106942400Y-92753557D01*
X106942399Y-92832438D01*
X106942400Y-92832442D01*
X106942400Y-92832443D01*
X106942400Y-98347760D01*
X106924394Y-98412112D01*
X106875606Y-98457776D01*
X106810205Y-98471489D01*
X106747184Y-98449270D01*
X106704844Y-98397571D01*
X106682861Y-98347456D01*
X106678824Y-98338251D01*
X106551879Y-98143947D01*
X106394684Y-97973187D01*
X106360305Y-97946429D01*
X106215572Y-97833779D01*
X106215571Y-97833778D01*
X106211526Y-97830630D01*
X106157397Y-97801337D01*
X106011907Y-97722601D01*
X106011902Y-97722599D01*
X106007403Y-97720164D01*
X106002557Y-97718500D01*
X106002554Y-97718499D01*
X105792734Y-97646468D01*
X105792733Y-97646467D01*
X105787881Y-97644802D01*
X105782831Y-97643959D01*
X105782822Y-97643957D01*
X105564011Y-97607444D01*
X105564002Y-97607443D01*
X105558949Y-97606600D01*
X105326851Y-97606600D01*
X105321798Y-97607443D01*
X105321788Y-97607444D01*
X105102977Y-97643957D01*
X105102965Y-97643959D01*
X105097919Y-97644802D01*
X105093069Y-97646466D01*
X105093065Y-97646468D01*
X104883245Y-97718499D01*
X104883237Y-97718502D01*
X104878397Y-97720164D01*
X104873901Y-97722596D01*
X104873892Y-97722601D01*
X104678782Y-97828190D01*
X104678778Y-97828192D01*
X104674274Y-97830630D01*
X104670234Y-97833774D01*
X104670227Y-97833779D01*
X104495163Y-97970036D01*
X104495155Y-97970043D01*
X104491116Y-97973187D01*
X104487646Y-97976955D01*
X104487642Y-97976960D01*
X104337391Y-98140177D01*
X104337388Y-98140180D01*
X104333921Y-98143947D01*
X104331126Y-98148224D01*
X104331119Y-98148234D01*
X104215757Y-98324810D01*
X104206976Y-98338251D01*
X104204921Y-98342933D01*
X104204911Y-98342954D01*
X104203813Y-98345459D01*
X104203080Y-98346339D01*
X104202476Y-98347456D01*
X104202251Y-98347334D01*
X104159867Y-98398258D01*
X104094559Y-98419562D01*
X104027932Y-98402832D01*
X103980435Y-98353202D01*
X103966645Y-98285906D01*
X103972466Y-98211952D01*
X103972466Y-98202246D01*
X103953469Y-97960883D01*
X103951951Y-97951297D01*
X103895433Y-97715880D01*
X103892431Y-97706643D01*
X103799784Y-97482973D01*
X103795370Y-97474310D01*
X103671765Y-97272604D01*
X103665420Y-97268370D01*
X103653510Y-97275042D01*
X102732995Y-98195557D01*
X102726331Y-98207100D01*
X102732995Y-98218642D01*
X103653514Y-99139160D01*
X103665422Y-99145832D01*
X103671756Y-99141609D01*
X103795370Y-98939889D01*
X103799783Y-98931229D01*
X103801261Y-98927661D01*
X103844601Y-98873600D01*
X103910181Y-98851233D01*
X103977524Y-98867543D01*
X104025602Y-98917438D01*
X104039403Y-98985340D01*
X104037600Y-99007100D01*
X104038024Y-99012217D01*
X104056341Y-99233286D01*
X104056342Y-99233295D01*
X104056766Y-99238405D01*
X104058023Y-99243372D01*
X104058025Y-99243379D01*
X104079250Y-99327193D01*
X104113743Y-99463400D01*
X104115803Y-99468096D01*
X104204916Y-99671254D01*
X104204918Y-99671258D01*
X104206976Y-99675949D01*
X104243355Y-99731631D01*
X104331119Y-99865965D01*
X104331122Y-99865969D01*
X104333921Y-99870253D01*
X104491116Y-100041013D01*
X104674274Y-100183570D01*
X104878397Y-100294036D01*
X105097919Y-100369398D01*
X105326851Y-100407600D01*
X105553816Y-100407600D01*
X105558949Y-100407600D01*
X105787881Y-100369398D01*
X106007403Y-100294036D01*
X106211526Y-100183570D01*
X106394684Y-100041013D01*
X106551879Y-99870253D01*
X106678824Y-99675949D01*
X106704844Y-99616628D01*
X106747184Y-99564930D01*
X106810205Y-99542711D01*
X106875606Y-99556424D01*
X106924394Y-99602088D01*
X106942400Y-99666440D01*
X106942400Y-102849005D01*
X106924394Y-102913357D01*
X106875606Y-102959021D01*
X106810205Y-102972734D01*
X106747183Y-102950514D01*
X106704844Y-102898815D01*
X106680443Y-102843186D01*
X106675578Y-102834196D01*
X106601653Y-102721047D01*
X106593686Y-102713322D01*
X106584305Y-102719246D01*
X105807995Y-103495557D01*
X105801331Y-103507100D01*
X105807995Y-103518642D01*
X106584305Y-104294952D01*
X106593686Y-104300876D01*
X106601654Y-104293151D01*
X106675575Y-104180006D01*
X106680444Y-104171011D01*
X106704844Y-104115385D01*
X106747183Y-104063686D01*
X106810205Y-104041466D01*
X106875606Y-104055179D01*
X106924394Y-104100843D01*
X106942400Y-104165195D01*
X106942400Y-118539410D01*
X106942205Y-118546363D01*
X106926042Y-118834180D01*
X106924485Y-118847998D01*
X106876783Y-119128755D01*
X106873689Y-119142311D01*
X106794850Y-119415970D01*
X106790257Y-119429095D01*
X106681279Y-119692193D01*
X106675246Y-119704722D01*
X106537486Y-119953982D01*
X106530090Y-119965751D01*
X106506256Y-119999343D01*
X106468180Y-120053006D01*
X106440504Y-120081153D01*
X106412829Y-120095355D01*
X106413097Y-120095956D01*
X106246107Y-120170305D01*
X106246102Y-120170307D01*
X106240170Y-120172949D01*
X106234916Y-120176765D01*
X106234911Y-120176769D01*
X106092288Y-120280390D01*
X106092281Y-120280395D01*
X106087029Y-120284212D01*
X106082684Y-120289037D01*
X106082679Y-120289042D01*
X105964713Y-120420056D01*
X105964708Y-120420062D01*
X105960367Y-120424884D01*
X105957122Y-120430504D01*
X105957118Y-120430510D01*
X105868969Y-120583189D01*
X105868966Y-120583194D01*
X105865721Y-120588816D01*
X105863715Y-120594988D01*
X105863713Y-120594994D01*
X105809233Y-120762664D01*
X105809231Y-120762673D01*
X105807226Y-120768844D01*
X105806548Y-120775294D01*
X105806546Y-120775304D01*
X105791005Y-120923178D01*
X105787440Y-120957100D01*
X105788119Y-120963560D01*
X105806546Y-121138895D01*
X105806547Y-121138903D01*
X105807226Y-121145356D01*
X105809231Y-121151528D01*
X105809233Y-121151535D01*
X105842734Y-121254639D01*
X105865721Y-121325384D01*
X105868968Y-121331008D01*
X105868969Y-121331010D01*
X105935817Y-121446795D01*
X105960367Y-121489316D01*
X105964711Y-121494141D01*
X105964713Y-121494143D01*
X106014944Y-121549930D01*
X106087029Y-121629988D01*
X106240170Y-121741251D01*
X106413097Y-121818244D01*
X106598254Y-121857600D01*
X106781043Y-121857600D01*
X106787546Y-121857600D01*
X106972703Y-121818244D01*
X106976186Y-121816693D01*
X107044093Y-121814490D01*
X107103551Y-121849416D01*
X107135159Y-121910702D01*
X107129143Y-121979396D01*
X107087362Y-122034254D01*
X106975758Y-122117025D01*
X106965640Y-122123785D01*
X106705920Y-122279456D01*
X106695187Y-122285193D01*
X106421435Y-122414667D01*
X106410200Y-122419321D01*
X106216766Y-122488532D01*
X106125096Y-122521333D01*
X106113452Y-122524865D01*
X105819713Y-122598443D01*
X105807778Y-122600817D01*
X105508243Y-122645249D01*
X105496133Y-122646442D01*
X105207983Y-122660598D01*
X105190632Y-122661451D01*
X105184550Y-122661600D01*
X102480600Y-122661600D01*
X102423343Y-122647589D01*
X102379025Y-122608723D01*
X102373489Y-122600817D01*
X102352104Y-122570276D01*
X102334500Y-122545133D01*
X102334498Y-122545130D01*
X102331395Y-122540699D01*
X102164301Y-122373605D01*
X102159870Y-122370502D01*
X102159866Y-122370499D01*
X101978741Y-122243674D01*
X101939876Y-122199356D01*
X101925865Y-122142099D01*
X101939876Y-122084842D01*
X101978739Y-122040526D01*
X102164301Y-121910595D01*
X102331395Y-121743501D01*
X102466935Y-121549930D01*
X102471303Y-121540561D01*
X102503980Y-121497972D01*
X102551594Y-121473185D01*
X102650090Y-121446795D01*
X102968015Y-121331080D01*
X103274646Y-121188096D01*
X103567647Y-121018932D01*
X103844790Y-120824874D01*
X104103966Y-120607400D01*
X104167801Y-120543564D01*
X104167807Y-120543561D01*
X104223572Y-120487795D01*
X104223585Y-120487785D01*
X104223588Y-120487788D01*
X104352165Y-120359211D01*
X104585928Y-120080622D01*
X104794521Y-119782720D01*
X104976357Y-119467771D01*
X105130050Y-119138173D01*
X105254432Y-118796433D01*
X105348556Y-118445154D01*
X105411706Y-118087007D01*
X105443401Y-117724720D01*
X105443400Y-117542884D01*
X105443400Y-117464003D01*
X105443400Y-115163391D01*
X105443400Y-113639108D01*
X105443403Y-113639078D01*
X105443408Y-113639078D01*
X105443407Y-113363027D01*
X105407297Y-112812108D01*
X105335232Y-112264730D01*
X105227521Y-111723237D01*
X105084626Y-111189948D01*
X104907158Y-110667146D01*
X104695877Y-110157071D01*
X104451688Y-109661907D01*
X104175637Y-109183773D01*
X103868905Y-108724717D01*
X103687236Y-108487962D01*
X103534045Y-108288319D01*
X103534040Y-108288313D01*
X103532807Y-108286706D01*
X103168781Y-107871614D01*
X102974733Y-107677565D01*
X102972468Y-107675240D01*
X102541464Y-107221056D01*
X102537120Y-107216232D01*
X102131523Y-106741339D01*
X102127437Y-106736293D01*
X101747259Y-106240836D01*
X101743443Y-106235584D01*
X101389707Y-105720895D01*
X101386172Y-105715451D01*
X101059867Y-105182970D01*
X101056621Y-105177348D01*
X100954569Y-104989392D01*
X100775231Y-104659091D01*
X104649906Y-104659091D01*
X104658013Y-104670281D01*
X104670502Y-104680001D01*
X104679051Y-104685587D01*
X104874094Y-104791139D01*
X104883447Y-104795241D01*
X105093190Y-104867246D01*
X105103099Y-104869755D01*
X105321829Y-104906255D01*
X105332027Y-104907100D01*
X105553773Y-104907100D01*
X105563970Y-104906255D01*
X105782700Y-104869755D01*
X105792609Y-104867246D01*
X106002352Y-104795241D01*
X106011705Y-104791139D01*
X106206745Y-104685588D01*
X106215297Y-104680001D01*
X106227788Y-104670279D01*
X106235892Y-104659092D01*
X106229231Y-104646984D01*
X105454442Y-103872195D01*
X105442900Y-103865531D01*
X105431357Y-103872195D01*
X104656566Y-104646985D01*
X104649906Y-104659091D01*
X100775231Y-104659091D01*
X100758624Y-104628505D01*
X100755681Y-104622730D01*
X100544511Y-104180003D01*
X100486814Y-104059038D01*
X100484176Y-104053112D01*
X100260130Y-103512217D01*
X104038526Y-103512217D01*
X104056837Y-103733202D01*
X104058521Y-103743296D01*
X104112959Y-103958266D01*
X104116278Y-103967933D01*
X104205356Y-104171013D01*
X104210222Y-104180003D01*
X104284145Y-104293151D01*
X104292112Y-104300876D01*
X104301492Y-104294953D01*
X105077804Y-103518642D01*
X105084468Y-103507100D01*
X105077804Y-103495557D01*
X104301492Y-102719245D01*
X104292112Y-102713322D01*
X104284145Y-102721046D01*
X104210222Y-102834196D01*
X104205356Y-102843186D01*
X104116278Y-103046266D01*
X104112959Y-103055933D01*
X104058521Y-103270903D01*
X104056837Y-103280997D01*
X104038526Y-103501983D01*
X104038526Y-103512217D01*
X100260130Y-103512217D01*
X100245188Y-103476143D01*
X100242861Y-103470082D01*
X100034387Y-102881370D01*
X100032384Y-102875205D01*
X100020237Y-102834196D01*
X99878324Y-102355106D01*
X104649907Y-102355106D01*
X104656567Y-102367214D01*
X105431357Y-103142004D01*
X105442900Y-103148668D01*
X105454442Y-103142004D01*
X106229232Y-102367213D01*
X106235892Y-102355107D01*
X106227786Y-102343918D01*
X106215294Y-102334196D01*
X106206747Y-102328612D01*
X106011705Y-102223060D01*
X106002352Y-102218958D01*
X105792609Y-102146953D01*
X105782700Y-102144444D01*
X105563970Y-102107944D01*
X105553773Y-102107100D01*
X105332027Y-102107100D01*
X105321829Y-102107944D01*
X105103099Y-102144444D01*
X105093190Y-102146953D01*
X104883447Y-102218958D01*
X104874094Y-102223060D01*
X104679056Y-102328610D01*
X104670500Y-102334200D01*
X104658012Y-102343918D01*
X104649907Y-102355106D01*
X99878324Y-102355106D01*
X99855004Y-102276379D01*
X99853336Y-102270153D01*
X99707542Y-101662875D01*
X99706193Y-101656530D01*
X99592375Y-101042427D01*
X99591369Y-101036071D01*
X99509847Y-100416856D01*
X99509175Y-100410465D01*
X99460173Y-99787833D01*
X99459834Y-99781353D01*
X99452588Y-99504620D01*
X101429170Y-99504620D01*
X101433404Y-99510965D01*
X101635110Y-99634570D01*
X101643773Y-99638984D01*
X101867443Y-99731631D01*
X101876680Y-99734633D01*
X102112097Y-99791151D01*
X102121683Y-99792669D01*
X102363046Y-99811666D01*
X102372754Y-99811666D01*
X102614116Y-99792669D01*
X102623702Y-99791151D01*
X102859119Y-99734633D01*
X102868356Y-99731631D01*
X103092026Y-99638984D01*
X103100689Y-99634570D01*
X103302409Y-99510956D01*
X103306632Y-99504622D01*
X103299960Y-99492714D01*
X102379442Y-98572195D01*
X102367900Y-98565531D01*
X102356357Y-98572195D01*
X101435842Y-99492710D01*
X101429170Y-99504620D01*
X99452588Y-99504620D01*
X99443442Y-99155366D01*
X99443400Y-99152120D01*
X99443400Y-98211954D01*
X100763334Y-98211954D01*
X100782330Y-98453316D01*
X100783848Y-98462902D01*
X100840366Y-98698319D01*
X100843368Y-98707556D01*
X100936015Y-98931226D01*
X100940429Y-98939889D01*
X101064032Y-99141591D01*
X101070378Y-99145827D01*
X101082289Y-99139155D01*
X102002803Y-98218642D01*
X102009467Y-98207099D01*
X102002803Y-98195557D01*
X101082294Y-97275048D01*
X101070380Y-97268376D01*
X101064021Y-97272626D01*
X100940429Y-97474310D01*
X100936015Y-97482973D01*
X100843368Y-97706643D01*
X100840366Y-97715880D01*
X100783848Y-97951297D01*
X100782330Y-97960883D01*
X100763334Y-98202246D01*
X100763334Y-98211954D01*
X99443400Y-98211954D01*
X99443400Y-96909580D01*
X101429176Y-96909580D01*
X101435848Y-96921494D01*
X102356357Y-97842003D01*
X102367900Y-97848667D01*
X102379442Y-97842003D01*
X103299955Y-96921489D01*
X103306627Y-96909578D01*
X103302391Y-96903232D01*
X103100689Y-96779629D01*
X103092026Y-96775215D01*
X102868356Y-96682568D01*
X102859119Y-96679566D01*
X102623702Y-96623048D01*
X102614116Y-96621530D01*
X102372754Y-96602534D01*
X102363046Y-96602534D01*
X102121683Y-96621530D01*
X102112097Y-96623048D01*
X101876680Y-96679566D01*
X101867443Y-96682568D01*
X101643773Y-96775215D01*
X101635110Y-96779629D01*
X101433426Y-96903221D01*
X101429176Y-96909580D01*
X99443400Y-96909580D01*
X99443400Y-93207100D01*
X103337317Y-93207100D01*
X103337914Y-93213161D01*
X103357002Y-93406969D01*
X103357003Y-93406975D01*
X103357600Y-93413034D01*
X103359367Y-93418859D01*
X103359368Y-93418864D01*
X103365481Y-93439016D01*
X103417668Y-93611054D01*
X103515215Y-93793550D01*
X103646490Y-93953510D01*
X103806450Y-94084785D01*
X103988946Y-94182332D01*
X104186966Y-94242400D01*
X104341292Y-94257600D01*
X104441458Y-94257600D01*
X104444508Y-94257600D01*
X104598834Y-94242400D01*
X104796854Y-94182332D01*
X104979350Y-94084785D01*
X105139310Y-93953510D01*
X105270585Y-93793550D01*
X105368132Y-93611054D01*
X105428200Y-93413034D01*
X105448483Y-93207100D01*
X105428200Y-93001166D01*
X105368132Y-92803146D01*
X105270585Y-92620650D01*
X105139310Y-92460690D01*
X104979350Y-92329415D01*
X104973440Y-92326256D01*
X104802228Y-92234740D01*
X104802223Y-92234738D01*
X104796854Y-92231868D01*
X104704810Y-92203947D01*
X104604664Y-92173568D01*
X104604659Y-92173567D01*
X104598834Y-92171800D01*
X104592775Y-92171203D01*
X104592769Y-92171202D01*
X104447541Y-92156898D01*
X104447526Y-92156897D01*
X104444508Y-92156600D01*
X104341292Y-92156600D01*
X104338274Y-92156897D01*
X104338258Y-92156898D01*
X104193030Y-92171202D01*
X104193022Y-92171203D01*
X104186966Y-92171800D01*
X104181142Y-92173566D01*
X104181135Y-92173568D01*
X103994777Y-92230099D01*
X103994775Y-92230099D01*
X103988946Y-92231868D01*
X103983579Y-92234736D01*
X103983571Y-92234740D01*
X103811820Y-92326544D01*
X103811815Y-92326547D01*
X103806450Y-92329415D01*
X103801746Y-92333274D01*
X103801742Y-92333278D01*
X103651196Y-92456827D01*
X103651190Y-92456832D01*
X103646490Y-92460690D01*
X103642632Y-92465390D01*
X103642627Y-92465396D01*
X103519078Y-92615942D01*
X103519074Y-92615946D01*
X103515215Y-92620650D01*
X103512347Y-92626015D01*
X103512344Y-92626020D01*
X103420540Y-92797771D01*
X103420536Y-92797779D01*
X103417668Y-92803146D01*
X103415899Y-92808975D01*
X103415899Y-92808977D01*
X103359368Y-92995335D01*
X103359366Y-92995342D01*
X103357600Y-93001166D01*
X103357003Y-93007222D01*
X103357002Y-93007230D01*
X103338790Y-93192140D01*
X103337317Y-93207100D01*
X99443400Y-93207100D01*
X99443400Y-89504620D01*
X101429170Y-89504620D01*
X101433404Y-89510965D01*
X101635110Y-89634570D01*
X101643773Y-89638984D01*
X101867443Y-89731631D01*
X101876680Y-89734633D01*
X102112097Y-89791151D01*
X102121683Y-89792669D01*
X102363046Y-89811666D01*
X102372754Y-89811666D01*
X102614116Y-89792669D01*
X102623702Y-89791151D01*
X102859119Y-89734633D01*
X102868356Y-89731631D01*
X103092026Y-89638984D01*
X103100689Y-89634570D01*
X103302409Y-89510956D01*
X103306632Y-89504622D01*
X103299960Y-89492714D01*
X102379442Y-88572195D01*
X102367900Y-88565531D01*
X102356357Y-88572195D01*
X101435842Y-89492710D01*
X101429170Y-89504620D01*
X99443400Y-89504620D01*
X99443400Y-88211954D01*
X100763334Y-88211954D01*
X100782330Y-88453316D01*
X100783848Y-88462902D01*
X100840366Y-88698319D01*
X100843368Y-88707556D01*
X100936015Y-88931226D01*
X100940429Y-88939889D01*
X101064032Y-89141591D01*
X101070378Y-89145827D01*
X101082289Y-89139155D01*
X102002803Y-88218642D01*
X102009467Y-88207100D01*
X102726331Y-88207100D01*
X102732995Y-88218642D01*
X103653514Y-89139160D01*
X103665422Y-89145832D01*
X103671756Y-89141609D01*
X103795370Y-88939889D01*
X103799784Y-88931226D01*
X103892431Y-88707556D01*
X103895433Y-88698319D01*
X103951951Y-88462902D01*
X103953469Y-88453316D01*
X103972466Y-88211954D01*
X103972466Y-88202246D01*
X103953469Y-87960883D01*
X103951951Y-87951297D01*
X103895433Y-87715880D01*
X103892431Y-87706643D01*
X103799784Y-87482973D01*
X103795370Y-87474310D01*
X103671765Y-87272604D01*
X103665420Y-87268370D01*
X103653510Y-87275042D01*
X102732995Y-88195557D01*
X102726331Y-88207100D01*
X102009467Y-88207100D01*
X102002803Y-88195557D01*
X101082294Y-87275048D01*
X101070380Y-87268376D01*
X101064021Y-87272626D01*
X100940429Y-87474310D01*
X100936015Y-87482973D01*
X100843368Y-87706643D01*
X100840366Y-87715880D01*
X100783848Y-87951297D01*
X100782330Y-87960883D01*
X100763334Y-88202246D01*
X100763334Y-88211954D01*
X99443400Y-88211954D01*
X99443400Y-86909580D01*
X101429176Y-86909580D01*
X101435848Y-86921494D01*
X102356357Y-87842003D01*
X102367900Y-87848667D01*
X102379442Y-87842003D01*
X103299955Y-86921489D01*
X103306627Y-86909578D01*
X103302391Y-86903232D01*
X103100689Y-86779629D01*
X103092026Y-86775215D01*
X102868356Y-86682568D01*
X102859119Y-86679566D01*
X102623702Y-86623048D01*
X102614116Y-86621530D01*
X102372754Y-86602534D01*
X102363046Y-86602534D01*
X102121683Y-86621530D01*
X102112097Y-86623048D01*
X101876680Y-86679566D01*
X101867443Y-86682568D01*
X101643773Y-86775215D01*
X101635110Y-86779629D01*
X101433426Y-86903221D01*
X101429176Y-86909580D01*
X99443400Y-86909580D01*
X99443400Y-85555803D01*
X105471117Y-85555803D01*
X105478550Y-85563914D01*
X105535977Y-85604125D01*
X105545327Y-85609523D01*
X105741668Y-85701079D01*
X105751802Y-85704767D01*
X105961062Y-85760839D01*
X105971693Y-85762713D01*
X106187505Y-85781594D01*
X106198295Y-85781594D01*
X106414106Y-85762713D01*
X106424737Y-85760839D01*
X106633997Y-85704767D01*
X106644131Y-85701079D01*
X106840475Y-85609522D01*
X106849820Y-85604126D01*
X106907248Y-85563914D01*
X106914680Y-85555803D01*
X106908767Y-85546521D01*
X106204442Y-84842195D01*
X106192900Y-84835531D01*
X106181357Y-84842195D01*
X105477028Y-85546524D01*
X105471117Y-85555803D01*
X99443400Y-85555803D01*
X99443400Y-84482495D01*
X104888406Y-84482495D01*
X104907286Y-84698306D01*
X104909160Y-84708937D01*
X104965232Y-84918197D01*
X104968920Y-84928331D01*
X105060476Y-85124672D01*
X105065874Y-85134022D01*
X105106084Y-85191448D01*
X105114195Y-85198881D01*
X105123474Y-85192970D01*
X105827803Y-84488642D01*
X105834467Y-84477100D01*
X105827803Y-84465557D01*
X105123474Y-83761228D01*
X105114196Y-83755317D01*
X105106083Y-83762751D01*
X105065871Y-83820181D01*
X105060477Y-83829525D01*
X104968920Y-84025868D01*
X104965232Y-84036002D01*
X104909160Y-84245262D01*
X104907286Y-84255893D01*
X104888406Y-84471705D01*
X104888406Y-84482495D01*
X99443400Y-84482495D01*
X99443400Y-83398396D01*
X105471117Y-83398396D01*
X105477028Y-83407674D01*
X106181356Y-84112003D01*
X106192899Y-84118667D01*
X106204441Y-84112003D01*
X106908770Y-83407674D01*
X106914681Y-83398395D01*
X106907248Y-83390284D01*
X106849822Y-83350074D01*
X106840472Y-83344676D01*
X106644131Y-83253120D01*
X106633997Y-83249432D01*
X106424737Y-83193360D01*
X106414106Y-83191486D01*
X106198295Y-83172606D01*
X106187505Y-83172606D01*
X105971693Y-83191486D01*
X105961062Y-83193360D01*
X105751802Y-83249432D01*
X105741668Y-83253120D01*
X105545325Y-83344677D01*
X105535981Y-83350071D01*
X105478551Y-83390283D01*
X105471117Y-83398396D01*
X99443400Y-83398396D01*
X99443400Y-82477924D01*
X99443549Y-82471839D01*
X99460040Y-82136202D01*
X99461233Y-82124092D01*
X99510097Y-81794692D01*
X99512462Y-81782801D01*
X99593385Y-81459748D01*
X99596905Y-81448145D01*
X99709097Y-81134594D01*
X99713746Y-81123373D01*
X99720381Y-81109346D01*
X99856121Y-80822349D01*
X99861850Y-80811628D01*
X100033049Y-80526003D01*
X100039792Y-80515910D01*
X100151963Y-80364665D01*
X100179166Y-80337861D01*
X100213240Y-80320604D01*
X100216341Y-80319596D01*
X100222703Y-80318244D01*
X100395630Y-80241251D01*
X100548771Y-80129988D01*
X100675433Y-79989316D01*
X100770079Y-79825384D01*
X100828574Y-79645356D01*
X100848360Y-79457100D01*
X100828574Y-79268844D01*
X100770079Y-79088816D01*
X100675433Y-78924884D01*
X100548771Y-78784212D01*
X100543513Y-78780392D01*
X100543511Y-78780390D01*
X100400888Y-78676769D01*
X100400887Y-78676768D01*
X100395630Y-78672949D01*
X100389692Y-78670305D01*
X100228645Y-78598601D01*
X100228640Y-78598599D01*
X100222703Y-78595956D01*
X100216344Y-78594604D01*
X100216340Y-78594603D01*
X100043908Y-78557952D01*
X100043905Y-78557951D01*
X100037546Y-78556600D01*
X99848254Y-78556600D01*
X99841895Y-78557951D01*
X99841891Y-78557952D01*
X99669459Y-78594603D01*
X99669452Y-78594605D01*
X99663097Y-78595956D01*
X99657162Y-78598598D01*
X99657154Y-78598601D01*
X99496107Y-78670305D01*
X99496102Y-78670307D01*
X99490170Y-78672949D01*
X99484916Y-78676765D01*
X99484911Y-78676769D01*
X99342288Y-78780390D01*
X99342281Y-78780395D01*
X99337029Y-78784212D01*
X99332684Y-78789037D01*
X99332679Y-78789042D01*
X99214713Y-78920056D01*
X99214708Y-78920062D01*
X99210367Y-78924884D01*
X99207122Y-78930504D01*
X99207118Y-78930510D01*
X99118969Y-79083189D01*
X99118966Y-79083194D01*
X99115721Y-79088816D01*
X99113715Y-79094988D01*
X99113713Y-79094994D01*
X99059234Y-79262661D01*
X99059232Y-79262669D01*
X99057226Y-79268844D01*
X99056547Y-79275301D01*
X99056545Y-79275312D01*
X99055326Y-79286907D01*
X99045937Y-79322883D01*
X99026305Y-79354459D01*
X99018287Y-79363848D01*
X99018276Y-79363860D01*
X99016707Y-79365699D01*
X99015285Y-79367655D01*
X99015278Y-79367665D01*
X98786358Y-79682744D01*
X98786345Y-79682762D01*
X98784922Y-79684722D01*
X98783651Y-79686795D01*
X98783641Y-79686811D01*
X98580153Y-80018872D01*
X98580140Y-80018894D01*
X98578882Y-80020948D01*
X98577788Y-80023093D01*
X98577779Y-80023111D01*
X98400963Y-80370128D01*
X98400956Y-80370142D01*
X98399856Y-80372302D01*
X98398926Y-80374546D01*
X98398921Y-80374558D01*
X98249884Y-80734360D01*
X98249874Y-80734384D01*
X98248949Y-80736620D01*
X98248195Y-80738938D01*
X98248194Y-80738943D01*
X98127840Y-81109346D01*
X98127833Y-81109367D01*
X98127091Y-81111654D01*
X98126528Y-81113997D01*
X98126524Y-81114013D01*
X98035597Y-81492739D01*
X98035591Y-81492767D01*
X98035033Y-81495093D01*
X98034656Y-81497471D01*
X98034653Y-81497488D01*
X97973725Y-81882156D01*
X97973722Y-81882176D01*
X97973343Y-81884573D01*
X97973152Y-81886987D01*
X97973151Y-81887004D01*
X97942592Y-82275258D01*
X97942591Y-82275272D01*
X97942401Y-82277692D01*
X97942400Y-82280110D01*
X97942400Y-82280136D01*
X97942400Y-82471839D01*
X97942400Y-82474860D01*
X97942399Y-82553741D01*
X95693400Y-82553741D01*
X95693400Y-73207100D01*
X96537296Y-73207100D01*
X96557679Y-73466094D01*
X96558814Y-73470823D01*
X96558815Y-73470827D01*
X96617189Y-73713973D01*
X96617191Y-73713981D01*
X96618327Y-73718710D01*
X96717746Y-73958728D01*
X96720282Y-73962867D01*
X96720286Y-73962874D01*
X96850942Y-74176086D01*
X96853488Y-74180240D01*
X97022211Y-74377789D01*
X97219760Y-74546512D01*
X97441272Y-74682254D01*
X97681290Y-74781673D01*
X97933906Y-74842321D01*
X98192900Y-74862704D01*
X98451894Y-74842321D01*
X98704510Y-74781673D01*
X98944528Y-74682254D01*
X99166040Y-74546512D01*
X99363589Y-74377789D01*
X99532312Y-74180240D01*
X99668054Y-73958728D01*
X99767473Y-73718710D01*
X99828121Y-73466094D01*
X99848504Y-73207100D01*
X99828121Y-72948106D01*
X99767473Y-72695490D01*
X99668054Y-72455472D01*
X99665511Y-72451323D01*
X99665508Y-72451316D01*
X99617000Y-72372158D01*
X99598957Y-72314924D01*
X99609904Y-72255920D01*
X99647275Y-72208966D01*
X99702317Y-72185059D01*
X99812514Y-72166671D01*
X100047710Y-72085928D01*
X100266409Y-71967574D01*
X100314237Y-71930348D01*
X103078649Y-71930348D01*
X103086755Y-71941539D01*
X103115617Y-71964003D01*
X103124179Y-71969596D01*
X103333785Y-72083029D01*
X103343139Y-72087132D01*
X103568556Y-72164517D01*
X103578469Y-72167028D01*
X103683763Y-72184598D01*
X103738806Y-72208505D01*
X103776177Y-72255458D01*
X103787124Y-72314461D01*
X103769082Y-72371696D01*
X103720290Y-72451319D01*
X103720287Y-72451325D01*
X103717746Y-72455472D01*
X103715886Y-72459960D01*
X103715883Y-72459968D01*
X103620191Y-72690989D01*
X103618327Y-72695490D01*
X103617192Y-72700214D01*
X103617189Y-72700226D01*
X103558815Y-72943372D01*
X103558813Y-72943378D01*
X103557679Y-72948106D01*
X103537296Y-73207100D01*
X103557679Y-73466094D01*
X103558814Y-73470823D01*
X103558815Y-73470827D01*
X103617189Y-73713973D01*
X103617191Y-73713981D01*
X103618327Y-73718710D01*
X103717746Y-73958728D01*
X103720282Y-73962867D01*
X103720286Y-73962874D01*
X103850942Y-74176086D01*
X103853488Y-74180240D01*
X104022211Y-74377789D01*
X104219760Y-74546512D01*
X104441272Y-74682254D01*
X104681290Y-74781673D01*
X104933906Y-74842321D01*
X105192900Y-74862704D01*
X105451894Y-74842321D01*
X105704510Y-74781673D01*
X105944528Y-74682254D01*
X106166040Y-74546512D01*
X106363589Y-74377789D01*
X106532312Y-74180240D01*
X106668054Y-73958728D01*
X106767473Y-73718710D01*
X106828121Y-73466094D01*
X106848504Y-73207100D01*
X106828121Y-72948106D01*
X106767473Y-72695490D01*
X106668054Y-72455472D01*
X106616999Y-72372158D01*
X106534857Y-72238113D01*
X106534856Y-72238112D01*
X106532312Y-72233960D01*
X106363589Y-72036411D01*
X106166040Y-71867688D01*
X106161889Y-71865144D01*
X106161886Y-71865142D01*
X105948674Y-71734486D01*
X105948667Y-71734482D01*
X105944528Y-71731946D01*
X105940033Y-71730084D01*
X105940031Y-71730083D01*
X105709010Y-71634391D01*
X105704510Y-71632527D01*
X105699781Y-71631391D01*
X105699773Y-71631389D01*
X105456627Y-71573015D01*
X105456623Y-71573014D01*
X105451894Y-71571879D01*
X105447043Y-71571497D01*
X105447042Y-71571497D01*
X105383782Y-71566518D01*
X105328176Y-71548291D01*
X105287120Y-71506593D01*
X105269758Y-71450711D01*
X105279956Y-71393090D01*
X105364427Y-71200514D01*
X105367746Y-71190847D01*
X105426253Y-70959812D01*
X105427937Y-70949718D01*
X105447617Y-70712217D01*
X105447617Y-70701983D01*
X105427937Y-70464481D01*
X105426253Y-70454387D01*
X105367746Y-70223352D01*
X105364427Y-70213685D01*
X105268692Y-69995430D01*
X105263824Y-69986435D01*
X105173902Y-69848799D01*
X105165934Y-69841074D01*
X105156553Y-69846998D01*
X103942900Y-71060653D01*
X103085308Y-71918243D01*
X103078649Y-71930348D01*
X100314237Y-71930348D01*
X100462644Y-71814838D01*
X100631064Y-71631885D01*
X100767073Y-71423707D01*
X100866963Y-71195981D01*
X100928008Y-70954921D01*
X100948119Y-70712217D01*
X102438183Y-70712217D01*
X102457862Y-70949718D01*
X102459546Y-70959812D01*
X102518053Y-71190847D01*
X102521372Y-71200514D01*
X102617108Y-71418773D01*
X102621970Y-71427756D01*
X102711899Y-71565404D01*
X102719863Y-71573124D01*
X102729245Y-71567200D01*
X103577804Y-70718642D01*
X103584468Y-70707100D01*
X103577804Y-70695557D01*
X102729245Y-69846998D01*
X102719864Y-69841074D01*
X102711897Y-69848799D01*
X102621972Y-69986438D01*
X102617107Y-69995428D01*
X102521372Y-70213685D01*
X102518053Y-70223352D01*
X102459546Y-70454387D01*
X102457862Y-70464481D01*
X102438183Y-70701983D01*
X102438183Y-70712217D01*
X100948119Y-70712217D01*
X100948543Y-70707100D01*
X100928008Y-70459279D01*
X100866963Y-70218219D01*
X100767073Y-69990493D01*
X100631064Y-69782315D01*
X100462644Y-69599362D01*
X100314233Y-69483849D01*
X103078648Y-69483849D01*
X103085308Y-69495955D01*
X103931357Y-70342004D01*
X103942900Y-70348668D01*
X103954442Y-70342004D01*
X104800490Y-69495955D01*
X104807150Y-69483849D01*
X104799043Y-69472659D01*
X104770186Y-69450199D01*
X104761619Y-69444603D01*
X104552014Y-69331170D01*
X104542660Y-69327067D01*
X104317243Y-69249682D01*
X104307331Y-69247171D01*
X104072256Y-69207944D01*
X104062061Y-69207100D01*
X103823739Y-69207100D01*
X103813543Y-69207944D01*
X103578468Y-69247171D01*
X103568556Y-69249682D01*
X103343139Y-69327067D01*
X103333785Y-69331170D01*
X103124176Y-69444604D01*
X103115617Y-69450196D01*
X103086754Y-69472660D01*
X103078648Y-69483849D01*
X100314233Y-69483849D01*
X100270459Y-69449778D01*
X100270457Y-69449776D01*
X100266409Y-69446626D01*
X100261897Y-69444184D01*
X100052216Y-69330710D01*
X100052210Y-69330707D01*
X100047710Y-69328272D01*
X100042869Y-69326610D01*
X100042862Y-69326607D01*
X99817365Y-69249194D01*
X99817361Y-69249193D01*
X99812514Y-69247529D01*
X99803668Y-69246052D01*
X99572298Y-69207444D01*
X99572287Y-69207443D01*
X99567235Y-69206600D01*
X99318565Y-69206600D01*
X99313513Y-69207443D01*
X99313501Y-69207444D01*
X99078343Y-69246685D01*
X99078341Y-69246685D01*
X99073286Y-69247529D01*
X99068441Y-69249192D01*
X99068434Y-69249194D01*
X98842937Y-69326607D01*
X98842926Y-69326611D01*
X98838090Y-69328272D01*
X98833593Y-69330705D01*
X98833583Y-69330710D01*
X98623902Y-69444184D01*
X98623895Y-69444188D01*
X98619391Y-69446626D01*
X98615348Y-69449772D01*
X98615340Y-69449778D01*
X98427204Y-69596211D01*
X98423156Y-69599362D01*
X98419693Y-69603123D01*
X98419684Y-69603132D01*
X98258211Y-69778539D01*
X98258205Y-69778546D01*
X98254736Y-69782315D01*
X98251931Y-69786606D01*
X98251928Y-69786612D01*
X98121531Y-69986199D01*
X98121524Y-69986211D01*
X98118727Y-69990493D01*
X98116672Y-69995177D01*
X98116666Y-69995189D01*
X98020897Y-70213522D01*
X98018837Y-70218219D01*
X98017579Y-70223184D01*
X98017578Y-70223189D01*
X97959051Y-70454304D01*
X97959049Y-70454313D01*
X97957792Y-70459279D01*
X97957368Y-70464388D01*
X97957367Y-70464398D01*
X97938213Y-70695557D01*
X97937257Y-70707100D01*
X97937681Y-70712217D01*
X97957367Y-70949801D01*
X97957368Y-70949809D01*
X97957792Y-70954921D01*
X97959049Y-70959888D01*
X97959051Y-70959895D01*
X97984567Y-71060653D01*
X98018837Y-71195981D01*
X98020897Y-71200677D01*
X98105315Y-71393132D01*
X98115513Y-71450754D01*
X98098150Y-71506636D01*
X98057094Y-71548333D01*
X98001488Y-71566560D01*
X97938758Y-71571497D01*
X97938756Y-71571497D01*
X97933906Y-71571879D01*
X97929178Y-71573013D01*
X97929172Y-71573015D01*
X97686026Y-71631389D01*
X97686014Y-71631392D01*
X97681290Y-71632527D01*
X97676793Y-71634389D01*
X97676789Y-71634391D01*
X97445768Y-71730083D01*
X97445760Y-71730086D01*
X97441272Y-71731946D01*
X97437137Y-71734479D01*
X97437125Y-71734486D01*
X97223913Y-71865142D01*
X97223903Y-71865148D01*
X97219760Y-71867688D01*
X97216059Y-71870848D01*
X97216052Y-71870854D01*
X97025911Y-72033250D01*
X97025904Y-72033256D01*
X97022211Y-72036411D01*
X97019056Y-72040104D01*
X97019050Y-72040111D01*
X96856654Y-72230252D01*
X96856648Y-72230259D01*
X96853488Y-72233960D01*
X96850948Y-72238103D01*
X96850942Y-72238113D01*
X96720286Y-72451325D01*
X96720279Y-72451337D01*
X96717746Y-72455472D01*
X96715886Y-72459960D01*
X96715883Y-72459968D01*
X96620191Y-72690989D01*
X96618327Y-72695490D01*
X96617192Y-72700214D01*
X96617189Y-72700226D01*
X96558815Y-72943372D01*
X96558813Y-72943378D01*
X96557679Y-72948106D01*
X96537296Y-73207100D01*
X95693400Y-73207100D01*
X95693400Y-68508670D01*
X95702839Y-68461217D01*
X95729719Y-68420989D01*
X97656788Y-66493919D01*
X97697016Y-66467039D01*
X97744469Y-66457600D01*
X108568400Y-66457600D01*
X108630400Y-66474213D01*
G37*
%TD.AperFunction*%
%TD*%
M02*
