%TF.GenerationSoftware,KiCad,Pcbnew,(7.0.0)*%
%TF.CreationDate,2023-04-30T17:40:28+02:00*%
%TF.ProjectId,STM32 Talnet console,53544d33-3220-4546-916c-6e657420636f,rev?*%
%TF.SameCoordinates,Original*%
%TF.FileFunction,Paste,Top*%
%TF.FilePolarity,Positive*%
%FSLAX46Y46*%
G04 Gerber Fmt 4.6, Leading zero omitted, Abs format (unit mm)*
G04 Created by KiCad (PCBNEW (7.0.0)) date 2023-04-30 17:40:28*
%MOMM*%
%LPD*%
G01*
G04 APERTURE LIST*
G04 Aperture macros list*
%AMRoundRect*
0 Rectangle with rounded corners*
0 $1 Rounding radius*
0 $2 $3 $4 $5 $6 $7 $8 $9 X,Y pos of 4 corners*
0 Add a 4 corners polygon primitive as box body*
4,1,4,$2,$3,$4,$5,$6,$7,$8,$9,$2,$3,0*
0 Add four circle primitives for the rounded corners*
1,1,$1+$1,$2,$3*
1,1,$1+$1,$4,$5*
1,1,$1+$1,$6,$7*
1,1,$1+$1,$8,$9*
0 Add four rect primitives between the rounded corners*
20,1,$1+$1,$2,$3,$4,$5,0*
20,1,$1+$1,$4,$5,$6,$7,0*
20,1,$1+$1,$6,$7,$8,$9,0*
20,1,$1+$1,$8,$9,$2,$3,0*%
%AMOutline4P*
0 Free polygon, 4 corners , with rotation*
0 The origin of the aperture is its center*
0 number of corners: always 4*
0 $1 to $8 corner X, Y*
0 $9 Rotation angle, in degrees counterclockwise*
0 create outline with 4 corners*
4,1,4,$1,$2,$3,$4,$5,$6,$7,$8,$1,$2,$9*%
G04 Aperture macros list end*
%ADD10C,0.200000*%
%ADD11RoundRect,0.250000X0.350000X0.450000X-0.350000X0.450000X-0.350000X-0.450000X0.350000X-0.450000X0*%
%ADD12R,1.500000X2.000000*%
%ADD13R,3.800000X2.000000*%
%ADD14R,2.000000X2.000000*%
%ADD15RoundRect,0.250000X0.475000X-0.337500X0.475000X0.337500X-0.475000X0.337500X-0.475000X-0.337500X0*%
%ADD16RoundRect,0.250000X0.450000X-0.350000X0.450000X0.350000X-0.450000X0.350000X-0.450000X-0.350000X0*%
%ADD17RoundRect,0.250000X-0.337500X-0.475000X0.337500X-0.475000X0.337500X0.475000X-0.337500X0.475000X0*%
%ADD18RoundRect,0.250000X-0.475000X0.337500X-0.475000X-0.337500X0.475000X-0.337500X0.475000X0.337500X0*%
%ADD19RoundRect,0.250000X-0.350000X-0.450000X0.350000X-0.450000X0.350000X0.450000X-0.350000X0.450000X0*%
%ADD20R,0.700000X2.000000*%
%ADD21RoundRect,0.250000X-0.450000X0.350000X-0.450000X-0.350000X0.450000X-0.350000X0.450000X0.350000X0*%
%ADD22Outline4P,-1.800000X-1.150000X1.800000X-0.550000X1.800000X0.550000X-1.800000X1.150000X0.000000*%
%ADD23Outline4P,-1.800000X-1.150000X1.800000X-0.550000X1.800000X0.550000X-1.800000X1.150000X180.000000*%
%ADD24RoundRect,0.250000X0.337500X0.475000X-0.337500X0.475000X-0.337500X-0.475000X0.337500X-0.475000X0*%
%ADD25R,0.600000X1.240000*%
%ADD26R,0.300000X1.240000*%
%ADD27R,0.250000X0.675000*%
%ADD28R,0.675000X0.250000*%
%ADD29R,2.000000X0.700000*%
%ADD30R,2.100000X1.800000*%
%ADD31RoundRect,0.075000X0.075000X-0.700000X0.075000X0.700000X-0.075000X0.700000X-0.075000X-0.700000X0*%
%ADD32RoundRect,0.075000X0.700000X-0.075000X0.700000X0.075000X-0.700000X0.075000X-0.700000X-0.075000X0*%
%TA.AperFunction,Profile*%
%ADD33C,0.100000*%
%TD*%
G04 APERTURE END LIST*
%TO.C,H1*%
G36*
X80707100Y-43313508D02*
G01*
X80578651Y-43348946D01*
X80331782Y-43449230D01*
X80100416Y-43581406D01*
X79888650Y-43743134D01*
X79700234Y-43931550D01*
X79538506Y-44143316D01*
X79406330Y-44374682D01*
X79306046Y-44621551D01*
X79270608Y-44750000D01*
X78249060Y-44750000D01*
X78279411Y-44584158D01*
X78372524Y-44260109D01*
X78501381Y-43948542D01*
X78664359Y-43653388D01*
X78859400Y-43378367D01*
X79084047Y-43126947D01*
X79335467Y-42902300D01*
X79610488Y-42707259D01*
X79905642Y-42544281D01*
X80217209Y-42415424D01*
X80541258Y-42322311D01*
X80707100Y-42291960D01*
X80707100Y-43313508D01*
G37*
D10*
X80707100Y-43313508D02*
X80578651Y-43348946D01*
X80331782Y-43449230D01*
X80100416Y-43581406D01*
X79888650Y-43743134D01*
X79700234Y-43931550D01*
X79538506Y-44143316D01*
X79406330Y-44374682D01*
X79306046Y-44621551D01*
X79270608Y-44750000D01*
X78249060Y-44750000D01*
X78279411Y-44584158D01*
X78372524Y-44260109D01*
X78501381Y-43948542D01*
X78664359Y-43653388D01*
X78859400Y-43378367D01*
X79084047Y-43126947D01*
X79335467Y-42902300D01*
X79610488Y-42707259D01*
X79905642Y-42544281D01*
X80217209Y-42415424D01*
X80541258Y-42322311D01*
X80707100Y-42291960D01*
X80707100Y-43313508D01*
G36*
X79306046Y-45878449D02*
G01*
X79406330Y-46125318D01*
X79538506Y-46356684D01*
X79700234Y-46568450D01*
X79888650Y-46756866D01*
X80100416Y-46918594D01*
X80331782Y-47050770D01*
X80578651Y-47151054D01*
X80707100Y-47186492D01*
X80707100Y-48208040D01*
X80541258Y-48177689D01*
X80217209Y-48084576D01*
X79905642Y-47955719D01*
X79610488Y-47792741D01*
X79335467Y-47597700D01*
X79084047Y-47373053D01*
X78859400Y-47121633D01*
X78664359Y-46846612D01*
X78501381Y-46551458D01*
X78372524Y-46239891D01*
X78279411Y-45915842D01*
X78249060Y-45750000D01*
X79270608Y-45750000D01*
X79306046Y-45878449D01*
G37*
X79306046Y-45878449D02*
X79406330Y-46125318D01*
X79538506Y-46356684D01*
X79700234Y-46568450D01*
X79888650Y-46756866D01*
X80100416Y-46918594D01*
X80331782Y-47050770D01*
X80578651Y-47151054D01*
X80707100Y-47186492D01*
X80707100Y-48208040D01*
X80541258Y-48177689D01*
X80217209Y-48084576D01*
X79905642Y-47955719D01*
X79610488Y-47792741D01*
X79335467Y-47597700D01*
X79084047Y-47373053D01*
X78859400Y-47121633D01*
X78664359Y-46846612D01*
X78501381Y-46551458D01*
X78372524Y-46239891D01*
X78279411Y-45915842D01*
X78249060Y-45750000D01*
X79270608Y-45750000D01*
X79306046Y-45878449D01*
G36*
X81872942Y-42322311D02*
G01*
X82196991Y-42415424D01*
X82508558Y-42544281D01*
X82803712Y-42707259D01*
X83078733Y-42902300D01*
X83330153Y-43126947D01*
X83554800Y-43378367D01*
X83749841Y-43653388D01*
X83912819Y-43948542D01*
X84041676Y-44260109D01*
X84134789Y-44584158D01*
X84165140Y-44750000D01*
X83143592Y-44750000D01*
X83108155Y-44621551D01*
X83007871Y-44374682D01*
X82875694Y-44143316D01*
X82713966Y-43931550D01*
X82525550Y-43743134D01*
X82313784Y-43581406D01*
X82082418Y-43449229D01*
X81835549Y-43348945D01*
X81707100Y-43313508D01*
X81707100Y-42291960D01*
X81872942Y-42322311D01*
G37*
X81872942Y-42322311D02*
X82196991Y-42415424D01*
X82508558Y-42544281D01*
X82803712Y-42707259D01*
X83078733Y-42902300D01*
X83330153Y-43126947D01*
X83554800Y-43378367D01*
X83749841Y-43653388D01*
X83912819Y-43948542D01*
X84041676Y-44260109D01*
X84134789Y-44584158D01*
X84165140Y-44750000D01*
X83143592Y-44750000D01*
X83108155Y-44621551D01*
X83007871Y-44374682D01*
X82875694Y-44143316D01*
X82713966Y-43931550D01*
X82525550Y-43743134D01*
X82313784Y-43581406D01*
X82082418Y-43449229D01*
X81835549Y-43348945D01*
X81707100Y-43313508D01*
X81707100Y-42291960D01*
X81872942Y-42322311D01*
G36*
X84134789Y-45915842D02*
G01*
X84041676Y-46239891D01*
X83912819Y-46551458D01*
X83749841Y-46846612D01*
X83554800Y-47121633D01*
X83330153Y-47373053D01*
X83078733Y-47597700D01*
X82803712Y-47792741D01*
X82508558Y-47955719D01*
X82196991Y-48084576D01*
X81872942Y-48177689D01*
X81707100Y-48208040D01*
X81707100Y-47186492D01*
X81835549Y-47151055D01*
X82082418Y-47050771D01*
X82313784Y-46918594D01*
X82525550Y-46756866D01*
X82713966Y-46568450D01*
X82875694Y-46356684D01*
X83007871Y-46125318D01*
X83108155Y-45878449D01*
X83143592Y-45750000D01*
X84165140Y-45750000D01*
X84134789Y-45915842D01*
G37*
X84134789Y-45915842D02*
X84041676Y-46239891D01*
X83912819Y-46551458D01*
X83749841Y-46846612D01*
X83554800Y-47121633D01*
X83330153Y-47373053D01*
X83078733Y-47597700D01*
X82803712Y-47792741D01*
X82508558Y-47955719D01*
X82196991Y-48084576D01*
X81872942Y-48177689D01*
X81707100Y-48208040D01*
X81707100Y-47186492D01*
X81835549Y-47151055D01*
X82082418Y-47050771D01*
X82313784Y-46918594D01*
X82525550Y-46756866D01*
X82713966Y-46568450D01*
X82875694Y-46356684D01*
X83007871Y-46125318D01*
X83108155Y-45878449D01*
X83143592Y-45750000D01*
X84165140Y-45750000D01*
X84134789Y-45915842D01*
%TO.C,H3*%
G36*
X132707100Y-71813508D02*
G01*
X132578651Y-71848946D01*
X132331782Y-71949230D01*
X132100416Y-72081406D01*
X131888650Y-72243134D01*
X131700234Y-72431550D01*
X131538506Y-72643316D01*
X131406330Y-72874682D01*
X131306046Y-73121551D01*
X131270608Y-73250000D01*
X130249060Y-73250000D01*
X130279411Y-73084158D01*
X130372524Y-72760109D01*
X130501381Y-72448542D01*
X130664359Y-72153388D01*
X130859400Y-71878367D01*
X131084047Y-71626947D01*
X131335467Y-71402300D01*
X131610488Y-71207259D01*
X131905642Y-71044281D01*
X132217209Y-70915424D01*
X132541258Y-70822311D01*
X132707100Y-70791960D01*
X132707100Y-71813508D01*
G37*
X132707100Y-71813508D02*
X132578651Y-71848946D01*
X132331782Y-71949230D01*
X132100416Y-72081406D01*
X131888650Y-72243134D01*
X131700234Y-72431550D01*
X131538506Y-72643316D01*
X131406330Y-72874682D01*
X131306046Y-73121551D01*
X131270608Y-73250000D01*
X130249060Y-73250000D01*
X130279411Y-73084158D01*
X130372524Y-72760109D01*
X130501381Y-72448542D01*
X130664359Y-72153388D01*
X130859400Y-71878367D01*
X131084047Y-71626947D01*
X131335467Y-71402300D01*
X131610488Y-71207259D01*
X131905642Y-71044281D01*
X132217209Y-70915424D01*
X132541258Y-70822311D01*
X132707100Y-70791960D01*
X132707100Y-71813508D01*
G36*
X131306046Y-74378449D02*
G01*
X131406330Y-74625318D01*
X131538506Y-74856684D01*
X131700234Y-75068450D01*
X131888650Y-75256866D01*
X132100416Y-75418594D01*
X132331782Y-75550770D01*
X132578651Y-75651054D01*
X132707100Y-75686492D01*
X132707100Y-76708040D01*
X132541258Y-76677689D01*
X132217209Y-76584576D01*
X131905642Y-76455719D01*
X131610488Y-76292741D01*
X131335467Y-76097700D01*
X131084047Y-75873053D01*
X130859400Y-75621633D01*
X130664359Y-75346612D01*
X130501381Y-75051458D01*
X130372524Y-74739891D01*
X130279411Y-74415842D01*
X130249060Y-74250000D01*
X131270608Y-74250000D01*
X131306046Y-74378449D01*
G37*
X131306046Y-74378449D02*
X131406330Y-74625318D01*
X131538506Y-74856684D01*
X131700234Y-75068450D01*
X131888650Y-75256866D01*
X132100416Y-75418594D01*
X132331782Y-75550770D01*
X132578651Y-75651054D01*
X132707100Y-75686492D01*
X132707100Y-76708040D01*
X132541258Y-76677689D01*
X132217209Y-76584576D01*
X131905642Y-76455719D01*
X131610488Y-76292741D01*
X131335467Y-76097700D01*
X131084047Y-75873053D01*
X130859400Y-75621633D01*
X130664359Y-75346612D01*
X130501381Y-75051458D01*
X130372524Y-74739891D01*
X130279411Y-74415842D01*
X130249060Y-74250000D01*
X131270608Y-74250000D01*
X131306046Y-74378449D01*
G36*
X133872942Y-70822311D02*
G01*
X134196991Y-70915424D01*
X134508558Y-71044281D01*
X134803712Y-71207259D01*
X135078733Y-71402300D01*
X135330153Y-71626947D01*
X135554800Y-71878367D01*
X135749841Y-72153388D01*
X135912819Y-72448542D01*
X136041676Y-72760109D01*
X136134789Y-73084158D01*
X136165140Y-73250000D01*
X135143592Y-73250000D01*
X135108155Y-73121551D01*
X135007871Y-72874682D01*
X134875694Y-72643316D01*
X134713966Y-72431550D01*
X134525550Y-72243134D01*
X134313784Y-72081406D01*
X134082418Y-71949229D01*
X133835549Y-71848945D01*
X133707100Y-71813508D01*
X133707100Y-70791960D01*
X133872942Y-70822311D01*
G37*
X133872942Y-70822311D02*
X134196991Y-70915424D01*
X134508558Y-71044281D01*
X134803712Y-71207259D01*
X135078733Y-71402300D01*
X135330153Y-71626947D01*
X135554800Y-71878367D01*
X135749841Y-72153388D01*
X135912819Y-72448542D01*
X136041676Y-72760109D01*
X136134789Y-73084158D01*
X136165140Y-73250000D01*
X135143592Y-73250000D01*
X135108155Y-73121551D01*
X135007871Y-72874682D01*
X134875694Y-72643316D01*
X134713966Y-72431550D01*
X134525550Y-72243134D01*
X134313784Y-72081406D01*
X134082418Y-71949229D01*
X133835549Y-71848945D01*
X133707100Y-71813508D01*
X133707100Y-70791960D01*
X133872942Y-70822311D01*
G36*
X136134789Y-74415842D02*
G01*
X136041676Y-74739891D01*
X135912819Y-75051458D01*
X135749841Y-75346612D01*
X135554800Y-75621633D01*
X135330153Y-75873053D01*
X135078733Y-76097700D01*
X134803712Y-76292741D01*
X134508558Y-76455719D01*
X134196991Y-76584576D01*
X133872942Y-76677689D01*
X133707100Y-76708040D01*
X133707100Y-75686492D01*
X133835549Y-75651055D01*
X134082418Y-75550771D01*
X134313784Y-75418594D01*
X134525550Y-75256866D01*
X134713966Y-75068450D01*
X134875694Y-74856684D01*
X135007871Y-74625318D01*
X135108155Y-74378449D01*
X135143592Y-74250000D01*
X136165140Y-74250000D01*
X136134789Y-74415842D01*
G37*
X136134789Y-74415842D02*
X136041676Y-74739891D01*
X135912819Y-75051458D01*
X135749841Y-75346612D01*
X135554800Y-75621633D01*
X135330153Y-75873053D01*
X135078733Y-76097700D01*
X134803712Y-76292741D01*
X134508558Y-76455719D01*
X134196991Y-76584576D01*
X133872942Y-76677689D01*
X133707100Y-76708040D01*
X133707100Y-75686492D01*
X133835549Y-75651055D01*
X134082418Y-75550771D01*
X134313784Y-75418594D01*
X134525550Y-75256866D01*
X134713966Y-75068450D01*
X134875694Y-74856684D01*
X135007871Y-74625318D01*
X135108155Y-74378449D01*
X135143592Y-74250000D01*
X136165140Y-74250000D01*
X136134789Y-74415842D01*
%TO.C,H2*%
G36*
X132707100Y-43313508D02*
G01*
X132578651Y-43348946D01*
X132331782Y-43449230D01*
X132100416Y-43581406D01*
X131888650Y-43743134D01*
X131700234Y-43931550D01*
X131538506Y-44143316D01*
X131406330Y-44374682D01*
X131306046Y-44621551D01*
X131270608Y-44750000D01*
X130249060Y-44750000D01*
X130279411Y-44584158D01*
X130372524Y-44260109D01*
X130501381Y-43948542D01*
X130664359Y-43653388D01*
X130859400Y-43378367D01*
X131084047Y-43126947D01*
X131335467Y-42902300D01*
X131610488Y-42707259D01*
X131905642Y-42544281D01*
X132217209Y-42415424D01*
X132541258Y-42322311D01*
X132707100Y-42291960D01*
X132707100Y-43313508D01*
G37*
X132707100Y-43313508D02*
X132578651Y-43348946D01*
X132331782Y-43449230D01*
X132100416Y-43581406D01*
X131888650Y-43743134D01*
X131700234Y-43931550D01*
X131538506Y-44143316D01*
X131406330Y-44374682D01*
X131306046Y-44621551D01*
X131270608Y-44750000D01*
X130249060Y-44750000D01*
X130279411Y-44584158D01*
X130372524Y-44260109D01*
X130501381Y-43948542D01*
X130664359Y-43653388D01*
X130859400Y-43378367D01*
X131084047Y-43126947D01*
X131335467Y-42902300D01*
X131610488Y-42707259D01*
X131905642Y-42544281D01*
X132217209Y-42415424D01*
X132541258Y-42322311D01*
X132707100Y-42291960D01*
X132707100Y-43313508D01*
G36*
X131306046Y-45878449D02*
G01*
X131406330Y-46125318D01*
X131538506Y-46356684D01*
X131700234Y-46568450D01*
X131888650Y-46756866D01*
X132100416Y-46918594D01*
X132331782Y-47050770D01*
X132578651Y-47151054D01*
X132707100Y-47186492D01*
X132707100Y-48208040D01*
X132541258Y-48177689D01*
X132217209Y-48084576D01*
X131905642Y-47955719D01*
X131610488Y-47792741D01*
X131335467Y-47597700D01*
X131084047Y-47373053D01*
X130859400Y-47121633D01*
X130664359Y-46846612D01*
X130501381Y-46551458D01*
X130372524Y-46239891D01*
X130279411Y-45915842D01*
X130249060Y-45750000D01*
X131270608Y-45750000D01*
X131306046Y-45878449D01*
G37*
X131306046Y-45878449D02*
X131406330Y-46125318D01*
X131538506Y-46356684D01*
X131700234Y-46568450D01*
X131888650Y-46756866D01*
X132100416Y-46918594D01*
X132331782Y-47050770D01*
X132578651Y-47151054D01*
X132707100Y-47186492D01*
X132707100Y-48208040D01*
X132541258Y-48177689D01*
X132217209Y-48084576D01*
X131905642Y-47955719D01*
X131610488Y-47792741D01*
X131335467Y-47597700D01*
X131084047Y-47373053D01*
X130859400Y-47121633D01*
X130664359Y-46846612D01*
X130501381Y-46551458D01*
X130372524Y-46239891D01*
X130279411Y-45915842D01*
X130249060Y-45750000D01*
X131270608Y-45750000D01*
X131306046Y-45878449D01*
G36*
X133872942Y-42322311D02*
G01*
X134196991Y-42415424D01*
X134508558Y-42544281D01*
X134803712Y-42707259D01*
X135078733Y-42902300D01*
X135330153Y-43126947D01*
X135554800Y-43378367D01*
X135749841Y-43653388D01*
X135912819Y-43948542D01*
X136041676Y-44260109D01*
X136134789Y-44584158D01*
X136165140Y-44750000D01*
X135143592Y-44750000D01*
X135108155Y-44621551D01*
X135007871Y-44374682D01*
X134875694Y-44143316D01*
X134713966Y-43931550D01*
X134525550Y-43743134D01*
X134313784Y-43581406D01*
X134082418Y-43449229D01*
X133835549Y-43348945D01*
X133707100Y-43313508D01*
X133707100Y-42291960D01*
X133872942Y-42322311D01*
G37*
X133872942Y-42322311D02*
X134196991Y-42415424D01*
X134508558Y-42544281D01*
X134803712Y-42707259D01*
X135078733Y-42902300D01*
X135330153Y-43126947D01*
X135554800Y-43378367D01*
X135749841Y-43653388D01*
X135912819Y-43948542D01*
X136041676Y-44260109D01*
X136134789Y-44584158D01*
X136165140Y-44750000D01*
X135143592Y-44750000D01*
X135108155Y-44621551D01*
X135007871Y-44374682D01*
X134875694Y-44143316D01*
X134713966Y-43931550D01*
X134525550Y-43743134D01*
X134313784Y-43581406D01*
X134082418Y-43449229D01*
X133835549Y-43348945D01*
X133707100Y-43313508D01*
X133707100Y-42291960D01*
X133872942Y-42322311D01*
G36*
X136134789Y-45915842D02*
G01*
X136041676Y-46239891D01*
X135912819Y-46551458D01*
X135749841Y-46846612D01*
X135554800Y-47121633D01*
X135330153Y-47373053D01*
X135078733Y-47597700D01*
X134803712Y-47792741D01*
X134508558Y-47955719D01*
X134196991Y-48084576D01*
X133872942Y-48177689D01*
X133707100Y-48208040D01*
X133707100Y-47186492D01*
X133835549Y-47151055D01*
X134082418Y-47050771D01*
X134313784Y-46918594D01*
X134525550Y-46756866D01*
X134713966Y-46568450D01*
X134875694Y-46356684D01*
X135007871Y-46125318D01*
X135108155Y-45878449D01*
X135143592Y-45750000D01*
X136165140Y-45750000D01*
X136134789Y-45915842D01*
G37*
X136134789Y-45915842D02*
X136041676Y-46239891D01*
X135912819Y-46551458D01*
X135749841Y-46846612D01*
X135554800Y-47121633D01*
X135330153Y-47373053D01*
X135078733Y-47597700D01*
X134803712Y-47792741D01*
X134508558Y-47955719D01*
X134196991Y-48084576D01*
X133872942Y-48177689D01*
X133707100Y-48208040D01*
X133707100Y-47186492D01*
X133835549Y-47151055D01*
X134082418Y-47050771D01*
X134313784Y-46918594D01*
X134525550Y-46756866D01*
X134713966Y-46568450D01*
X134875694Y-46356684D01*
X135007871Y-46125318D01*
X135108155Y-45878449D01*
X135143592Y-45750000D01*
X136165140Y-45750000D01*
X136134789Y-45915842D01*
%TO.C,H4*%
G36*
X80707100Y-71813508D02*
G01*
X80578651Y-71848946D01*
X80331782Y-71949230D01*
X80100416Y-72081406D01*
X79888650Y-72243134D01*
X79700234Y-72431550D01*
X79538506Y-72643316D01*
X79406330Y-72874682D01*
X79306046Y-73121551D01*
X79270608Y-73250000D01*
X78249060Y-73250000D01*
X78279411Y-73084158D01*
X78372524Y-72760109D01*
X78501381Y-72448542D01*
X78664359Y-72153388D01*
X78859400Y-71878367D01*
X79084047Y-71626947D01*
X79335467Y-71402300D01*
X79610488Y-71207259D01*
X79905642Y-71044281D01*
X80217209Y-70915424D01*
X80541258Y-70822311D01*
X80707100Y-70791960D01*
X80707100Y-71813508D01*
G37*
X80707100Y-71813508D02*
X80578651Y-71848946D01*
X80331782Y-71949230D01*
X80100416Y-72081406D01*
X79888650Y-72243134D01*
X79700234Y-72431550D01*
X79538506Y-72643316D01*
X79406330Y-72874682D01*
X79306046Y-73121551D01*
X79270608Y-73250000D01*
X78249060Y-73250000D01*
X78279411Y-73084158D01*
X78372524Y-72760109D01*
X78501381Y-72448542D01*
X78664359Y-72153388D01*
X78859400Y-71878367D01*
X79084047Y-71626947D01*
X79335467Y-71402300D01*
X79610488Y-71207259D01*
X79905642Y-71044281D01*
X80217209Y-70915424D01*
X80541258Y-70822311D01*
X80707100Y-70791960D01*
X80707100Y-71813508D01*
G36*
X79306046Y-74378449D02*
G01*
X79406330Y-74625318D01*
X79538506Y-74856684D01*
X79700234Y-75068450D01*
X79888650Y-75256866D01*
X80100416Y-75418594D01*
X80331782Y-75550770D01*
X80578651Y-75651054D01*
X80707100Y-75686492D01*
X80707100Y-76708040D01*
X80541258Y-76677689D01*
X80217209Y-76584576D01*
X79905642Y-76455719D01*
X79610488Y-76292741D01*
X79335467Y-76097700D01*
X79084047Y-75873053D01*
X78859400Y-75621633D01*
X78664359Y-75346612D01*
X78501381Y-75051458D01*
X78372524Y-74739891D01*
X78279411Y-74415842D01*
X78249060Y-74250000D01*
X79270608Y-74250000D01*
X79306046Y-74378449D01*
G37*
X79306046Y-74378449D02*
X79406330Y-74625318D01*
X79538506Y-74856684D01*
X79700234Y-75068450D01*
X79888650Y-75256866D01*
X80100416Y-75418594D01*
X80331782Y-75550770D01*
X80578651Y-75651054D01*
X80707100Y-75686492D01*
X80707100Y-76708040D01*
X80541258Y-76677689D01*
X80217209Y-76584576D01*
X79905642Y-76455719D01*
X79610488Y-76292741D01*
X79335467Y-76097700D01*
X79084047Y-75873053D01*
X78859400Y-75621633D01*
X78664359Y-75346612D01*
X78501381Y-75051458D01*
X78372524Y-74739891D01*
X78279411Y-74415842D01*
X78249060Y-74250000D01*
X79270608Y-74250000D01*
X79306046Y-74378449D01*
G36*
X81872942Y-70822311D02*
G01*
X82196991Y-70915424D01*
X82508558Y-71044281D01*
X82803712Y-71207259D01*
X83078733Y-71402300D01*
X83330153Y-71626947D01*
X83554800Y-71878367D01*
X83749841Y-72153388D01*
X83912819Y-72448542D01*
X84041676Y-72760109D01*
X84134789Y-73084158D01*
X84165140Y-73250000D01*
X83143592Y-73250000D01*
X83108155Y-73121551D01*
X83007871Y-72874682D01*
X82875694Y-72643316D01*
X82713966Y-72431550D01*
X82525550Y-72243134D01*
X82313784Y-72081406D01*
X82082418Y-71949229D01*
X81835549Y-71848945D01*
X81707100Y-71813508D01*
X81707100Y-70791960D01*
X81872942Y-70822311D01*
G37*
X81872942Y-70822311D02*
X82196991Y-70915424D01*
X82508558Y-71044281D01*
X82803712Y-71207259D01*
X83078733Y-71402300D01*
X83330153Y-71626947D01*
X83554800Y-71878367D01*
X83749841Y-72153388D01*
X83912819Y-72448542D01*
X84041676Y-72760109D01*
X84134789Y-73084158D01*
X84165140Y-73250000D01*
X83143592Y-73250000D01*
X83108155Y-73121551D01*
X83007871Y-72874682D01*
X82875694Y-72643316D01*
X82713966Y-72431550D01*
X82525550Y-72243134D01*
X82313784Y-72081406D01*
X82082418Y-71949229D01*
X81835549Y-71848945D01*
X81707100Y-71813508D01*
X81707100Y-70791960D01*
X81872942Y-70822311D01*
G36*
X84134789Y-74415842D02*
G01*
X84041676Y-74739891D01*
X83912819Y-75051458D01*
X83749841Y-75346612D01*
X83554800Y-75621633D01*
X83330153Y-75873053D01*
X83078733Y-76097700D01*
X82803712Y-76292741D01*
X82508558Y-76455719D01*
X82196991Y-76584576D01*
X81872942Y-76677689D01*
X81707100Y-76708040D01*
X81707100Y-75686492D01*
X81835549Y-75651055D01*
X82082418Y-75550771D01*
X82313784Y-75418594D01*
X82525550Y-75256866D01*
X82713966Y-75068450D01*
X82875694Y-74856684D01*
X83007871Y-74625318D01*
X83108155Y-74378449D01*
X83143592Y-74250000D01*
X84165140Y-74250000D01*
X84134789Y-74415842D01*
G37*
X84134789Y-74415842D02*
X84041676Y-74739891D01*
X83912819Y-75051458D01*
X83749841Y-75346612D01*
X83554800Y-75621633D01*
X83330153Y-75873053D01*
X83078733Y-76097700D01*
X82803712Y-76292741D01*
X82508558Y-76455719D01*
X82196991Y-76584576D01*
X81872942Y-76677689D01*
X81707100Y-76708040D01*
X81707100Y-75686492D01*
X81835549Y-75651055D01*
X82082418Y-75550771D01*
X82313784Y-75418594D01*
X82525550Y-75256866D01*
X82713966Y-75068450D01*
X82875694Y-74856684D01*
X83007871Y-74625318D01*
X83108155Y-74378449D01*
X83143592Y-74250000D01*
X84165140Y-74250000D01*
X84134789Y-74415842D01*
%TO.C,H5*%
G36*
X151707100Y-53063508D02*
G01*
X151578651Y-53098946D01*
X151331782Y-53199230D01*
X151100416Y-53331406D01*
X150888650Y-53493134D01*
X150700234Y-53681550D01*
X150538506Y-53893316D01*
X150406330Y-54124682D01*
X150306046Y-54371551D01*
X150270608Y-54500000D01*
X149249060Y-54500000D01*
X149279411Y-54334158D01*
X149372524Y-54010109D01*
X149501381Y-53698542D01*
X149664359Y-53403388D01*
X149859400Y-53128367D01*
X150084047Y-52876947D01*
X150335467Y-52652300D01*
X150610488Y-52457259D01*
X150905642Y-52294281D01*
X151217209Y-52165424D01*
X151541258Y-52072311D01*
X151707100Y-52041960D01*
X151707100Y-53063508D01*
G37*
X151707100Y-53063508D02*
X151578651Y-53098946D01*
X151331782Y-53199230D01*
X151100416Y-53331406D01*
X150888650Y-53493134D01*
X150700234Y-53681550D01*
X150538506Y-53893316D01*
X150406330Y-54124682D01*
X150306046Y-54371551D01*
X150270608Y-54500000D01*
X149249060Y-54500000D01*
X149279411Y-54334158D01*
X149372524Y-54010109D01*
X149501381Y-53698542D01*
X149664359Y-53403388D01*
X149859400Y-53128367D01*
X150084047Y-52876947D01*
X150335467Y-52652300D01*
X150610488Y-52457259D01*
X150905642Y-52294281D01*
X151217209Y-52165424D01*
X151541258Y-52072311D01*
X151707100Y-52041960D01*
X151707100Y-53063508D01*
G36*
X150306046Y-55628449D02*
G01*
X150406330Y-55875318D01*
X150538506Y-56106684D01*
X150700234Y-56318450D01*
X150888650Y-56506866D01*
X151100416Y-56668594D01*
X151331782Y-56800770D01*
X151578651Y-56901054D01*
X151707100Y-56936492D01*
X151707100Y-57958040D01*
X151541258Y-57927689D01*
X151217209Y-57834576D01*
X150905642Y-57705719D01*
X150610488Y-57542741D01*
X150335467Y-57347700D01*
X150084047Y-57123053D01*
X149859400Y-56871633D01*
X149664359Y-56596612D01*
X149501381Y-56301458D01*
X149372524Y-55989891D01*
X149279411Y-55665842D01*
X149249060Y-55500000D01*
X150270608Y-55500000D01*
X150306046Y-55628449D01*
G37*
X150306046Y-55628449D02*
X150406330Y-55875318D01*
X150538506Y-56106684D01*
X150700234Y-56318450D01*
X150888650Y-56506866D01*
X151100416Y-56668594D01*
X151331782Y-56800770D01*
X151578651Y-56901054D01*
X151707100Y-56936492D01*
X151707100Y-57958040D01*
X151541258Y-57927689D01*
X151217209Y-57834576D01*
X150905642Y-57705719D01*
X150610488Y-57542741D01*
X150335467Y-57347700D01*
X150084047Y-57123053D01*
X149859400Y-56871633D01*
X149664359Y-56596612D01*
X149501381Y-56301458D01*
X149372524Y-55989891D01*
X149279411Y-55665842D01*
X149249060Y-55500000D01*
X150270608Y-55500000D01*
X150306046Y-55628449D01*
G36*
X152872942Y-52072311D02*
G01*
X153196991Y-52165424D01*
X153508558Y-52294281D01*
X153803712Y-52457259D01*
X154078733Y-52652300D01*
X154330153Y-52876947D01*
X154554800Y-53128367D01*
X154749841Y-53403388D01*
X154912819Y-53698542D01*
X155041676Y-54010109D01*
X155134789Y-54334158D01*
X155165140Y-54500000D01*
X154143592Y-54500000D01*
X154108155Y-54371551D01*
X154007871Y-54124682D01*
X153875694Y-53893316D01*
X153713966Y-53681550D01*
X153525550Y-53493134D01*
X153313784Y-53331406D01*
X153082418Y-53199229D01*
X152835549Y-53098945D01*
X152707100Y-53063508D01*
X152707100Y-52041960D01*
X152872942Y-52072311D01*
G37*
X152872942Y-52072311D02*
X153196991Y-52165424D01*
X153508558Y-52294281D01*
X153803712Y-52457259D01*
X154078733Y-52652300D01*
X154330153Y-52876947D01*
X154554800Y-53128367D01*
X154749841Y-53403388D01*
X154912819Y-53698542D01*
X155041676Y-54010109D01*
X155134789Y-54334158D01*
X155165140Y-54500000D01*
X154143592Y-54500000D01*
X154108155Y-54371551D01*
X154007871Y-54124682D01*
X153875694Y-53893316D01*
X153713966Y-53681550D01*
X153525550Y-53493134D01*
X153313784Y-53331406D01*
X153082418Y-53199229D01*
X152835549Y-53098945D01*
X152707100Y-53063508D01*
X152707100Y-52041960D01*
X152872942Y-52072311D01*
G36*
X155134789Y-55665842D02*
G01*
X155041676Y-55989891D01*
X154912819Y-56301458D01*
X154749841Y-56596612D01*
X154554800Y-56871633D01*
X154330153Y-57123053D01*
X154078733Y-57347700D01*
X153803712Y-57542741D01*
X153508558Y-57705719D01*
X153196991Y-57834576D01*
X152872942Y-57927689D01*
X152707100Y-57958040D01*
X152707100Y-56936492D01*
X152835549Y-56901055D01*
X153082418Y-56800771D01*
X153313784Y-56668594D01*
X153525550Y-56506866D01*
X153713966Y-56318450D01*
X153875694Y-56106684D01*
X154007871Y-55875318D01*
X154108155Y-55628449D01*
X154143592Y-55500000D01*
X155165140Y-55500000D01*
X155134789Y-55665842D01*
G37*
X155134789Y-55665842D02*
X155041676Y-55989891D01*
X154912819Y-56301458D01*
X154749841Y-56596612D01*
X154554800Y-56871633D01*
X154330153Y-57123053D01*
X154078733Y-57347700D01*
X153803712Y-57542741D01*
X153508558Y-57705719D01*
X153196991Y-57834576D01*
X152872942Y-57927689D01*
X152707100Y-57958040D01*
X152707100Y-56936492D01*
X152835549Y-56901055D01*
X153082418Y-56800771D01*
X153313784Y-56668594D01*
X153525550Y-56506866D01*
X153713966Y-56318450D01*
X153875694Y-56106684D01*
X154007871Y-55875318D01*
X154108155Y-55628449D01*
X154143592Y-55500000D01*
X155165140Y-55500000D01*
X155134789Y-55665842D01*
%TD*%
D11*
%TO.C,R26*%
X157457100Y-85905000D03*
X155457100Y-85905000D03*
%TD*%
D12*
%TO.C,U3*%
X70871099Y-43345999D03*
X73171099Y-43345999D03*
D13*
X73171099Y-37045999D03*
D12*
X75471099Y-43345999D03*
%TD*%
D14*
%TO.C,SW5*%
X142707099Y-57999999D03*
X142707099Y-51999999D03*
%TD*%
D15*
%TO.C,C22*%
X159707100Y-75655000D03*
X159707100Y-73580000D03*
%TD*%
D11*
%TO.C,R28*%
X157457100Y-83905000D03*
X155457100Y-83905000D03*
%TD*%
D15*
%TO.C,C17*%
X157207100Y-40575000D03*
X157207100Y-38500000D03*
%TD*%
D16*
%TO.C,R3*%
X141407100Y-64650000D03*
X141407100Y-62650000D03*
%TD*%
D11*
%TO.C,R19*%
X107747100Y-38214000D03*
X105747100Y-38214000D03*
%TD*%
D17*
%TO.C,C7*%
X89174037Y-48993286D03*
X91249037Y-48993286D03*
%TD*%
D18*
%TO.C,C15*%
X144207100Y-46462500D03*
X144207100Y-48537500D03*
%TD*%
D15*
%TO.C,C8*%
X106379564Y-54089034D03*
X106379564Y-52014034D03*
%TD*%
%TO.C,C13*%
X140207100Y-43537500D03*
X140207100Y-41462500D03*
%TD*%
D19*
%TO.C,R24*%
X101707100Y-48500000D03*
X103707100Y-48500000D03*
%TD*%
D20*
%TO.C,Q1*%
X139457099Y-63049999D03*
X137557099Y-63049999D03*
X138507099Y-66449999D03*
%TD*%
D18*
%TO.C,C21*%
X68457100Y-39412500D03*
X68457100Y-41487500D03*
%TD*%
D21*
%TO.C,R1*%
X93491100Y-41498000D03*
X93491100Y-43498000D03*
%TD*%
D22*
%TO.C,D1*%
X78907100Y-38000000D03*
D23*
X84707100Y-38000000D03*
%TD*%
D24*
%TO.C,C20*%
X75994600Y-46000000D03*
X73919600Y-46000000D03*
%TD*%
D18*
%TO.C,C16*%
X162957100Y-66462500D03*
X162957100Y-68537500D03*
%TD*%
D11*
%TO.C,R29*%
X157457100Y-87905000D03*
X155457100Y-87905000D03*
%TD*%
%TO.C,R27*%
X157457100Y-81905000D03*
X155457100Y-81905000D03*
%TD*%
D21*
%TO.C,FB1*%
X103607100Y-70500000D03*
X103607100Y-72500000D03*
%TD*%
D19*
%TO.C,R23*%
X101707100Y-44500000D03*
X103707100Y-44500000D03*
%TD*%
D25*
%TO.C,J6*%
X116297099Y-34963999D03*
X115497099Y-34963999D03*
D26*
X114347099Y-34963999D03*
X113347099Y-34963999D03*
X112847099Y-34963999D03*
X111847099Y-34963999D03*
D25*
X110697099Y-34963999D03*
X109897099Y-34963999D03*
X109897099Y-34963999D03*
X110697099Y-34963999D03*
D26*
X111347099Y-34963999D03*
X112347099Y-34963999D03*
X113847099Y-34963999D03*
X114847099Y-34963999D03*
D25*
X115497099Y-34963999D03*
X116297099Y-34963999D03*
%TD*%
D18*
%TO.C,C6*%
X105207100Y-60750000D03*
X105207100Y-62825000D03*
%TD*%
D21*
%TO.C,R21*%
X109207100Y-60825000D03*
X109207100Y-62825000D03*
%TD*%
D14*
%TO.C,SW2*%
X149207099Y-45499999D03*
X155207099Y-45499999D03*
%TD*%
D16*
%TO.C,R22*%
X107207100Y-62825000D03*
X107207100Y-60825000D03*
%TD*%
%TO.C,R13*%
X161207100Y-40537500D03*
X161207100Y-38537500D03*
%TD*%
D19*
%TO.C,R20*%
X118372100Y-38214000D03*
X120372100Y-38214000D03*
%TD*%
D17*
%TO.C,C11*%
X103707100Y-66500000D03*
X105782100Y-66500000D03*
%TD*%
D14*
%TO.C,SW3*%
X162207099Y-57999999D03*
X162207099Y-51999999D03*
%TD*%
D27*
%TO.C,U4*%
X156957099Y-79679999D03*
X157457099Y-79679999D03*
X157957099Y-79679999D03*
X158457099Y-79679999D03*
D28*
X158719599Y-78917499D03*
X158719599Y-78417499D03*
X158719599Y-77917499D03*
D27*
X158457099Y-77154999D03*
X157957099Y-77154999D03*
X157457099Y-77154999D03*
X156957099Y-77154999D03*
D28*
X156694599Y-77917499D03*
X156694599Y-78417499D03*
X156694599Y-78917499D03*
%TD*%
D17*
%TO.C,C1*%
X89174037Y-46993286D03*
X91249037Y-46993286D03*
%TD*%
D11*
%TO.C,R25*%
X103707100Y-46500000D03*
X101707100Y-46500000D03*
%TD*%
D21*
%TO.C,R9*%
X158957100Y-66500000D03*
X158957100Y-68500000D03*
%TD*%
D16*
%TO.C,R2*%
X95523100Y-43498000D03*
X95523100Y-41498000D03*
%TD*%
D21*
%TO.C,R8*%
X140207100Y-46537500D03*
X140207100Y-48537500D03*
%TD*%
D29*
%TO.C,Q2*%
X125907099Y-75699999D03*
X125907099Y-73799999D03*
X122507099Y-74749999D03*
%TD*%
D17*
%TO.C,C9*%
X103707100Y-74500000D03*
X105782100Y-74500000D03*
%TD*%
D16*
%TO.C,R14*%
X159207100Y-40537500D03*
X159207100Y-38537500D03*
%TD*%
%TO.C,R6*%
X142207100Y-43500000D03*
X142207100Y-41500000D03*
%TD*%
%TO.C,R7*%
X160957100Y-63500000D03*
X160957100Y-61500000D03*
%TD*%
D18*
%TO.C,C3*%
X89893100Y-72676500D03*
X89893100Y-74751500D03*
%TD*%
D16*
%TO.C,R12*%
X138207100Y-48500000D03*
X138207100Y-46500000D03*
%TD*%
%TO.C,R30*%
X108384688Y-54046861D03*
X108384688Y-52046861D03*
%TD*%
D18*
%TO.C,C12*%
X138207100Y-41425000D03*
X138207100Y-43500000D03*
%TD*%
D30*
%TO.C,Y1*%
X92507099Y-75117999D03*
X95407099Y-75117999D03*
X95407099Y-72817999D03*
X92507099Y-72817999D03*
%TD*%
D15*
%TO.C,C4*%
X98021099Y-74751500D03*
X98021099Y-72676500D03*
%TD*%
D29*
%TO.C,Q3*%
X85807099Y-41299999D03*
X85807099Y-43199999D03*
X89207099Y-42249999D03*
%TD*%
D21*
%TO.C,R10*%
X142207100Y-46537500D03*
X142207100Y-48537500D03*
%TD*%
D16*
%TO.C,R4*%
X144207101Y-43500000D03*
X144207101Y-41500000D03*
%TD*%
D15*
%TO.C,C14*%
X158957100Y-63537500D03*
X158957100Y-61462500D03*
%TD*%
%TO.C,C5*%
X86768443Y-63754825D03*
X86768443Y-61679825D03*
%TD*%
D16*
%TO.C,R5*%
X162957100Y-63500000D03*
X162957100Y-61500000D03*
%TD*%
D17*
%TO.C,C10*%
X103707100Y-68500000D03*
X105782100Y-68500000D03*
%TD*%
D14*
%TO.C,SW6*%
X149207099Y-64499999D03*
X155207099Y-64499999D03*
%TD*%
D31*
%TO.C,U1*%
X91957100Y-63425000D03*
X92457100Y-63425000D03*
X92957100Y-63425000D03*
X93457100Y-63425000D03*
X93957100Y-63425000D03*
X94457100Y-63425000D03*
X94957100Y-63425000D03*
X95457100Y-63425000D03*
X95957100Y-63425000D03*
X96457100Y-63425000D03*
X96957100Y-63425000D03*
X97457100Y-63425000D03*
X97957100Y-63425000D03*
X98457100Y-63425000D03*
X98957100Y-63425000D03*
X99457100Y-63425000D03*
D32*
X101382100Y-61500000D03*
X101382100Y-61000000D03*
X101382100Y-60500000D03*
X101382100Y-60000000D03*
X101382100Y-59500000D03*
X101382100Y-59000000D03*
X101382100Y-58500000D03*
X101382100Y-58000000D03*
X101382100Y-57500000D03*
X101382100Y-57000000D03*
X101382100Y-56500000D03*
X101382100Y-56000000D03*
X101382100Y-55500000D03*
X101382100Y-55000000D03*
X101382100Y-54500000D03*
X101382100Y-54000000D03*
D31*
X99457100Y-52075000D03*
X98957100Y-52075000D03*
X98457100Y-52075000D03*
X97957100Y-52075000D03*
X97457100Y-52075000D03*
X96957100Y-52075000D03*
X96457100Y-52075000D03*
X95957100Y-52075000D03*
X95457100Y-52075000D03*
X94957100Y-52075000D03*
X94457100Y-52075000D03*
X93957100Y-52075000D03*
X93457100Y-52075000D03*
X92957100Y-52075000D03*
X92457100Y-52075000D03*
X91957100Y-52075000D03*
D32*
X90032100Y-54000000D03*
X90032100Y-54500000D03*
X90032100Y-55000000D03*
X90032100Y-55500000D03*
X90032100Y-56000000D03*
X90032100Y-56500000D03*
X90032100Y-57000000D03*
X90032100Y-57500000D03*
X90032100Y-58000000D03*
X90032100Y-58500000D03*
X90032100Y-59000000D03*
X90032100Y-59500000D03*
X90032100Y-60000000D03*
X90032100Y-60500000D03*
X90032100Y-61000000D03*
X90032100Y-61500000D03*
%TD*%
D18*
%TO.C,C2*%
X104379564Y-52014034D03*
X104379564Y-54089034D03*
%TD*%
D21*
%TO.C,R11*%
X160957100Y-66500000D03*
X160957100Y-68500000D03*
%TD*%
D33*
X163207100Y-28250000D02*
X65207100Y-28250000D01*
X164207100Y-100000000D02*
X165207100Y-99000000D01*
X163207100Y-28250000D02*
X165207100Y-30250000D01*
X65207100Y-28250000D02*
X65207100Y-42000000D01*
X74207100Y-51000000D02*
X74207100Y-61000000D01*
X65207100Y-70000000D02*
X65207100Y-100000000D01*
X64207100Y-95000000D02*
X62207100Y-95000000D01*
X74207100Y-61000000D02*
X65207100Y-70000000D01*
X74207100Y-51000000D02*
X65207100Y-42000000D01*
X65207100Y-100000000D02*
X164207100Y-100000000D01*
X165207100Y-99000000D02*
X165207100Y-30250000D01*
M02*
