%TF.GenerationSoftware,KiCad,Pcbnew,(7.0.0)*%
%TF.CreationDate,2023-04-30T17:40:28+02:00*%
%TF.ProjectId,STM32 Talnet console,53544d33-3220-4546-916c-6e657420636f,rev?*%
%TF.SameCoordinates,Original*%
%TF.FileFunction,Legend,Top*%
%TF.FilePolarity,Positive*%
%FSLAX46Y46*%
G04 Gerber Fmt 4.6, Leading zero omitted, Abs format (unit mm)*
G04 Created by KiCad (PCBNEW (7.0.0)) date 2023-04-30 17:40:28*
%MOMM*%
%LPD*%
G01*
G04 APERTURE LIST*
%ADD10C,0.150000*%
%ADD11C,0.000000*%
%ADD12C,0.270000*%
%ADD13C,0.300000*%
%ADD14C,0.750000*%
%ADD15C,0.120000*%
%ADD16C,0.100000*%
%TA.AperFunction,Profile*%
%ADD17C,0.100000*%
%TD*%
G04 APERTURE END LIST*
D10*
X135957100Y-59000000D02*
X135457100Y-58500000D01*
X78207100Y-42250000D02*
X79457100Y-42250000D01*
X78957100Y-57000000D02*
X78457100Y-56500000D01*
X84457100Y-76000000D02*
X84957100Y-76500000D01*
X78457100Y-60250000D02*
X78957100Y-60750000D01*
X130457100Y-42250000D02*
X124407100Y-42250000D01*
D11*
G36*
X71653422Y-68131225D02*
G01*
X72439382Y-68131225D01*
X72439699Y-68138573D01*
X72440376Y-68145821D01*
X72441404Y-68152960D01*
X72442774Y-68159980D01*
X72444477Y-68166874D01*
X72446505Y-68173633D01*
X72448848Y-68180247D01*
X72451498Y-68186709D01*
X72454446Y-68193009D01*
X72457683Y-68199139D01*
X72461200Y-68205090D01*
X72464988Y-68210853D01*
X72469039Y-68216420D01*
X72473343Y-68221782D01*
X72477892Y-68226931D01*
X72482677Y-68231857D01*
X72487688Y-68236551D01*
X72492918Y-68241006D01*
X72498357Y-68245213D01*
X72503997Y-68249162D01*
X72509828Y-68252845D01*
X72515842Y-68256254D01*
X72522029Y-68259379D01*
X72528382Y-68262212D01*
X72534890Y-68264745D01*
X72541546Y-68266968D01*
X72548340Y-68268873D01*
X72555264Y-68270451D01*
X72562308Y-68271693D01*
X72569464Y-68272592D01*
X72576723Y-68273137D01*
X72584077Y-68273321D01*
X72591430Y-68273137D01*
X72598689Y-68272592D01*
X72605845Y-68271693D01*
X72612889Y-68270451D01*
X72619813Y-68268873D01*
X72626607Y-68266968D01*
X72633263Y-68264745D01*
X72639771Y-68262212D01*
X72646124Y-68259379D01*
X72652311Y-68256254D01*
X72658325Y-68252845D01*
X72664156Y-68249162D01*
X72669796Y-68245212D01*
X72675235Y-68241006D01*
X72680465Y-68236551D01*
X72685476Y-68231856D01*
X72690261Y-68226930D01*
X72694810Y-68221782D01*
X72699114Y-68216420D01*
X72703165Y-68210853D01*
X72706953Y-68205090D01*
X72710470Y-68199139D01*
X72713707Y-68193009D01*
X72716655Y-68186709D01*
X72719305Y-68180247D01*
X72721648Y-68173633D01*
X72723676Y-68166874D01*
X72725379Y-68159980D01*
X72726749Y-68152960D01*
X72727777Y-68145821D01*
X72728453Y-68138573D01*
X72728770Y-68131224D01*
X72728589Y-68123991D01*
X72728050Y-68116808D01*
X72727157Y-68109687D01*
X72725917Y-68102639D01*
X72724334Y-68095679D01*
X72722413Y-68088816D01*
X72720160Y-68082064D01*
X72717579Y-68075435D01*
X72714676Y-68068941D01*
X72711455Y-68062593D01*
X72707921Y-68056405D01*
X72704081Y-68050388D01*
X72699938Y-68044554D01*
X72695498Y-68038915D01*
X72690765Y-68033484D01*
X72685746Y-68028273D01*
X72680473Y-68023318D01*
X72674983Y-68018654D01*
X72669290Y-68014284D01*
X72663405Y-68010214D01*
X72657340Y-68006448D01*
X72651108Y-68002992D01*
X72644721Y-67999850D01*
X72638191Y-67997028D01*
X72631531Y-67994529D01*
X72624751Y-67992360D01*
X72617866Y-67990525D01*
X72610886Y-67989028D01*
X72603824Y-67987876D01*
X72596692Y-67987072D01*
X72589502Y-67986622D01*
X72582267Y-67986530D01*
X72582264Y-67986530D01*
X72582261Y-67986530D01*
X72582255Y-67986531D01*
X72574877Y-67986810D01*
X72567599Y-67987452D01*
X72560429Y-67988448D01*
X72553377Y-67989789D01*
X72546451Y-67991467D01*
X72539660Y-67993472D01*
X72533013Y-67995795D01*
X72526519Y-67998428D01*
X72520186Y-68001361D01*
X72514024Y-68004586D01*
X72508040Y-68008094D01*
X72502245Y-68011875D01*
X72496646Y-68015921D01*
X72491253Y-68020223D01*
X72486074Y-68024772D01*
X72481119Y-68029558D01*
X72476395Y-68034574D01*
X72471913Y-68039810D01*
X72467680Y-68045257D01*
X72463705Y-68050907D01*
X72459998Y-68056749D01*
X72456567Y-68062776D01*
X72453421Y-68068979D01*
X72450569Y-68075348D01*
X72448019Y-68081875D01*
X72445780Y-68088550D01*
X72443862Y-68095365D01*
X72442273Y-68102311D01*
X72441021Y-68109379D01*
X72440117Y-68116560D01*
X72439567Y-68123845D01*
X72439382Y-68131225D01*
X71653422Y-68131225D01*
X71649203Y-68108969D01*
X71637148Y-68064129D01*
X71621682Y-68020161D01*
X71602819Y-67977268D01*
X71580574Y-67935654D01*
X71554963Y-67895524D01*
X71526001Y-67857081D01*
X71523390Y-67853664D01*
X71521042Y-67850104D01*
X71518961Y-67846418D01*
X71517148Y-67842619D01*
X71515606Y-67838722D01*
X71514335Y-67834742D01*
X71513340Y-67830694D01*
X71512620Y-67826591D01*
X71512179Y-67822450D01*
X71512019Y-67818284D01*
X71512142Y-67814108D01*
X71512549Y-67809937D01*
X71513243Y-67805785D01*
X71514226Y-67801667D01*
X71515499Y-67797599D01*
X71517066Y-67793593D01*
X71518908Y-67789707D01*
X71520997Y-67785990D01*
X71523320Y-67782451D01*
X71525867Y-67779099D01*
X71528624Y-67775943D01*
X71531580Y-67772991D01*
X71534723Y-67770251D01*
X71538040Y-67767733D01*
X71541520Y-67765444D01*
X71545150Y-67763393D01*
X71548918Y-67761589D01*
X71552812Y-67760041D01*
X71556821Y-67758756D01*
X71560931Y-67757743D01*
X71565131Y-67757012D01*
X71569410Y-67756570D01*
X71569409Y-67756570D01*
X71570572Y-67756537D01*
X71571735Y-67756526D01*
X71572898Y-67756537D01*
X71574060Y-67756570D01*
X72586143Y-67761738D01*
X72604105Y-67762256D01*
X72621852Y-67763622D01*
X72639364Y-67765816D01*
X72656621Y-67768819D01*
X72673602Y-67772612D01*
X72690287Y-67777176D01*
X72706655Y-67782491D01*
X72722685Y-67788538D01*
X72738358Y-67795299D01*
X72753652Y-67802754D01*
X72768547Y-67810884D01*
X72783022Y-67819670D01*
X72797057Y-67829092D01*
X72810631Y-67839132D01*
X72823725Y-67849770D01*
X72836316Y-67860988D01*
X72848386Y-67872765D01*
X72859912Y-67885084D01*
X72870876Y-67897924D01*
X72881255Y-67911267D01*
X72891030Y-67925094D01*
X72900180Y-67939384D01*
X72908684Y-67954121D01*
X72916523Y-67969283D01*
X72923675Y-67984852D01*
X72930120Y-68000808D01*
X72935838Y-68017134D01*
X72940807Y-68033809D01*
X72945007Y-68050814D01*
X72948419Y-68068130D01*
X72951020Y-68085739D01*
X72952792Y-68103620D01*
X72953705Y-68121566D01*
X72953756Y-68139365D01*
X72952963Y-68156997D01*
X72951343Y-68174438D01*
X72948914Y-68191667D01*
X72945693Y-68208662D01*
X72941697Y-68225401D01*
X72936945Y-68241862D01*
X72931453Y-68258023D01*
X72925239Y-68273862D01*
X72918321Y-68289356D01*
X72910715Y-68304485D01*
X72902440Y-68319226D01*
X72893512Y-68333556D01*
X72883950Y-68347455D01*
X72873770Y-68360899D01*
X72862991Y-68373868D01*
X72851629Y-68386338D01*
X72839702Y-68398289D01*
X72827227Y-68409697D01*
X72814223Y-68420542D01*
X72800705Y-68430800D01*
X72786693Y-68440451D01*
X72772203Y-68449472D01*
X72757253Y-68457840D01*
X72741859Y-68465535D01*
X72726041Y-68472534D01*
X72709814Y-68478814D01*
X72693198Y-68484355D01*
X72676208Y-68489134D01*
X72658862Y-68493129D01*
X72641179Y-68496318D01*
X71641239Y-68652640D01*
X71639031Y-68652946D01*
X71636823Y-68653171D01*
X71634620Y-68653317D01*
X71632422Y-68653383D01*
X71630231Y-68653371D01*
X71628050Y-68653281D01*
X71625880Y-68653114D01*
X71623722Y-68652871D01*
X71621580Y-68652553D01*
X71619454Y-68652161D01*
X71617347Y-68651695D01*
X71615261Y-68651157D01*
X71613196Y-68650546D01*
X71611156Y-68649864D01*
X71609142Y-68649112D01*
X71607156Y-68648291D01*
X71605200Y-68647401D01*
X71603276Y-68646443D01*
X71601385Y-68645418D01*
X71599529Y-68644326D01*
X71597711Y-68643169D01*
X71595932Y-68641948D01*
X71594194Y-68640663D01*
X71592499Y-68639314D01*
X71590849Y-68637904D01*
X71589245Y-68636432D01*
X71587690Y-68634900D01*
X71586186Y-68633308D01*
X71584733Y-68631656D01*
X71583335Y-68629947D01*
X71581993Y-68628181D01*
X71580708Y-68626358D01*
X71578347Y-68622588D01*
X71576281Y-68618696D01*
X71574511Y-68614697D01*
X71573039Y-68610607D01*
X71571864Y-68606443D01*
X71570987Y-68602221D01*
X71570408Y-68597957D01*
X71570129Y-68593667D01*
X71570148Y-68589369D01*
X71570468Y-68585078D01*
X71571088Y-68580811D01*
X71572009Y-68576583D01*
X71573231Y-68572411D01*
X71574755Y-68568312D01*
X71576582Y-68564302D01*
X71578711Y-68560397D01*
X71601620Y-68518067D01*
X71620963Y-68474567D01*
X71636757Y-68430102D01*
X71649016Y-68384877D01*
X71657756Y-68339095D01*
X71662992Y-68292959D01*
X71664739Y-68246675D01*
X71663013Y-68200446D01*
X71657829Y-68154476D01*
X71653422Y-68131225D01*
G37*
D10*
X135457100Y-69000000D02*
X135957100Y-69500000D01*
X78207100Y-76750000D02*
X78207100Y-75750000D01*
X135457100Y-48750000D02*
X135957100Y-49250000D01*
X99707100Y-42500000D02*
X100207100Y-43000000D01*
X135957100Y-66500000D02*
X135457100Y-66000000D01*
X78957100Y-51750000D02*
X78457100Y-51250000D01*
X102297100Y-43289000D02*
X102297100Y-29089000D01*
X89457100Y-76500000D02*
X88957100Y-76000000D01*
X109957100Y-76000000D02*
X110457100Y-76500000D01*
X136207100Y-47500000D02*
X136207100Y-71250000D01*
X89707100Y-76000000D02*
X90207100Y-76500000D01*
X78457100Y-49750000D02*
X78957100Y-50250000D01*
X111207100Y-76500000D02*
X110707100Y-76000000D01*
X151207100Y-71155000D02*
X164207100Y-71155000D01*
X164207100Y-71155000D02*
X164207100Y-89155000D01*
X164207100Y-89155000D02*
X151207100Y-89155000D01*
X151207100Y-89155000D02*
X151207100Y-71155000D01*
X135457100Y-64500000D02*
X135957100Y-65000000D01*
X116457100Y-76500000D02*
X115957100Y-76000000D01*
X128707100Y-76500000D02*
X128207100Y-76000000D01*
X106707100Y-76500000D02*
X106207100Y-76000000D01*
X84207100Y-76500000D02*
X83957100Y-76250000D01*
X78457100Y-68500000D02*
X78957100Y-69000000D01*
X99457100Y-76750000D02*
X130457100Y-76750000D01*
X78957100Y-67500000D02*
X78457100Y-67000000D01*
X135457100Y-60750000D02*
X135957100Y-61250000D01*
X135457100Y-65250000D02*
X135957100Y-65750000D01*
X111457100Y-76000000D02*
X111957100Y-76500000D01*
X78457100Y-53500000D02*
X78957100Y-54000000D01*
X135457100Y-53250000D02*
X135957100Y-53750000D01*
X78457100Y-58750000D02*
X78957100Y-59250000D01*
X78457100Y-52750000D02*
X78957100Y-53250000D01*
X135457100Y-70500000D02*
X135957100Y-71000000D01*
X87957100Y-76500000D02*
X87457100Y-76000000D01*
X84207100Y-42250000D02*
X82957100Y-42250000D01*
X134957100Y-42250000D02*
X136207100Y-42250000D01*
X96707100Y-76750000D02*
X83707100Y-76750000D01*
X117457100Y-76000000D02*
X117957100Y-76500000D01*
X135457100Y-49500000D02*
X135957100Y-50000000D01*
X125457100Y-42500000D02*
X125957100Y-43000000D01*
X135457100Y-63000000D02*
X135957100Y-63500000D01*
X98207100Y-42250000D02*
X101707100Y-42250000D01*
X127957100Y-76500000D02*
X127457100Y-76000000D01*
X78957100Y-62250000D02*
X78457100Y-61750000D01*
X135457100Y-66750000D02*
X135957100Y-67250000D01*
X118957100Y-76000000D02*
X119457100Y-76500000D01*
X135957100Y-51500000D02*
X135457100Y-51000000D01*
X136207100Y-42250000D02*
X136207100Y-43500000D01*
D11*
G36*
X70191676Y-69741979D02*
G01*
X70437437Y-69741979D01*
X70437574Y-69750210D01*
X70437983Y-69758396D01*
X70438661Y-69766532D01*
X70439604Y-69774612D01*
X70440809Y-69782631D01*
X70442273Y-69790582D01*
X70443993Y-69798460D01*
X70445965Y-69806260D01*
X70448187Y-69813976D01*
X70450654Y-69821602D01*
X70453365Y-69829133D01*
X70456315Y-69836563D01*
X70459501Y-69843887D01*
X70462920Y-69851098D01*
X70466569Y-69858192D01*
X70470444Y-69865162D01*
X70474543Y-69872004D01*
X70478862Y-69878711D01*
X70483398Y-69885278D01*
X70488147Y-69891699D01*
X70493107Y-69897968D01*
X70498273Y-69904081D01*
X70503644Y-69910031D01*
X70509215Y-69915813D01*
X70514984Y-69921421D01*
X70520947Y-69926849D01*
X70527101Y-69932093D01*
X70533443Y-69937146D01*
X70539969Y-69942003D01*
X70546676Y-69946658D01*
X70553561Y-69951105D01*
X70560621Y-69955339D01*
X70575112Y-69963075D01*
X70589966Y-69969780D01*
X70605131Y-69975453D01*
X70620554Y-69980095D01*
X70636186Y-69983705D01*
X70651972Y-69986283D01*
X70667862Y-69987831D01*
X70683805Y-69988346D01*
X70699747Y-69987831D01*
X70715637Y-69986283D01*
X70731424Y-69983705D01*
X70747055Y-69980095D01*
X70762479Y-69975453D01*
X70777643Y-69969780D01*
X70792497Y-69963075D01*
X70806988Y-69955339D01*
X70820933Y-69946658D01*
X70834167Y-69937146D01*
X70846662Y-69926849D01*
X70858394Y-69915813D01*
X70869336Y-69904081D01*
X70879462Y-69891699D01*
X70888747Y-69878711D01*
X70897165Y-69865162D01*
X70904689Y-69851098D01*
X70911295Y-69836563D01*
X70916955Y-69821602D01*
X70921644Y-69806260D01*
X70925336Y-69790582D01*
X70928005Y-69774612D01*
X70929626Y-69758396D01*
X70930172Y-69741979D01*
X70929861Y-69729669D01*
X70928941Y-69717445D01*
X70927420Y-69705326D01*
X70925308Y-69693334D01*
X70922612Y-69681489D01*
X70919342Y-69669811D01*
X70915505Y-69658321D01*
X70911112Y-69647040D01*
X70906169Y-69635988D01*
X70900687Y-69625187D01*
X70894672Y-69614656D01*
X70888135Y-69604416D01*
X70881084Y-69594489D01*
X70873527Y-69584894D01*
X70865473Y-69575652D01*
X70856931Y-69566784D01*
X70847957Y-69558353D01*
X70838615Y-69550415D01*
X70828926Y-69542979D01*
X70818911Y-69536052D01*
X70808590Y-69529644D01*
X70797985Y-69523762D01*
X70787115Y-69518415D01*
X70776003Y-69513611D01*
X70764668Y-69509359D01*
X70753131Y-69505667D01*
X70741413Y-69502543D01*
X70729535Y-69499996D01*
X70717517Y-69498033D01*
X70705380Y-69496665D01*
X70693145Y-69495897D01*
X70680833Y-69495740D01*
X70680761Y-69495742D01*
X70668198Y-69496210D01*
X70655804Y-69497297D01*
X70643595Y-69498987D01*
X70631586Y-69501265D01*
X70619791Y-69504117D01*
X70608227Y-69507525D01*
X70596907Y-69511476D01*
X70585847Y-69515954D01*
X70575062Y-69520944D01*
X70564567Y-69526430D01*
X70554377Y-69532398D01*
X70544507Y-69538833D01*
X70534971Y-69545718D01*
X70525786Y-69553039D01*
X70516966Y-69560781D01*
X70508526Y-69568927D01*
X70500481Y-69577464D01*
X70492846Y-69586376D01*
X70485637Y-69595648D01*
X70478867Y-69605264D01*
X70472553Y-69615209D01*
X70466709Y-69625468D01*
X70461350Y-69636026D01*
X70456492Y-69646867D01*
X70452148Y-69657977D01*
X70448336Y-69669340D01*
X70445068Y-69680940D01*
X70442361Y-69692764D01*
X70440229Y-69704794D01*
X70438688Y-69717017D01*
X70437752Y-69729417D01*
X70437437Y-69741979D01*
X70191676Y-69741979D01*
X70191588Y-69724624D01*
X70194672Y-69684467D01*
X70201116Y-69644296D01*
X70210990Y-69604296D01*
X70217186Y-69584570D01*
X70224148Y-69565254D01*
X70231856Y-69546362D01*
X70240291Y-69527909D01*
X70259260Y-69492380D01*
X70280894Y-69458786D01*
X70305036Y-69427244D01*
X70331524Y-69397873D01*
X70360200Y-69370790D01*
X70390904Y-69346113D01*
X70423476Y-69323961D01*
X70457756Y-69304451D01*
X70493587Y-69287703D01*
X70530807Y-69273833D01*
X70569257Y-69262960D01*
X70608778Y-69255202D01*
X70628890Y-69252527D01*
X70649210Y-69250676D01*
X70669718Y-69249663D01*
X70690393Y-69249502D01*
X70707100Y-69250000D01*
X70723747Y-69251061D01*
X70740320Y-69252682D01*
X70756805Y-69254859D01*
X70773189Y-69257587D01*
X70789458Y-69260863D01*
X70805599Y-69264684D01*
X70821598Y-69269044D01*
X70837441Y-69273940D01*
X70853114Y-69279367D01*
X70868605Y-69285323D01*
X70883898Y-69291803D01*
X70898982Y-69298803D01*
X70913841Y-69306319D01*
X70928462Y-69314347D01*
X70942833Y-69322883D01*
X72252572Y-70132136D01*
X72246112Y-70241690D01*
X72231643Y-70345818D01*
X72222858Y-70367781D01*
X72206580Y-70384834D01*
X72185134Y-70394652D01*
X72161363Y-70395427D01*
X72152208Y-70394163D01*
X72143063Y-70393245D01*
X72133936Y-70392671D01*
X72124835Y-70392437D01*
X72115769Y-70392538D01*
X72106745Y-70392972D01*
X72097773Y-70393734D01*
X72088859Y-70394821D01*
X72080013Y-70396229D01*
X72071242Y-70397954D01*
X72062556Y-70399992D01*
X72053961Y-70402340D01*
X72045466Y-70404994D01*
X72037080Y-70407950D01*
X72028810Y-70411204D01*
X72020665Y-70414753D01*
X72012653Y-70418593D01*
X72004783Y-70422720D01*
X71997061Y-70427130D01*
X71989498Y-70431820D01*
X71982100Y-70436786D01*
X71974877Y-70442024D01*
X71967835Y-70447530D01*
X71960984Y-70453301D01*
X71954332Y-70459332D01*
X71947887Y-70465621D01*
X71941657Y-70472163D01*
X71935650Y-70478955D01*
X71929875Y-70485992D01*
X71924339Y-70493271D01*
X71919052Y-70500789D01*
X71914020Y-70508542D01*
X71904866Y-70524537D01*
X71897005Y-70541003D01*
X71890435Y-70557866D01*
X71885154Y-70575054D01*
X71881159Y-70592496D01*
X71878450Y-70610118D01*
X71877024Y-70627850D01*
X71876878Y-70645618D01*
X71878011Y-70663350D01*
X71880421Y-70680975D01*
X71884106Y-70698419D01*
X71889064Y-70715612D01*
X71895293Y-70732480D01*
X71902791Y-70748952D01*
X71911555Y-70764955D01*
X71921584Y-70780417D01*
X71931144Y-70802121D01*
X71931920Y-70825892D01*
X71923651Y-70848113D01*
X71907373Y-70865683D01*
X71824949Y-70920460D01*
X71734516Y-70970327D01*
X70424777Y-70161074D01*
X70390670Y-70137962D01*
X70358997Y-70112427D01*
X70329829Y-70084654D01*
X70303238Y-70054829D01*
X70279294Y-70023137D01*
X70258068Y-69989763D01*
X70239633Y-69954893D01*
X70224058Y-69918712D01*
X70211415Y-69881405D01*
X70201776Y-69843157D01*
X70195211Y-69804154D01*
X70191791Y-69764581D01*
X70191676Y-69741979D01*
G37*
G36*
X70541735Y-68246463D02*
G01*
X70802531Y-68246463D01*
X70802668Y-68254694D01*
X70803077Y-68262880D01*
X70803755Y-68271016D01*
X70804698Y-68279097D01*
X70805903Y-68287115D01*
X70807367Y-68295066D01*
X70809087Y-68302945D01*
X70811059Y-68310744D01*
X70813281Y-68318460D01*
X70815748Y-68326086D01*
X70818459Y-68333617D01*
X70821409Y-68341047D01*
X70824595Y-68348371D01*
X70828014Y-68355582D01*
X70831663Y-68362676D01*
X70835538Y-68369647D01*
X70839637Y-68376488D01*
X70843956Y-68383195D01*
X70848492Y-68389762D01*
X70853241Y-68396183D01*
X70858201Y-68402452D01*
X70863367Y-68408565D01*
X70868738Y-68414515D01*
X70874309Y-68420297D01*
X70880078Y-68425905D01*
X70886041Y-68431334D01*
X70892195Y-68436577D01*
X70898537Y-68441630D01*
X70905063Y-68446487D01*
X70911770Y-68451142D01*
X70918655Y-68455589D01*
X70925715Y-68459823D01*
X70940206Y-68467559D01*
X70955060Y-68474264D01*
X70970225Y-68479937D01*
X70985648Y-68484578D01*
X71001280Y-68488189D01*
X71017066Y-68490767D01*
X71032956Y-68492314D01*
X71048899Y-68492830D01*
X71064841Y-68492314D01*
X71080731Y-68490767D01*
X71096518Y-68488189D01*
X71112149Y-68484578D01*
X71127573Y-68479937D01*
X71142737Y-68474264D01*
X71157591Y-68467559D01*
X71172082Y-68459823D01*
X71186027Y-68451142D01*
X71199261Y-68441630D01*
X71211756Y-68431334D01*
X71223488Y-68420297D01*
X71234430Y-68408565D01*
X71244556Y-68396183D01*
X71253841Y-68383195D01*
X71262259Y-68369647D01*
X71269783Y-68355582D01*
X71276389Y-68341047D01*
X71282049Y-68326086D01*
X71286738Y-68310744D01*
X71290430Y-68295066D01*
X71293099Y-68279097D01*
X71294720Y-68262880D01*
X71295266Y-68246463D01*
X71294967Y-68234145D01*
X71294059Y-68221911D01*
X71292549Y-68209783D01*
X71290446Y-68197781D01*
X71287759Y-68185925D01*
X71284497Y-68174237D01*
X71280668Y-68162737D01*
X71276280Y-68151445D01*
X71271343Y-68140382D01*
X71265865Y-68129569D01*
X71259854Y-68119027D01*
X71253320Y-68108777D01*
X71246270Y-68098838D01*
X71238714Y-68089232D01*
X71230660Y-68079979D01*
X71222117Y-68071100D01*
X71213141Y-68062659D01*
X71203796Y-68054712D01*
X71194104Y-68047266D01*
X71184085Y-68040331D01*
X71173760Y-68033915D01*
X71163150Y-68028025D01*
X71152275Y-68022671D01*
X71141157Y-68017861D01*
X71129815Y-68013604D01*
X71118272Y-68009906D01*
X71106547Y-68006778D01*
X71094661Y-68004227D01*
X71082635Y-68002263D01*
X71070491Y-68000892D01*
X71058248Y-68000124D01*
X71045927Y-67999966D01*
X71045923Y-67999966D01*
X71033350Y-68000432D01*
X71020947Y-68001517D01*
X71008729Y-68003206D01*
X70996711Y-68005484D01*
X70984909Y-68008336D01*
X70973336Y-68011746D01*
X70962008Y-68015699D01*
X70950941Y-68020180D01*
X70940149Y-68025174D01*
X70929647Y-68030665D01*
X70919451Y-68036639D01*
X70909575Y-68043079D01*
X70900035Y-68049971D01*
X70890845Y-68057300D01*
X70882021Y-68065049D01*
X70873577Y-68073205D01*
X70865529Y-68081751D01*
X70857892Y-68090673D01*
X70850681Y-68099955D01*
X70843910Y-68109582D01*
X70837596Y-68119539D01*
X70831752Y-68129810D01*
X70826395Y-68140380D01*
X70821538Y-68151234D01*
X70817198Y-68162357D01*
X70813389Y-68173734D01*
X70810126Y-68185349D01*
X70807424Y-68197187D01*
X70805299Y-68209232D01*
X70803765Y-68221470D01*
X70802837Y-68233885D01*
X70802531Y-68246463D01*
X70541735Y-68246463D01*
X70570246Y-68129674D01*
X70575596Y-68109548D01*
X70581742Y-68089804D01*
X70588661Y-68070458D01*
X70596336Y-68051525D01*
X70604746Y-68033022D01*
X70613872Y-68014964D01*
X70634191Y-67980247D01*
X70657135Y-67947502D01*
X70682546Y-67916855D01*
X70710268Y-67888434D01*
X70740141Y-67862365D01*
X70772008Y-67838775D01*
X70805712Y-67817791D01*
X70841094Y-67799541D01*
X70877997Y-67784151D01*
X70916263Y-67771747D01*
X70935857Y-67766705D01*
X70955733Y-67762458D01*
X70975871Y-67759020D01*
X70996251Y-67756409D01*
X71016854Y-67754640D01*
X71037659Y-67753728D01*
X71066291Y-67753900D01*
X71094695Y-67755719D01*
X71122806Y-67759154D01*
X71150562Y-67764177D01*
X71177900Y-67770759D01*
X71204757Y-67778869D01*
X71231070Y-67788479D01*
X71256775Y-67799560D01*
X71281810Y-67812082D01*
X71306111Y-67826015D01*
X71329617Y-67841331D01*
X71352262Y-67858000D01*
X71373985Y-67875993D01*
X71394723Y-67895281D01*
X71414412Y-67915833D01*
X71432990Y-67937621D01*
X71450272Y-67960450D01*
X71466109Y-67984099D01*
X71480485Y-68008499D01*
X71493384Y-68033584D01*
X71504792Y-68059285D01*
X71514695Y-68085534D01*
X71523075Y-68112264D01*
X71529919Y-68139406D01*
X71535212Y-68166893D01*
X71538938Y-68194656D01*
X71541083Y-68222629D01*
X71541630Y-68250743D01*
X71540566Y-68278930D01*
X71537875Y-68307122D01*
X71533542Y-68335252D01*
X71527552Y-68363251D01*
X71304826Y-69275599D01*
X71303670Y-69279761D01*
X71302239Y-69283796D01*
X71300544Y-69287694D01*
X71298596Y-69291445D01*
X71296404Y-69295037D01*
X71293981Y-69298460D01*
X71291336Y-69301705D01*
X71288480Y-69304759D01*
X71285423Y-69307613D01*
X71282177Y-69310255D01*
X71278752Y-69312676D01*
X71275157Y-69314864D01*
X71271405Y-69316810D01*
X71267506Y-69318502D01*
X71263470Y-69319929D01*
X71259307Y-69321082D01*
X71255074Y-69321942D01*
X71250829Y-69322499D01*
X71246587Y-69322759D01*
X71242360Y-69322726D01*
X71238165Y-69322405D01*
X71234014Y-69321800D01*
X71229922Y-69320917D01*
X71225904Y-69319759D01*
X71221974Y-69318331D01*
X71218145Y-69316639D01*
X71214433Y-69314686D01*
X71210851Y-69312478D01*
X71207414Y-69310018D01*
X71204136Y-69307312D01*
X71201032Y-69304364D01*
X71198114Y-69301179D01*
X71161277Y-69261515D01*
X71121867Y-69225312D01*
X71080118Y-69192629D01*
X71036262Y-69163522D01*
X70990533Y-69138048D01*
X70943162Y-69116263D01*
X70894384Y-69098225D01*
X70844431Y-69083990D01*
X70793536Y-69073616D01*
X70741932Y-69067158D01*
X70689851Y-69064674D01*
X70637528Y-69066221D01*
X70585194Y-69071855D01*
X70533083Y-69081634D01*
X70481428Y-69095614D01*
X70430461Y-69113852D01*
X70426405Y-69115335D01*
X70422293Y-69116521D01*
X70418138Y-69117413D01*
X70413955Y-69118013D01*
X70409759Y-69118323D01*
X70405566Y-69118347D01*
X70401389Y-69118086D01*
X70397244Y-69117543D01*
X70393145Y-69116721D01*
X70389107Y-69115621D01*
X70385145Y-69114247D01*
X70381273Y-69112600D01*
X70377507Y-69110684D01*
X70373862Y-69108500D01*
X70370351Y-69106051D01*
X70366990Y-69103340D01*
X70363827Y-69100401D01*
X70360902Y-69097276D01*
X70358219Y-69093979D01*
X70355785Y-69090526D01*
X70353602Y-69086929D01*
X70351676Y-69083204D01*
X70350011Y-69079365D01*
X70348611Y-69075425D01*
X70347482Y-69071400D01*
X70346627Y-69067303D01*
X70346051Y-69063150D01*
X70345760Y-69058953D01*
X70345756Y-69054727D01*
X70346045Y-69050487D01*
X70346632Y-69046247D01*
X70347520Y-69042021D01*
X70541735Y-68246463D01*
G37*
D10*
X135457100Y-63750000D02*
X135957100Y-64250000D01*
X78457100Y-58000000D02*
X78957100Y-58500000D01*
X78457100Y-48250000D02*
X78957100Y-48750000D01*
X123897100Y-43289000D02*
X102297100Y-43289000D01*
X120207100Y-76500000D02*
X119707100Y-76000000D01*
X98957100Y-42500000D02*
X99457100Y-43000000D01*
X135457100Y-51750000D02*
X135957100Y-52250000D01*
D11*
G36*
X74138502Y-69863986D02*
G01*
X74956064Y-69863986D01*
X74956064Y-71186903D01*
X74138502Y-71186903D01*
X74138502Y-72996652D01*
X74140120Y-73029341D01*
X74144916Y-73061476D01*
X74152798Y-73092840D01*
X74163677Y-73123217D01*
X74177464Y-73152390D01*
X74194068Y-73180142D01*
X74213400Y-73206255D01*
X74235370Y-73230513D01*
X74259629Y-73252483D01*
X74285742Y-73271815D01*
X74313493Y-73288419D01*
X74342666Y-73302206D01*
X74373043Y-73313086D01*
X74404408Y-73320968D01*
X74436543Y-73325763D01*
X74469231Y-73327382D01*
X74956064Y-73327382D01*
X74956064Y-74650298D01*
X74138502Y-74650298D01*
X74072902Y-74648672D01*
X74007748Y-74643825D01*
X73943147Y-74635800D01*
X73879208Y-74624644D01*
X73816040Y-74610400D01*
X73753751Y-74593115D01*
X73692450Y-74572833D01*
X73632244Y-74549597D01*
X73573242Y-74523455D01*
X73515553Y-74494450D01*
X73459285Y-74462627D01*
X73404547Y-74428032D01*
X73351447Y-74390710D01*
X73300093Y-74350704D01*
X73250594Y-74308062D01*
X73203059Y-74262825D01*
X73157822Y-74215289D01*
X73115179Y-74165790D01*
X73075173Y-74114437D01*
X73037851Y-74061337D01*
X73003256Y-74006599D01*
X72971433Y-73950331D01*
X72942429Y-73892641D01*
X72916286Y-73833640D01*
X72893051Y-73773434D01*
X72872769Y-73712133D01*
X72855483Y-73649843D01*
X72841240Y-73586675D01*
X72830083Y-73522737D01*
X72822059Y-73458135D01*
X72817211Y-73392981D01*
X72815585Y-73327382D01*
X72815585Y-71186903D01*
X71998022Y-71186903D01*
X72815585Y-69863986D01*
X72815585Y-69358631D01*
X74138502Y-68541069D01*
X74138502Y-69863986D01*
G37*
D10*
X108207100Y-76500000D02*
X107707100Y-76000000D01*
X135957100Y-62750000D02*
X135457100Y-62250000D01*
X129457100Y-76500000D02*
X128957100Y-76000000D01*
X78457100Y-66250000D02*
X78957100Y-66750000D01*
X78457100Y-69250000D02*
X78957100Y-69750000D01*
X135457100Y-50250000D02*
X135957100Y-50750000D01*
X78207100Y-42250000D02*
X78207100Y-43500000D01*
X135457100Y-60000000D02*
X135957100Y-60500000D01*
X127707100Y-42500000D02*
X128207100Y-43000000D01*
X135457100Y-68250000D02*
X135957100Y-68750000D01*
X78457100Y-55750000D02*
X78957100Y-56250000D01*
X136207100Y-76750000D02*
X135207101Y-76750000D01*
X103957100Y-76000000D02*
X104457100Y-76500000D01*
X109707100Y-76500000D02*
X109207100Y-76000000D01*
X78457100Y-52000000D02*
X78957100Y-52500000D01*
X135957100Y-70250000D02*
X135457100Y-69750000D01*
X78457100Y-59500000D02*
X78957100Y-60000000D01*
X108957100Y-76500000D02*
X108457100Y-76000000D01*
X135457100Y-57750000D02*
X135957100Y-58250000D01*
D11*
G36*
X73110265Y-68029603D02*
G01*
X73114430Y-68030036D01*
X73118564Y-68030754D01*
X73122653Y-68031755D01*
X73126681Y-68033039D01*
X73130633Y-68034607D01*
X73134495Y-68036459D01*
X73138252Y-68038595D01*
X73515422Y-68270807D01*
X73455977Y-68412822D01*
X73597993Y-68472268D01*
X73538547Y-68614283D01*
X73396532Y-68554838D01*
X73337087Y-68696854D01*
X72906963Y-68591148D01*
X72902806Y-68589970D01*
X72898777Y-68588519D01*
X72894886Y-68586804D01*
X72891144Y-68584836D01*
X72887561Y-68582626D01*
X72884149Y-68580185D01*
X72880917Y-68577523D01*
X72877876Y-68574650D01*
X72875037Y-68571578D01*
X72872410Y-68568317D01*
X72870006Y-68564878D01*
X72867836Y-68561271D01*
X72865909Y-68557508D01*
X72864237Y-68553598D01*
X72862830Y-68549553D01*
X72861699Y-68545383D01*
X72860862Y-68541144D01*
X72860327Y-68536895D01*
X72860089Y-68532650D01*
X72860145Y-68528422D01*
X72860489Y-68524227D01*
X72861116Y-68520078D01*
X72862022Y-68515990D01*
X72863203Y-68511977D01*
X72864652Y-68508053D01*
X72866366Y-68504233D01*
X72868340Y-68500530D01*
X72870569Y-68496959D01*
X72873049Y-68493535D01*
X72875774Y-68490271D01*
X72878741Y-68487182D01*
X72881943Y-68484281D01*
X72902605Y-68465756D01*
X72921997Y-68446154D01*
X72940090Y-68425542D01*
X72956858Y-68403986D01*
X72972272Y-68381551D01*
X72986305Y-68358305D01*
X72998929Y-68334313D01*
X73010117Y-68309643D01*
X73019840Y-68284359D01*
X73028070Y-68258528D01*
X73034781Y-68232217D01*
X73039944Y-68205492D01*
X73043532Y-68178419D01*
X73045517Y-68151064D01*
X73045871Y-68123493D01*
X73044566Y-68095773D01*
X73044437Y-68093611D01*
X73044384Y-68091456D01*
X73044407Y-68089310D01*
X73044503Y-68087175D01*
X73044673Y-68085052D01*
X73044915Y-68082943D01*
X73045229Y-68080849D01*
X73045614Y-68078773D01*
X73046069Y-68076716D01*
X73046593Y-68074679D01*
X73047186Y-68072665D01*
X73047846Y-68070674D01*
X73048572Y-68068710D01*
X73049364Y-68066772D01*
X73050221Y-68064864D01*
X73051142Y-68062986D01*
X73052126Y-68061140D01*
X73053172Y-68059329D01*
X73054280Y-68057553D01*
X73055448Y-68055814D01*
X73056677Y-68054114D01*
X73057964Y-68052455D01*
X73059309Y-68050839D01*
X73060711Y-68049266D01*
X73062169Y-68047739D01*
X73063683Y-68046260D01*
X73065252Y-68044829D01*
X73066874Y-68043449D01*
X73068549Y-68042121D01*
X73070276Y-68040848D01*
X73072055Y-68039630D01*
X73073883Y-68038469D01*
X73077648Y-68036349D01*
X73081517Y-68034512D01*
X73085475Y-68032959D01*
X73089508Y-68031690D01*
X73093601Y-68030705D01*
X73097738Y-68030004D01*
X73101904Y-68029586D01*
X73106085Y-68029453D01*
X73110265Y-68029603D01*
G37*
D10*
X85957100Y-76000000D02*
X86457100Y-76500000D01*
X135457100Y-48000000D02*
X135957100Y-48500000D01*
X123897100Y-29089000D02*
X123897100Y-43289000D01*
X121707100Y-76500000D02*
X121207100Y-76000000D01*
X115707100Y-76500000D02*
X115207100Y-76000000D01*
X78457100Y-63250000D02*
X78957100Y-63750000D01*
X135957100Y-55250000D02*
X135457100Y-54750000D01*
X135457100Y-61500000D02*
X135957100Y-62000000D01*
X78457100Y-61000000D02*
X78957100Y-61500000D01*
X124707100Y-42500000D02*
X125207100Y-43000000D01*
X121957100Y-76000000D02*
X122457100Y-76500000D01*
X78457100Y-62500000D02*
X78957100Y-63000000D01*
X78207100Y-71500000D02*
X78207100Y-48000000D01*
X102207100Y-76500000D02*
X101707100Y-76000000D01*
X78457100Y-49000000D02*
X78957100Y-49500000D01*
X98207100Y-42500000D02*
X98707100Y-43000000D01*
X101179100Y-42500000D02*
X101679100Y-43000000D01*
X88207100Y-76000000D02*
X88707100Y-76500000D01*
X114207100Y-76500000D02*
X113707100Y-76000000D01*
X106957100Y-76000000D02*
X107457100Y-76500000D01*
X78457100Y-70750000D02*
X78707100Y-71000000D01*
X112707100Y-76500000D02*
X112207100Y-76000000D01*
X78457100Y-70000000D02*
X78957100Y-70500000D01*
X117207100Y-76500000D02*
X116707100Y-76000000D01*
X78457100Y-54250000D02*
X78957100Y-54750000D01*
X78457100Y-64750000D02*
X78957100Y-65250000D01*
X126207100Y-42500000D02*
X126707100Y-43000000D01*
X114457100Y-76000000D02*
X114957100Y-76500000D01*
X85707100Y-76500000D02*
X85207100Y-76000000D01*
X135457100Y-56250000D02*
X135957100Y-56750000D01*
X135457100Y-52500000D02*
X135957100Y-53000000D01*
X123897100Y-29089000D02*
X118397100Y-29089000D01*
X126957100Y-42500000D02*
X127457100Y-43000000D01*
X118707100Y-76500000D02*
X118207100Y-76000000D01*
X102457100Y-76000000D02*
X102957100Y-76500000D01*
X78457100Y-55000000D02*
X78957100Y-55500000D01*
X99957100Y-76500000D02*
X99457100Y-76000000D01*
X78457100Y-65500000D02*
X78957100Y-66000000D01*
X136207100Y-75750000D02*
X136207100Y-76750000D01*
X100207100Y-76000000D02*
X100707100Y-76500000D01*
X103707100Y-76500000D02*
X103207100Y-76000000D01*
X112957100Y-76000000D02*
X113457100Y-76500000D01*
X135457100Y-55500000D02*
X135957100Y-56000000D01*
X100457100Y-42500000D02*
X100957100Y-43000000D01*
X120457100Y-76000000D02*
X120957100Y-76500000D01*
X78457100Y-64000000D02*
X78957100Y-64500000D01*
X79207100Y-76750000D02*
X78207100Y-76750000D01*
X135457100Y-57000000D02*
X135957100Y-57500000D01*
X129707100Y-76000000D02*
X130207100Y-76500000D01*
X135457100Y-67500000D02*
X135957100Y-68000000D01*
X135457100Y-59250000D02*
X135957100Y-59750000D01*
X128457100Y-42500000D02*
X128957100Y-43000000D01*
X102297100Y-29089000D02*
X107797100Y-29089000D01*
X105457100Y-76000000D02*
X105957100Y-76500000D01*
X101457100Y-76500000D02*
X100957100Y-76000000D01*
X78457100Y-50500000D02*
X78957100Y-51000000D01*
X78457100Y-67750000D02*
X78957100Y-68250000D01*
X86707100Y-76000000D02*
X87207100Y-76500000D01*
X78457100Y-57250000D02*
X78957100Y-57750000D01*
X129957100Y-42500000D02*
X130207100Y-42750000D01*
X105207100Y-76500000D02*
X104707100Y-76000000D01*
X135457100Y-54000000D02*
X135957100Y-54500000D01*
X129207100Y-42500000D02*
X129707100Y-43000000D01*
D12*
X151892814Y-70212285D02*
X152064242Y-70269428D01*
X152064242Y-70269428D02*
X152121385Y-70326571D01*
X152121385Y-70326571D02*
X152178528Y-70440857D01*
X152178528Y-70440857D02*
X152178528Y-70612285D01*
X152178528Y-70612285D02*
X152121385Y-70726571D01*
X152121385Y-70726571D02*
X152064242Y-70783714D01*
X152064242Y-70783714D02*
X151949957Y-70840857D01*
X151949957Y-70840857D02*
X151492814Y-70840857D01*
X151492814Y-70840857D02*
X151492814Y-69640857D01*
X151492814Y-69640857D02*
X151892814Y-69640857D01*
X151892814Y-69640857D02*
X152007100Y-69698000D01*
X152007100Y-69698000D02*
X152064242Y-69755142D01*
X152064242Y-69755142D02*
X152121385Y-69869428D01*
X152121385Y-69869428D02*
X152121385Y-69983714D01*
X152121385Y-69983714D02*
X152064242Y-70098000D01*
X152064242Y-70098000D02*
X152007100Y-70155142D01*
X152007100Y-70155142D02*
X151892814Y-70212285D01*
X151892814Y-70212285D02*
X151492814Y-70212285D01*
X152692814Y-70840857D02*
X152692814Y-69640857D01*
X152692814Y-69640857D02*
X153092814Y-70498000D01*
X153092814Y-70498000D02*
X153492814Y-69640857D01*
X153492814Y-69640857D02*
X153492814Y-70840857D01*
X154064243Y-70840857D02*
X154064243Y-69640857D01*
X155264243Y-70840857D02*
X154578529Y-70840857D01*
X154921386Y-70840857D02*
X154921386Y-69640857D01*
X154921386Y-69640857D02*
X154807100Y-69812285D01*
X154807100Y-69812285D02*
X154692815Y-69926571D01*
X154692815Y-69926571D02*
X154578529Y-69983714D01*
X156292815Y-69640857D02*
X156064243Y-69640857D01*
X156064243Y-69640857D02*
X155949957Y-69698000D01*
X155949957Y-69698000D02*
X155892815Y-69755142D01*
X155892815Y-69755142D02*
X155778529Y-69926571D01*
X155778529Y-69926571D02*
X155721386Y-70155142D01*
X155721386Y-70155142D02*
X155721386Y-70612285D01*
X155721386Y-70612285D02*
X155778529Y-70726571D01*
X155778529Y-70726571D02*
X155835672Y-70783714D01*
X155835672Y-70783714D02*
X155949957Y-70840857D01*
X155949957Y-70840857D02*
X156178529Y-70840857D01*
X156178529Y-70840857D02*
X156292815Y-70783714D01*
X156292815Y-70783714D02*
X156349957Y-70726571D01*
X156349957Y-70726571D02*
X156407100Y-70612285D01*
X156407100Y-70612285D02*
X156407100Y-70326571D01*
X156407100Y-70326571D02*
X156349957Y-70212285D01*
X156349957Y-70212285D02*
X156292815Y-70155142D01*
X156292815Y-70155142D02*
X156178529Y-70098000D01*
X156178529Y-70098000D02*
X155949957Y-70098000D01*
X155949957Y-70098000D02*
X155835672Y-70155142D01*
X155835672Y-70155142D02*
X155778529Y-70212285D01*
X155778529Y-70212285D02*
X155721386Y-70326571D01*
X157149957Y-69640857D02*
X157264243Y-69640857D01*
X157264243Y-69640857D02*
X157378529Y-69698000D01*
X157378529Y-69698000D02*
X157435672Y-69755142D01*
X157435672Y-69755142D02*
X157492814Y-69869428D01*
X157492814Y-69869428D02*
X157549957Y-70098000D01*
X157549957Y-70098000D02*
X157549957Y-70383714D01*
X157549957Y-70383714D02*
X157492814Y-70612285D01*
X157492814Y-70612285D02*
X157435672Y-70726571D01*
X157435672Y-70726571D02*
X157378529Y-70783714D01*
X157378529Y-70783714D02*
X157264243Y-70840857D01*
X157264243Y-70840857D02*
X157149957Y-70840857D01*
X157149957Y-70840857D02*
X157035672Y-70783714D01*
X157035672Y-70783714D02*
X156978529Y-70726571D01*
X156978529Y-70726571D02*
X156921386Y-70612285D01*
X156921386Y-70612285D02*
X156864243Y-70383714D01*
X156864243Y-70383714D02*
X156864243Y-70098000D01*
X156864243Y-70098000D02*
X156921386Y-69869428D01*
X156921386Y-69869428D02*
X156978529Y-69755142D01*
X156978529Y-69755142D02*
X157035672Y-69698000D01*
X157035672Y-69698000D02*
X157149957Y-69640857D01*
D13*
X80485957Y-28703571D02*
X80771671Y-28703571D01*
X80771671Y-28703571D02*
X80914528Y-28775000D01*
X80914528Y-28775000D02*
X81057385Y-28917857D01*
X81057385Y-28917857D02*
X81128814Y-29203571D01*
X81128814Y-29203571D02*
X81128814Y-29703571D01*
X81128814Y-29703571D02*
X81057385Y-29989285D01*
X81057385Y-29989285D02*
X80914528Y-30132142D01*
X80914528Y-30132142D02*
X80771671Y-30203571D01*
X80771671Y-30203571D02*
X80485957Y-30203571D01*
X80485957Y-30203571D02*
X80343100Y-30132142D01*
X80343100Y-30132142D02*
X80200242Y-29989285D01*
X80200242Y-29989285D02*
X80128814Y-29703571D01*
X80128814Y-29703571D02*
X80128814Y-29203571D01*
X80128814Y-29203571D02*
X80200242Y-28917857D01*
X80200242Y-28917857D02*
X80343100Y-28775000D01*
X80343100Y-28775000D02*
X80485957Y-28703571D01*
X81771671Y-30203571D02*
X81771671Y-28703571D01*
X81771671Y-28703571D02*
X82628814Y-30203571D01*
X82628814Y-30203571D02*
X82628814Y-28703571D01*
X103112242Y-31413071D02*
X103112242Y-32627357D01*
X103112242Y-32627357D02*
X103183671Y-32770214D01*
X103183671Y-32770214D02*
X103255100Y-32841642D01*
X103255100Y-32841642D02*
X103397957Y-32913071D01*
X103397957Y-32913071D02*
X103683671Y-32913071D01*
X103683671Y-32913071D02*
X103826528Y-32841642D01*
X103826528Y-32841642D02*
X103897957Y-32770214D01*
X103897957Y-32770214D02*
X103969385Y-32627357D01*
X103969385Y-32627357D02*
X103969385Y-31413071D01*
X104612243Y-32841642D02*
X104826529Y-32913071D01*
X104826529Y-32913071D02*
X105183671Y-32913071D01*
X105183671Y-32913071D02*
X105326529Y-32841642D01*
X105326529Y-32841642D02*
X105397957Y-32770214D01*
X105397957Y-32770214D02*
X105469386Y-32627357D01*
X105469386Y-32627357D02*
X105469386Y-32484500D01*
X105469386Y-32484500D02*
X105397957Y-32341642D01*
X105397957Y-32341642D02*
X105326529Y-32270214D01*
X105326529Y-32270214D02*
X105183671Y-32198785D01*
X105183671Y-32198785D02*
X104897957Y-32127357D01*
X104897957Y-32127357D02*
X104755100Y-32055928D01*
X104755100Y-32055928D02*
X104683671Y-31984500D01*
X104683671Y-31984500D02*
X104612243Y-31841642D01*
X104612243Y-31841642D02*
X104612243Y-31698785D01*
X104612243Y-31698785D02*
X104683671Y-31555928D01*
X104683671Y-31555928D02*
X104755100Y-31484500D01*
X104755100Y-31484500D02*
X104897957Y-31413071D01*
X104897957Y-31413071D02*
X105255100Y-31413071D01*
X105255100Y-31413071D02*
X105469386Y-31484500D01*
X106612242Y-32127357D02*
X106826528Y-32198785D01*
X106826528Y-32198785D02*
X106897957Y-32270214D01*
X106897957Y-32270214D02*
X106969385Y-32413071D01*
X106969385Y-32413071D02*
X106969385Y-32627357D01*
X106969385Y-32627357D02*
X106897957Y-32770214D01*
X106897957Y-32770214D02*
X106826528Y-32841642D01*
X106826528Y-32841642D02*
X106683671Y-32913071D01*
X106683671Y-32913071D02*
X106112242Y-32913071D01*
X106112242Y-32913071D02*
X106112242Y-31413071D01*
X106112242Y-31413071D02*
X106612242Y-31413071D01*
X106612242Y-31413071D02*
X106755100Y-31484500D01*
X106755100Y-31484500D02*
X106826528Y-31555928D01*
X106826528Y-31555928D02*
X106897957Y-31698785D01*
X106897957Y-31698785D02*
X106897957Y-31841642D01*
X106897957Y-31841642D02*
X106826528Y-31984500D01*
X106826528Y-31984500D02*
X106755100Y-32055928D01*
X106755100Y-32055928D02*
X106612242Y-32127357D01*
X106612242Y-32127357D02*
X106112242Y-32127357D01*
X72449957Y-28673571D02*
X72735671Y-28673571D01*
X72735671Y-28673571D02*
X72878528Y-28745000D01*
X72878528Y-28745000D02*
X73021385Y-28887857D01*
X73021385Y-28887857D02*
X73092814Y-29173571D01*
X73092814Y-29173571D02*
X73092814Y-29673571D01*
X73092814Y-29673571D02*
X73021385Y-29959285D01*
X73021385Y-29959285D02*
X72878528Y-30102142D01*
X72878528Y-30102142D02*
X72735671Y-30173571D01*
X72735671Y-30173571D02*
X72449957Y-30173571D01*
X72449957Y-30173571D02*
X72307100Y-30102142D01*
X72307100Y-30102142D02*
X72164242Y-29959285D01*
X72164242Y-29959285D02*
X72092814Y-29673571D01*
X72092814Y-29673571D02*
X72092814Y-29173571D01*
X72092814Y-29173571D02*
X72164242Y-28887857D01*
X72164242Y-28887857D02*
X72307100Y-28745000D01*
X72307100Y-28745000D02*
X72449957Y-28673571D01*
X74235671Y-29387857D02*
X73735671Y-29387857D01*
X73735671Y-30173571D02*
X73735671Y-28673571D01*
X73735671Y-28673571D02*
X74449957Y-28673571D01*
X75521385Y-29387857D02*
X75021385Y-29387857D01*
X75021385Y-30173571D02*
X75021385Y-28673571D01*
X75021385Y-28673571D02*
X75735671Y-28673571D01*
D10*
%TO.C,R26*%
X158964242Y-86322380D02*
X158630909Y-85846190D01*
X158392814Y-86322380D02*
X158392814Y-85322380D01*
X158392814Y-85322380D02*
X158773766Y-85322380D01*
X158773766Y-85322380D02*
X158869004Y-85370000D01*
X158869004Y-85370000D02*
X158916623Y-85417619D01*
X158916623Y-85417619D02*
X158964242Y-85512857D01*
X158964242Y-85512857D02*
X158964242Y-85655714D01*
X158964242Y-85655714D02*
X158916623Y-85750952D01*
X158916623Y-85750952D02*
X158869004Y-85798571D01*
X158869004Y-85798571D02*
X158773766Y-85846190D01*
X158773766Y-85846190D02*
X158392814Y-85846190D01*
X159345195Y-85417619D02*
X159392814Y-85370000D01*
X159392814Y-85370000D02*
X159488052Y-85322380D01*
X159488052Y-85322380D02*
X159726147Y-85322380D01*
X159726147Y-85322380D02*
X159821385Y-85370000D01*
X159821385Y-85370000D02*
X159869004Y-85417619D01*
X159869004Y-85417619D02*
X159916623Y-85512857D01*
X159916623Y-85512857D02*
X159916623Y-85608095D01*
X159916623Y-85608095D02*
X159869004Y-85750952D01*
X159869004Y-85750952D02*
X159297576Y-86322380D01*
X159297576Y-86322380D02*
X159916623Y-86322380D01*
X160773766Y-85322380D02*
X160583290Y-85322380D01*
X160583290Y-85322380D02*
X160488052Y-85370000D01*
X160488052Y-85370000D02*
X160440433Y-85417619D01*
X160440433Y-85417619D02*
X160345195Y-85560476D01*
X160345195Y-85560476D02*
X160297576Y-85750952D01*
X160297576Y-85750952D02*
X160297576Y-86131904D01*
X160297576Y-86131904D02*
X160345195Y-86227142D01*
X160345195Y-86227142D02*
X160392814Y-86274761D01*
X160392814Y-86274761D02*
X160488052Y-86322380D01*
X160488052Y-86322380D02*
X160678528Y-86322380D01*
X160678528Y-86322380D02*
X160773766Y-86274761D01*
X160773766Y-86274761D02*
X160821385Y-86227142D01*
X160821385Y-86227142D02*
X160869004Y-86131904D01*
X160869004Y-86131904D02*
X160869004Y-85893809D01*
X160869004Y-85893809D02*
X160821385Y-85798571D01*
X160821385Y-85798571D02*
X160773766Y-85750952D01*
X160773766Y-85750952D02*
X160678528Y-85703333D01*
X160678528Y-85703333D02*
X160488052Y-85703333D01*
X160488052Y-85703333D02*
X160392814Y-85750952D01*
X160392814Y-85750952D02*
X160345195Y-85798571D01*
X160345195Y-85798571D02*
X160297576Y-85893809D01*
%TO.C,U3*%
X69824480Y-37761904D02*
X70634004Y-37761904D01*
X70634004Y-37761904D02*
X70729242Y-37714285D01*
X70729242Y-37714285D02*
X70776861Y-37666666D01*
X70776861Y-37666666D02*
X70824480Y-37571428D01*
X70824480Y-37571428D02*
X70824480Y-37380952D01*
X70824480Y-37380952D02*
X70776861Y-37285714D01*
X70776861Y-37285714D02*
X70729242Y-37238095D01*
X70729242Y-37238095D02*
X70634004Y-37190476D01*
X70634004Y-37190476D02*
X69824480Y-37190476D01*
X69824480Y-36809523D02*
X69824480Y-36190476D01*
X69824480Y-36190476D02*
X70205433Y-36523809D01*
X70205433Y-36523809D02*
X70205433Y-36380952D01*
X70205433Y-36380952D02*
X70253052Y-36285714D01*
X70253052Y-36285714D02*
X70300671Y-36238095D01*
X70300671Y-36238095D02*
X70395909Y-36190476D01*
X70395909Y-36190476D02*
X70634004Y-36190476D01*
X70634004Y-36190476D02*
X70729242Y-36238095D01*
X70729242Y-36238095D02*
X70776861Y-36285714D01*
X70776861Y-36285714D02*
X70824480Y-36380952D01*
X70824480Y-36380952D02*
X70824480Y-36666666D01*
X70824480Y-36666666D02*
X70776861Y-36761904D01*
X70776861Y-36761904D02*
X70729242Y-36809523D01*
%TO.C,SW5*%
X144373767Y-59319761D02*
X144516624Y-59367380D01*
X144516624Y-59367380D02*
X144754719Y-59367380D01*
X144754719Y-59367380D02*
X144849957Y-59319761D01*
X144849957Y-59319761D02*
X144897576Y-59272142D01*
X144897576Y-59272142D02*
X144945195Y-59176904D01*
X144945195Y-59176904D02*
X144945195Y-59081666D01*
X144945195Y-59081666D02*
X144897576Y-58986428D01*
X144897576Y-58986428D02*
X144849957Y-58938809D01*
X144849957Y-58938809D02*
X144754719Y-58891190D01*
X144754719Y-58891190D02*
X144564243Y-58843571D01*
X144564243Y-58843571D02*
X144469005Y-58795952D01*
X144469005Y-58795952D02*
X144421386Y-58748333D01*
X144421386Y-58748333D02*
X144373767Y-58653095D01*
X144373767Y-58653095D02*
X144373767Y-58557857D01*
X144373767Y-58557857D02*
X144421386Y-58462619D01*
X144421386Y-58462619D02*
X144469005Y-58415000D01*
X144469005Y-58415000D02*
X144564243Y-58367380D01*
X144564243Y-58367380D02*
X144802338Y-58367380D01*
X144802338Y-58367380D02*
X144945195Y-58415000D01*
X145278529Y-58367380D02*
X145516624Y-59367380D01*
X145516624Y-59367380D02*
X145707100Y-58653095D01*
X145707100Y-58653095D02*
X145897576Y-59367380D01*
X145897576Y-59367380D02*
X146135672Y-58367380D01*
X146992814Y-58367380D02*
X146516624Y-58367380D01*
X146516624Y-58367380D02*
X146469005Y-58843571D01*
X146469005Y-58843571D02*
X146516624Y-58795952D01*
X146516624Y-58795952D02*
X146611862Y-58748333D01*
X146611862Y-58748333D02*
X146849957Y-58748333D01*
X146849957Y-58748333D02*
X146945195Y-58795952D01*
X146945195Y-58795952D02*
X146992814Y-58843571D01*
X146992814Y-58843571D02*
X147040433Y-58938809D01*
X147040433Y-58938809D02*
X147040433Y-59176904D01*
X147040433Y-59176904D02*
X146992814Y-59272142D01*
X146992814Y-59272142D02*
X146945195Y-59319761D01*
X146945195Y-59319761D02*
X146849957Y-59367380D01*
X146849957Y-59367380D02*
X146611862Y-59367380D01*
X146611862Y-59367380D02*
X146516624Y-59319761D01*
X146516624Y-59319761D02*
X146469005Y-59272142D01*
%TO.C,C22*%
X158299242Y-73597857D02*
X158346861Y-73645476D01*
X158346861Y-73645476D02*
X158394480Y-73788333D01*
X158394480Y-73788333D02*
X158394480Y-73883571D01*
X158394480Y-73883571D02*
X158346861Y-74026428D01*
X158346861Y-74026428D02*
X158251623Y-74121666D01*
X158251623Y-74121666D02*
X158156385Y-74169285D01*
X158156385Y-74169285D02*
X157965909Y-74216904D01*
X157965909Y-74216904D02*
X157823052Y-74216904D01*
X157823052Y-74216904D02*
X157632576Y-74169285D01*
X157632576Y-74169285D02*
X157537338Y-74121666D01*
X157537338Y-74121666D02*
X157442100Y-74026428D01*
X157442100Y-74026428D02*
X157394480Y-73883571D01*
X157394480Y-73883571D02*
X157394480Y-73788333D01*
X157394480Y-73788333D02*
X157442100Y-73645476D01*
X157442100Y-73645476D02*
X157489719Y-73597857D01*
X157489719Y-73216904D02*
X157442100Y-73169285D01*
X157442100Y-73169285D02*
X157394480Y-73074047D01*
X157394480Y-73074047D02*
X157394480Y-72835952D01*
X157394480Y-72835952D02*
X157442100Y-72740714D01*
X157442100Y-72740714D02*
X157489719Y-72693095D01*
X157489719Y-72693095D02*
X157584957Y-72645476D01*
X157584957Y-72645476D02*
X157680195Y-72645476D01*
X157680195Y-72645476D02*
X157823052Y-72693095D01*
X157823052Y-72693095D02*
X158394480Y-73264523D01*
X158394480Y-73264523D02*
X158394480Y-72645476D01*
X157489719Y-72264523D02*
X157442100Y-72216904D01*
X157442100Y-72216904D02*
X157394480Y-72121666D01*
X157394480Y-72121666D02*
X157394480Y-71883571D01*
X157394480Y-71883571D02*
X157442100Y-71788333D01*
X157442100Y-71788333D02*
X157489719Y-71740714D01*
X157489719Y-71740714D02*
X157584957Y-71693095D01*
X157584957Y-71693095D02*
X157680195Y-71693095D01*
X157680195Y-71693095D02*
X157823052Y-71740714D01*
X157823052Y-71740714D02*
X158394480Y-72312142D01*
X158394480Y-72312142D02*
X158394480Y-71693095D01*
%TO.C,R28*%
X158964242Y-84322380D02*
X158630909Y-83846190D01*
X158392814Y-84322380D02*
X158392814Y-83322380D01*
X158392814Y-83322380D02*
X158773766Y-83322380D01*
X158773766Y-83322380D02*
X158869004Y-83370000D01*
X158869004Y-83370000D02*
X158916623Y-83417619D01*
X158916623Y-83417619D02*
X158964242Y-83512857D01*
X158964242Y-83512857D02*
X158964242Y-83655714D01*
X158964242Y-83655714D02*
X158916623Y-83750952D01*
X158916623Y-83750952D02*
X158869004Y-83798571D01*
X158869004Y-83798571D02*
X158773766Y-83846190D01*
X158773766Y-83846190D02*
X158392814Y-83846190D01*
X159345195Y-83417619D02*
X159392814Y-83370000D01*
X159392814Y-83370000D02*
X159488052Y-83322380D01*
X159488052Y-83322380D02*
X159726147Y-83322380D01*
X159726147Y-83322380D02*
X159821385Y-83370000D01*
X159821385Y-83370000D02*
X159869004Y-83417619D01*
X159869004Y-83417619D02*
X159916623Y-83512857D01*
X159916623Y-83512857D02*
X159916623Y-83608095D01*
X159916623Y-83608095D02*
X159869004Y-83750952D01*
X159869004Y-83750952D02*
X159297576Y-84322380D01*
X159297576Y-84322380D02*
X159916623Y-84322380D01*
X160488052Y-83750952D02*
X160392814Y-83703333D01*
X160392814Y-83703333D02*
X160345195Y-83655714D01*
X160345195Y-83655714D02*
X160297576Y-83560476D01*
X160297576Y-83560476D02*
X160297576Y-83512857D01*
X160297576Y-83512857D02*
X160345195Y-83417619D01*
X160345195Y-83417619D02*
X160392814Y-83370000D01*
X160392814Y-83370000D02*
X160488052Y-83322380D01*
X160488052Y-83322380D02*
X160678528Y-83322380D01*
X160678528Y-83322380D02*
X160773766Y-83370000D01*
X160773766Y-83370000D02*
X160821385Y-83417619D01*
X160821385Y-83417619D02*
X160869004Y-83512857D01*
X160869004Y-83512857D02*
X160869004Y-83560476D01*
X160869004Y-83560476D02*
X160821385Y-83655714D01*
X160821385Y-83655714D02*
X160773766Y-83703333D01*
X160773766Y-83703333D02*
X160678528Y-83750952D01*
X160678528Y-83750952D02*
X160488052Y-83750952D01*
X160488052Y-83750952D02*
X160392814Y-83798571D01*
X160392814Y-83798571D02*
X160345195Y-83846190D01*
X160345195Y-83846190D02*
X160297576Y-83941428D01*
X160297576Y-83941428D02*
X160297576Y-84131904D01*
X160297576Y-84131904D02*
X160345195Y-84227142D01*
X160345195Y-84227142D02*
X160392814Y-84274761D01*
X160392814Y-84274761D02*
X160488052Y-84322380D01*
X160488052Y-84322380D02*
X160678528Y-84322380D01*
X160678528Y-84322380D02*
X160773766Y-84274761D01*
X160773766Y-84274761D02*
X160821385Y-84227142D01*
X160821385Y-84227142D02*
X160869004Y-84131904D01*
X160869004Y-84131904D02*
X160869004Y-83941428D01*
X160869004Y-83941428D02*
X160821385Y-83846190D01*
X160821385Y-83846190D02*
X160773766Y-83798571D01*
X160773766Y-83798571D02*
X160678528Y-83750952D01*
%TO.C,C17*%
X157479242Y-43642857D02*
X157526861Y-43690476D01*
X157526861Y-43690476D02*
X157574480Y-43833333D01*
X157574480Y-43833333D02*
X157574480Y-43928571D01*
X157574480Y-43928571D02*
X157526861Y-44071428D01*
X157526861Y-44071428D02*
X157431623Y-44166666D01*
X157431623Y-44166666D02*
X157336385Y-44214285D01*
X157336385Y-44214285D02*
X157145909Y-44261904D01*
X157145909Y-44261904D02*
X157003052Y-44261904D01*
X157003052Y-44261904D02*
X156812576Y-44214285D01*
X156812576Y-44214285D02*
X156717338Y-44166666D01*
X156717338Y-44166666D02*
X156622100Y-44071428D01*
X156622100Y-44071428D02*
X156574480Y-43928571D01*
X156574480Y-43928571D02*
X156574480Y-43833333D01*
X156574480Y-43833333D02*
X156622100Y-43690476D01*
X156622100Y-43690476D02*
X156669719Y-43642857D01*
X157574480Y-42690476D02*
X157574480Y-43261904D01*
X157574480Y-42976190D02*
X156574480Y-42976190D01*
X156574480Y-42976190D02*
X156717338Y-43071428D01*
X156717338Y-43071428D02*
X156812576Y-43166666D01*
X156812576Y-43166666D02*
X156860195Y-43261904D01*
X156574480Y-42357142D02*
X156574480Y-41690476D01*
X156574480Y-41690476D02*
X157574480Y-42119047D01*
%TO.C,R3*%
X143574480Y-63916666D02*
X143098290Y-64249999D01*
X143574480Y-64488094D02*
X142574480Y-64488094D01*
X142574480Y-64488094D02*
X142574480Y-64107142D01*
X142574480Y-64107142D02*
X142622100Y-64011904D01*
X142622100Y-64011904D02*
X142669719Y-63964285D01*
X142669719Y-63964285D02*
X142764957Y-63916666D01*
X142764957Y-63916666D02*
X142907814Y-63916666D01*
X142907814Y-63916666D02*
X143003052Y-63964285D01*
X143003052Y-63964285D02*
X143050671Y-64011904D01*
X143050671Y-64011904D02*
X143098290Y-64107142D01*
X143098290Y-64107142D02*
X143098290Y-64488094D01*
X142574480Y-63583332D02*
X142574480Y-62964285D01*
X142574480Y-62964285D02*
X142955433Y-63297618D01*
X142955433Y-63297618D02*
X142955433Y-63154761D01*
X142955433Y-63154761D02*
X143003052Y-63059523D01*
X143003052Y-63059523D02*
X143050671Y-63011904D01*
X143050671Y-63011904D02*
X143145909Y-62964285D01*
X143145909Y-62964285D02*
X143384004Y-62964285D01*
X143384004Y-62964285D02*
X143479242Y-63011904D01*
X143479242Y-63011904D02*
X143526861Y-63059523D01*
X143526861Y-63059523D02*
X143574480Y-63154761D01*
X143574480Y-63154761D02*
X143574480Y-63440475D01*
X143574480Y-63440475D02*
X143526861Y-63535713D01*
X143526861Y-63535713D02*
X143479242Y-63583332D01*
%TO.C,R19*%
X106004242Y-37131380D02*
X105670909Y-36655190D01*
X105432814Y-37131380D02*
X105432814Y-36131380D01*
X105432814Y-36131380D02*
X105813766Y-36131380D01*
X105813766Y-36131380D02*
X105909004Y-36179000D01*
X105909004Y-36179000D02*
X105956623Y-36226619D01*
X105956623Y-36226619D02*
X106004242Y-36321857D01*
X106004242Y-36321857D02*
X106004242Y-36464714D01*
X106004242Y-36464714D02*
X105956623Y-36559952D01*
X105956623Y-36559952D02*
X105909004Y-36607571D01*
X105909004Y-36607571D02*
X105813766Y-36655190D01*
X105813766Y-36655190D02*
X105432814Y-36655190D01*
X106956623Y-37131380D02*
X106385195Y-37131380D01*
X106670909Y-37131380D02*
X106670909Y-36131380D01*
X106670909Y-36131380D02*
X106575671Y-36274238D01*
X106575671Y-36274238D02*
X106480433Y-36369476D01*
X106480433Y-36369476D02*
X106385195Y-36417095D01*
X107432814Y-37131380D02*
X107623290Y-37131380D01*
X107623290Y-37131380D02*
X107718528Y-37083761D01*
X107718528Y-37083761D02*
X107766147Y-37036142D01*
X107766147Y-37036142D02*
X107861385Y-36893285D01*
X107861385Y-36893285D02*
X107909004Y-36702809D01*
X107909004Y-36702809D02*
X107909004Y-36321857D01*
X107909004Y-36321857D02*
X107861385Y-36226619D01*
X107861385Y-36226619D02*
X107813766Y-36179000D01*
X107813766Y-36179000D02*
X107718528Y-36131380D01*
X107718528Y-36131380D02*
X107528052Y-36131380D01*
X107528052Y-36131380D02*
X107432814Y-36179000D01*
X107432814Y-36179000D02*
X107385195Y-36226619D01*
X107385195Y-36226619D02*
X107337576Y-36321857D01*
X107337576Y-36321857D02*
X107337576Y-36559952D01*
X107337576Y-36559952D02*
X107385195Y-36655190D01*
X107385195Y-36655190D02*
X107432814Y-36702809D01*
X107432814Y-36702809D02*
X107528052Y-36750428D01*
X107528052Y-36750428D02*
X107718528Y-36750428D01*
X107718528Y-36750428D02*
X107813766Y-36702809D01*
X107813766Y-36702809D02*
X107861385Y-36655190D01*
X107861385Y-36655190D02*
X107909004Y-36559952D01*
%TO.C,J2*%
X80398766Y-47222380D02*
X80398766Y-47936666D01*
X80398766Y-47936666D02*
X80351147Y-48079523D01*
X80351147Y-48079523D02*
X80255909Y-48174761D01*
X80255909Y-48174761D02*
X80113052Y-48222380D01*
X80113052Y-48222380D02*
X80017814Y-48222380D01*
X80827338Y-47317619D02*
X80874957Y-47270000D01*
X80874957Y-47270000D02*
X80970195Y-47222380D01*
X80970195Y-47222380D02*
X81208290Y-47222380D01*
X81208290Y-47222380D02*
X81303528Y-47270000D01*
X81303528Y-47270000D02*
X81351147Y-47317619D01*
X81351147Y-47317619D02*
X81398766Y-47412857D01*
X81398766Y-47412857D02*
X81398766Y-47508095D01*
X81398766Y-47508095D02*
X81351147Y-47650952D01*
X81351147Y-47650952D02*
X80779719Y-48222380D01*
X80779719Y-48222380D02*
X81398766Y-48222380D01*
%TO.C,C7*%
X92885870Y-49297428D02*
X92838251Y-49345047D01*
X92838251Y-49345047D02*
X92695394Y-49392666D01*
X92695394Y-49392666D02*
X92600156Y-49392666D01*
X92600156Y-49392666D02*
X92457299Y-49345047D01*
X92457299Y-49345047D02*
X92362061Y-49249809D01*
X92362061Y-49249809D02*
X92314442Y-49154571D01*
X92314442Y-49154571D02*
X92266823Y-48964095D01*
X92266823Y-48964095D02*
X92266823Y-48821238D01*
X92266823Y-48821238D02*
X92314442Y-48630762D01*
X92314442Y-48630762D02*
X92362061Y-48535524D01*
X92362061Y-48535524D02*
X92457299Y-48440286D01*
X92457299Y-48440286D02*
X92600156Y-48392666D01*
X92600156Y-48392666D02*
X92695394Y-48392666D01*
X92695394Y-48392666D02*
X92838251Y-48440286D01*
X92838251Y-48440286D02*
X92885870Y-48487905D01*
X93219204Y-48392666D02*
X93885870Y-48392666D01*
X93885870Y-48392666D02*
X93457299Y-49392666D01*
%TO.C,C15*%
X146229242Y-48142857D02*
X146276861Y-48190476D01*
X146276861Y-48190476D02*
X146324480Y-48333333D01*
X146324480Y-48333333D02*
X146324480Y-48428571D01*
X146324480Y-48428571D02*
X146276861Y-48571428D01*
X146276861Y-48571428D02*
X146181623Y-48666666D01*
X146181623Y-48666666D02*
X146086385Y-48714285D01*
X146086385Y-48714285D02*
X145895909Y-48761904D01*
X145895909Y-48761904D02*
X145753052Y-48761904D01*
X145753052Y-48761904D02*
X145562576Y-48714285D01*
X145562576Y-48714285D02*
X145467338Y-48666666D01*
X145467338Y-48666666D02*
X145372100Y-48571428D01*
X145372100Y-48571428D02*
X145324480Y-48428571D01*
X145324480Y-48428571D02*
X145324480Y-48333333D01*
X145324480Y-48333333D02*
X145372100Y-48190476D01*
X145372100Y-48190476D02*
X145419719Y-48142857D01*
X146324480Y-47190476D02*
X146324480Y-47761904D01*
X146324480Y-47476190D02*
X145324480Y-47476190D01*
X145324480Y-47476190D02*
X145467338Y-47571428D01*
X145467338Y-47571428D02*
X145562576Y-47666666D01*
X145562576Y-47666666D02*
X145610195Y-47761904D01*
X145324480Y-46285714D02*
X145324480Y-46761904D01*
X145324480Y-46761904D02*
X145800671Y-46809523D01*
X145800671Y-46809523D02*
X145753052Y-46761904D01*
X145753052Y-46761904D02*
X145705433Y-46666666D01*
X145705433Y-46666666D02*
X145705433Y-46428571D01*
X145705433Y-46428571D02*
X145753052Y-46333333D01*
X145753052Y-46333333D02*
X145800671Y-46285714D01*
X145800671Y-46285714D02*
X145895909Y-46238095D01*
X145895909Y-46238095D02*
X146134004Y-46238095D01*
X146134004Y-46238095D02*
X146229242Y-46285714D01*
X146229242Y-46285714D02*
X146276861Y-46333333D01*
X146276861Y-46333333D02*
X146324480Y-46428571D01*
X146324480Y-46428571D02*
X146324480Y-46666666D01*
X146324480Y-46666666D02*
X146276861Y-46761904D01*
X146276861Y-46761904D02*
X146229242Y-46809523D01*
%TO.C,J10*%
X161977576Y-86867380D02*
X161977576Y-87581666D01*
X161977576Y-87581666D02*
X161929957Y-87724523D01*
X161929957Y-87724523D02*
X161834719Y-87819761D01*
X161834719Y-87819761D02*
X161691862Y-87867380D01*
X161691862Y-87867380D02*
X161596624Y-87867380D01*
X162977576Y-87867380D02*
X162406148Y-87867380D01*
X162691862Y-87867380D02*
X162691862Y-86867380D01*
X162691862Y-86867380D02*
X162596624Y-87010238D01*
X162596624Y-87010238D02*
X162501386Y-87105476D01*
X162501386Y-87105476D02*
X162406148Y-87153095D01*
X163596624Y-86867380D02*
X163691862Y-86867380D01*
X163691862Y-86867380D02*
X163787100Y-86915000D01*
X163787100Y-86915000D02*
X163834719Y-86962619D01*
X163834719Y-86962619D02*
X163882338Y-87057857D01*
X163882338Y-87057857D02*
X163929957Y-87248333D01*
X163929957Y-87248333D02*
X163929957Y-87486428D01*
X163929957Y-87486428D02*
X163882338Y-87676904D01*
X163882338Y-87676904D02*
X163834719Y-87772142D01*
X163834719Y-87772142D02*
X163787100Y-87819761D01*
X163787100Y-87819761D02*
X163691862Y-87867380D01*
X163691862Y-87867380D02*
X163596624Y-87867380D01*
X163596624Y-87867380D02*
X163501386Y-87819761D01*
X163501386Y-87819761D02*
X163453767Y-87772142D01*
X163453767Y-87772142D02*
X163406148Y-87676904D01*
X163406148Y-87676904D02*
X163358529Y-87486428D01*
X163358529Y-87486428D02*
X163358529Y-87248333D01*
X163358529Y-87248333D02*
X163406148Y-87057857D01*
X163406148Y-87057857D02*
X163453767Y-86962619D01*
X163453767Y-86962619D02*
X163501386Y-86915000D01*
X163501386Y-86915000D02*
X163596624Y-86867380D01*
%TO.C,C8*%
X106742706Y-56000200D02*
X106790325Y-56047819D01*
X106790325Y-56047819D02*
X106837944Y-56190676D01*
X106837944Y-56190676D02*
X106837944Y-56285914D01*
X106837944Y-56285914D02*
X106790325Y-56428771D01*
X106790325Y-56428771D02*
X106695087Y-56524009D01*
X106695087Y-56524009D02*
X106599849Y-56571628D01*
X106599849Y-56571628D02*
X106409373Y-56619247D01*
X106409373Y-56619247D02*
X106266516Y-56619247D01*
X106266516Y-56619247D02*
X106076040Y-56571628D01*
X106076040Y-56571628D02*
X105980802Y-56524009D01*
X105980802Y-56524009D02*
X105885564Y-56428771D01*
X105885564Y-56428771D02*
X105837944Y-56285914D01*
X105837944Y-56285914D02*
X105837944Y-56190676D01*
X105837944Y-56190676D02*
X105885564Y-56047819D01*
X105885564Y-56047819D02*
X105933183Y-56000200D01*
X106266516Y-55428771D02*
X106218897Y-55524009D01*
X106218897Y-55524009D02*
X106171278Y-55571628D01*
X106171278Y-55571628D02*
X106076040Y-55619247D01*
X106076040Y-55619247D02*
X106028421Y-55619247D01*
X106028421Y-55619247D02*
X105933183Y-55571628D01*
X105933183Y-55571628D02*
X105885564Y-55524009D01*
X105885564Y-55524009D02*
X105837944Y-55428771D01*
X105837944Y-55428771D02*
X105837944Y-55238295D01*
X105837944Y-55238295D02*
X105885564Y-55143057D01*
X105885564Y-55143057D02*
X105933183Y-55095438D01*
X105933183Y-55095438D02*
X106028421Y-55047819D01*
X106028421Y-55047819D02*
X106076040Y-55047819D01*
X106076040Y-55047819D02*
X106171278Y-55095438D01*
X106171278Y-55095438D02*
X106218897Y-55143057D01*
X106218897Y-55143057D02*
X106266516Y-55238295D01*
X106266516Y-55238295D02*
X106266516Y-55428771D01*
X106266516Y-55428771D02*
X106314135Y-55524009D01*
X106314135Y-55524009D02*
X106361754Y-55571628D01*
X106361754Y-55571628D02*
X106456992Y-55619247D01*
X106456992Y-55619247D02*
X106647468Y-55619247D01*
X106647468Y-55619247D02*
X106742706Y-55571628D01*
X106742706Y-55571628D02*
X106790325Y-55524009D01*
X106790325Y-55524009D02*
X106837944Y-55428771D01*
X106837944Y-55428771D02*
X106837944Y-55238295D01*
X106837944Y-55238295D02*
X106790325Y-55143057D01*
X106790325Y-55143057D02*
X106742706Y-55095438D01*
X106742706Y-55095438D02*
X106647468Y-55047819D01*
X106647468Y-55047819D02*
X106456992Y-55047819D01*
X106456992Y-55047819D02*
X106361754Y-55095438D01*
X106361754Y-55095438D02*
X106314135Y-55143057D01*
X106314135Y-55143057D02*
X106266516Y-55238295D01*
%TO.C,C13*%
X140479242Y-39642857D02*
X140526861Y-39690476D01*
X140526861Y-39690476D02*
X140574480Y-39833333D01*
X140574480Y-39833333D02*
X140574480Y-39928571D01*
X140574480Y-39928571D02*
X140526861Y-40071428D01*
X140526861Y-40071428D02*
X140431623Y-40166666D01*
X140431623Y-40166666D02*
X140336385Y-40214285D01*
X140336385Y-40214285D02*
X140145909Y-40261904D01*
X140145909Y-40261904D02*
X140003052Y-40261904D01*
X140003052Y-40261904D02*
X139812576Y-40214285D01*
X139812576Y-40214285D02*
X139717338Y-40166666D01*
X139717338Y-40166666D02*
X139622100Y-40071428D01*
X139622100Y-40071428D02*
X139574480Y-39928571D01*
X139574480Y-39928571D02*
X139574480Y-39833333D01*
X139574480Y-39833333D02*
X139622100Y-39690476D01*
X139622100Y-39690476D02*
X139669719Y-39642857D01*
X140574480Y-38690476D02*
X140574480Y-39261904D01*
X140574480Y-38976190D02*
X139574480Y-38976190D01*
X139574480Y-38976190D02*
X139717338Y-39071428D01*
X139717338Y-39071428D02*
X139812576Y-39166666D01*
X139812576Y-39166666D02*
X139860195Y-39261904D01*
X139574480Y-38357142D02*
X139574480Y-37738095D01*
X139574480Y-37738095D02*
X139955433Y-38071428D01*
X139955433Y-38071428D02*
X139955433Y-37928571D01*
X139955433Y-37928571D02*
X140003052Y-37833333D01*
X140003052Y-37833333D02*
X140050671Y-37785714D01*
X140050671Y-37785714D02*
X140145909Y-37738095D01*
X140145909Y-37738095D02*
X140384004Y-37738095D01*
X140384004Y-37738095D02*
X140479242Y-37785714D01*
X140479242Y-37785714D02*
X140526861Y-37833333D01*
X140526861Y-37833333D02*
X140574480Y-37928571D01*
X140574480Y-37928571D02*
X140574480Y-38214285D01*
X140574480Y-38214285D02*
X140526861Y-38309523D01*
X140526861Y-38309523D02*
X140479242Y-38357142D01*
%TO.C,R24*%
X98646242Y-48973380D02*
X98312909Y-48497190D01*
X98074814Y-48973380D02*
X98074814Y-47973380D01*
X98074814Y-47973380D02*
X98455766Y-47973380D01*
X98455766Y-47973380D02*
X98551004Y-48021000D01*
X98551004Y-48021000D02*
X98598623Y-48068619D01*
X98598623Y-48068619D02*
X98646242Y-48163857D01*
X98646242Y-48163857D02*
X98646242Y-48306714D01*
X98646242Y-48306714D02*
X98598623Y-48401952D01*
X98598623Y-48401952D02*
X98551004Y-48449571D01*
X98551004Y-48449571D02*
X98455766Y-48497190D01*
X98455766Y-48497190D02*
X98074814Y-48497190D01*
X99027195Y-48068619D02*
X99074814Y-48021000D01*
X99074814Y-48021000D02*
X99170052Y-47973380D01*
X99170052Y-47973380D02*
X99408147Y-47973380D01*
X99408147Y-47973380D02*
X99503385Y-48021000D01*
X99503385Y-48021000D02*
X99551004Y-48068619D01*
X99551004Y-48068619D02*
X99598623Y-48163857D01*
X99598623Y-48163857D02*
X99598623Y-48259095D01*
X99598623Y-48259095D02*
X99551004Y-48401952D01*
X99551004Y-48401952D02*
X98979576Y-48973380D01*
X98979576Y-48973380D02*
X99598623Y-48973380D01*
X100455766Y-48306714D02*
X100455766Y-48973380D01*
X100217671Y-47925761D02*
X99979576Y-48640047D01*
X99979576Y-48640047D02*
X100598623Y-48640047D01*
%TO.C,Q1*%
X138361861Y-61462619D02*
X138266623Y-61415000D01*
X138266623Y-61415000D02*
X138171385Y-61319761D01*
X138171385Y-61319761D02*
X138028528Y-61176904D01*
X138028528Y-61176904D02*
X137933290Y-61129285D01*
X137933290Y-61129285D02*
X137838052Y-61129285D01*
X137885671Y-61367380D02*
X137790433Y-61319761D01*
X137790433Y-61319761D02*
X137695195Y-61224523D01*
X137695195Y-61224523D02*
X137647576Y-61034047D01*
X137647576Y-61034047D02*
X137647576Y-60700714D01*
X137647576Y-60700714D02*
X137695195Y-60510238D01*
X137695195Y-60510238D02*
X137790433Y-60415000D01*
X137790433Y-60415000D02*
X137885671Y-60367380D01*
X137885671Y-60367380D02*
X138076147Y-60367380D01*
X138076147Y-60367380D02*
X138171385Y-60415000D01*
X138171385Y-60415000D02*
X138266623Y-60510238D01*
X138266623Y-60510238D02*
X138314242Y-60700714D01*
X138314242Y-60700714D02*
X138314242Y-61034047D01*
X138314242Y-61034047D02*
X138266623Y-61224523D01*
X138266623Y-61224523D02*
X138171385Y-61319761D01*
X138171385Y-61319761D02*
X138076147Y-61367380D01*
X138076147Y-61367380D02*
X137885671Y-61367380D01*
X139266623Y-61367380D02*
X138695195Y-61367380D01*
X138980909Y-61367380D02*
X138980909Y-60367380D01*
X138980909Y-60367380D02*
X138885671Y-60510238D01*
X138885671Y-60510238D02*
X138790433Y-60605476D01*
X138790433Y-60605476D02*
X138695195Y-60653095D01*
%TO.C,C21*%
X67314242Y-38272142D02*
X67266623Y-38319761D01*
X67266623Y-38319761D02*
X67123766Y-38367380D01*
X67123766Y-38367380D02*
X67028528Y-38367380D01*
X67028528Y-38367380D02*
X66885671Y-38319761D01*
X66885671Y-38319761D02*
X66790433Y-38224523D01*
X66790433Y-38224523D02*
X66742814Y-38129285D01*
X66742814Y-38129285D02*
X66695195Y-37938809D01*
X66695195Y-37938809D02*
X66695195Y-37795952D01*
X66695195Y-37795952D02*
X66742814Y-37605476D01*
X66742814Y-37605476D02*
X66790433Y-37510238D01*
X66790433Y-37510238D02*
X66885671Y-37415000D01*
X66885671Y-37415000D02*
X67028528Y-37367380D01*
X67028528Y-37367380D02*
X67123766Y-37367380D01*
X67123766Y-37367380D02*
X67266623Y-37415000D01*
X67266623Y-37415000D02*
X67314242Y-37462619D01*
X67695195Y-37462619D02*
X67742814Y-37415000D01*
X67742814Y-37415000D02*
X67838052Y-37367380D01*
X67838052Y-37367380D02*
X68076147Y-37367380D01*
X68076147Y-37367380D02*
X68171385Y-37415000D01*
X68171385Y-37415000D02*
X68219004Y-37462619D01*
X68219004Y-37462619D02*
X68266623Y-37557857D01*
X68266623Y-37557857D02*
X68266623Y-37653095D01*
X68266623Y-37653095D02*
X68219004Y-37795952D01*
X68219004Y-37795952D02*
X67647576Y-38367380D01*
X67647576Y-38367380D02*
X68266623Y-38367380D01*
X69219004Y-38367380D02*
X68647576Y-38367380D01*
X68933290Y-38367380D02*
X68933290Y-37367380D01*
X68933290Y-37367380D02*
X68838052Y-37510238D01*
X68838052Y-37510238D02*
X68742814Y-37605476D01*
X68742814Y-37605476D02*
X68647576Y-37653095D01*
%TO.C,SW1*%
X140873767Y-27319761D02*
X141016624Y-27367380D01*
X141016624Y-27367380D02*
X141254719Y-27367380D01*
X141254719Y-27367380D02*
X141349957Y-27319761D01*
X141349957Y-27319761D02*
X141397576Y-27272142D01*
X141397576Y-27272142D02*
X141445195Y-27176904D01*
X141445195Y-27176904D02*
X141445195Y-27081666D01*
X141445195Y-27081666D02*
X141397576Y-26986428D01*
X141397576Y-26986428D02*
X141349957Y-26938809D01*
X141349957Y-26938809D02*
X141254719Y-26891190D01*
X141254719Y-26891190D02*
X141064243Y-26843571D01*
X141064243Y-26843571D02*
X140969005Y-26795952D01*
X140969005Y-26795952D02*
X140921386Y-26748333D01*
X140921386Y-26748333D02*
X140873767Y-26653095D01*
X140873767Y-26653095D02*
X140873767Y-26557857D01*
X140873767Y-26557857D02*
X140921386Y-26462619D01*
X140921386Y-26462619D02*
X140969005Y-26415000D01*
X140969005Y-26415000D02*
X141064243Y-26367380D01*
X141064243Y-26367380D02*
X141302338Y-26367380D01*
X141302338Y-26367380D02*
X141445195Y-26415000D01*
X141778529Y-26367380D02*
X142016624Y-27367380D01*
X142016624Y-27367380D02*
X142207100Y-26653095D01*
X142207100Y-26653095D02*
X142397576Y-27367380D01*
X142397576Y-27367380D02*
X142635672Y-26367380D01*
X143540433Y-27367380D02*
X142969005Y-27367380D01*
X143254719Y-27367380D02*
X143254719Y-26367380D01*
X143254719Y-26367380D02*
X143159481Y-26510238D01*
X143159481Y-26510238D02*
X143064243Y-26605476D01*
X143064243Y-26605476D02*
X142969005Y-26653095D01*
%TO.C,R1*%
X92074480Y-42664666D02*
X91598290Y-42997999D01*
X92074480Y-43236094D02*
X91074480Y-43236094D01*
X91074480Y-43236094D02*
X91074480Y-42855142D01*
X91074480Y-42855142D02*
X91122100Y-42759904D01*
X91122100Y-42759904D02*
X91169719Y-42712285D01*
X91169719Y-42712285D02*
X91264957Y-42664666D01*
X91264957Y-42664666D02*
X91407814Y-42664666D01*
X91407814Y-42664666D02*
X91503052Y-42712285D01*
X91503052Y-42712285D02*
X91550671Y-42759904D01*
X91550671Y-42759904D02*
X91598290Y-42855142D01*
X91598290Y-42855142D02*
X91598290Y-43236094D01*
X92074480Y-41712285D02*
X92074480Y-42283713D01*
X92074480Y-41997999D02*
X91074480Y-41997999D01*
X91074480Y-41997999D02*
X91217338Y-42093237D01*
X91217338Y-42093237D02*
X91312576Y-42188475D01*
X91312576Y-42188475D02*
X91360195Y-42283713D01*
%TO.C,D1*%
X85469005Y-35367380D02*
X85469005Y-34367380D01*
X85469005Y-34367380D02*
X85707100Y-34367380D01*
X85707100Y-34367380D02*
X85849957Y-34415000D01*
X85849957Y-34415000D02*
X85945195Y-34510238D01*
X85945195Y-34510238D02*
X85992814Y-34605476D01*
X85992814Y-34605476D02*
X86040433Y-34795952D01*
X86040433Y-34795952D02*
X86040433Y-34938809D01*
X86040433Y-34938809D02*
X85992814Y-35129285D01*
X85992814Y-35129285D02*
X85945195Y-35224523D01*
X85945195Y-35224523D02*
X85849957Y-35319761D01*
X85849957Y-35319761D02*
X85707100Y-35367380D01*
X85707100Y-35367380D02*
X85469005Y-35367380D01*
X86992814Y-35367380D02*
X86421386Y-35367380D01*
X86707100Y-35367380D02*
X86707100Y-34367380D01*
X86707100Y-34367380D02*
X86611862Y-34510238D01*
X86611862Y-34510238D02*
X86516624Y-34605476D01*
X86516624Y-34605476D02*
X86421386Y-34653095D01*
%TO.C,C20*%
X74285466Y-48002152D02*
X74237847Y-48049771D01*
X74237847Y-48049771D02*
X74094990Y-48097390D01*
X74094990Y-48097390D02*
X73999752Y-48097390D01*
X73999752Y-48097390D02*
X73856895Y-48049771D01*
X73856895Y-48049771D02*
X73761657Y-47954533D01*
X73761657Y-47954533D02*
X73714038Y-47859295D01*
X73714038Y-47859295D02*
X73666419Y-47668819D01*
X73666419Y-47668819D02*
X73666419Y-47525962D01*
X73666419Y-47525962D02*
X73714038Y-47335486D01*
X73714038Y-47335486D02*
X73761657Y-47240248D01*
X73761657Y-47240248D02*
X73856895Y-47145010D01*
X73856895Y-47145010D02*
X73999752Y-47097390D01*
X73999752Y-47097390D02*
X74094990Y-47097390D01*
X74094990Y-47097390D02*
X74237847Y-47145010D01*
X74237847Y-47145010D02*
X74285466Y-47192629D01*
X74666419Y-47192629D02*
X74714038Y-47145010D01*
X74714038Y-47145010D02*
X74809276Y-47097390D01*
X74809276Y-47097390D02*
X75047371Y-47097390D01*
X75047371Y-47097390D02*
X75142609Y-47145010D01*
X75142609Y-47145010D02*
X75190228Y-47192629D01*
X75190228Y-47192629D02*
X75237847Y-47287867D01*
X75237847Y-47287867D02*
X75237847Y-47383105D01*
X75237847Y-47383105D02*
X75190228Y-47525962D01*
X75190228Y-47525962D02*
X74618800Y-48097390D01*
X74618800Y-48097390D02*
X75237847Y-48097390D01*
X75856895Y-47097390D02*
X75952133Y-47097390D01*
X75952133Y-47097390D02*
X76047371Y-47145010D01*
X76047371Y-47145010D02*
X76094990Y-47192629D01*
X76094990Y-47192629D02*
X76142609Y-47287867D01*
X76142609Y-47287867D02*
X76190228Y-47478343D01*
X76190228Y-47478343D02*
X76190228Y-47716438D01*
X76190228Y-47716438D02*
X76142609Y-47906914D01*
X76142609Y-47906914D02*
X76094990Y-48002152D01*
X76094990Y-48002152D02*
X76047371Y-48049771D01*
X76047371Y-48049771D02*
X75952133Y-48097390D01*
X75952133Y-48097390D02*
X75856895Y-48097390D01*
X75856895Y-48097390D02*
X75761657Y-48049771D01*
X75761657Y-48049771D02*
X75714038Y-48002152D01*
X75714038Y-48002152D02*
X75666419Y-47906914D01*
X75666419Y-47906914D02*
X75618800Y-47716438D01*
X75618800Y-47716438D02*
X75618800Y-47478343D01*
X75618800Y-47478343D02*
X75666419Y-47287867D01*
X75666419Y-47287867D02*
X75714038Y-47192629D01*
X75714038Y-47192629D02*
X75761657Y-47145010D01*
X75761657Y-47145010D02*
X75856895Y-47097390D01*
%TO.C,C16*%
X164729242Y-68142857D02*
X164776861Y-68190476D01*
X164776861Y-68190476D02*
X164824480Y-68333333D01*
X164824480Y-68333333D02*
X164824480Y-68428571D01*
X164824480Y-68428571D02*
X164776861Y-68571428D01*
X164776861Y-68571428D02*
X164681623Y-68666666D01*
X164681623Y-68666666D02*
X164586385Y-68714285D01*
X164586385Y-68714285D02*
X164395909Y-68761904D01*
X164395909Y-68761904D02*
X164253052Y-68761904D01*
X164253052Y-68761904D02*
X164062576Y-68714285D01*
X164062576Y-68714285D02*
X163967338Y-68666666D01*
X163967338Y-68666666D02*
X163872100Y-68571428D01*
X163872100Y-68571428D02*
X163824480Y-68428571D01*
X163824480Y-68428571D02*
X163824480Y-68333333D01*
X163824480Y-68333333D02*
X163872100Y-68190476D01*
X163872100Y-68190476D02*
X163919719Y-68142857D01*
X164824480Y-67190476D02*
X164824480Y-67761904D01*
X164824480Y-67476190D02*
X163824480Y-67476190D01*
X163824480Y-67476190D02*
X163967338Y-67571428D01*
X163967338Y-67571428D02*
X164062576Y-67666666D01*
X164062576Y-67666666D02*
X164110195Y-67761904D01*
X163824480Y-66333333D02*
X163824480Y-66523809D01*
X163824480Y-66523809D02*
X163872100Y-66619047D01*
X163872100Y-66619047D02*
X163919719Y-66666666D01*
X163919719Y-66666666D02*
X164062576Y-66761904D01*
X164062576Y-66761904D02*
X164253052Y-66809523D01*
X164253052Y-66809523D02*
X164634004Y-66809523D01*
X164634004Y-66809523D02*
X164729242Y-66761904D01*
X164729242Y-66761904D02*
X164776861Y-66714285D01*
X164776861Y-66714285D02*
X164824480Y-66619047D01*
X164824480Y-66619047D02*
X164824480Y-66428571D01*
X164824480Y-66428571D02*
X164776861Y-66333333D01*
X164776861Y-66333333D02*
X164729242Y-66285714D01*
X164729242Y-66285714D02*
X164634004Y-66238095D01*
X164634004Y-66238095D02*
X164395909Y-66238095D01*
X164395909Y-66238095D02*
X164300671Y-66285714D01*
X164300671Y-66285714D02*
X164253052Y-66333333D01*
X164253052Y-66333333D02*
X164205433Y-66428571D01*
X164205433Y-66428571D02*
X164205433Y-66619047D01*
X164205433Y-66619047D02*
X164253052Y-66714285D01*
X164253052Y-66714285D02*
X164300671Y-66761904D01*
X164300671Y-66761904D02*
X164395909Y-66809523D01*
%TO.C,J9*%
X154473766Y-71922380D02*
X154473766Y-72636666D01*
X154473766Y-72636666D02*
X154426147Y-72779523D01*
X154426147Y-72779523D02*
X154330909Y-72874761D01*
X154330909Y-72874761D02*
X154188052Y-72922380D01*
X154188052Y-72922380D02*
X154092814Y-72922380D01*
X154997576Y-72922380D02*
X155188052Y-72922380D01*
X155188052Y-72922380D02*
X155283290Y-72874761D01*
X155283290Y-72874761D02*
X155330909Y-72827142D01*
X155330909Y-72827142D02*
X155426147Y-72684285D01*
X155426147Y-72684285D02*
X155473766Y-72493809D01*
X155473766Y-72493809D02*
X155473766Y-72112857D01*
X155473766Y-72112857D02*
X155426147Y-72017619D01*
X155426147Y-72017619D02*
X155378528Y-71970000D01*
X155378528Y-71970000D02*
X155283290Y-71922380D01*
X155283290Y-71922380D02*
X155092814Y-71922380D01*
X155092814Y-71922380D02*
X154997576Y-71970000D01*
X154997576Y-71970000D02*
X154949957Y-72017619D01*
X154949957Y-72017619D02*
X154902338Y-72112857D01*
X154902338Y-72112857D02*
X154902338Y-72350952D01*
X154902338Y-72350952D02*
X154949957Y-72446190D01*
X154949957Y-72446190D02*
X154997576Y-72493809D01*
X154997576Y-72493809D02*
X155092814Y-72541428D01*
X155092814Y-72541428D02*
X155283290Y-72541428D01*
X155283290Y-72541428D02*
X155378528Y-72493809D01*
X155378528Y-72493809D02*
X155426147Y-72446190D01*
X155426147Y-72446190D02*
X155473766Y-72350952D01*
%TO.C,J3*%
X133398766Y-52297380D02*
X133398766Y-53011666D01*
X133398766Y-53011666D02*
X133351147Y-53154523D01*
X133351147Y-53154523D02*
X133255909Y-53249761D01*
X133255909Y-53249761D02*
X133113052Y-53297380D01*
X133113052Y-53297380D02*
X133017814Y-53297380D01*
X133779719Y-52297380D02*
X134398766Y-52297380D01*
X134398766Y-52297380D02*
X134065433Y-52678333D01*
X134065433Y-52678333D02*
X134208290Y-52678333D01*
X134208290Y-52678333D02*
X134303528Y-52725952D01*
X134303528Y-52725952D02*
X134351147Y-52773571D01*
X134351147Y-52773571D02*
X134398766Y-52868809D01*
X134398766Y-52868809D02*
X134398766Y-53106904D01*
X134398766Y-53106904D02*
X134351147Y-53202142D01*
X134351147Y-53202142D02*
X134303528Y-53249761D01*
X134303528Y-53249761D02*
X134208290Y-53297380D01*
X134208290Y-53297380D02*
X133922576Y-53297380D01*
X133922576Y-53297380D02*
X133827338Y-53249761D01*
X133827338Y-53249761D02*
X133779719Y-53202142D01*
%TO.C,R29*%
X158832632Y-88387392D02*
X158499299Y-87911202D01*
X158261204Y-88387392D02*
X158261204Y-87387392D01*
X158261204Y-87387392D02*
X158642156Y-87387392D01*
X158642156Y-87387392D02*
X158737394Y-87435012D01*
X158737394Y-87435012D02*
X158785013Y-87482631D01*
X158785013Y-87482631D02*
X158832632Y-87577869D01*
X158832632Y-87577869D02*
X158832632Y-87720726D01*
X158832632Y-87720726D02*
X158785013Y-87815964D01*
X158785013Y-87815964D02*
X158737394Y-87863583D01*
X158737394Y-87863583D02*
X158642156Y-87911202D01*
X158642156Y-87911202D02*
X158261204Y-87911202D01*
X159213585Y-87482631D02*
X159261204Y-87435012D01*
X159261204Y-87435012D02*
X159356442Y-87387392D01*
X159356442Y-87387392D02*
X159594537Y-87387392D01*
X159594537Y-87387392D02*
X159689775Y-87435012D01*
X159689775Y-87435012D02*
X159737394Y-87482631D01*
X159737394Y-87482631D02*
X159785013Y-87577869D01*
X159785013Y-87577869D02*
X159785013Y-87673107D01*
X159785013Y-87673107D02*
X159737394Y-87815964D01*
X159737394Y-87815964D02*
X159165966Y-88387392D01*
X159165966Y-88387392D02*
X159785013Y-88387392D01*
X160261204Y-88387392D02*
X160451680Y-88387392D01*
X160451680Y-88387392D02*
X160546918Y-88339773D01*
X160546918Y-88339773D02*
X160594537Y-88292154D01*
X160594537Y-88292154D02*
X160689775Y-88149297D01*
X160689775Y-88149297D02*
X160737394Y-87958821D01*
X160737394Y-87958821D02*
X160737394Y-87577869D01*
X160737394Y-87577869D02*
X160689775Y-87482631D01*
X160689775Y-87482631D02*
X160642156Y-87435012D01*
X160642156Y-87435012D02*
X160546918Y-87387392D01*
X160546918Y-87387392D02*
X160356442Y-87387392D01*
X160356442Y-87387392D02*
X160261204Y-87435012D01*
X160261204Y-87435012D02*
X160213585Y-87482631D01*
X160213585Y-87482631D02*
X160165966Y-87577869D01*
X160165966Y-87577869D02*
X160165966Y-87815964D01*
X160165966Y-87815964D02*
X160213585Y-87911202D01*
X160213585Y-87911202D02*
X160261204Y-87958821D01*
X160261204Y-87958821D02*
X160356442Y-88006440D01*
X160356442Y-88006440D02*
X160546918Y-88006440D01*
X160546918Y-88006440D02*
X160642156Y-87958821D01*
X160642156Y-87958821D02*
X160689775Y-87911202D01*
X160689775Y-87911202D02*
X160737394Y-87815964D01*
%TO.C,R27*%
X158964242Y-82322380D02*
X158630909Y-81846190D01*
X158392814Y-82322380D02*
X158392814Y-81322380D01*
X158392814Y-81322380D02*
X158773766Y-81322380D01*
X158773766Y-81322380D02*
X158869004Y-81370000D01*
X158869004Y-81370000D02*
X158916623Y-81417619D01*
X158916623Y-81417619D02*
X158964242Y-81512857D01*
X158964242Y-81512857D02*
X158964242Y-81655714D01*
X158964242Y-81655714D02*
X158916623Y-81750952D01*
X158916623Y-81750952D02*
X158869004Y-81798571D01*
X158869004Y-81798571D02*
X158773766Y-81846190D01*
X158773766Y-81846190D02*
X158392814Y-81846190D01*
X159345195Y-81417619D02*
X159392814Y-81370000D01*
X159392814Y-81370000D02*
X159488052Y-81322380D01*
X159488052Y-81322380D02*
X159726147Y-81322380D01*
X159726147Y-81322380D02*
X159821385Y-81370000D01*
X159821385Y-81370000D02*
X159869004Y-81417619D01*
X159869004Y-81417619D02*
X159916623Y-81512857D01*
X159916623Y-81512857D02*
X159916623Y-81608095D01*
X159916623Y-81608095D02*
X159869004Y-81750952D01*
X159869004Y-81750952D02*
X159297576Y-82322380D01*
X159297576Y-82322380D02*
X159916623Y-82322380D01*
X160249957Y-81322380D02*
X160916623Y-81322380D01*
X160916623Y-81322380D02*
X160488052Y-82322380D01*
%TO.C,FB1*%
X101950671Y-72333333D02*
X101950671Y-72666666D01*
X102474480Y-72666666D02*
X101474480Y-72666666D01*
X101474480Y-72666666D02*
X101474480Y-72190476D01*
X101950671Y-71476190D02*
X101998290Y-71333333D01*
X101998290Y-71333333D02*
X102045909Y-71285714D01*
X102045909Y-71285714D02*
X102141147Y-71238095D01*
X102141147Y-71238095D02*
X102284004Y-71238095D01*
X102284004Y-71238095D02*
X102379242Y-71285714D01*
X102379242Y-71285714D02*
X102426861Y-71333333D01*
X102426861Y-71333333D02*
X102474480Y-71428571D01*
X102474480Y-71428571D02*
X102474480Y-71809523D01*
X102474480Y-71809523D02*
X101474480Y-71809523D01*
X101474480Y-71809523D02*
X101474480Y-71476190D01*
X101474480Y-71476190D02*
X101522100Y-71380952D01*
X101522100Y-71380952D02*
X101569719Y-71333333D01*
X101569719Y-71333333D02*
X101664957Y-71285714D01*
X101664957Y-71285714D02*
X101760195Y-71285714D01*
X101760195Y-71285714D02*
X101855433Y-71333333D01*
X101855433Y-71333333D02*
X101903052Y-71380952D01*
X101903052Y-71380952D02*
X101950671Y-71476190D01*
X101950671Y-71476190D02*
X101950671Y-71809523D01*
X102474480Y-70285714D02*
X102474480Y-70857142D01*
X102474480Y-70571428D02*
X101474480Y-70571428D01*
X101474480Y-70571428D02*
X101617338Y-70666666D01*
X101617338Y-70666666D02*
X101712576Y-70761904D01*
X101712576Y-70761904D02*
X101760195Y-70857142D01*
%TO.C,JP1*%
X107374480Y-72333333D02*
X108088766Y-72333333D01*
X108088766Y-72333333D02*
X108231623Y-72380952D01*
X108231623Y-72380952D02*
X108326861Y-72476190D01*
X108326861Y-72476190D02*
X108374480Y-72619047D01*
X108374480Y-72619047D02*
X108374480Y-72714285D01*
X108374480Y-71857142D02*
X107374480Y-71857142D01*
X107374480Y-71857142D02*
X107374480Y-71476190D01*
X107374480Y-71476190D02*
X107422100Y-71380952D01*
X107422100Y-71380952D02*
X107469719Y-71333333D01*
X107469719Y-71333333D02*
X107564957Y-71285714D01*
X107564957Y-71285714D02*
X107707814Y-71285714D01*
X107707814Y-71285714D02*
X107803052Y-71333333D01*
X107803052Y-71333333D02*
X107850671Y-71380952D01*
X107850671Y-71380952D02*
X107898290Y-71476190D01*
X107898290Y-71476190D02*
X107898290Y-71857142D01*
X108374480Y-70333333D02*
X108374480Y-70904761D01*
X108374480Y-70619047D02*
X107374480Y-70619047D01*
X107374480Y-70619047D02*
X107517338Y-70714285D01*
X107517338Y-70714285D02*
X107612576Y-70809523D01*
X107612576Y-70809523D02*
X107660195Y-70904761D01*
%TO.C,R23*%
X98606242Y-45101380D02*
X98272909Y-44625190D01*
X98034814Y-45101380D02*
X98034814Y-44101380D01*
X98034814Y-44101380D02*
X98415766Y-44101380D01*
X98415766Y-44101380D02*
X98511004Y-44149000D01*
X98511004Y-44149000D02*
X98558623Y-44196619D01*
X98558623Y-44196619D02*
X98606242Y-44291857D01*
X98606242Y-44291857D02*
X98606242Y-44434714D01*
X98606242Y-44434714D02*
X98558623Y-44529952D01*
X98558623Y-44529952D02*
X98511004Y-44577571D01*
X98511004Y-44577571D02*
X98415766Y-44625190D01*
X98415766Y-44625190D02*
X98034814Y-44625190D01*
X98987195Y-44196619D02*
X99034814Y-44149000D01*
X99034814Y-44149000D02*
X99130052Y-44101380D01*
X99130052Y-44101380D02*
X99368147Y-44101380D01*
X99368147Y-44101380D02*
X99463385Y-44149000D01*
X99463385Y-44149000D02*
X99511004Y-44196619D01*
X99511004Y-44196619D02*
X99558623Y-44291857D01*
X99558623Y-44291857D02*
X99558623Y-44387095D01*
X99558623Y-44387095D02*
X99511004Y-44529952D01*
X99511004Y-44529952D02*
X98939576Y-45101380D01*
X98939576Y-45101380D02*
X99558623Y-45101380D01*
X99891957Y-44101380D02*
X100511004Y-44101380D01*
X100511004Y-44101380D02*
X100177671Y-44482333D01*
X100177671Y-44482333D02*
X100320528Y-44482333D01*
X100320528Y-44482333D02*
X100415766Y-44529952D01*
X100415766Y-44529952D02*
X100463385Y-44577571D01*
X100463385Y-44577571D02*
X100511004Y-44672809D01*
X100511004Y-44672809D02*
X100511004Y-44910904D01*
X100511004Y-44910904D02*
X100463385Y-45006142D01*
X100463385Y-45006142D02*
X100415766Y-45053761D01*
X100415766Y-45053761D02*
X100320528Y-45101380D01*
X100320528Y-45101380D02*
X100034814Y-45101380D01*
X100034814Y-45101380D02*
X99939576Y-45053761D01*
X99939576Y-45053761D02*
X99891957Y-45006142D01*
%TO.C,J6*%
X118345766Y-31617380D02*
X118345766Y-32331666D01*
X118345766Y-32331666D02*
X118298147Y-32474523D01*
X118298147Y-32474523D02*
X118202909Y-32569761D01*
X118202909Y-32569761D02*
X118060052Y-32617380D01*
X118060052Y-32617380D02*
X117964814Y-32617380D01*
X119250528Y-31617380D02*
X119060052Y-31617380D01*
X119060052Y-31617380D02*
X118964814Y-31665000D01*
X118964814Y-31665000D02*
X118917195Y-31712619D01*
X118917195Y-31712619D02*
X118821957Y-31855476D01*
X118821957Y-31855476D02*
X118774338Y-32045952D01*
X118774338Y-32045952D02*
X118774338Y-32426904D01*
X118774338Y-32426904D02*
X118821957Y-32522142D01*
X118821957Y-32522142D02*
X118869576Y-32569761D01*
X118869576Y-32569761D02*
X118964814Y-32617380D01*
X118964814Y-32617380D02*
X119155290Y-32617380D01*
X119155290Y-32617380D02*
X119250528Y-32569761D01*
X119250528Y-32569761D02*
X119298147Y-32522142D01*
X119298147Y-32522142D02*
X119345766Y-32426904D01*
X119345766Y-32426904D02*
X119345766Y-32188809D01*
X119345766Y-32188809D02*
X119298147Y-32093571D01*
X119298147Y-32093571D02*
X119250528Y-32045952D01*
X119250528Y-32045952D02*
X119155290Y-31998333D01*
X119155290Y-31998333D02*
X118964814Y-31998333D01*
X118964814Y-31998333D02*
X118869576Y-32045952D01*
X118869576Y-32045952D02*
X118821957Y-32093571D01*
X118821957Y-32093571D02*
X118774338Y-32188809D01*
%TO.C,C6*%
X105570242Y-59273666D02*
X105617861Y-59321285D01*
X105617861Y-59321285D02*
X105665480Y-59464142D01*
X105665480Y-59464142D02*
X105665480Y-59559380D01*
X105665480Y-59559380D02*
X105617861Y-59702237D01*
X105617861Y-59702237D02*
X105522623Y-59797475D01*
X105522623Y-59797475D02*
X105427385Y-59845094D01*
X105427385Y-59845094D02*
X105236909Y-59892713D01*
X105236909Y-59892713D02*
X105094052Y-59892713D01*
X105094052Y-59892713D02*
X104903576Y-59845094D01*
X104903576Y-59845094D02*
X104808338Y-59797475D01*
X104808338Y-59797475D02*
X104713100Y-59702237D01*
X104713100Y-59702237D02*
X104665480Y-59559380D01*
X104665480Y-59559380D02*
X104665480Y-59464142D01*
X104665480Y-59464142D02*
X104713100Y-59321285D01*
X104713100Y-59321285D02*
X104760719Y-59273666D01*
X104665480Y-58416523D02*
X104665480Y-58606999D01*
X104665480Y-58606999D02*
X104713100Y-58702237D01*
X104713100Y-58702237D02*
X104760719Y-58749856D01*
X104760719Y-58749856D02*
X104903576Y-58845094D01*
X104903576Y-58845094D02*
X105094052Y-58892713D01*
X105094052Y-58892713D02*
X105475004Y-58892713D01*
X105475004Y-58892713D02*
X105570242Y-58845094D01*
X105570242Y-58845094D02*
X105617861Y-58797475D01*
X105617861Y-58797475D02*
X105665480Y-58702237D01*
X105665480Y-58702237D02*
X105665480Y-58511761D01*
X105665480Y-58511761D02*
X105617861Y-58416523D01*
X105617861Y-58416523D02*
X105570242Y-58368904D01*
X105570242Y-58368904D02*
X105475004Y-58321285D01*
X105475004Y-58321285D02*
X105236909Y-58321285D01*
X105236909Y-58321285D02*
X105141671Y-58368904D01*
X105141671Y-58368904D02*
X105094052Y-58416523D01*
X105094052Y-58416523D02*
X105046433Y-58511761D01*
X105046433Y-58511761D02*
X105046433Y-58702237D01*
X105046433Y-58702237D02*
X105094052Y-58797475D01*
X105094052Y-58797475D02*
X105141671Y-58845094D01*
X105141671Y-58845094D02*
X105236909Y-58892713D01*
%TO.C,R21*%
X109665480Y-59249857D02*
X109189290Y-59583190D01*
X109665480Y-59821285D02*
X108665480Y-59821285D01*
X108665480Y-59821285D02*
X108665480Y-59440333D01*
X108665480Y-59440333D02*
X108713100Y-59345095D01*
X108713100Y-59345095D02*
X108760719Y-59297476D01*
X108760719Y-59297476D02*
X108855957Y-59249857D01*
X108855957Y-59249857D02*
X108998814Y-59249857D01*
X108998814Y-59249857D02*
X109094052Y-59297476D01*
X109094052Y-59297476D02*
X109141671Y-59345095D01*
X109141671Y-59345095D02*
X109189290Y-59440333D01*
X109189290Y-59440333D02*
X109189290Y-59821285D01*
X108760719Y-58868904D02*
X108713100Y-58821285D01*
X108713100Y-58821285D02*
X108665480Y-58726047D01*
X108665480Y-58726047D02*
X108665480Y-58487952D01*
X108665480Y-58487952D02*
X108713100Y-58392714D01*
X108713100Y-58392714D02*
X108760719Y-58345095D01*
X108760719Y-58345095D02*
X108855957Y-58297476D01*
X108855957Y-58297476D02*
X108951195Y-58297476D01*
X108951195Y-58297476D02*
X109094052Y-58345095D01*
X109094052Y-58345095D02*
X109665480Y-58916523D01*
X109665480Y-58916523D02*
X109665480Y-58297476D01*
X109665480Y-57345095D02*
X109665480Y-57916523D01*
X109665480Y-57630809D02*
X108665480Y-57630809D01*
X108665480Y-57630809D02*
X108808338Y-57726047D01*
X108808338Y-57726047D02*
X108903576Y-57821285D01*
X108903576Y-57821285D02*
X108951195Y-57916523D01*
%TO.C,H1*%
X80445195Y-41867380D02*
X80445195Y-40867380D01*
X80445195Y-41343571D02*
X81016623Y-41343571D01*
X81016623Y-41867380D02*
X81016623Y-40867380D01*
X82016623Y-41867380D02*
X81445195Y-41867380D01*
X81730909Y-41867380D02*
X81730909Y-40867380D01*
X81730909Y-40867380D02*
X81635671Y-41010238D01*
X81635671Y-41010238D02*
X81540433Y-41105476D01*
X81540433Y-41105476D02*
X81445195Y-41153095D01*
%TO.C,J4*%
X69623766Y-95117380D02*
X69623766Y-95831666D01*
X69623766Y-95831666D02*
X69576147Y-95974523D01*
X69576147Y-95974523D02*
X69480909Y-96069761D01*
X69480909Y-96069761D02*
X69338052Y-96117380D01*
X69338052Y-96117380D02*
X69242814Y-96117380D01*
X70528528Y-95450714D02*
X70528528Y-96117380D01*
X70290433Y-95069761D02*
X70052338Y-95784047D01*
X70052338Y-95784047D02*
X70671385Y-95784047D01*
%TO.C,J1*%
X98873766Y-40367380D02*
X98873766Y-41081666D01*
X98873766Y-41081666D02*
X98826147Y-41224523D01*
X98826147Y-41224523D02*
X98730909Y-41319761D01*
X98730909Y-41319761D02*
X98588052Y-41367380D01*
X98588052Y-41367380D02*
X98492814Y-41367380D01*
X99873766Y-41367380D02*
X99302338Y-41367380D01*
X99588052Y-41367380D02*
X99588052Y-40367380D01*
X99588052Y-40367380D02*
X99492814Y-40510238D01*
X99492814Y-40510238D02*
X99397576Y-40605476D01*
X99397576Y-40605476D02*
X99302338Y-40653095D01*
%TO.C,SW2*%
X150873767Y-49819761D02*
X151016624Y-49867380D01*
X151016624Y-49867380D02*
X151254719Y-49867380D01*
X151254719Y-49867380D02*
X151349957Y-49819761D01*
X151349957Y-49819761D02*
X151397576Y-49772142D01*
X151397576Y-49772142D02*
X151445195Y-49676904D01*
X151445195Y-49676904D02*
X151445195Y-49581666D01*
X151445195Y-49581666D02*
X151397576Y-49486428D01*
X151397576Y-49486428D02*
X151349957Y-49438809D01*
X151349957Y-49438809D02*
X151254719Y-49391190D01*
X151254719Y-49391190D02*
X151064243Y-49343571D01*
X151064243Y-49343571D02*
X150969005Y-49295952D01*
X150969005Y-49295952D02*
X150921386Y-49248333D01*
X150921386Y-49248333D02*
X150873767Y-49153095D01*
X150873767Y-49153095D02*
X150873767Y-49057857D01*
X150873767Y-49057857D02*
X150921386Y-48962619D01*
X150921386Y-48962619D02*
X150969005Y-48915000D01*
X150969005Y-48915000D02*
X151064243Y-48867380D01*
X151064243Y-48867380D02*
X151302338Y-48867380D01*
X151302338Y-48867380D02*
X151445195Y-48915000D01*
X151778529Y-48867380D02*
X152016624Y-49867380D01*
X152016624Y-49867380D02*
X152207100Y-49153095D01*
X152207100Y-49153095D02*
X152397576Y-49867380D01*
X152397576Y-49867380D02*
X152635672Y-48867380D01*
X152969005Y-48962619D02*
X153016624Y-48915000D01*
X153016624Y-48915000D02*
X153111862Y-48867380D01*
X153111862Y-48867380D02*
X153349957Y-48867380D01*
X153349957Y-48867380D02*
X153445195Y-48915000D01*
X153445195Y-48915000D02*
X153492814Y-48962619D01*
X153492814Y-48962619D02*
X153540433Y-49057857D01*
X153540433Y-49057857D02*
X153540433Y-49153095D01*
X153540433Y-49153095D02*
X153492814Y-49295952D01*
X153492814Y-49295952D02*
X152921386Y-49867380D01*
X152921386Y-49867380D02*
X153540433Y-49867380D01*
%TO.C,R22*%
X107665480Y-59249857D02*
X107189290Y-59583190D01*
X107665480Y-59821285D02*
X106665480Y-59821285D01*
X106665480Y-59821285D02*
X106665480Y-59440333D01*
X106665480Y-59440333D02*
X106713100Y-59345095D01*
X106713100Y-59345095D02*
X106760719Y-59297476D01*
X106760719Y-59297476D02*
X106855957Y-59249857D01*
X106855957Y-59249857D02*
X106998814Y-59249857D01*
X106998814Y-59249857D02*
X107094052Y-59297476D01*
X107094052Y-59297476D02*
X107141671Y-59345095D01*
X107141671Y-59345095D02*
X107189290Y-59440333D01*
X107189290Y-59440333D02*
X107189290Y-59821285D01*
X106760719Y-58868904D02*
X106713100Y-58821285D01*
X106713100Y-58821285D02*
X106665480Y-58726047D01*
X106665480Y-58726047D02*
X106665480Y-58487952D01*
X106665480Y-58487952D02*
X106713100Y-58392714D01*
X106713100Y-58392714D02*
X106760719Y-58345095D01*
X106760719Y-58345095D02*
X106855957Y-58297476D01*
X106855957Y-58297476D02*
X106951195Y-58297476D01*
X106951195Y-58297476D02*
X107094052Y-58345095D01*
X107094052Y-58345095D02*
X107665480Y-58916523D01*
X107665480Y-58916523D02*
X107665480Y-58297476D01*
X106760719Y-57916523D02*
X106713100Y-57868904D01*
X106713100Y-57868904D02*
X106665480Y-57773666D01*
X106665480Y-57773666D02*
X106665480Y-57535571D01*
X106665480Y-57535571D02*
X106713100Y-57440333D01*
X106713100Y-57440333D02*
X106760719Y-57392714D01*
X106760719Y-57392714D02*
X106855957Y-57345095D01*
X106855957Y-57345095D02*
X106951195Y-57345095D01*
X106951195Y-57345095D02*
X107094052Y-57392714D01*
X107094052Y-57392714D02*
X107665480Y-57964142D01*
X107665480Y-57964142D02*
X107665480Y-57345095D01*
%TO.C,RV1*%
X153319480Y-95495238D02*
X152843290Y-95828571D01*
X153319480Y-96066666D02*
X152319480Y-96066666D01*
X152319480Y-96066666D02*
X152319480Y-95685714D01*
X152319480Y-95685714D02*
X152367100Y-95590476D01*
X152367100Y-95590476D02*
X152414719Y-95542857D01*
X152414719Y-95542857D02*
X152509957Y-95495238D01*
X152509957Y-95495238D02*
X152652814Y-95495238D01*
X152652814Y-95495238D02*
X152748052Y-95542857D01*
X152748052Y-95542857D02*
X152795671Y-95590476D01*
X152795671Y-95590476D02*
X152843290Y-95685714D01*
X152843290Y-95685714D02*
X152843290Y-96066666D01*
X152319480Y-95209523D02*
X153319480Y-94876190D01*
X153319480Y-94876190D02*
X152319480Y-94542857D01*
X153319480Y-93685714D02*
X153319480Y-94257142D01*
X153319480Y-93971428D02*
X152319480Y-93971428D01*
X152319480Y-93971428D02*
X152462338Y-94066666D01*
X152462338Y-94066666D02*
X152557576Y-94161904D01*
X152557576Y-94161904D02*
X152605195Y-94257142D01*
%TO.C,SW9*%
X71726861Y-34033332D02*
X71774480Y-33890475D01*
X71774480Y-33890475D02*
X71774480Y-33652380D01*
X71774480Y-33652380D02*
X71726861Y-33557142D01*
X71726861Y-33557142D02*
X71679242Y-33509523D01*
X71679242Y-33509523D02*
X71584004Y-33461904D01*
X71584004Y-33461904D02*
X71488766Y-33461904D01*
X71488766Y-33461904D02*
X71393528Y-33509523D01*
X71393528Y-33509523D02*
X71345909Y-33557142D01*
X71345909Y-33557142D02*
X71298290Y-33652380D01*
X71298290Y-33652380D02*
X71250671Y-33842856D01*
X71250671Y-33842856D02*
X71203052Y-33938094D01*
X71203052Y-33938094D02*
X71155433Y-33985713D01*
X71155433Y-33985713D02*
X71060195Y-34033332D01*
X71060195Y-34033332D02*
X70964957Y-34033332D01*
X70964957Y-34033332D02*
X70869719Y-33985713D01*
X70869719Y-33985713D02*
X70822100Y-33938094D01*
X70822100Y-33938094D02*
X70774480Y-33842856D01*
X70774480Y-33842856D02*
X70774480Y-33604761D01*
X70774480Y-33604761D02*
X70822100Y-33461904D01*
X70774480Y-33128570D02*
X71774480Y-32890475D01*
X71774480Y-32890475D02*
X71060195Y-32699999D01*
X71060195Y-32699999D02*
X71774480Y-32509523D01*
X71774480Y-32509523D02*
X70774480Y-32271428D01*
X71774480Y-31842856D02*
X71774480Y-31652380D01*
X71774480Y-31652380D02*
X71726861Y-31557142D01*
X71726861Y-31557142D02*
X71679242Y-31509523D01*
X71679242Y-31509523D02*
X71536385Y-31414285D01*
X71536385Y-31414285D02*
X71345909Y-31366666D01*
X71345909Y-31366666D02*
X70964957Y-31366666D01*
X70964957Y-31366666D02*
X70869719Y-31414285D01*
X70869719Y-31414285D02*
X70822100Y-31461904D01*
X70822100Y-31461904D02*
X70774480Y-31557142D01*
X70774480Y-31557142D02*
X70774480Y-31747618D01*
X70774480Y-31747618D02*
X70822100Y-31842856D01*
X70822100Y-31842856D02*
X70869719Y-31890475D01*
X70869719Y-31890475D02*
X70964957Y-31938094D01*
X70964957Y-31938094D02*
X71203052Y-31938094D01*
X71203052Y-31938094D02*
X71298290Y-31890475D01*
X71298290Y-31890475D02*
X71345909Y-31842856D01*
X71345909Y-31842856D02*
X71393528Y-31747618D01*
X71393528Y-31747618D02*
X71393528Y-31557142D01*
X71393528Y-31557142D02*
X71345909Y-31461904D01*
X71345909Y-31461904D02*
X71298290Y-31414285D01*
X71298290Y-31414285D02*
X71203052Y-31366666D01*
%TO.C,R13*%
X161574480Y-43642857D02*
X161098290Y-43976190D01*
X161574480Y-44214285D02*
X160574480Y-44214285D01*
X160574480Y-44214285D02*
X160574480Y-43833333D01*
X160574480Y-43833333D02*
X160622100Y-43738095D01*
X160622100Y-43738095D02*
X160669719Y-43690476D01*
X160669719Y-43690476D02*
X160764957Y-43642857D01*
X160764957Y-43642857D02*
X160907814Y-43642857D01*
X160907814Y-43642857D02*
X161003052Y-43690476D01*
X161003052Y-43690476D02*
X161050671Y-43738095D01*
X161050671Y-43738095D02*
X161098290Y-43833333D01*
X161098290Y-43833333D02*
X161098290Y-44214285D01*
X161574480Y-42690476D02*
X161574480Y-43261904D01*
X161574480Y-42976190D02*
X160574480Y-42976190D01*
X160574480Y-42976190D02*
X160717338Y-43071428D01*
X160717338Y-43071428D02*
X160812576Y-43166666D01*
X160812576Y-43166666D02*
X160860195Y-43261904D01*
X160574480Y-42357142D02*
X160574480Y-41738095D01*
X160574480Y-41738095D02*
X160955433Y-42071428D01*
X160955433Y-42071428D02*
X160955433Y-41928571D01*
X160955433Y-41928571D02*
X161003052Y-41833333D01*
X161003052Y-41833333D02*
X161050671Y-41785714D01*
X161050671Y-41785714D02*
X161145909Y-41738095D01*
X161145909Y-41738095D02*
X161384004Y-41738095D01*
X161384004Y-41738095D02*
X161479242Y-41785714D01*
X161479242Y-41785714D02*
X161526861Y-41833333D01*
X161526861Y-41833333D02*
X161574480Y-41928571D01*
X161574480Y-41928571D02*
X161574480Y-42214285D01*
X161574480Y-42214285D02*
X161526861Y-42309523D01*
X161526861Y-42309523D02*
X161479242Y-42357142D01*
%TO.C,R20*%
X118729242Y-36931380D02*
X118395909Y-36455190D01*
X118157814Y-36931380D02*
X118157814Y-35931380D01*
X118157814Y-35931380D02*
X118538766Y-35931380D01*
X118538766Y-35931380D02*
X118634004Y-35979000D01*
X118634004Y-35979000D02*
X118681623Y-36026619D01*
X118681623Y-36026619D02*
X118729242Y-36121857D01*
X118729242Y-36121857D02*
X118729242Y-36264714D01*
X118729242Y-36264714D02*
X118681623Y-36359952D01*
X118681623Y-36359952D02*
X118634004Y-36407571D01*
X118634004Y-36407571D02*
X118538766Y-36455190D01*
X118538766Y-36455190D02*
X118157814Y-36455190D01*
X119110195Y-36026619D02*
X119157814Y-35979000D01*
X119157814Y-35979000D02*
X119253052Y-35931380D01*
X119253052Y-35931380D02*
X119491147Y-35931380D01*
X119491147Y-35931380D02*
X119586385Y-35979000D01*
X119586385Y-35979000D02*
X119634004Y-36026619D01*
X119634004Y-36026619D02*
X119681623Y-36121857D01*
X119681623Y-36121857D02*
X119681623Y-36217095D01*
X119681623Y-36217095D02*
X119634004Y-36359952D01*
X119634004Y-36359952D02*
X119062576Y-36931380D01*
X119062576Y-36931380D02*
X119681623Y-36931380D01*
X120300671Y-35931380D02*
X120395909Y-35931380D01*
X120395909Y-35931380D02*
X120491147Y-35979000D01*
X120491147Y-35979000D02*
X120538766Y-36026619D01*
X120538766Y-36026619D02*
X120586385Y-36121857D01*
X120586385Y-36121857D02*
X120634004Y-36312333D01*
X120634004Y-36312333D02*
X120634004Y-36550428D01*
X120634004Y-36550428D02*
X120586385Y-36740904D01*
X120586385Y-36740904D02*
X120538766Y-36836142D01*
X120538766Y-36836142D02*
X120491147Y-36883761D01*
X120491147Y-36883761D02*
X120395909Y-36931380D01*
X120395909Y-36931380D02*
X120300671Y-36931380D01*
X120300671Y-36931380D02*
X120205433Y-36883761D01*
X120205433Y-36883761D02*
X120157814Y-36836142D01*
X120157814Y-36836142D02*
X120110195Y-36740904D01*
X120110195Y-36740904D02*
X120062576Y-36550428D01*
X120062576Y-36550428D02*
X120062576Y-36312333D01*
X120062576Y-36312333D02*
X120110195Y-36121857D01*
X120110195Y-36121857D02*
X120157814Y-36026619D01*
X120157814Y-36026619D02*
X120205433Y-35979000D01*
X120205433Y-35979000D02*
X120300671Y-35931380D01*
%TO.C,TP1*%
X124545195Y-37669380D02*
X125116623Y-37669380D01*
X124830909Y-38669380D02*
X124830909Y-37669380D01*
X125449957Y-38669380D02*
X125449957Y-37669380D01*
X125449957Y-37669380D02*
X125830909Y-37669380D01*
X125830909Y-37669380D02*
X125926147Y-37717000D01*
X125926147Y-37717000D02*
X125973766Y-37764619D01*
X125973766Y-37764619D02*
X126021385Y-37859857D01*
X126021385Y-37859857D02*
X126021385Y-38002714D01*
X126021385Y-38002714D02*
X125973766Y-38097952D01*
X125973766Y-38097952D02*
X125926147Y-38145571D01*
X125926147Y-38145571D02*
X125830909Y-38193190D01*
X125830909Y-38193190D02*
X125449957Y-38193190D01*
X126973766Y-38669380D02*
X126402338Y-38669380D01*
X126688052Y-38669380D02*
X126688052Y-37669380D01*
X126688052Y-37669380D02*
X126592814Y-37812238D01*
X126592814Y-37812238D02*
X126497576Y-37907476D01*
X126497576Y-37907476D02*
X126402338Y-37955095D01*
%TO.C,H3*%
X132445195Y-78367380D02*
X132445195Y-77367380D01*
X132445195Y-77843571D02*
X133016623Y-77843571D01*
X133016623Y-78367380D02*
X133016623Y-77367380D01*
X133397576Y-77367380D02*
X134016623Y-77367380D01*
X134016623Y-77367380D02*
X133683290Y-77748333D01*
X133683290Y-77748333D02*
X133826147Y-77748333D01*
X133826147Y-77748333D02*
X133921385Y-77795952D01*
X133921385Y-77795952D02*
X133969004Y-77843571D01*
X133969004Y-77843571D02*
X134016623Y-77938809D01*
X134016623Y-77938809D02*
X134016623Y-78176904D01*
X134016623Y-78176904D02*
X133969004Y-78272142D01*
X133969004Y-78272142D02*
X133921385Y-78319761D01*
X133921385Y-78319761D02*
X133826147Y-78367380D01*
X133826147Y-78367380D02*
X133540433Y-78367380D01*
X133540433Y-78367380D02*
X133445195Y-78319761D01*
X133445195Y-78319761D02*
X133397576Y-78272142D01*
%TO.C,C11*%
X107601742Y-66772142D02*
X107554123Y-66819761D01*
X107554123Y-66819761D02*
X107411266Y-66867380D01*
X107411266Y-66867380D02*
X107316028Y-66867380D01*
X107316028Y-66867380D02*
X107173171Y-66819761D01*
X107173171Y-66819761D02*
X107077933Y-66724523D01*
X107077933Y-66724523D02*
X107030314Y-66629285D01*
X107030314Y-66629285D02*
X106982695Y-66438809D01*
X106982695Y-66438809D02*
X106982695Y-66295952D01*
X106982695Y-66295952D02*
X107030314Y-66105476D01*
X107030314Y-66105476D02*
X107077933Y-66010238D01*
X107077933Y-66010238D02*
X107173171Y-65915000D01*
X107173171Y-65915000D02*
X107316028Y-65867380D01*
X107316028Y-65867380D02*
X107411266Y-65867380D01*
X107411266Y-65867380D02*
X107554123Y-65915000D01*
X107554123Y-65915000D02*
X107601742Y-65962619D01*
X108554123Y-66867380D02*
X107982695Y-66867380D01*
X108268409Y-66867380D02*
X108268409Y-65867380D01*
X108268409Y-65867380D02*
X108173171Y-66010238D01*
X108173171Y-66010238D02*
X108077933Y-66105476D01*
X108077933Y-66105476D02*
X107982695Y-66153095D01*
X109506504Y-66867380D02*
X108935076Y-66867380D01*
X109220790Y-66867380D02*
X109220790Y-65867380D01*
X109220790Y-65867380D02*
X109125552Y-66010238D01*
X109125552Y-66010238D02*
X109030314Y-66105476D01*
X109030314Y-66105476D02*
X108935076Y-66153095D01*
%TO.C,J8*%
X121595766Y-41367380D02*
X121595766Y-42081666D01*
X121595766Y-42081666D02*
X121548147Y-42224523D01*
X121548147Y-42224523D02*
X121452909Y-42319761D01*
X121452909Y-42319761D02*
X121310052Y-42367380D01*
X121310052Y-42367380D02*
X121214814Y-42367380D01*
X122214814Y-41795952D02*
X122119576Y-41748333D01*
X122119576Y-41748333D02*
X122071957Y-41700714D01*
X122071957Y-41700714D02*
X122024338Y-41605476D01*
X122024338Y-41605476D02*
X122024338Y-41557857D01*
X122024338Y-41557857D02*
X122071957Y-41462619D01*
X122071957Y-41462619D02*
X122119576Y-41415000D01*
X122119576Y-41415000D02*
X122214814Y-41367380D01*
X122214814Y-41367380D02*
X122405290Y-41367380D01*
X122405290Y-41367380D02*
X122500528Y-41415000D01*
X122500528Y-41415000D02*
X122548147Y-41462619D01*
X122548147Y-41462619D02*
X122595766Y-41557857D01*
X122595766Y-41557857D02*
X122595766Y-41605476D01*
X122595766Y-41605476D02*
X122548147Y-41700714D01*
X122548147Y-41700714D02*
X122500528Y-41748333D01*
X122500528Y-41748333D02*
X122405290Y-41795952D01*
X122405290Y-41795952D02*
X122214814Y-41795952D01*
X122214814Y-41795952D02*
X122119576Y-41843571D01*
X122119576Y-41843571D02*
X122071957Y-41891190D01*
X122071957Y-41891190D02*
X122024338Y-41986428D01*
X122024338Y-41986428D02*
X122024338Y-42176904D01*
X122024338Y-42176904D02*
X122071957Y-42272142D01*
X122071957Y-42272142D02*
X122119576Y-42319761D01*
X122119576Y-42319761D02*
X122214814Y-42367380D01*
X122214814Y-42367380D02*
X122405290Y-42367380D01*
X122405290Y-42367380D02*
X122500528Y-42319761D01*
X122500528Y-42319761D02*
X122548147Y-42272142D01*
X122548147Y-42272142D02*
X122595766Y-42176904D01*
X122595766Y-42176904D02*
X122595766Y-41986428D01*
X122595766Y-41986428D02*
X122548147Y-41891190D01*
X122548147Y-41891190D02*
X122500528Y-41843571D01*
X122500528Y-41843571D02*
X122405290Y-41795952D01*
%TO.C,SW3*%
X158123767Y-59319761D02*
X158266624Y-59367380D01*
X158266624Y-59367380D02*
X158504719Y-59367380D01*
X158504719Y-59367380D02*
X158599957Y-59319761D01*
X158599957Y-59319761D02*
X158647576Y-59272142D01*
X158647576Y-59272142D02*
X158695195Y-59176904D01*
X158695195Y-59176904D02*
X158695195Y-59081666D01*
X158695195Y-59081666D02*
X158647576Y-58986428D01*
X158647576Y-58986428D02*
X158599957Y-58938809D01*
X158599957Y-58938809D02*
X158504719Y-58891190D01*
X158504719Y-58891190D02*
X158314243Y-58843571D01*
X158314243Y-58843571D02*
X158219005Y-58795952D01*
X158219005Y-58795952D02*
X158171386Y-58748333D01*
X158171386Y-58748333D02*
X158123767Y-58653095D01*
X158123767Y-58653095D02*
X158123767Y-58557857D01*
X158123767Y-58557857D02*
X158171386Y-58462619D01*
X158171386Y-58462619D02*
X158219005Y-58415000D01*
X158219005Y-58415000D02*
X158314243Y-58367380D01*
X158314243Y-58367380D02*
X158552338Y-58367380D01*
X158552338Y-58367380D02*
X158695195Y-58415000D01*
X159028529Y-58367380D02*
X159266624Y-59367380D01*
X159266624Y-59367380D02*
X159457100Y-58653095D01*
X159457100Y-58653095D02*
X159647576Y-59367380D01*
X159647576Y-59367380D02*
X159885672Y-58367380D01*
X160171386Y-58367380D02*
X160790433Y-58367380D01*
X160790433Y-58367380D02*
X160457100Y-58748333D01*
X160457100Y-58748333D02*
X160599957Y-58748333D01*
X160599957Y-58748333D02*
X160695195Y-58795952D01*
X160695195Y-58795952D02*
X160742814Y-58843571D01*
X160742814Y-58843571D02*
X160790433Y-58938809D01*
X160790433Y-58938809D02*
X160790433Y-59176904D01*
X160790433Y-59176904D02*
X160742814Y-59272142D01*
X160742814Y-59272142D02*
X160695195Y-59319761D01*
X160695195Y-59319761D02*
X160599957Y-59367380D01*
X160599957Y-59367380D02*
X160314243Y-59367380D01*
X160314243Y-59367380D02*
X160219005Y-59319761D01*
X160219005Y-59319761D02*
X160171386Y-59272142D01*
%TO.C,J7*%
X74123766Y-79117380D02*
X74123766Y-79831666D01*
X74123766Y-79831666D02*
X74076147Y-79974523D01*
X74076147Y-79974523D02*
X73980909Y-80069761D01*
X73980909Y-80069761D02*
X73838052Y-80117380D01*
X73838052Y-80117380D02*
X73742814Y-80117380D01*
X74504719Y-79117380D02*
X75171385Y-79117380D01*
X75171385Y-79117380D02*
X74742814Y-80117380D01*
D14*
X134302338Y-89157142D02*
X138111862Y-89157142D01*
X103111861Y-91061904D02*
X100254718Y-91061904D01*
X101683290Y-91061904D02*
X101683290Y-86061904D01*
X101683290Y-86061904D02*
X101207099Y-86776190D01*
X101207099Y-86776190D02*
X100730909Y-87252380D01*
X100730909Y-87252380D02*
X100254718Y-87490476D01*
X105969004Y-88204761D02*
X105492814Y-87966666D01*
X105492814Y-87966666D02*
X105254719Y-87728571D01*
X105254719Y-87728571D02*
X105016623Y-87252380D01*
X105016623Y-87252380D02*
X105016623Y-87014285D01*
X105016623Y-87014285D02*
X105254719Y-86538095D01*
X105254719Y-86538095D02*
X105492814Y-86300000D01*
X105492814Y-86300000D02*
X105969004Y-86061904D01*
X105969004Y-86061904D02*
X106921385Y-86061904D01*
X106921385Y-86061904D02*
X107397576Y-86300000D01*
X107397576Y-86300000D02*
X107635671Y-86538095D01*
X107635671Y-86538095D02*
X107873766Y-87014285D01*
X107873766Y-87014285D02*
X107873766Y-87252380D01*
X107873766Y-87252380D02*
X107635671Y-87728571D01*
X107635671Y-87728571D02*
X107397576Y-87966666D01*
X107397576Y-87966666D02*
X106921385Y-88204761D01*
X106921385Y-88204761D02*
X105969004Y-88204761D01*
X105969004Y-88204761D02*
X105492814Y-88442857D01*
X105492814Y-88442857D02*
X105254719Y-88680952D01*
X105254719Y-88680952D02*
X105016623Y-89157142D01*
X105016623Y-89157142D02*
X105016623Y-90109523D01*
X105016623Y-90109523D02*
X105254719Y-90585714D01*
X105254719Y-90585714D02*
X105492814Y-90823809D01*
X105492814Y-90823809D02*
X105969004Y-91061904D01*
X105969004Y-91061904D02*
X106921385Y-91061904D01*
X106921385Y-91061904D02*
X107397576Y-90823809D01*
X107397576Y-90823809D02*
X107635671Y-90585714D01*
X107635671Y-90585714D02*
X107873766Y-90109523D01*
X107873766Y-90109523D02*
X107873766Y-89157142D01*
X107873766Y-89157142D02*
X107635671Y-88680952D01*
X107635671Y-88680952D02*
X107397576Y-88442857D01*
X107397576Y-88442857D02*
X106921385Y-88204761D01*
X112159481Y-86061904D02*
X111207100Y-86061904D01*
X111207100Y-86061904D02*
X110730909Y-86300000D01*
X110730909Y-86300000D02*
X110492814Y-86538095D01*
X110492814Y-86538095D02*
X110016624Y-87252380D01*
X110016624Y-87252380D02*
X109778528Y-88204761D01*
X109778528Y-88204761D02*
X109778528Y-90109523D01*
X109778528Y-90109523D02*
X110016624Y-90585714D01*
X110016624Y-90585714D02*
X110254719Y-90823809D01*
X110254719Y-90823809D02*
X110730909Y-91061904D01*
X110730909Y-91061904D02*
X111683290Y-91061904D01*
X111683290Y-91061904D02*
X112159481Y-90823809D01*
X112159481Y-90823809D02*
X112397576Y-90585714D01*
X112397576Y-90585714D02*
X112635671Y-90109523D01*
X112635671Y-90109523D02*
X112635671Y-88919047D01*
X112635671Y-88919047D02*
X112397576Y-88442857D01*
X112397576Y-88442857D02*
X112159481Y-88204761D01*
X112159481Y-88204761D02*
X111683290Y-87966666D01*
X111683290Y-87966666D02*
X110730909Y-87966666D01*
X110730909Y-87966666D02*
X110254719Y-88204761D01*
X110254719Y-88204761D02*
X110016624Y-88442857D01*
X110016624Y-88442857D02*
X109778528Y-88919047D01*
X117159481Y-86061904D02*
X114778529Y-86061904D01*
X114778529Y-86061904D02*
X114540433Y-88442857D01*
X114540433Y-88442857D02*
X114778529Y-88204761D01*
X114778529Y-88204761D02*
X115254719Y-87966666D01*
X115254719Y-87966666D02*
X116445195Y-87966666D01*
X116445195Y-87966666D02*
X116921386Y-88204761D01*
X116921386Y-88204761D02*
X117159481Y-88442857D01*
X117159481Y-88442857D02*
X117397576Y-88919047D01*
X117397576Y-88919047D02*
X117397576Y-90109523D01*
X117397576Y-90109523D02*
X117159481Y-90585714D01*
X117159481Y-90585714D02*
X116921386Y-90823809D01*
X116921386Y-90823809D02*
X116445195Y-91061904D01*
X116445195Y-91061904D02*
X115254719Y-91061904D01*
X115254719Y-91061904D02*
X114778529Y-90823809D01*
X114778529Y-90823809D02*
X114540433Y-90585714D01*
X120492815Y-86061904D02*
X120969005Y-86061904D01*
X120969005Y-86061904D02*
X121445196Y-86300000D01*
X121445196Y-86300000D02*
X121683291Y-86538095D01*
X121683291Y-86538095D02*
X121921386Y-87014285D01*
X121921386Y-87014285D02*
X122159481Y-87966666D01*
X122159481Y-87966666D02*
X122159481Y-89157142D01*
X122159481Y-89157142D02*
X121921386Y-90109523D01*
X121921386Y-90109523D02*
X121683291Y-90585714D01*
X121683291Y-90585714D02*
X121445196Y-90823809D01*
X121445196Y-90823809D02*
X120969005Y-91061904D01*
X120969005Y-91061904D02*
X120492815Y-91061904D01*
X120492815Y-91061904D02*
X120016624Y-90823809D01*
X120016624Y-90823809D02*
X119778529Y-90585714D01*
X119778529Y-90585714D02*
X119540434Y-90109523D01*
X119540434Y-90109523D02*
X119302338Y-89157142D01*
X119302338Y-89157142D02*
X119302338Y-87966666D01*
X119302338Y-87966666D02*
X119540434Y-87014285D01*
X119540434Y-87014285D02*
X119778529Y-86538095D01*
X119778529Y-86538095D02*
X120016624Y-86300000D01*
X120016624Y-86300000D02*
X120492815Y-86061904D01*
X84302338Y-89157142D02*
X88111862Y-89157142D01*
X86207100Y-91061904D02*
X86207100Y-87252380D01*
D10*
%TO.C,H2*%
X132445195Y-41617380D02*
X132445195Y-40617380D01*
X132445195Y-41093571D02*
X133016623Y-41093571D01*
X133016623Y-41617380D02*
X133016623Y-40617380D01*
X133445195Y-40712619D02*
X133492814Y-40665000D01*
X133492814Y-40665000D02*
X133588052Y-40617380D01*
X133588052Y-40617380D02*
X133826147Y-40617380D01*
X133826147Y-40617380D02*
X133921385Y-40665000D01*
X133921385Y-40665000D02*
X133969004Y-40712619D01*
X133969004Y-40712619D02*
X134016623Y-40807857D01*
X134016623Y-40807857D02*
X134016623Y-40903095D01*
X134016623Y-40903095D02*
X133969004Y-41045952D01*
X133969004Y-41045952D02*
X133397576Y-41617380D01*
X133397576Y-41617380D02*
X134016623Y-41617380D01*
%TO.C,U4*%
X155245195Y-75522380D02*
X155245195Y-76331904D01*
X155245195Y-76331904D02*
X155292814Y-76427142D01*
X155292814Y-76427142D02*
X155340433Y-76474761D01*
X155340433Y-76474761D02*
X155435671Y-76522380D01*
X155435671Y-76522380D02*
X155626147Y-76522380D01*
X155626147Y-76522380D02*
X155721385Y-76474761D01*
X155721385Y-76474761D02*
X155769004Y-76427142D01*
X155769004Y-76427142D02*
X155816623Y-76331904D01*
X155816623Y-76331904D02*
X155816623Y-75522380D01*
X156721385Y-75855714D02*
X156721385Y-76522380D01*
X156483290Y-75474761D02*
X156245195Y-76189047D01*
X156245195Y-76189047D02*
X156864242Y-76189047D01*
%TO.C,C1*%
X92885870Y-47297428D02*
X92838251Y-47345047D01*
X92838251Y-47345047D02*
X92695394Y-47392666D01*
X92695394Y-47392666D02*
X92600156Y-47392666D01*
X92600156Y-47392666D02*
X92457299Y-47345047D01*
X92457299Y-47345047D02*
X92362061Y-47249809D01*
X92362061Y-47249809D02*
X92314442Y-47154571D01*
X92314442Y-47154571D02*
X92266823Y-46964095D01*
X92266823Y-46964095D02*
X92266823Y-46821238D01*
X92266823Y-46821238D02*
X92314442Y-46630762D01*
X92314442Y-46630762D02*
X92362061Y-46535524D01*
X92362061Y-46535524D02*
X92457299Y-46440286D01*
X92457299Y-46440286D02*
X92600156Y-46392666D01*
X92600156Y-46392666D02*
X92695394Y-46392666D01*
X92695394Y-46392666D02*
X92838251Y-46440286D01*
X92838251Y-46440286D02*
X92885870Y-46487905D01*
X93838251Y-47392666D02*
X93266823Y-47392666D01*
X93552537Y-47392666D02*
X93552537Y-46392666D01*
X93552537Y-46392666D02*
X93457299Y-46535524D01*
X93457299Y-46535524D02*
X93362061Y-46630762D01*
X93362061Y-46630762D02*
X93266823Y-46678381D01*
%TO.C,R25*%
X98646242Y-47005380D02*
X98312909Y-46529190D01*
X98074814Y-47005380D02*
X98074814Y-46005380D01*
X98074814Y-46005380D02*
X98455766Y-46005380D01*
X98455766Y-46005380D02*
X98551004Y-46053000D01*
X98551004Y-46053000D02*
X98598623Y-46100619D01*
X98598623Y-46100619D02*
X98646242Y-46195857D01*
X98646242Y-46195857D02*
X98646242Y-46338714D01*
X98646242Y-46338714D02*
X98598623Y-46433952D01*
X98598623Y-46433952D02*
X98551004Y-46481571D01*
X98551004Y-46481571D02*
X98455766Y-46529190D01*
X98455766Y-46529190D02*
X98074814Y-46529190D01*
X99027195Y-46100619D02*
X99074814Y-46053000D01*
X99074814Y-46053000D02*
X99170052Y-46005380D01*
X99170052Y-46005380D02*
X99408147Y-46005380D01*
X99408147Y-46005380D02*
X99503385Y-46053000D01*
X99503385Y-46053000D02*
X99551004Y-46100619D01*
X99551004Y-46100619D02*
X99598623Y-46195857D01*
X99598623Y-46195857D02*
X99598623Y-46291095D01*
X99598623Y-46291095D02*
X99551004Y-46433952D01*
X99551004Y-46433952D02*
X98979576Y-47005380D01*
X98979576Y-47005380D02*
X99598623Y-47005380D01*
X100503385Y-46005380D02*
X100027195Y-46005380D01*
X100027195Y-46005380D02*
X99979576Y-46481571D01*
X99979576Y-46481571D02*
X100027195Y-46433952D01*
X100027195Y-46433952D02*
X100122433Y-46386333D01*
X100122433Y-46386333D02*
X100360528Y-46386333D01*
X100360528Y-46386333D02*
X100455766Y-46433952D01*
X100455766Y-46433952D02*
X100503385Y-46481571D01*
X100503385Y-46481571D02*
X100551004Y-46576809D01*
X100551004Y-46576809D02*
X100551004Y-46814904D01*
X100551004Y-46814904D02*
X100503385Y-46910142D01*
X100503385Y-46910142D02*
X100455766Y-46957761D01*
X100455766Y-46957761D02*
X100360528Y-47005380D01*
X100360528Y-47005380D02*
X100122433Y-47005380D01*
X100122433Y-47005380D02*
X100027195Y-46957761D01*
X100027195Y-46957761D02*
X99979576Y-46910142D01*
%TO.C,SW4*%
X130873767Y-27319761D02*
X131016624Y-27367380D01*
X131016624Y-27367380D02*
X131254719Y-27367380D01*
X131254719Y-27367380D02*
X131349957Y-27319761D01*
X131349957Y-27319761D02*
X131397576Y-27272142D01*
X131397576Y-27272142D02*
X131445195Y-27176904D01*
X131445195Y-27176904D02*
X131445195Y-27081666D01*
X131445195Y-27081666D02*
X131397576Y-26986428D01*
X131397576Y-26986428D02*
X131349957Y-26938809D01*
X131349957Y-26938809D02*
X131254719Y-26891190D01*
X131254719Y-26891190D02*
X131064243Y-26843571D01*
X131064243Y-26843571D02*
X130969005Y-26795952D01*
X130969005Y-26795952D02*
X130921386Y-26748333D01*
X130921386Y-26748333D02*
X130873767Y-26653095D01*
X130873767Y-26653095D02*
X130873767Y-26557857D01*
X130873767Y-26557857D02*
X130921386Y-26462619D01*
X130921386Y-26462619D02*
X130969005Y-26415000D01*
X130969005Y-26415000D02*
X131064243Y-26367380D01*
X131064243Y-26367380D02*
X131302338Y-26367380D01*
X131302338Y-26367380D02*
X131445195Y-26415000D01*
X131778529Y-26367380D02*
X132016624Y-27367380D01*
X132016624Y-27367380D02*
X132207100Y-26653095D01*
X132207100Y-26653095D02*
X132397576Y-27367380D01*
X132397576Y-27367380D02*
X132635672Y-26367380D01*
X133445195Y-26700714D02*
X133445195Y-27367380D01*
X133207100Y-26319761D02*
X132969005Y-27034047D01*
X132969005Y-27034047D02*
X133588052Y-27034047D01*
%TO.C,R9*%
X157824480Y-67666666D02*
X157348290Y-67999999D01*
X157824480Y-68238094D02*
X156824480Y-68238094D01*
X156824480Y-68238094D02*
X156824480Y-67857142D01*
X156824480Y-67857142D02*
X156872100Y-67761904D01*
X156872100Y-67761904D02*
X156919719Y-67714285D01*
X156919719Y-67714285D02*
X157014957Y-67666666D01*
X157014957Y-67666666D02*
X157157814Y-67666666D01*
X157157814Y-67666666D02*
X157253052Y-67714285D01*
X157253052Y-67714285D02*
X157300671Y-67761904D01*
X157300671Y-67761904D02*
X157348290Y-67857142D01*
X157348290Y-67857142D02*
X157348290Y-68238094D01*
X157824480Y-67190475D02*
X157824480Y-66999999D01*
X157824480Y-66999999D02*
X157776861Y-66904761D01*
X157776861Y-66904761D02*
X157729242Y-66857142D01*
X157729242Y-66857142D02*
X157586385Y-66761904D01*
X157586385Y-66761904D02*
X157395909Y-66714285D01*
X157395909Y-66714285D02*
X157014957Y-66714285D01*
X157014957Y-66714285D02*
X156919719Y-66761904D01*
X156919719Y-66761904D02*
X156872100Y-66809523D01*
X156872100Y-66809523D02*
X156824480Y-66904761D01*
X156824480Y-66904761D02*
X156824480Y-67095237D01*
X156824480Y-67095237D02*
X156872100Y-67190475D01*
X156872100Y-67190475D02*
X156919719Y-67238094D01*
X156919719Y-67238094D02*
X157014957Y-67285713D01*
X157014957Y-67285713D02*
X157253052Y-67285713D01*
X157253052Y-67285713D02*
X157348290Y-67238094D01*
X157348290Y-67238094D02*
X157395909Y-67190475D01*
X157395909Y-67190475D02*
X157443528Y-67095237D01*
X157443528Y-67095237D02*
X157443528Y-66904761D01*
X157443528Y-66904761D02*
X157395909Y-66809523D01*
X157395909Y-66809523D02*
X157348290Y-66761904D01*
X157348290Y-66761904D02*
X157253052Y-66714285D01*
%TO.C,R2*%
X97574480Y-42664666D02*
X97098290Y-42997999D01*
X97574480Y-43236094D02*
X96574480Y-43236094D01*
X96574480Y-43236094D02*
X96574480Y-42855142D01*
X96574480Y-42855142D02*
X96622100Y-42759904D01*
X96622100Y-42759904D02*
X96669719Y-42712285D01*
X96669719Y-42712285D02*
X96764957Y-42664666D01*
X96764957Y-42664666D02*
X96907814Y-42664666D01*
X96907814Y-42664666D02*
X97003052Y-42712285D01*
X97003052Y-42712285D02*
X97050671Y-42759904D01*
X97050671Y-42759904D02*
X97098290Y-42855142D01*
X97098290Y-42855142D02*
X97098290Y-43236094D01*
X96669719Y-42283713D02*
X96622100Y-42236094D01*
X96622100Y-42236094D02*
X96574480Y-42140856D01*
X96574480Y-42140856D02*
X96574480Y-41902761D01*
X96574480Y-41902761D02*
X96622100Y-41807523D01*
X96622100Y-41807523D02*
X96669719Y-41759904D01*
X96669719Y-41759904D02*
X96764957Y-41712285D01*
X96764957Y-41712285D02*
X96860195Y-41712285D01*
X96860195Y-41712285D02*
X97003052Y-41759904D01*
X97003052Y-41759904D02*
X97574480Y-42331332D01*
X97574480Y-42331332D02*
X97574480Y-41712285D01*
%TO.C,R8*%
X140574480Y-50416666D02*
X140098290Y-50749999D01*
X140574480Y-50988094D02*
X139574480Y-50988094D01*
X139574480Y-50988094D02*
X139574480Y-50607142D01*
X139574480Y-50607142D02*
X139622100Y-50511904D01*
X139622100Y-50511904D02*
X139669719Y-50464285D01*
X139669719Y-50464285D02*
X139764957Y-50416666D01*
X139764957Y-50416666D02*
X139907814Y-50416666D01*
X139907814Y-50416666D02*
X140003052Y-50464285D01*
X140003052Y-50464285D02*
X140050671Y-50511904D01*
X140050671Y-50511904D02*
X140098290Y-50607142D01*
X140098290Y-50607142D02*
X140098290Y-50988094D01*
X140003052Y-49845237D02*
X139955433Y-49940475D01*
X139955433Y-49940475D02*
X139907814Y-49988094D01*
X139907814Y-49988094D02*
X139812576Y-50035713D01*
X139812576Y-50035713D02*
X139764957Y-50035713D01*
X139764957Y-50035713D02*
X139669719Y-49988094D01*
X139669719Y-49988094D02*
X139622100Y-49940475D01*
X139622100Y-49940475D02*
X139574480Y-49845237D01*
X139574480Y-49845237D02*
X139574480Y-49654761D01*
X139574480Y-49654761D02*
X139622100Y-49559523D01*
X139622100Y-49559523D02*
X139669719Y-49511904D01*
X139669719Y-49511904D02*
X139764957Y-49464285D01*
X139764957Y-49464285D02*
X139812576Y-49464285D01*
X139812576Y-49464285D02*
X139907814Y-49511904D01*
X139907814Y-49511904D02*
X139955433Y-49559523D01*
X139955433Y-49559523D02*
X140003052Y-49654761D01*
X140003052Y-49654761D02*
X140003052Y-49845237D01*
X140003052Y-49845237D02*
X140050671Y-49940475D01*
X140050671Y-49940475D02*
X140098290Y-49988094D01*
X140098290Y-49988094D02*
X140193528Y-50035713D01*
X140193528Y-50035713D02*
X140384004Y-50035713D01*
X140384004Y-50035713D02*
X140479242Y-49988094D01*
X140479242Y-49988094D02*
X140526861Y-49940475D01*
X140526861Y-49940475D02*
X140574480Y-49845237D01*
X140574480Y-49845237D02*
X140574480Y-49654761D01*
X140574480Y-49654761D02*
X140526861Y-49559523D01*
X140526861Y-49559523D02*
X140479242Y-49511904D01*
X140479242Y-49511904D02*
X140384004Y-49464285D01*
X140384004Y-49464285D02*
X140193528Y-49464285D01*
X140193528Y-49464285D02*
X140098290Y-49511904D01*
X140098290Y-49511904D02*
X140050671Y-49559523D01*
X140050671Y-49559523D02*
X140003052Y-49654761D01*
%TO.C,Q2*%
X128161861Y-75212619D02*
X128066623Y-75165000D01*
X128066623Y-75165000D02*
X127971385Y-75069761D01*
X127971385Y-75069761D02*
X127828528Y-74926904D01*
X127828528Y-74926904D02*
X127733290Y-74879285D01*
X127733290Y-74879285D02*
X127638052Y-74879285D01*
X127685671Y-75117380D02*
X127590433Y-75069761D01*
X127590433Y-75069761D02*
X127495195Y-74974523D01*
X127495195Y-74974523D02*
X127447576Y-74784047D01*
X127447576Y-74784047D02*
X127447576Y-74450714D01*
X127447576Y-74450714D02*
X127495195Y-74260238D01*
X127495195Y-74260238D02*
X127590433Y-74165000D01*
X127590433Y-74165000D02*
X127685671Y-74117380D01*
X127685671Y-74117380D02*
X127876147Y-74117380D01*
X127876147Y-74117380D02*
X127971385Y-74165000D01*
X127971385Y-74165000D02*
X128066623Y-74260238D01*
X128066623Y-74260238D02*
X128114242Y-74450714D01*
X128114242Y-74450714D02*
X128114242Y-74784047D01*
X128114242Y-74784047D02*
X128066623Y-74974523D01*
X128066623Y-74974523D02*
X127971385Y-75069761D01*
X127971385Y-75069761D02*
X127876147Y-75117380D01*
X127876147Y-75117380D02*
X127685671Y-75117380D01*
X128495195Y-74212619D02*
X128542814Y-74165000D01*
X128542814Y-74165000D02*
X128638052Y-74117380D01*
X128638052Y-74117380D02*
X128876147Y-74117380D01*
X128876147Y-74117380D02*
X128971385Y-74165000D01*
X128971385Y-74165000D02*
X129019004Y-74212619D01*
X129019004Y-74212619D02*
X129066623Y-74307857D01*
X129066623Y-74307857D02*
X129066623Y-74403095D01*
X129066623Y-74403095D02*
X129019004Y-74545952D01*
X129019004Y-74545952D02*
X128447576Y-75117380D01*
X128447576Y-75117380D02*
X129066623Y-75117380D01*
%TO.C,C9*%
X107577933Y-74772142D02*
X107530314Y-74819761D01*
X107530314Y-74819761D02*
X107387457Y-74867380D01*
X107387457Y-74867380D02*
X107292219Y-74867380D01*
X107292219Y-74867380D02*
X107149362Y-74819761D01*
X107149362Y-74819761D02*
X107054124Y-74724523D01*
X107054124Y-74724523D02*
X107006505Y-74629285D01*
X107006505Y-74629285D02*
X106958886Y-74438809D01*
X106958886Y-74438809D02*
X106958886Y-74295952D01*
X106958886Y-74295952D02*
X107006505Y-74105476D01*
X107006505Y-74105476D02*
X107054124Y-74010238D01*
X107054124Y-74010238D02*
X107149362Y-73915000D01*
X107149362Y-73915000D02*
X107292219Y-73867380D01*
X107292219Y-73867380D02*
X107387457Y-73867380D01*
X107387457Y-73867380D02*
X107530314Y-73915000D01*
X107530314Y-73915000D02*
X107577933Y-73962619D01*
X108054124Y-74867380D02*
X108244600Y-74867380D01*
X108244600Y-74867380D02*
X108339838Y-74819761D01*
X108339838Y-74819761D02*
X108387457Y-74772142D01*
X108387457Y-74772142D02*
X108482695Y-74629285D01*
X108482695Y-74629285D02*
X108530314Y-74438809D01*
X108530314Y-74438809D02*
X108530314Y-74057857D01*
X108530314Y-74057857D02*
X108482695Y-73962619D01*
X108482695Y-73962619D02*
X108435076Y-73915000D01*
X108435076Y-73915000D02*
X108339838Y-73867380D01*
X108339838Y-73867380D02*
X108149362Y-73867380D01*
X108149362Y-73867380D02*
X108054124Y-73915000D01*
X108054124Y-73915000D02*
X108006505Y-73962619D01*
X108006505Y-73962619D02*
X107958886Y-74057857D01*
X107958886Y-74057857D02*
X107958886Y-74295952D01*
X107958886Y-74295952D02*
X108006505Y-74391190D01*
X108006505Y-74391190D02*
X108054124Y-74438809D01*
X108054124Y-74438809D02*
X108149362Y-74486428D01*
X108149362Y-74486428D02*
X108339838Y-74486428D01*
X108339838Y-74486428D02*
X108435076Y-74438809D01*
X108435076Y-74438809D02*
X108482695Y-74391190D01*
X108482695Y-74391190D02*
X108530314Y-74295952D01*
%TO.C,R14*%
X159574480Y-43642857D02*
X159098290Y-43976190D01*
X159574480Y-44214285D02*
X158574480Y-44214285D01*
X158574480Y-44214285D02*
X158574480Y-43833333D01*
X158574480Y-43833333D02*
X158622100Y-43738095D01*
X158622100Y-43738095D02*
X158669719Y-43690476D01*
X158669719Y-43690476D02*
X158764957Y-43642857D01*
X158764957Y-43642857D02*
X158907814Y-43642857D01*
X158907814Y-43642857D02*
X159003052Y-43690476D01*
X159003052Y-43690476D02*
X159050671Y-43738095D01*
X159050671Y-43738095D02*
X159098290Y-43833333D01*
X159098290Y-43833333D02*
X159098290Y-44214285D01*
X159574480Y-42690476D02*
X159574480Y-43261904D01*
X159574480Y-42976190D02*
X158574480Y-42976190D01*
X158574480Y-42976190D02*
X158717338Y-43071428D01*
X158717338Y-43071428D02*
X158812576Y-43166666D01*
X158812576Y-43166666D02*
X158860195Y-43261904D01*
X158907814Y-41833333D02*
X159574480Y-41833333D01*
X158526861Y-42071428D02*
X159241147Y-42309523D01*
X159241147Y-42309523D02*
X159241147Y-41690476D01*
%TO.C,R6*%
X142824480Y-39666666D02*
X142348290Y-39999999D01*
X142824480Y-40238094D02*
X141824480Y-40238094D01*
X141824480Y-40238094D02*
X141824480Y-39857142D01*
X141824480Y-39857142D02*
X141872100Y-39761904D01*
X141872100Y-39761904D02*
X141919719Y-39714285D01*
X141919719Y-39714285D02*
X142014957Y-39666666D01*
X142014957Y-39666666D02*
X142157814Y-39666666D01*
X142157814Y-39666666D02*
X142253052Y-39714285D01*
X142253052Y-39714285D02*
X142300671Y-39761904D01*
X142300671Y-39761904D02*
X142348290Y-39857142D01*
X142348290Y-39857142D02*
X142348290Y-40238094D01*
X141824480Y-38809523D02*
X141824480Y-38999999D01*
X141824480Y-38999999D02*
X141872100Y-39095237D01*
X141872100Y-39095237D02*
X141919719Y-39142856D01*
X141919719Y-39142856D02*
X142062576Y-39238094D01*
X142062576Y-39238094D02*
X142253052Y-39285713D01*
X142253052Y-39285713D02*
X142634004Y-39285713D01*
X142634004Y-39285713D02*
X142729242Y-39238094D01*
X142729242Y-39238094D02*
X142776861Y-39190475D01*
X142776861Y-39190475D02*
X142824480Y-39095237D01*
X142824480Y-39095237D02*
X142824480Y-38904761D01*
X142824480Y-38904761D02*
X142776861Y-38809523D01*
X142776861Y-38809523D02*
X142729242Y-38761904D01*
X142729242Y-38761904D02*
X142634004Y-38714285D01*
X142634004Y-38714285D02*
X142395909Y-38714285D01*
X142395909Y-38714285D02*
X142300671Y-38761904D01*
X142300671Y-38761904D02*
X142253052Y-38809523D01*
X142253052Y-38809523D02*
X142205433Y-38904761D01*
X142205433Y-38904761D02*
X142205433Y-39095237D01*
X142205433Y-39095237D02*
X142253052Y-39190475D01*
X142253052Y-39190475D02*
X142300671Y-39238094D01*
X142300671Y-39238094D02*
X142395909Y-39285713D01*
%TO.C,R7*%
X160790433Y-60617380D02*
X160457100Y-60141190D01*
X160219005Y-60617380D02*
X160219005Y-59617380D01*
X160219005Y-59617380D02*
X160599957Y-59617380D01*
X160599957Y-59617380D02*
X160695195Y-59665000D01*
X160695195Y-59665000D02*
X160742814Y-59712619D01*
X160742814Y-59712619D02*
X160790433Y-59807857D01*
X160790433Y-59807857D02*
X160790433Y-59950714D01*
X160790433Y-59950714D02*
X160742814Y-60045952D01*
X160742814Y-60045952D02*
X160695195Y-60093571D01*
X160695195Y-60093571D02*
X160599957Y-60141190D01*
X160599957Y-60141190D02*
X160219005Y-60141190D01*
X161123767Y-59617380D02*
X161790433Y-59617380D01*
X161790433Y-59617380D02*
X161361862Y-60617380D01*
%TO.C,C3*%
X88479242Y-73916666D02*
X88526861Y-73964285D01*
X88526861Y-73964285D02*
X88574480Y-74107142D01*
X88574480Y-74107142D02*
X88574480Y-74202380D01*
X88574480Y-74202380D02*
X88526861Y-74345237D01*
X88526861Y-74345237D02*
X88431623Y-74440475D01*
X88431623Y-74440475D02*
X88336385Y-74488094D01*
X88336385Y-74488094D02*
X88145909Y-74535713D01*
X88145909Y-74535713D02*
X88003052Y-74535713D01*
X88003052Y-74535713D02*
X87812576Y-74488094D01*
X87812576Y-74488094D02*
X87717338Y-74440475D01*
X87717338Y-74440475D02*
X87622100Y-74345237D01*
X87622100Y-74345237D02*
X87574480Y-74202380D01*
X87574480Y-74202380D02*
X87574480Y-74107142D01*
X87574480Y-74107142D02*
X87622100Y-73964285D01*
X87622100Y-73964285D02*
X87669719Y-73916666D01*
X87574480Y-73583332D02*
X87574480Y-72964285D01*
X87574480Y-72964285D02*
X87955433Y-73297618D01*
X87955433Y-73297618D02*
X87955433Y-73154761D01*
X87955433Y-73154761D02*
X88003052Y-73059523D01*
X88003052Y-73059523D02*
X88050671Y-73011904D01*
X88050671Y-73011904D02*
X88145909Y-72964285D01*
X88145909Y-72964285D02*
X88384004Y-72964285D01*
X88384004Y-72964285D02*
X88479242Y-73011904D01*
X88479242Y-73011904D02*
X88526861Y-73059523D01*
X88526861Y-73059523D02*
X88574480Y-73154761D01*
X88574480Y-73154761D02*
X88574480Y-73440475D01*
X88574480Y-73440475D02*
X88526861Y-73535713D01*
X88526861Y-73535713D02*
X88479242Y-73583332D01*
%TO.C,R12*%
X138824480Y-51392857D02*
X138348290Y-51726190D01*
X138824480Y-51964285D02*
X137824480Y-51964285D01*
X137824480Y-51964285D02*
X137824480Y-51583333D01*
X137824480Y-51583333D02*
X137872100Y-51488095D01*
X137872100Y-51488095D02*
X137919719Y-51440476D01*
X137919719Y-51440476D02*
X138014957Y-51392857D01*
X138014957Y-51392857D02*
X138157814Y-51392857D01*
X138157814Y-51392857D02*
X138253052Y-51440476D01*
X138253052Y-51440476D02*
X138300671Y-51488095D01*
X138300671Y-51488095D02*
X138348290Y-51583333D01*
X138348290Y-51583333D02*
X138348290Y-51964285D01*
X138824480Y-50440476D02*
X138824480Y-51011904D01*
X138824480Y-50726190D02*
X137824480Y-50726190D01*
X137824480Y-50726190D02*
X137967338Y-50821428D01*
X137967338Y-50821428D02*
X138062576Y-50916666D01*
X138062576Y-50916666D02*
X138110195Y-51011904D01*
X137919719Y-50059523D02*
X137872100Y-50011904D01*
X137872100Y-50011904D02*
X137824480Y-49916666D01*
X137824480Y-49916666D02*
X137824480Y-49678571D01*
X137824480Y-49678571D02*
X137872100Y-49583333D01*
X137872100Y-49583333D02*
X137919719Y-49535714D01*
X137919719Y-49535714D02*
X138014957Y-49488095D01*
X138014957Y-49488095D02*
X138110195Y-49488095D01*
X138110195Y-49488095D02*
X138253052Y-49535714D01*
X138253052Y-49535714D02*
X138824480Y-50107142D01*
X138824480Y-50107142D02*
X138824480Y-49488095D01*
%TO.C,R30*%
X107102068Y-53689718D02*
X106625878Y-54023051D01*
X107102068Y-54261146D02*
X106102068Y-54261146D01*
X106102068Y-54261146D02*
X106102068Y-53880194D01*
X106102068Y-53880194D02*
X106149688Y-53784956D01*
X106149688Y-53784956D02*
X106197307Y-53737337D01*
X106197307Y-53737337D02*
X106292545Y-53689718D01*
X106292545Y-53689718D02*
X106435402Y-53689718D01*
X106435402Y-53689718D02*
X106530640Y-53737337D01*
X106530640Y-53737337D02*
X106578259Y-53784956D01*
X106578259Y-53784956D02*
X106625878Y-53880194D01*
X106625878Y-53880194D02*
X106625878Y-54261146D01*
X106102068Y-53356384D02*
X106102068Y-52737337D01*
X106102068Y-52737337D02*
X106483021Y-53070670D01*
X106483021Y-53070670D02*
X106483021Y-52927813D01*
X106483021Y-52927813D02*
X106530640Y-52832575D01*
X106530640Y-52832575D02*
X106578259Y-52784956D01*
X106578259Y-52784956D02*
X106673497Y-52737337D01*
X106673497Y-52737337D02*
X106911592Y-52737337D01*
X106911592Y-52737337D02*
X107006830Y-52784956D01*
X107006830Y-52784956D02*
X107054449Y-52832575D01*
X107054449Y-52832575D02*
X107102068Y-52927813D01*
X107102068Y-52927813D02*
X107102068Y-53213527D01*
X107102068Y-53213527D02*
X107054449Y-53308765D01*
X107054449Y-53308765D02*
X107006830Y-53356384D01*
X106102068Y-52118289D02*
X106102068Y-52023051D01*
X106102068Y-52023051D02*
X106149688Y-51927813D01*
X106149688Y-51927813D02*
X106197307Y-51880194D01*
X106197307Y-51880194D02*
X106292545Y-51832575D01*
X106292545Y-51832575D02*
X106483021Y-51784956D01*
X106483021Y-51784956D02*
X106721116Y-51784956D01*
X106721116Y-51784956D02*
X106911592Y-51832575D01*
X106911592Y-51832575D02*
X107006830Y-51880194D01*
X107006830Y-51880194D02*
X107054449Y-51927813D01*
X107054449Y-51927813D02*
X107102068Y-52023051D01*
X107102068Y-52023051D02*
X107102068Y-52118289D01*
X107102068Y-52118289D02*
X107054449Y-52213527D01*
X107054449Y-52213527D02*
X107006830Y-52261146D01*
X107006830Y-52261146D02*
X106911592Y-52308765D01*
X106911592Y-52308765D02*
X106721116Y-52356384D01*
X106721116Y-52356384D02*
X106483021Y-52356384D01*
X106483021Y-52356384D02*
X106292545Y-52308765D01*
X106292545Y-52308765D02*
X106197307Y-52261146D01*
X106197307Y-52261146D02*
X106149688Y-52213527D01*
X106149688Y-52213527D02*
X106102068Y-52118289D01*
%TO.C,C12*%
X138479242Y-39642857D02*
X138526861Y-39690476D01*
X138526861Y-39690476D02*
X138574480Y-39833333D01*
X138574480Y-39833333D02*
X138574480Y-39928571D01*
X138574480Y-39928571D02*
X138526861Y-40071428D01*
X138526861Y-40071428D02*
X138431623Y-40166666D01*
X138431623Y-40166666D02*
X138336385Y-40214285D01*
X138336385Y-40214285D02*
X138145909Y-40261904D01*
X138145909Y-40261904D02*
X138003052Y-40261904D01*
X138003052Y-40261904D02*
X137812576Y-40214285D01*
X137812576Y-40214285D02*
X137717338Y-40166666D01*
X137717338Y-40166666D02*
X137622100Y-40071428D01*
X137622100Y-40071428D02*
X137574480Y-39928571D01*
X137574480Y-39928571D02*
X137574480Y-39833333D01*
X137574480Y-39833333D02*
X137622100Y-39690476D01*
X137622100Y-39690476D02*
X137669719Y-39642857D01*
X138574480Y-38690476D02*
X138574480Y-39261904D01*
X138574480Y-38976190D02*
X137574480Y-38976190D01*
X137574480Y-38976190D02*
X137717338Y-39071428D01*
X137717338Y-39071428D02*
X137812576Y-39166666D01*
X137812576Y-39166666D02*
X137860195Y-39261904D01*
X137669719Y-38309523D02*
X137622100Y-38261904D01*
X137622100Y-38261904D02*
X137574480Y-38166666D01*
X137574480Y-38166666D02*
X137574480Y-37928571D01*
X137574480Y-37928571D02*
X137622100Y-37833333D01*
X137622100Y-37833333D02*
X137669719Y-37785714D01*
X137669719Y-37785714D02*
X137764957Y-37738095D01*
X137764957Y-37738095D02*
X137860195Y-37738095D01*
X137860195Y-37738095D02*
X138003052Y-37785714D01*
X138003052Y-37785714D02*
X138574480Y-38357142D01*
X138574480Y-38357142D02*
X138574480Y-37738095D01*
%TO.C,SW7*%
X157873767Y-26319761D02*
X158016624Y-26367380D01*
X158016624Y-26367380D02*
X158254719Y-26367380D01*
X158254719Y-26367380D02*
X158349957Y-26319761D01*
X158349957Y-26319761D02*
X158397576Y-26272142D01*
X158397576Y-26272142D02*
X158445195Y-26176904D01*
X158445195Y-26176904D02*
X158445195Y-26081666D01*
X158445195Y-26081666D02*
X158397576Y-25986428D01*
X158397576Y-25986428D02*
X158349957Y-25938809D01*
X158349957Y-25938809D02*
X158254719Y-25891190D01*
X158254719Y-25891190D02*
X158064243Y-25843571D01*
X158064243Y-25843571D02*
X157969005Y-25795952D01*
X157969005Y-25795952D02*
X157921386Y-25748333D01*
X157921386Y-25748333D02*
X157873767Y-25653095D01*
X157873767Y-25653095D02*
X157873767Y-25557857D01*
X157873767Y-25557857D02*
X157921386Y-25462619D01*
X157921386Y-25462619D02*
X157969005Y-25415000D01*
X157969005Y-25415000D02*
X158064243Y-25367380D01*
X158064243Y-25367380D02*
X158302338Y-25367380D01*
X158302338Y-25367380D02*
X158445195Y-25415000D01*
X158778529Y-25367380D02*
X159016624Y-26367380D01*
X159016624Y-26367380D02*
X159207100Y-25653095D01*
X159207100Y-25653095D02*
X159397576Y-26367380D01*
X159397576Y-26367380D02*
X159635672Y-25367380D01*
X159921386Y-25367380D02*
X160588052Y-25367380D01*
X160588052Y-25367380D02*
X160159481Y-26367380D01*
%TO.C,Y1*%
X97480909Y-76391190D02*
X97480909Y-76867380D01*
X97147576Y-75867380D02*
X97480909Y-76391190D01*
X97480909Y-76391190D02*
X97814242Y-75867380D01*
X98671385Y-76867380D02*
X98099957Y-76867380D01*
X98385671Y-76867380D02*
X98385671Y-75867380D01*
X98385671Y-75867380D02*
X98290433Y-76010238D01*
X98290433Y-76010238D02*
X98195195Y-76105476D01*
X98195195Y-76105476D02*
X98099957Y-76153095D01*
%TO.C,C4*%
X100229242Y-73166666D02*
X100276861Y-73214285D01*
X100276861Y-73214285D02*
X100324480Y-73357142D01*
X100324480Y-73357142D02*
X100324480Y-73452380D01*
X100324480Y-73452380D02*
X100276861Y-73595237D01*
X100276861Y-73595237D02*
X100181623Y-73690475D01*
X100181623Y-73690475D02*
X100086385Y-73738094D01*
X100086385Y-73738094D02*
X99895909Y-73785713D01*
X99895909Y-73785713D02*
X99753052Y-73785713D01*
X99753052Y-73785713D02*
X99562576Y-73738094D01*
X99562576Y-73738094D02*
X99467338Y-73690475D01*
X99467338Y-73690475D02*
X99372100Y-73595237D01*
X99372100Y-73595237D02*
X99324480Y-73452380D01*
X99324480Y-73452380D02*
X99324480Y-73357142D01*
X99324480Y-73357142D02*
X99372100Y-73214285D01*
X99372100Y-73214285D02*
X99419719Y-73166666D01*
X99657814Y-72309523D02*
X100324480Y-72309523D01*
X99276861Y-72547618D02*
X99991147Y-72785713D01*
X99991147Y-72785713D02*
X99991147Y-72166666D01*
%TO.C,Q3*%
X87411861Y-40212619D02*
X87316623Y-40165000D01*
X87316623Y-40165000D02*
X87221385Y-40069761D01*
X87221385Y-40069761D02*
X87078528Y-39926904D01*
X87078528Y-39926904D02*
X86983290Y-39879285D01*
X86983290Y-39879285D02*
X86888052Y-39879285D01*
X86935671Y-40117380D02*
X86840433Y-40069761D01*
X86840433Y-40069761D02*
X86745195Y-39974523D01*
X86745195Y-39974523D02*
X86697576Y-39784047D01*
X86697576Y-39784047D02*
X86697576Y-39450714D01*
X86697576Y-39450714D02*
X86745195Y-39260238D01*
X86745195Y-39260238D02*
X86840433Y-39165000D01*
X86840433Y-39165000D02*
X86935671Y-39117380D01*
X86935671Y-39117380D02*
X87126147Y-39117380D01*
X87126147Y-39117380D02*
X87221385Y-39165000D01*
X87221385Y-39165000D02*
X87316623Y-39260238D01*
X87316623Y-39260238D02*
X87364242Y-39450714D01*
X87364242Y-39450714D02*
X87364242Y-39784047D01*
X87364242Y-39784047D02*
X87316623Y-39974523D01*
X87316623Y-39974523D02*
X87221385Y-40069761D01*
X87221385Y-40069761D02*
X87126147Y-40117380D01*
X87126147Y-40117380D02*
X86935671Y-40117380D01*
X87697576Y-39117380D02*
X88316623Y-39117380D01*
X88316623Y-39117380D02*
X87983290Y-39498333D01*
X87983290Y-39498333D02*
X88126147Y-39498333D01*
X88126147Y-39498333D02*
X88221385Y-39545952D01*
X88221385Y-39545952D02*
X88269004Y-39593571D01*
X88269004Y-39593571D02*
X88316623Y-39688809D01*
X88316623Y-39688809D02*
X88316623Y-39926904D01*
X88316623Y-39926904D02*
X88269004Y-40022142D01*
X88269004Y-40022142D02*
X88221385Y-40069761D01*
X88221385Y-40069761D02*
X88126147Y-40117380D01*
X88126147Y-40117380D02*
X87840433Y-40117380D01*
X87840433Y-40117380D02*
X87745195Y-40069761D01*
X87745195Y-40069761D02*
X87697576Y-40022142D01*
%TO.C,R10*%
X141564242Y-50617380D02*
X141230909Y-50141190D01*
X140992814Y-50617380D02*
X140992814Y-49617380D01*
X140992814Y-49617380D02*
X141373766Y-49617380D01*
X141373766Y-49617380D02*
X141469004Y-49665000D01*
X141469004Y-49665000D02*
X141516623Y-49712619D01*
X141516623Y-49712619D02*
X141564242Y-49807857D01*
X141564242Y-49807857D02*
X141564242Y-49950714D01*
X141564242Y-49950714D02*
X141516623Y-50045952D01*
X141516623Y-50045952D02*
X141469004Y-50093571D01*
X141469004Y-50093571D02*
X141373766Y-50141190D01*
X141373766Y-50141190D02*
X140992814Y-50141190D01*
X142516623Y-50617380D02*
X141945195Y-50617380D01*
X142230909Y-50617380D02*
X142230909Y-49617380D01*
X142230909Y-49617380D02*
X142135671Y-49760238D01*
X142135671Y-49760238D02*
X142040433Y-49855476D01*
X142040433Y-49855476D02*
X141945195Y-49903095D01*
X143135671Y-49617380D02*
X143230909Y-49617380D01*
X143230909Y-49617380D02*
X143326147Y-49665000D01*
X143326147Y-49665000D02*
X143373766Y-49712619D01*
X143373766Y-49712619D02*
X143421385Y-49807857D01*
X143421385Y-49807857D02*
X143469004Y-49998333D01*
X143469004Y-49998333D02*
X143469004Y-50236428D01*
X143469004Y-50236428D02*
X143421385Y-50426904D01*
X143421385Y-50426904D02*
X143373766Y-50522142D01*
X143373766Y-50522142D02*
X143326147Y-50569761D01*
X143326147Y-50569761D02*
X143230909Y-50617380D01*
X143230909Y-50617380D02*
X143135671Y-50617380D01*
X143135671Y-50617380D02*
X143040433Y-50569761D01*
X143040433Y-50569761D02*
X142992814Y-50522142D01*
X142992814Y-50522142D02*
X142945195Y-50426904D01*
X142945195Y-50426904D02*
X142897576Y-50236428D01*
X142897576Y-50236428D02*
X142897576Y-49998333D01*
X142897576Y-49998333D02*
X142945195Y-49807857D01*
X142945195Y-49807857D02*
X142992814Y-49712619D01*
X142992814Y-49712619D02*
X143040433Y-49665000D01*
X143040433Y-49665000D02*
X143135671Y-49617380D01*
%TO.C,BZ1*%
X146723560Y-75762315D02*
X146858247Y-75694972D01*
X146858247Y-75694972D02*
X146925591Y-75694972D01*
X146925591Y-75694972D02*
X147026606Y-75728643D01*
X147026606Y-75728643D02*
X147127621Y-75829659D01*
X147127621Y-75829659D02*
X147161293Y-75930674D01*
X147161293Y-75930674D02*
X147161293Y-75998017D01*
X147161293Y-75998017D02*
X147127621Y-76099033D01*
X147127621Y-76099033D02*
X146858247Y-76368407D01*
X146858247Y-76368407D02*
X146151141Y-75661300D01*
X146151141Y-75661300D02*
X146386843Y-75425598D01*
X146386843Y-75425598D02*
X146487858Y-75391926D01*
X146487858Y-75391926D02*
X146555202Y-75391926D01*
X146555202Y-75391926D02*
X146656217Y-75425598D01*
X146656217Y-75425598D02*
X146723560Y-75492941D01*
X146723560Y-75492941D02*
X146757232Y-75593956D01*
X146757232Y-75593956D02*
X146757232Y-75661300D01*
X146757232Y-75661300D02*
X146723560Y-75762315D01*
X146723560Y-75762315D02*
X146487858Y-75998017D01*
X146790904Y-75021537D02*
X147262308Y-74550132D01*
X147262308Y-74550132D02*
X147498011Y-75728643D01*
X147498011Y-75728643D02*
X147969415Y-75257239D01*
X148609178Y-74617476D02*
X148205117Y-75021537D01*
X148407148Y-74819506D02*
X147700041Y-74112399D01*
X147700041Y-74112399D02*
X147733713Y-74280758D01*
X147733713Y-74280758D02*
X147733713Y-74415445D01*
X147733713Y-74415445D02*
X147700041Y-74516460D01*
X146526148Y-71436428D02*
X147288053Y-71436428D01*
X146907100Y-71817380D02*
X146907100Y-71055476D01*
%TO.C,R4*%
X144824480Y-39666666D02*
X144348290Y-39999999D01*
X144824480Y-40238094D02*
X143824480Y-40238094D01*
X143824480Y-40238094D02*
X143824480Y-39857142D01*
X143824480Y-39857142D02*
X143872100Y-39761904D01*
X143872100Y-39761904D02*
X143919719Y-39714285D01*
X143919719Y-39714285D02*
X144014957Y-39666666D01*
X144014957Y-39666666D02*
X144157814Y-39666666D01*
X144157814Y-39666666D02*
X144253052Y-39714285D01*
X144253052Y-39714285D02*
X144300671Y-39761904D01*
X144300671Y-39761904D02*
X144348290Y-39857142D01*
X144348290Y-39857142D02*
X144348290Y-40238094D01*
X144157814Y-38809523D02*
X144824480Y-38809523D01*
X143776861Y-39047618D02*
X144491147Y-39285713D01*
X144491147Y-39285713D02*
X144491147Y-38666666D01*
%TO.C,C14*%
X157729242Y-63142857D02*
X157776861Y-63190476D01*
X157776861Y-63190476D02*
X157824480Y-63333333D01*
X157824480Y-63333333D02*
X157824480Y-63428571D01*
X157824480Y-63428571D02*
X157776861Y-63571428D01*
X157776861Y-63571428D02*
X157681623Y-63666666D01*
X157681623Y-63666666D02*
X157586385Y-63714285D01*
X157586385Y-63714285D02*
X157395909Y-63761904D01*
X157395909Y-63761904D02*
X157253052Y-63761904D01*
X157253052Y-63761904D02*
X157062576Y-63714285D01*
X157062576Y-63714285D02*
X156967338Y-63666666D01*
X156967338Y-63666666D02*
X156872100Y-63571428D01*
X156872100Y-63571428D02*
X156824480Y-63428571D01*
X156824480Y-63428571D02*
X156824480Y-63333333D01*
X156824480Y-63333333D02*
X156872100Y-63190476D01*
X156872100Y-63190476D02*
X156919719Y-63142857D01*
X157824480Y-62190476D02*
X157824480Y-62761904D01*
X157824480Y-62476190D02*
X156824480Y-62476190D01*
X156824480Y-62476190D02*
X156967338Y-62571428D01*
X156967338Y-62571428D02*
X157062576Y-62666666D01*
X157062576Y-62666666D02*
X157110195Y-62761904D01*
X157157814Y-61333333D02*
X157824480Y-61333333D01*
X156776861Y-61571428D02*
X157491147Y-61809523D01*
X157491147Y-61809523D02*
X157491147Y-61190476D01*
%TO.C,C5*%
X85360585Y-62883991D02*
X85408204Y-62931610D01*
X85408204Y-62931610D02*
X85455823Y-63074467D01*
X85455823Y-63074467D02*
X85455823Y-63169705D01*
X85455823Y-63169705D02*
X85408204Y-63312562D01*
X85408204Y-63312562D02*
X85312966Y-63407800D01*
X85312966Y-63407800D02*
X85217728Y-63455419D01*
X85217728Y-63455419D02*
X85027252Y-63503038D01*
X85027252Y-63503038D02*
X84884395Y-63503038D01*
X84884395Y-63503038D02*
X84693919Y-63455419D01*
X84693919Y-63455419D02*
X84598681Y-63407800D01*
X84598681Y-63407800D02*
X84503443Y-63312562D01*
X84503443Y-63312562D02*
X84455823Y-63169705D01*
X84455823Y-63169705D02*
X84455823Y-63074467D01*
X84455823Y-63074467D02*
X84503443Y-62931610D01*
X84503443Y-62931610D02*
X84551062Y-62883991D01*
X84455823Y-61979229D02*
X84455823Y-62455419D01*
X84455823Y-62455419D02*
X84932014Y-62503038D01*
X84932014Y-62503038D02*
X84884395Y-62455419D01*
X84884395Y-62455419D02*
X84836776Y-62360181D01*
X84836776Y-62360181D02*
X84836776Y-62122086D01*
X84836776Y-62122086D02*
X84884395Y-62026848D01*
X84884395Y-62026848D02*
X84932014Y-61979229D01*
X84932014Y-61979229D02*
X85027252Y-61931610D01*
X85027252Y-61931610D02*
X85265347Y-61931610D01*
X85265347Y-61931610D02*
X85360585Y-61979229D01*
X85360585Y-61979229D02*
X85408204Y-62026848D01*
X85408204Y-62026848D02*
X85455823Y-62122086D01*
X85455823Y-62122086D02*
X85455823Y-62360181D01*
X85455823Y-62360181D02*
X85408204Y-62455419D01*
X85408204Y-62455419D02*
X85360585Y-62503038D01*
%TO.C,R5*%
X164824480Y-62666666D02*
X164348290Y-62999999D01*
X164824480Y-63238094D02*
X163824480Y-63238094D01*
X163824480Y-63238094D02*
X163824480Y-62857142D01*
X163824480Y-62857142D02*
X163872100Y-62761904D01*
X163872100Y-62761904D02*
X163919719Y-62714285D01*
X163919719Y-62714285D02*
X164014957Y-62666666D01*
X164014957Y-62666666D02*
X164157814Y-62666666D01*
X164157814Y-62666666D02*
X164253052Y-62714285D01*
X164253052Y-62714285D02*
X164300671Y-62761904D01*
X164300671Y-62761904D02*
X164348290Y-62857142D01*
X164348290Y-62857142D02*
X164348290Y-63238094D01*
X163824480Y-61761904D02*
X163824480Y-62238094D01*
X163824480Y-62238094D02*
X164300671Y-62285713D01*
X164300671Y-62285713D02*
X164253052Y-62238094D01*
X164253052Y-62238094D02*
X164205433Y-62142856D01*
X164205433Y-62142856D02*
X164205433Y-61904761D01*
X164205433Y-61904761D02*
X164253052Y-61809523D01*
X164253052Y-61809523D02*
X164300671Y-61761904D01*
X164300671Y-61761904D02*
X164395909Y-61714285D01*
X164395909Y-61714285D02*
X164634004Y-61714285D01*
X164634004Y-61714285D02*
X164729242Y-61761904D01*
X164729242Y-61761904D02*
X164776861Y-61809523D01*
X164776861Y-61809523D02*
X164824480Y-61904761D01*
X164824480Y-61904761D02*
X164824480Y-62142856D01*
X164824480Y-62142856D02*
X164776861Y-62238094D01*
X164776861Y-62238094D02*
X164729242Y-62285713D01*
%TO.C,C10*%
X107601742Y-68772142D02*
X107554123Y-68819761D01*
X107554123Y-68819761D02*
X107411266Y-68867380D01*
X107411266Y-68867380D02*
X107316028Y-68867380D01*
X107316028Y-68867380D02*
X107173171Y-68819761D01*
X107173171Y-68819761D02*
X107077933Y-68724523D01*
X107077933Y-68724523D02*
X107030314Y-68629285D01*
X107030314Y-68629285D02*
X106982695Y-68438809D01*
X106982695Y-68438809D02*
X106982695Y-68295952D01*
X106982695Y-68295952D02*
X107030314Y-68105476D01*
X107030314Y-68105476D02*
X107077933Y-68010238D01*
X107077933Y-68010238D02*
X107173171Y-67915000D01*
X107173171Y-67915000D02*
X107316028Y-67867380D01*
X107316028Y-67867380D02*
X107411266Y-67867380D01*
X107411266Y-67867380D02*
X107554123Y-67915000D01*
X107554123Y-67915000D02*
X107601742Y-67962619D01*
X108554123Y-68867380D02*
X107982695Y-68867380D01*
X108268409Y-68867380D02*
X108268409Y-67867380D01*
X108268409Y-67867380D02*
X108173171Y-68010238D01*
X108173171Y-68010238D02*
X108077933Y-68105476D01*
X108077933Y-68105476D02*
X107982695Y-68153095D01*
X109173171Y-67867380D02*
X109268409Y-67867380D01*
X109268409Y-67867380D02*
X109363647Y-67915000D01*
X109363647Y-67915000D02*
X109411266Y-67962619D01*
X109411266Y-67962619D02*
X109458885Y-68057857D01*
X109458885Y-68057857D02*
X109506504Y-68248333D01*
X109506504Y-68248333D02*
X109506504Y-68486428D01*
X109506504Y-68486428D02*
X109458885Y-68676904D01*
X109458885Y-68676904D02*
X109411266Y-68772142D01*
X109411266Y-68772142D02*
X109363647Y-68819761D01*
X109363647Y-68819761D02*
X109268409Y-68867380D01*
X109268409Y-68867380D02*
X109173171Y-68867380D01*
X109173171Y-68867380D02*
X109077933Y-68819761D01*
X109077933Y-68819761D02*
X109030314Y-68772142D01*
X109030314Y-68772142D02*
X108982695Y-68676904D01*
X108982695Y-68676904D02*
X108935076Y-68486428D01*
X108935076Y-68486428D02*
X108935076Y-68248333D01*
X108935076Y-68248333D02*
X108982695Y-68057857D01*
X108982695Y-68057857D02*
X109030314Y-67962619D01*
X109030314Y-67962619D02*
X109077933Y-67915000D01*
X109077933Y-67915000D02*
X109173171Y-67867380D01*
%TO.C,SW6*%
X150873767Y-61069761D02*
X151016624Y-61117380D01*
X151016624Y-61117380D02*
X151254719Y-61117380D01*
X151254719Y-61117380D02*
X151349957Y-61069761D01*
X151349957Y-61069761D02*
X151397576Y-61022142D01*
X151397576Y-61022142D02*
X151445195Y-60926904D01*
X151445195Y-60926904D02*
X151445195Y-60831666D01*
X151445195Y-60831666D02*
X151397576Y-60736428D01*
X151397576Y-60736428D02*
X151349957Y-60688809D01*
X151349957Y-60688809D02*
X151254719Y-60641190D01*
X151254719Y-60641190D02*
X151064243Y-60593571D01*
X151064243Y-60593571D02*
X150969005Y-60545952D01*
X150969005Y-60545952D02*
X150921386Y-60498333D01*
X150921386Y-60498333D02*
X150873767Y-60403095D01*
X150873767Y-60403095D02*
X150873767Y-60307857D01*
X150873767Y-60307857D02*
X150921386Y-60212619D01*
X150921386Y-60212619D02*
X150969005Y-60165000D01*
X150969005Y-60165000D02*
X151064243Y-60117380D01*
X151064243Y-60117380D02*
X151302338Y-60117380D01*
X151302338Y-60117380D02*
X151445195Y-60165000D01*
X151778529Y-60117380D02*
X152016624Y-61117380D01*
X152016624Y-61117380D02*
X152207100Y-60403095D01*
X152207100Y-60403095D02*
X152397576Y-61117380D01*
X152397576Y-61117380D02*
X152635672Y-60117380D01*
X153445195Y-60117380D02*
X153254719Y-60117380D01*
X153254719Y-60117380D02*
X153159481Y-60165000D01*
X153159481Y-60165000D02*
X153111862Y-60212619D01*
X153111862Y-60212619D02*
X153016624Y-60355476D01*
X153016624Y-60355476D02*
X152969005Y-60545952D01*
X152969005Y-60545952D02*
X152969005Y-60926904D01*
X152969005Y-60926904D02*
X153016624Y-61022142D01*
X153016624Y-61022142D02*
X153064243Y-61069761D01*
X153064243Y-61069761D02*
X153159481Y-61117380D01*
X153159481Y-61117380D02*
X153349957Y-61117380D01*
X153349957Y-61117380D02*
X153445195Y-61069761D01*
X153445195Y-61069761D02*
X153492814Y-61022142D01*
X153492814Y-61022142D02*
X153540433Y-60926904D01*
X153540433Y-60926904D02*
X153540433Y-60688809D01*
X153540433Y-60688809D02*
X153492814Y-60593571D01*
X153492814Y-60593571D02*
X153445195Y-60545952D01*
X153445195Y-60545952D02*
X153349957Y-60498333D01*
X153349957Y-60498333D02*
X153159481Y-60498333D01*
X153159481Y-60498333D02*
X153064243Y-60545952D01*
X153064243Y-60545952D02*
X153016624Y-60593571D01*
X153016624Y-60593571D02*
X152969005Y-60688809D01*
%TO.C,U1*%
X100195195Y-51117380D02*
X100195195Y-51926904D01*
X100195195Y-51926904D02*
X100242814Y-52022142D01*
X100242814Y-52022142D02*
X100290433Y-52069761D01*
X100290433Y-52069761D02*
X100385671Y-52117380D01*
X100385671Y-52117380D02*
X100576147Y-52117380D01*
X100576147Y-52117380D02*
X100671385Y-52069761D01*
X100671385Y-52069761D02*
X100719004Y-52022142D01*
X100719004Y-52022142D02*
X100766623Y-51926904D01*
X100766623Y-51926904D02*
X100766623Y-51117380D01*
X101766623Y-52117380D02*
X101195195Y-52117380D01*
X101480909Y-52117380D02*
X101480909Y-51117380D01*
X101480909Y-51117380D02*
X101385671Y-51260238D01*
X101385671Y-51260238D02*
X101290433Y-51355476D01*
X101290433Y-51355476D02*
X101195195Y-51403095D01*
%TO.C,H4*%
X80445195Y-78367380D02*
X80445195Y-77367380D01*
X80445195Y-77843571D02*
X81016623Y-77843571D01*
X81016623Y-78367380D02*
X81016623Y-77367380D01*
X81921385Y-77700714D02*
X81921385Y-78367380D01*
X81683290Y-77319761D02*
X81445195Y-78034047D01*
X81445195Y-78034047D02*
X82064242Y-78034047D01*
%TO.C,H5*%
X151445195Y-59367380D02*
X151445195Y-58367380D01*
X151445195Y-58843571D02*
X152016623Y-58843571D01*
X152016623Y-59367380D02*
X152016623Y-58367380D01*
X152969004Y-58367380D02*
X152492814Y-58367380D01*
X152492814Y-58367380D02*
X152445195Y-58843571D01*
X152445195Y-58843571D02*
X152492814Y-58795952D01*
X152492814Y-58795952D02*
X152588052Y-58748333D01*
X152588052Y-58748333D02*
X152826147Y-58748333D01*
X152826147Y-58748333D02*
X152921385Y-58795952D01*
X152921385Y-58795952D02*
X152969004Y-58843571D01*
X152969004Y-58843571D02*
X153016623Y-58938809D01*
X153016623Y-58938809D02*
X153016623Y-59176904D01*
X153016623Y-59176904D02*
X152969004Y-59272142D01*
X152969004Y-59272142D02*
X152921385Y-59319761D01*
X152921385Y-59319761D02*
X152826147Y-59367380D01*
X152826147Y-59367380D02*
X152588052Y-59367380D01*
X152588052Y-59367380D02*
X152492814Y-59319761D01*
X152492814Y-59319761D02*
X152445195Y-59272142D01*
%TO.C,U2*%
X122839719Y-51988095D02*
X122030195Y-51988095D01*
X122030195Y-51988095D02*
X121934957Y-52035714D01*
X121934957Y-52035714D02*
X121887338Y-52083333D01*
X121887338Y-52083333D02*
X121839719Y-52178571D01*
X121839719Y-52178571D02*
X121839719Y-52369047D01*
X121839719Y-52369047D02*
X121887338Y-52464285D01*
X121887338Y-52464285D02*
X121934957Y-52511904D01*
X121934957Y-52511904D02*
X122030195Y-52559523D01*
X122030195Y-52559523D02*
X122839719Y-52559523D01*
X122744480Y-52988095D02*
X122792100Y-53035714D01*
X122792100Y-53035714D02*
X122839719Y-53130952D01*
X122839719Y-53130952D02*
X122839719Y-53369047D01*
X122839719Y-53369047D02*
X122792100Y-53464285D01*
X122792100Y-53464285D02*
X122744480Y-53511904D01*
X122744480Y-53511904D02*
X122649242Y-53559523D01*
X122649242Y-53559523D02*
X122554004Y-53559523D01*
X122554004Y-53559523D02*
X122411147Y-53511904D01*
X122411147Y-53511904D02*
X121839719Y-52940476D01*
X121839719Y-52940476D02*
X121839719Y-53559523D01*
X116363528Y-67202381D02*
X116315909Y-67345238D01*
X116315909Y-67345238D02*
X116268290Y-67392857D01*
X116268290Y-67392857D02*
X116173052Y-67440476D01*
X116173052Y-67440476D02*
X116030195Y-67440476D01*
X116030195Y-67440476D02*
X115934957Y-67392857D01*
X115934957Y-67392857D02*
X115887338Y-67345238D01*
X115887338Y-67345238D02*
X115839719Y-67250000D01*
X115839719Y-67250000D02*
X115839719Y-66869048D01*
X115839719Y-66869048D02*
X116839719Y-66869048D01*
X116839719Y-66869048D02*
X116839719Y-67202381D01*
X116839719Y-67202381D02*
X116792100Y-67297619D01*
X116792100Y-67297619D02*
X116744480Y-67345238D01*
X116744480Y-67345238D02*
X116649242Y-67392857D01*
X116649242Y-67392857D02*
X116554004Y-67392857D01*
X116554004Y-67392857D02*
X116458766Y-67345238D01*
X116458766Y-67345238D02*
X116411147Y-67297619D01*
X116411147Y-67297619D02*
X116363528Y-67202381D01*
X116363528Y-67202381D02*
X116363528Y-66869048D01*
X116220671Y-67869048D02*
X116220671Y-68630953D01*
X112839719Y-49607143D02*
X113839719Y-49607143D01*
X112839719Y-50083333D02*
X113839719Y-50083333D01*
X113839719Y-50083333D02*
X112839719Y-50654761D01*
X112839719Y-50654761D02*
X113839719Y-50654761D01*
X113220671Y-51130952D02*
X113220671Y-51892857D01*
X126839719Y-49607143D02*
X127839719Y-49607143D01*
X126839719Y-50083333D02*
X127839719Y-50083333D01*
X127839719Y-50083333D02*
X126839719Y-50654761D01*
X126839719Y-50654761D02*
X127839719Y-50654761D01*
X127220671Y-51130952D02*
X127220671Y-51892857D01*
X126839719Y-51511904D02*
X127601623Y-51511904D01*
D13*
X120642338Y-51940476D02*
X120642338Y-53083333D01*
X118642338Y-52511904D02*
X120642338Y-52511904D01*
X118642338Y-53750000D02*
X120642338Y-53750000D01*
X120642338Y-53750000D02*
X120642338Y-54511905D01*
X120642338Y-54511905D02*
X120547100Y-54702381D01*
X120547100Y-54702381D02*
X120451861Y-54797619D01*
X120451861Y-54797619D02*
X120261385Y-54892857D01*
X120261385Y-54892857D02*
X119975671Y-54892857D01*
X119975671Y-54892857D02*
X119785195Y-54797619D01*
X119785195Y-54797619D02*
X119689957Y-54702381D01*
X119689957Y-54702381D02*
X119594719Y-54511905D01*
X119594719Y-54511905D02*
X119594719Y-53750000D01*
X119975671Y-56607143D02*
X118642338Y-56607143D01*
X120737576Y-56130952D02*
X119309004Y-55654762D01*
X119309004Y-55654762D02*
X119309004Y-56892857D01*
X120642338Y-58035714D02*
X120642338Y-58226191D01*
X120642338Y-58226191D02*
X120547100Y-58416667D01*
X120547100Y-58416667D02*
X120451861Y-58511905D01*
X120451861Y-58511905D02*
X120261385Y-58607143D01*
X120261385Y-58607143D02*
X119880433Y-58702381D01*
X119880433Y-58702381D02*
X119404242Y-58702381D01*
X119404242Y-58702381D02*
X119023290Y-58607143D01*
X119023290Y-58607143D02*
X118832814Y-58511905D01*
X118832814Y-58511905D02*
X118737576Y-58416667D01*
X118737576Y-58416667D02*
X118642338Y-58226191D01*
X118642338Y-58226191D02*
X118642338Y-58035714D01*
X118642338Y-58035714D02*
X118737576Y-57845238D01*
X118737576Y-57845238D02*
X118832814Y-57750000D01*
X118832814Y-57750000D02*
X119023290Y-57654762D01*
X119023290Y-57654762D02*
X119404242Y-57559524D01*
X119404242Y-57559524D02*
X119880433Y-57559524D01*
X119880433Y-57559524D02*
X120261385Y-57654762D01*
X120261385Y-57654762D02*
X120451861Y-57750000D01*
X120451861Y-57750000D02*
X120547100Y-57845238D01*
X120547100Y-57845238D02*
X120642338Y-58035714D01*
X120642338Y-60511905D02*
X120642338Y-59559524D01*
X120642338Y-59559524D02*
X119689957Y-59464286D01*
X119689957Y-59464286D02*
X119785195Y-59559524D01*
X119785195Y-59559524D02*
X119880433Y-59750000D01*
X119880433Y-59750000D02*
X119880433Y-60226191D01*
X119880433Y-60226191D02*
X119785195Y-60416667D01*
X119785195Y-60416667D02*
X119689957Y-60511905D01*
X119689957Y-60511905D02*
X119499480Y-60607143D01*
X119499480Y-60607143D02*
X119023290Y-60607143D01*
X119023290Y-60607143D02*
X118832814Y-60511905D01*
X118832814Y-60511905D02*
X118737576Y-60416667D01*
X118737576Y-60416667D02*
X118642338Y-60226191D01*
X118642338Y-60226191D02*
X118642338Y-59750000D01*
X118642338Y-59750000D02*
X118737576Y-59559524D01*
X118737576Y-59559524D02*
X118832814Y-59464286D01*
X120642338Y-62321429D02*
X120642338Y-61940476D01*
X120642338Y-61940476D02*
X120547100Y-61750000D01*
X120547100Y-61750000D02*
X120451861Y-61654762D01*
X120451861Y-61654762D02*
X120166147Y-61464286D01*
X120166147Y-61464286D02*
X119785195Y-61369048D01*
X119785195Y-61369048D02*
X119023290Y-61369048D01*
X119023290Y-61369048D02*
X118832814Y-61464286D01*
X118832814Y-61464286D02*
X118737576Y-61559524D01*
X118737576Y-61559524D02*
X118642338Y-61750000D01*
X118642338Y-61750000D02*
X118642338Y-62130953D01*
X118642338Y-62130953D02*
X118737576Y-62321429D01*
X118737576Y-62321429D02*
X118832814Y-62416667D01*
X118832814Y-62416667D02*
X119023290Y-62511905D01*
X119023290Y-62511905D02*
X119499480Y-62511905D01*
X119499480Y-62511905D02*
X119689957Y-62416667D01*
X119689957Y-62416667D02*
X119785195Y-62321429D01*
X119785195Y-62321429D02*
X119880433Y-62130953D01*
X119880433Y-62130953D02*
X119880433Y-61750000D01*
X119880433Y-61750000D02*
X119785195Y-61559524D01*
X119785195Y-61559524D02*
X119689957Y-61464286D01*
X119689957Y-61464286D02*
X119499480Y-61369048D01*
D10*
X127839719Y-66130952D02*
X127839719Y-66321428D01*
X127839719Y-66321428D02*
X127792100Y-66416666D01*
X127792100Y-66416666D02*
X127696861Y-66511904D01*
X127696861Y-66511904D02*
X127506385Y-66559523D01*
X127506385Y-66559523D02*
X127173052Y-66559523D01*
X127173052Y-66559523D02*
X126982576Y-66511904D01*
X126982576Y-66511904D02*
X126887338Y-66416666D01*
X126887338Y-66416666D02*
X126839719Y-66321428D01*
X126839719Y-66321428D02*
X126839719Y-66130952D01*
X126839719Y-66130952D02*
X126887338Y-66035714D01*
X126887338Y-66035714D02*
X126982576Y-65940476D01*
X126982576Y-65940476D02*
X127173052Y-65892857D01*
X127173052Y-65892857D02*
X127506385Y-65892857D01*
X127506385Y-65892857D02*
X127696861Y-65940476D01*
X127696861Y-65940476D02*
X127792100Y-66035714D01*
X127792100Y-66035714D02*
X127839719Y-66130952D01*
X127839719Y-66988095D02*
X127030195Y-66988095D01*
X127030195Y-66988095D02*
X126934957Y-67035714D01*
X126934957Y-67035714D02*
X126887338Y-67083333D01*
X126887338Y-67083333D02*
X126839719Y-67178571D01*
X126839719Y-67178571D02*
X126839719Y-67369047D01*
X126839719Y-67369047D02*
X126887338Y-67464285D01*
X126887338Y-67464285D02*
X126934957Y-67511904D01*
X126934957Y-67511904D02*
X127030195Y-67559523D01*
X127030195Y-67559523D02*
X127839719Y-67559523D01*
X127839719Y-67892857D02*
X127839719Y-68464285D01*
X126839719Y-68178571D02*
X127839719Y-68178571D01*
X127220671Y-68797619D02*
X127220671Y-69559524D01*
X126839719Y-69178571D02*
X127601623Y-69178571D01*
X124363528Y-67202381D02*
X124315909Y-67345238D01*
X124315909Y-67345238D02*
X124268290Y-67392857D01*
X124268290Y-67392857D02*
X124173052Y-67440476D01*
X124173052Y-67440476D02*
X124030195Y-67440476D01*
X124030195Y-67440476D02*
X123934957Y-67392857D01*
X123934957Y-67392857D02*
X123887338Y-67345238D01*
X123887338Y-67345238D02*
X123839719Y-67250000D01*
X123839719Y-67250000D02*
X123839719Y-66869048D01*
X123839719Y-66869048D02*
X124839719Y-66869048D01*
X124839719Y-66869048D02*
X124839719Y-67202381D01*
X124839719Y-67202381D02*
X124792100Y-67297619D01*
X124792100Y-67297619D02*
X124744480Y-67345238D01*
X124744480Y-67345238D02*
X124649242Y-67392857D01*
X124649242Y-67392857D02*
X124554004Y-67392857D01*
X124554004Y-67392857D02*
X124458766Y-67345238D01*
X124458766Y-67345238D02*
X124411147Y-67297619D01*
X124411147Y-67297619D02*
X124363528Y-67202381D01*
X124363528Y-67202381D02*
X124363528Y-66869048D01*
X124220671Y-67869048D02*
X124220671Y-68630953D01*
X123839719Y-68250000D02*
X124601623Y-68250000D01*
X113839719Y-66130952D02*
X113839719Y-66321428D01*
X113839719Y-66321428D02*
X113792100Y-66416666D01*
X113792100Y-66416666D02*
X113696861Y-66511904D01*
X113696861Y-66511904D02*
X113506385Y-66559523D01*
X113506385Y-66559523D02*
X113173052Y-66559523D01*
X113173052Y-66559523D02*
X112982576Y-66511904D01*
X112982576Y-66511904D02*
X112887338Y-66416666D01*
X112887338Y-66416666D02*
X112839719Y-66321428D01*
X112839719Y-66321428D02*
X112839719Y-66130952D01*
X112839719Y-66130952D02*
X112887338Y-66035714D01*
X112887338Y-66035714D02*
X112982576Y-65940476D01*
X112982576Y-65940476D02*
X113173052Y-65892857D01*
X113173052Y-65892857D02*
X113506385Y-65892857D01*
X113506385Y-65892857D02*
X113696861Y-65940476D01*
X113696861Y-65940476D02*
X113792100Y-66035714D01*
X113792100Y-66035714D02*
X113839719Y-66130952D01*
X113839719Y-66988095D02*
X113030195Y-66988095D01*
X113030195Y-66988095D02*
X112934957Y-67035714D01*
X112934957Y-67035714D02*
X112887338Y-67083333D01*
X112887338Y-67083333D02*
X112839719Y-67178571D01*
X112839719Y-67178571D02*
X112839719Y-67369047D01*
X112839719Y-67369047D02*
X112887338Y-67464285D01*
X112887338Y-67464285D02*
X112934957Y-67511904D01*
X112934957Y-67511904D02*
X113030195Y-67559523D01*
X113030195Y-67559523D02*
X113839719Y-67559523D01*
X113839719Y-67892857D02*
X113839719Y-68464285D01*
X112839719Y-68178571D02*
X113839719Y-68178571D01*
X113220671Y-68797619D02*
X113220671Y-69559524D01*
%TO.C,C2*%
X104742706Y-56000200D02*
X104790325Y-56047819D01*
X104790325Y-56047819D02*
X104837944Y-56190676D01*
X104837944Y-56190676D02*
X104837944Y-56285914D01*
X104837944Y-56285914D02*
X104790325Y-56428771D01*
X104790325Y-56428771D02*
X104695087Y-56524009D01*
X104695087Y-56524009D02*
X104599849Y-56571628D01*
X104599849Y-56571628D02*
X104409373Y-56619247D01*
X104409373Y-56619247D02*
X104266516Y-56619247D01*
X104266516Y-56619247D02*
X104076040Y-56571628D01*
X104076040Y-56571628D02*
X103980802Y-56524009D01*
X103980802Y-56524009D02*
X103885564Y-56428771D01*
X103885564Y-56428771D02*
X103837944Y-56285914D01*
X103837944Y-56285914D02*
X103837944Y-56190676D01*
X103837944Y-56190676D02*
X103885564Y-56047819D01*
X103885564Y-56047819D02*
X103933183Y-56000200D01*
X103933183Y-55619247D02*
X103885564Y-55571628D01*
X103885564Y-55571628D02*
X103837944Y-55476390D01*
X103837944Y-55476390D02*
X103837944Y-55238295D01*
X103837944Y-55238295D02*
X103885564Y-55143057D01*
X103885564Y-55143057D02*
X103933183Y-55095438D01*
X103933183Y-55095438D02*
X104028421Y-55047819D01*
X104028421Y-55047819D02*
X104123659Y-55047819D01*
X104123659Y-55047819D02*
X104266516Y-55095438D01*
X104266516Y-55095438D02*
X104837944Y-55666866D01*
X104837944Y-55666866D02*
X104837944Y-55047819D01*
%TO.C,Y2*%
X99130909Y-65991190D02*
X99130909Y-66467380D01*
X98797576Y-65467380D02*
X99130909Y-65991190D01*
X99130909Y-65991190D02*
X99464242Y-65467380D01*
X99749957Y-65562619D02*
X99797576Y-65515000D01*
X99797576Y-65515000D02*
X99892814Y-65467380D01*
X99892814Y-65467380D02*
X100130909Y-65467380D01*
X100130909Y-65467380D02*
X100226147Y-65515000D01*
X100226147Y-65515000D02*
X100273766Y-65562619D01*
X100273766Y-65562619D02*
X100321385Y-65657857D01*
X100321385Y-65657857D02*
X100321385Y-65753095D01*
X100321385Y-65753095D02*
X100273766Y-65895952D01*
X100273766Y-65895952D02*
X99702338Y-66467380D01*
X99702338Y-66467380D02*
X100321385Y-66467380D01*
%TO.C,R11*%
X160314242Y-70617380D02*
X159980909Y-70141190D01*
X159742814Y-70617380D02*
X159742814Y-69617380D01*
X159742814Y-69617380D02*
X160123766Y-69617380D01*
X160123766Y-69617380D02*
X160219004Y-69665000D01*
X160219004Y-69665000D02*
X160266623Y-69712619D01*
X160266623Y-69712619D02*
X160314242Y-69807857D01*
X160314242Y-69807857D02*
X160314242Y-69950714D01*
X160314242Y-69950714D02*
X160266623Y-70045952D01*
X160266623Y-70045952D02*
X160219004Y-70093571D01*
X160219004Y-70093571D02*
X160123766Y-70141190D01*
X160123766Y-70141190D02*
X159742814Y-70141190D01*
X161266623Y-70617380D02*
X160695195Y-70617380D01*
X160980909Y-70617380D02*
X160980909Y-69617380D01*
X160980909Y-69617380D02*
X160885671Y-69760238D01*
X160885671Y-69760238D02*
X160790433Y-69855476D01*
X160790433Y-69855476D02*
X160695195Y-69903095D01*
X162219004Y-70617380D02*
X161647576Y-70617380D01*
X161933290Y-70617380D02*
X161933290Y-69617380D01*
X161933290Y-69617380D02*
X161838052Y-69760238D01*
X161838052Y-69760238D02*
X161742814Y-69855476D01*
X161742814Y-69855476D02*
X161647576Y-69903095D01*
D15*
%TO.C,R26*%
X156684164Y-86640000D02*
X156230036Y-86640000D01*
X156684164Y-85170000D02*
X156230036Y-85170000D01*
%TO.C,U3*%
X69761100Y-44296000D02*
X69761100Y-38286000D01*
X76581100Y-42046000D02*
X76581100Y-38286000D01*
X69761100Y-38286000D02*
X71021100Y-38286000D01*
X76581100Y-38286000D02*
X75321100Y-38286000D01*
%TO.C,SW5*%
X139707100Y-58000000D02*
X141457100Y-58000000D01*
X143957100Y-58000000D02*
X145707100Y-58000000D01*
X145707100Y-58000000D02*
X145707100Y-52000000D01*
X139707100Y-53500000D02*
X139707100Y-53750000D01*
X139707100Y-52000000D02*
X139707100Y-58000000D01*
X141457100Y-52000000D02*
X139707100Y-52000000D01*
X145707100Y-52000000D02*
X143957100Y-52000000D01*
X143414207Y-55000000D02*
G75*
G03*
X143414207Y-55000000I-707107J0D01*
G01*
X144509876Y-55000000D02*
G75*
G03*
X144509876Y-55000000I-1802776J0D01*
G01*
%TO.C,C22*%
X158972100Y-74878752D02*
X158972100Y-74356248D01*
X160442100Y-74878752D02*
X160442100Y-74356248D01*
%TO.C,R28*%
X156684164Y-84640000D02*
X156230036Y-84640000D01*
X156684164Y-83170000D02*
X156230036Y-83170000D01*
%TO.C,C17*%
X156472100Y-39798752D02*
X156472100Y-39276248D01*
X157942100Y-39798752D02*
X157942100Y-39276248D01*
%TO.C,R3*%
X140672100Y-63877064D02*
X140672100Y-63422936D01*
X142142100Y-63877064D02*
X142142100Y-63422936D01*
%TO.C,R19*%
X106974164Y-38949000D02*
X106520036Y-38949000D01*
X106974164Y-37479000D02*
X106520036Y-37479000D01*
%TO.C,J2*%
X79402100Y-51895000D02*
X79402100Y-69735000D01*
X79402100Y-51895000D02*
X82062100Y-51895000D01*
X79402100Y-69735000D02*
X82062100Y-69735000D01*
X80732100Y-49295000D02*
X82062100Y-49295000D01*
X82062100Y-49295000D02*
X82062100Y-50625000D01*
X82062100Y-51895000D02*
X82062100Y-69735000D01*
%TO.C,C7*%
X89950285Y-48258286D02*
X90472789Y-48258286D01*
X89950285Y-49728286D02*
X90472789Y-49728286D01*
%TO.C,C15*%
X144942100Y-47238748D02*
X144942100Y-47761252D01*
X143472100Y-47238748D02*
X143472100Y-47761252D01*
%TO.C,J10*%
X161457100Y-73750000D02*
X162787100Y-73750000D01*
X161457100Y-75080000D02*
X161457100Y-73750000D01*
X161457100Y-76350000D02*
X161457100Y-86570000D01*
X161457100Y-76350000D02*
X164117100Y-76350000D01*
X161457100Y-86570000D02*
X164117100Y-86570000D01*
X164117100Y-76350000D02*
X164117100Y-86570000D01*
%TO.C,C8*%
X105644564Y-53312786D02*
X105644564Y-52790282D01*
X107114564Y-53312786D02*
X107114564Y-52790282D01*
%TO.C,C13*%
X139472100Y-42761252D02*
X139472100Y-42238748D01*
X140942100Y-42761252D02*
X140942100Y-42238748D01*
%TO.C,R24*%
X102480036Y-47765000D02*
X102934164Y-47765000D01*
X102480036Y-49235000D02*
X102934164Y-49235000D01*
%TO.C,Q1*%
X140117100Y-62750000D02*
X140117100Y-65825000D01*
X136897100Y-63675000D02*
X136897100Y-65825000D01*
X140107100Y-65825000D02*
X139207100Y-65825000D01*
X137807100Y-65825000D02*
X136897100Y-65825000D01*
%TO.C,C21*%
X69192100Y-40188748D02*
X69192100Y-40711252D01*
X67722100Y-40188748D02*
X67722100Y-40711252D01*
%TO.C,SW1*%
X138707100Y-30500000D02*
X139957100Y-30500000D01*
X138707100Y-34500000D02*
X138707100Y-30500000D01*
X143207100Y-34500000D02*
X141207100Y-34500000D01*
X145707100Y-30500000D02*
X144457100Y-30500000D01*
X145707100Y-34500000D02*
X145707100Y-30500000D01*
X140457100Y-29650000D02*
X143957100Y-29650000D01*
X143957100Y-29650000D02*
X143957100Y-30500000D01*
X143957100Y-30500000D02*
X140457100Y-30500000D01*
X140457100Y-30500000D02*
X140457100Y-29650000D01*
%TO.C,R1*%
X94226100Y-42270936D02*
X94226100Y-42725064D01*
X92756100Y-42270936D02*
X92756100Y-42725064D01*
%TO.C,D1*%
X76847100Y-35850000D02*
X76847100Y-40150000D01*
X76847100Y-35850000D02*
X84507100Y-35850000D01*
X76847100Y-40150000D02*
X84507100Y-40150000D01*
%TO.C,C20*%
X75218352Y-46735000D02*
X74695848Y-46735000D01*
X75218352Y-45265000D02*
X74695848Y-45265000D01*
%TO.C,C16*%
X163692100Y-67238748D02*
X163692100Y-67761252D01*
X162222100Y-67238748D02*
X162222100Y-67761252D01*
%TO.C,J9*%
X151297100Y-71200000D02*
X152627100Y-71200000D01*
X151297100Y-72530000D02*
X151297100Y-71200000D01*
X151297100Y-73800000D02*
X151297100Y-89100000D01*
X151297100Y-73800000D02*
X153957100Y-73800000D01*
X151297100Y-89100000D02*
X153957100Y-89100000D01*
X153957100Y-73800000D02*
X153957100Y-89100000D01*
%TO.C,J3*%
X132402100Y-56970000D02*
X132402100Y-64650000D01*
X132402100Y-56970000D02*
X135062100Y-56970000D01*
X132402100Y-64650000D02*
X135062100Y-64650000D01*
X133732100Y-54370000D02*
X135062100Y-54370000D01*
X135062100Y-54370000D02*
X135062100Y-55700000D01*
X135062100Y-56970000D02*
X135062100Y-64650000D01*
%TO.C,R29*%
X156684164Y-88640000D02*
X156230036Y-88640000D01*
X156684164Y-87170000D02*
X156230036Y-87170000D01*
%TO.C,R27*%
X156684164Y-82640000D02*
X156230036Y-82640000D01*
X156684164Y-81170000D02*
X156230036Y-81170000D01*
%TO.C,FB1*%
X104342100Y-71272936D02*
X104342100Y-71727064D01*
X102872100Y-71272936D02*
X102872100Y-71727064D01*
%TO.C,JP1*%
X105707100Y-70100000D02*
X106307100Y-70100000D01*
X107007100Y-70800000D02*
X107007100Y-72200000D01*
X105007100Y-72200000D02*
X105007100Y-70800000D01*
X106307100Y-72900000D02*
X105707100Y-72900000D01*
X107007100Y-70800000D02*
G75*
G03*
X106307100Y-70100000I-699999J1D01*
G01*
X105707100Y-70100000D02*
G75*
G03*
X105007100Y-70800000I-1J-699999D01*
G01*
X106307100Y-72900000D02*
G75*
G03*
X107007100Y-72200000I0J700000D01*
G01*
X105007100Y-72200000D02*
G75*
G03*
X105707100Y-72900000I700000J0D01*
G01*
%TO.C,R23*%
X102480036Y-43765000D02*
X102934164Y-43765000D01*
X102480036Y-45235000D02*
X102934164Y-45235000D01*
%TO.C,J6*%
X117677100Y-33089000D02*
X117677100Y-31169000D01*
X117677100Y-27454000D02*
X117677100Y-29159000D01*
X108517100Y-31169000D02*
X108517100Y-33089000D01*
X108517100Y-29159000D02*
X108517100Y-27454000D01*
X108517100Y-27454000D02*
X117677100Y-27454000D01*
%TO.C,C6*%
X105942100Y-61526248D02*
X105942100Y-62048752D01*
X104472100Y-61526248D02*
X104472100Y-62048752D01*
%TO.C,R21*%
X109942100Y-61597936D02*
X109942100Y-62052064D01*
X108472100Y-61597936D02*
X108472100Y-62052064D01*
%TO.C,J4*%
X71317100Y-94095000D02*
X70047100Y-94095000D01*
X71317100Y-92825000D02*
X71317100Y-94095000D01*
X69004171Y-90665000D02*
X68607100Y-90665000D01*
X69004171Y-89905000D02*
X68607100Y-89905000D01*
X69004171Y-88125000D02*
X68607100Y-88125000D01*
X69004171Y-87365000D02*
X68607100Y-87365000D01*
X69004171Y-85585000D02*
X68607100Y-85585000D01*
X69004171Y-84825000D02*
X68607100Y-84825000D01*
X69004171Y-83045000D02*
X68607100Y-83045000D01*
X69004171Y-82285000D02*
X68607100Y-82285000D01*
X69004171Y-80505000D02*
X68607100Y-80505000D01*
X69004171Y-79745000D02*
X68607100Y-79745000D01*
X68937100Y-93205000D02*
X68607100Y-93205000D01*
X68937100Y-92445000D02*
X68607100Y-92445000D01*
X68607100Y-94155000D02*
X68607100Y-78795000D01*
X68607100Y-91555000D02*
X65947100Y-91555000D01*
X68607100Y-89015000D02*
X65947100Y-89015000D01*
X68607100Y-86475000D02*
X65947100Y-86475000D01*
X68607100Y-83935000D02*
X65947100Y-83935000D01*
X68607100Y-81395000D02*
X65947100Y-81395000D01*
X68607100Y-78795000D02*
X65947100Y-78795000D01*
X65947100Y-94155000D02*
X68607100Y-94155000D01*
X65947100Y-93205000D02*
X59947100Y-93205000D01*
X65947100Y-93145000D02*
X59947100Y-93145000D01*
X65947100Y-93025000D02*
X59947100Y-93025000D01*
X65947100Y-92905000D02*
X59947100Y-92905000D01*
X65947100Y-92785000D02*
X59947100Y-92785000D01*
X65947100Y-92665000D02*
X59947100Y-92665000D01*
X65947100Y-92545000D02*
X59947100Y-92545000D01*
X65947100Y-90665000D02*
X59947100Y-90665000D01*
X65947100Y-88125000D02*
X59947100Y-88125000D01*
X65947100Y-85585000D02*
X59947100Y-85585000D01*
X65947100Y-83045000D02*
X59947100Y-83045000D01*
X65947100Y-80505000D02*
X59947100Y-80505000D01*
X65947100Y-78795000D02*
X65947100Y-94155000D01*
X59947100Y-93205000D02*
X59947100Y-92445000D01*
X59947100Y-92445000D02*
X65947100Y-92445000D01*
X59947100Y-90665000D02*
X59947100Y-89905000D01*
X59947100Y-89905000D02*
X65947100Y-89905000D01*
X59947100Y-88125000D02*
X59947100Y-87365000D01*
X59947100Y-87365000D02*
X65947100Y-87365000D01*
X59947100Y-85585000D02*
X59947100Y-84825000D01*
X59947100Y-84825000D02*
X65947100Y-84825000D01*
X59947100Y-83045000D02*
X59947100Y-82285000D01*
X59947100Y-82285000D02*
X65947100Y-82285000D01*
X59947100Y-80505000D02*
X59947100Y-79745000D01*
X59947100Y-79745000D02*
X65947100Y-79745000D01*
%TO.C,J1*%
X89437100Y-39745000D02*
X89437100Y-38475000D01*
X90707100Y-39745000D02*
X89437100Y-39745000D01*
X92867100Y-37432071D02*
X92867100Y-37035000D01*
X93627100Y-37432071D02*
X93627100Y-37035000D01*
X95407100Y-37432071D02*
X95407100Y-37035000D01*
X96167100Y-37432071D02*
X96167100Y-37035000D01*
X97947100Y-37432071D02*
X97947100Y-37035000D01*
X98707100Y-37432071D02*
X98707100Y-37035000D01*
X90327100Y-37365000D02*
X90327100Y-37035000D01*
X91087100Y-37365000D02*
X91087100Y-37035000D01*
X89377100Y-37035000D02*
X99657100Y-37035000D01*
X91977100Y-37035000D02*
X91977100Y-34375000D01*
X94517100Y-37035000D02*
X94517100Y-34375000D01*
X97057100Y-37035000D02*
X97057100Y-34375000D01*
X99657100Y-37035000D02*
X99657100Y-34375000D01*
X89377100Y-34375000D02*
X89377100Y-37035000D01*
X90327100Y-34375000D02*
X90327100Y-28375000D01*
X90387100Y-34375000D02*
X90387100Y-28375000D01*
X90507100Y-34375000D02*
X90507100Y-28375000D01*
X90627100Y-34375000D02*
X90627100Y-28375000D01*
X90747100Y-34375000D02*
X90747100Y-28375000D01*
X90867100Y-34375000D02*
X90867100Y-28375000D01*
X90987100Y-34375000D02*
X90987100Y-28375000D01*
X92867100Y-34375000D02*
X92867100Y-28375000D01*
X95407100Y-34375000D02*
X95407100Y-28375000D01*
X97947100Y-34375000D02*
X97947100Y-28375000D01*
X99657100Y-34375000D02*
X89377100Y-34375000D01*
X90327100Y-28375000D02*
X91087100Y-28375000D01*
X91087100Y-28375000D02*
X91087100Y-34375000D01*
X92867100Y-28375000D02*
X93627100Y-28375000D01*
X93627100Y-28375000D02*
X93627100Y-34375000D01*
X95407100Y-28375000D02*
X96167100Y-28375000D01*
X96167100Y-28375000D02*
X96167100Y-34375000D01*
X97947100Y-28375000D02*
X98707100Y-28375000D01*
X98707100Y-28375000D02*
X98707100Y-34375000D01*
%TO.C,SW2*%
X149207100Y-42500000D02*
X149207100Y-44250000D01*
X149207100Y-46750000D02*
X149207100Y-48500000D01*
X149207100Y-48500000D02*
X155207100Y-48500000D01*
X153707100Y-42500000D02*
X153457100Y-42500000D01*
X155207100Y-42500000D02*
X149207100Y-42500000D01*
X155207100Y-44250000D02*
X155207100Y-42500000D01*
X155207100Y-48500000D02*
X155207100Y-46750000D01*
X152914207Y-45500000D02*
G75*
G03*
X152914207Y-45500000I-707107J0D01*
G01*
X154009876Y-45500000D02*
G75*
G03*
X154009876Y-45500000I-1802776J0D01*
G01*
%TO.C,R22*%
X106472100Y-62052064D02*
X106472100Y-61597936D01*
X107942100Y-62052064D02*
X107942100Y-61597936D01*
%TO.C,RV1*%
X154082100Y-99785000D02*
X163852100Y-99785000D01*
X154082100Y-99785000D02*
X154082100Y-90015000D01*
X163852100Y-99785000D02*
X163852100Y-90015000D01*
X154082100Y-90015000D02*
X163852100Y-90015000D01*
D10*
%TO.C,SW9*%
X82043100Y-35130000D02*
X73443100Y-35130000D01*
X82043100Y-30530000D02*
X79843100Y-30530000D01*
X75743100Y-30530000D02*
X73443100Y-30530000D01*
D15*
%TO.C,R13*%
X160472100Y-39764564D02*
X160472100Y-39310436D01*
X161942100Y-39764564D02*
X161942100Y-39310436D01*
%TO.C,R20*%
X119145036Y-37479000D02*
X119599164Y-37479000D01*
X119145036Y-38949000D02*
X119599164Y-38949000D01*
%TO.C,TP1*%
X127007100Y-40300000D02*
G75*
G03*
X127007100Y-40300000I-1200000J0D01*
G01*
%TO.C,C11*%
X104483348Y-65765000D02*
X105005852Y-65765000D01*
X104483348Y-67235000D02*
X105005852Y-67235000D01*
%TO.C,J8*%
X120777100Y-40684000D02*
X120777100Y-42014000D01*
X119447100Y-40684000D02*
X120777100Y-40684000D01*
X118177100Y-40684000D02*
X105417100Y-40684000D01*
X118177100Y-40684000D02*
X118177100Y-43344000D01*
X105417100Y-40684000D02*
X105417100Y-43344000D01*
X118177100Y-43344000D02*
X105417100Y-43344000D01*
%TO.C,SW3*%
X159207100Y-58000000D02*
X160957100Y-58000000D01*
X163457100Y-58000000D02*
X165207100Y-58000000D01*
X165207100Y-58000000D02*
X165207100Y-52000000D01*
X159207100Y-53500000D02*
X159207100Y-53750000D01*
X159207100Y-52000000D02*
X159207100Y-58000000D01*
X160957100Y-52000000D02*
X159207100Y-52000000D01*
X165207100Y-52000000D02*
X163457100Y-52000000D01*
X162914207Y-55000000D02*
G75*
G03*
X162914207Y-55000000I-707107J0D01*
G01*
X164009876Y-55000000D02*
G75*
G03*
X164009876Y-55000000I-1802776J0D01*
G01*
%TO.C,J7*%
X86207100Y-95225000D02*
X136207100Y-95225000D01*
X136207100Y-83225000D02*
X86207100Y-83225000D01*
X73457100Y-78725000D02*
X148957100Y-78725000D01*
X148957100Y-78725000D02*
X148957100Y-99725000D01*
X148957100Y-99725000D02*
X73457100Y-99725000D01*
X73457100Y-99725000D02*
X73457100Y-78725000D01*
X86207100Y-83225000D02*
G75*
G03*
X86207100Y-95225000I0J-6000000D01*
G01*
X136207100Y-95225000D02*
G75*
G03*
X136207100Y-83225000I0J6000000D01*
G01*
D16*
%TO.C,U4*%
X156357100Y-80117500D02*
X156357100Y-79297500D01*
X159057100Y-80017500D02*
X158837100Y-80017500D01*
X159057100Y-80017500D02*
X159057100Y-79297500D01*
X156357100Y-77537500D02*
X156357100Y-76817500D01*
X156357100Y-76817500D02*
X156577100Y-76817500D01*
X158837100Y-76817500D02*
X159057100Y-76817500D01*
X159057100Y-76817500D02*
X159057100Y-77537500D01*
D15*
%TO.C,C1*%
X89950285Y-46258286D02*
X90472789Y-46258286D01*
X89950285Y-47728286D02*
X90472789Y-47728286D01*
%TO.C,R25*%
X102934164Y-47235000D02*
X102480036Y-47235000D01*
X102934164Y-45765000D02*
X102480036Y-45765000D01*
%TO.C,SW4*%
X128707100Y-30500000D02*
X129957100Y-30500000D01*
X128707100Y-34500000D02*
X128707100Y-30500000D01*
X133207100Y-34500000D02*
X131207100Y-34500000D01*
X135707100Y-30500000D02*
X134457100Y-30500000D01*
X135707100Y-34500000D02*
X135707100Y-30500000D01*
X130457100Y-29650000D02*
X133957100Y-29650000D01*
X133957100Y-29650000D02*
X133957100Y-30500000D01*
X133957100Y-30500000D02*
X130457100Y-30500000D01*
X130457100Y-30500000D02*
X130457100Y-29650000D01*
%TO.C,R9*%
X159692100Y-67272936D02*
X159692100Y-67727064D01*
X158222100Y-67272936D02*
X158222100Y-67727064D01*
%TO.C,R2*%
X94788100Y-42725064D02*
X94788100Y-42270936D01*
X96258100Y-42725064D02*
X96258100Y-42270936D01*
%TO.C,R8*%
X140942100Y-47310436D02*
X140942100Y-47764564D01*
X139472100Y-47310436D02*
X139472100Y-47764564D01*
%TO.C,Q2*%
X126207100Y-76360000D02*
X123132100Y-76360000D01*
X125282100Y-73140000D02*
X123132100Y-73140000D01*
X123132100Y-76350000D02*
X123132100Y-75450000D01*
X123132100Y-74050000D02*
X123132100Y-73140000D01*
%TO.C,C9*%
X104483348Y-73765000D02*
X105005852Y-73765000D01*
X104483348Y-75235000D02*
X105005852Y-75235000D01*
%TO.C,R14*%
X158472100Y-39764564D02*
X158472100Y-39310436D01*
X159942100Y-39764564D02*
X159942100Y-39310436D01*
%TO.C,R6*%
X141472100Y-42727064D02*
X141472100Y-42272936D01*
X142942100Y-42727064D02*
X142942100Y-42272936D01*
%TO.C,R7*%
X160222100Y-62727064D02*
X160222100Y-62272936D01*
X161692100Y-62727064D02*
X161692100Y-62272936D01*
%TO.C,C3*%
X90628100Y-73452748D02*
X90628100Y-73975252D01*
X89158100Y-73452748D02*
X89158100Y-73975252D01*
%TO.C,R12*%
X137472100Y-47727064D02*
X137472100Y-47272936D01*
X138942100Y-47727064D02*
X138942100Y-47272936D01*
%TO.C,R30*%
X107649688Y-53273925D02*
X107649688Y-52819797D01*
X109119688Y-53273925D02*
X109119688Y-52819797D01*
%TO.C,C12*%
X138942100Y-42201248D02*
X138942100Y-42723752D01*
X137472100Y-42201248D02*
X137472100Y-42723752D01*
%TO.C,SW7*%
X155707100Y-29500000D02*
X156957100Y-29500000D01*
X155707100Y-33500000D02*
X155707100Y-29500000D01*
X160207100Y-33500000D02*
X158207100Y-33500000D01*
X162707100Y-29500000D02*
X161457100Y-29500000D01*
X162707100Y-33500000D02*
X162707100Y-29500000D01*
X157457100Y-28650000D02*
X160957100Y-28650000D01*
X160957100Y-28650000D02*
X160957100Y-29500000D01*
X160957100Y-29500000D02*
X157457100Y-29500000D01*
X157457100Y-29500000D02*
X157457100Y-28650000D01*
%TO.C,Y1*%
X91257100Y-71718000D02*
X91257100Y-76218000D01*
X91257100Y-76218000D02*
X96657100Y-76218000D01*
%TO.C,C4*%
X97286099Y-73975252D02*
X97286099Y-73452748D01*
X98756099Y-73975252D02*
X98756099Y-73452748D01*
%TO.C,Q3*%
X85507100Y-40640000D02*
X88582100Y-40640000D01*
X86432100Y-43860000D02*
X88582100Y-43860000D01*
X88582100Y-40650000D02*
X88582100Y-41550000D01*
X88582100Y-42950000D02*
X88582100Y-43860000D01*
%TO.C,R10*%
X142942100Y-47310436D02*
X142942100Y-47764564D01*
X141472100Y-47310436D02*
X141472100Y-47764564D01*
%TO.C,BZ1*%
X148027100Y-71350000D02*
G75*
G03*
X148027100Y-71350000I-4620000J0D01*
G01*
%TO.C,R4*%
X143472101Y-42727064D02*
X143472101Y-42272936D01*
X144942101Y-42727064D02*
X144942101Y-42272936D01*
%TO.C,C14*%
X158222100Y-62761252D02*
X158222100Y-62238748D01*
X159692100Y-62761252D02*
X159692100Y-62238748D01*
%TO.C,C5*%
X86033443Y-62978577D02*
X86033443Y-62456073D01*
X87503443Y-62978577D02*
X87503443Y-62456073D01*
%TO.C,R5*%
X162222100Y-62727064D02*
X162222100Y-62272936D01*
X163692100Y-62727064D02*
X163692100Y-62272936D01*
%TO.C,C10*%
X104483348Y-67765000D02*
X105005852Y-67765000D01*
X104483348Y-69235000D02*
X105005852Y-69235000D01*
%TO.C,SW6*%
X149207100Y-61500000D02*
X149207100Y-63250000D01*
X149207100Y-65750000D02*
X149207100Y-67500000D01*
X149207100Y-67500000D02*
X155207100Y-67500000D01*
X153707100Y-61500000D02*
X153457100Y-61500000D01*
X155207100Y-61500000D02*
X149207100Y-61500000D01*
X155207100Y-63250000D02*
X155207100Y-61500000D01*
X155207100Y-67500000D02*
X155207100Y-65750000D01*
X152914207Y-64500000D02*
G75*
G03*
X152914207Y-64500000I-707107J0D01*
G01*
X154009876Y-64500000D02*
G75*
G03*
X154009876Y-64500000I-1802776J0D01*
G01*
%TO.C,U1*%
X90597100Y-62860000D02*
X91547100Y-62860000D01*
X91547100Y-62860000D02*
X91547100Y-64200000D01*
X100817100Y-62860000D02*
X99867100Y-62860000D01*
X90597100Y-61910000D02*
X90597100Y-62860000D01*
X100817100Y-61910000D02*
X100817100Y-62860000D01*
X90597100Y-53590000D02*
X90597100Y-52640000D01*
X100817100Y-53590000D02*
X100817100Y-52640000D01*
X90597100Y-52640000D02*
X91547100Y-52640000D01*
X100817100Y-52640000D02*
X99867100Y-52640000D01*
%TO.C,U2*%
X129207100Y-45750000D02*
X111207100Y-45750000D01*
X111207100Y-45750000D02*
X111207100Y-72750000D01*
X129207100Y-72750000D02*
X129207100Y-45750000D01*
X111207100Y-72750000D02*
X129207100Y-72750000D01*
%TO.C,C2*%
X105114564Y-52790282D02*
X105114564Y-53312786D01*
X103644564Y-52790282D02*
X103644564Y-53312786D01*
%TO.C,Y2*%
X90747100Y-65975000D02*
X97147100Y-65975000D01*
X90747100Y-71025000D02*
X97147100Y-71025000D01*
X90747100Y-65975000D02*
G75*
G03*
X90747100Y-71025000I0J-2525000D01*
G01*
X97147100Y-71025000D02*
G75*
G03*
X97147100Y-65975000I0J2525000D01*
G01*
%TO.C,R11*%
X161692100Y-67272936D02*
X161692100Y-67727064D01*
X160222100Y-67272936D02*
X160222100Y-67727064D01*
%TD*%
D17*
X163207100Y-28250000D02*
X65207100Y-28250000D01*
X164207100Y-100000000D02*
X165207100Y-99000000D01*
X163207100Y-28250000D02*
X165207100Y-30250000D01*
X65207100Y-28250000D02*
X65207100Y-42000000D01*
X74207100Y-51000000D02*
X74207100Y-61000000D01*
X65207100Y-70000000D02*
X65207100Y-100000000D01*
X64207100Y-95000000D02*
X62207100Y-95000000D01*
X74207100Y-61000000D02*
X65207100Y-70000000D01*
X74207100Y-51000000D02*
X65207100Y-42000000D01*
X65207100Y-100000000D02*
X164207100Y-100000000D01*
X165207100Y-99000000D02*
X165207100Y-30250000D01*
M02*
