M48
; DRILL file {KiCad (7.0.0)} date Sun Apr 30 17:40:31 2023
; FORMAT={-:-/ absolute / metric / decimal}
; #@! TF.CreationDate,2023-04-30T17:40:31+02:00
; #@! TF.GenerationSoftware,Kicad,Pcbnew,(7.0.0)
; #@! TF.FileFunction,MixedPlating,1,4
FMAT,2
METRIC
; #@! TA.AperFunction,Plated,PTH,ViaDrill
T1C0.400
; #@! TA.AperFunction,Plated,PTH,ComponentDrill
T2C0.600
; #@! TA.AperFunction,Plated,PTH,ComponentDrill
T3C0.762
; #@! TA.AperFunction,Plated,PTH,ComponentDrill
T4C0.800
; #@! TA.AperFunction,Plated,PTH,ComponentDrill
T5C0.900
; #@! TA.AperFunction,Plated,PTH,ComponentDrill
T6C1.000
; #@! TA.AperFunction,Plated,PTH,ComponentDrill
T7C1.300
; #@! TA.AperFunction,Plated,PTH,ComponentDrill
T8C1.500
; #@! TA.AperFunction,Plated,PTH,ComponentDrill
T9C3.700
; #@! TA.AperFunction,NonPlated,NPTH,ComponentDrill
T10C0.650
%
G90
G05
T1
X71.207Y-39.413
X72.707Y-39.25
X73.171Y-40.5
X73.957Y-47.5
X75.707Y-82.5
X75.957Y-77.5
X77.207Y-77.75
X82.207Y-82.3
X84.707Y-40.0
X85.207Y-60.75
X85.207Y-64.25
X85.749Y-40.0
X86.707Y-60.25
X87.807Y-81.0
X88.134Y-58.307
X89.212Y-45.525
X91.207Y-42.25
X91.212Y-45.525
X91.655Y-57.083
X91.707Y-44.5
X92.433Y-71.174
X92.457Y-59.5
X93.207Y-61.75
X94.502Y-55.094
X95.269Y-45.022
X95.707Y-50.25
X95.957Y-62.0
X96.207Y-54.0
X96.957Y-50.25
X97.207Y-62.0
X97.207Y-65.0
X97.4Y-58.0
X98.207Y-50.25
X98.4Y-55.2
X98.457Y-54.0
X99.545Y-74.73
X99.8Y-59.6
X99.86Y-57.637
X100.138Y-43.811
X100.457Y-64.75
X100.707Y-73.9
X101.407Y-71.5
X102.957Y-52.0
X103.207Y-62.25
X103.457Y-60.5
X103.707Y-76.0
X104.457Y-38.058
X106.407Y-50.9
X106.957Y-68.5
X107.207Y-74.5
X109.457Y-36.25
X109.607Y-47.9
X110.457Y-36.75
X111.2Y-56.4
X111.2Y-58.4
X113.034Y-43.695
X114.457Y-52.75
X115.457Y-36.75
X116.457Y-36.25
X116.957Y-51.75
X117.607Y-44.5
X119.457Y-45.5
X121.262Y-47.7
X121.59Y-38.083
X124.407Y-41.7
X125.207Y-78.0
X125.607Y-45.9
X134.207Y-68.5
X137.207Y-61.0
X138.207Y-45.0
X138.957Y-69.5
X139.957Y-50.0
X140.207Y-45.25
X143.207Y-65.0
X143.457Y-50.0
X144.207Y-45.0
X145.707Y-41.5
X151.957Y-42.0
X155.007Y-78.555
X155.207Y-77.155
X156.407Y-80.755
X156.957Y-74.405
X157.207Y-37.0
X157.207Y-45.5
X157.457Y-68.5
X157.694Y-75.719
X158.457Y-74.905
X158.957Y-60.0
X159.007Y-87.955
X159.707Y-72.155
X159.957Y-78.155
X161.207Y-37.0
X162.207Y-49.75
X164.457Y-61.5
X164.457Y-68.5
T4
X91.507Y-68.5
X96.387Y-68.5
X156.427Y-94.885
X158.967Y-92.345
X161.507Y-94.885
T5
X75.743Y-32.83
X77.743Y-32.83
X79.743Y-32.83
X141.407Y-71.35
X145.407Y-71.35
T6
X70.047Y-80.125
X70.047Y-82.665
X70.047Y-85.205
X70.047Y-87.745
X70.047Y-90.285
X70.047Y-92.825
X80.732Y-50.625
X80.732Y-53.165
X80.732Y-55.705
X80.732Y-58.245
X80.732Y-60.785
X80.732Y-63.325
X80.732Y-65.865
X80.732Y-68.405
X90.707Y-38.475
X93.247Y-38.475
X95.787Y-38.475
X98.327Y-38.475
X106.747Y-42.014
X109.287Y-42.014
X111.827Y-42.014
X113.207Y-47.75
X113.207Y-70.75
X114.367Y-42.014
X116.207Y-70.75
X116.907Y-42.014
X119.447Y-42.014
X124.207Y-70.75
X127.207Y-47.75
X127.207Y-70.75
X129.957Y-33.5
X133.732Y-55.7
X133.732Y-58.24
X133.732Y-60.78
X133.732Y-63.32
X134.457Y-33.5
X139.957Y-33.5
X144.457Y-33.5
X152.627Y-72.53
X152.627Y-75.07
X152.627Y-77.61
X152.627Y-80.15
X152.627Y-82.69
X152.627Y-85.23
X152.627Y-87.77
X156.957Y-32.5
X161.457Y-32.5
X162.787Y-75.08
X162.787Y-77.62
X162.787Y-80.16
X162.787Y-82.7
X162.787Y-85.24
T7
X128.707Y-36.0
X135.707Y-36.0
X138.707Y-36.0
X145.707Y-36.0
X155.707Y-35.0
X162.707Y-35.0
T8
X73.643Y-32.83
X81.843Y-32.83
T9
X81.207Y-45.25
X81.207Y-73.75
X133.207Y-45.25
X133.207Y-73.75
X152.207Y-55.0
T10
X110.207Y-33.844
X115.987Y-33.844
T2
G00X108.777Y-30.564
M15
G01X108.777Y-29.764
M16
G05
G00X108.777Y-34.914
M15
G01X108.777Y-33.814
M16
G05
G00X117.417Y-30.564
M15
G01X117.417Y-29.764
M16
G05
G00X117.417Y-34.914
M15
G01X117.417Y-33.814
M16
G05
T3
G00X76.207Y-86.956
M15
G01X76.207Y-91.494
M16
G05
G00X146.207Y-86.956
M15
G01X146.207Y-91.494
M16
G05
T0
M30
