%TF.GenerationSoftware,KiCad,Pcbnew,(7.0.0)*%
%TF.CreationDate,2023-04-30T17:40:28+02:00*%
%TF.ProjectId,STM32 Talnet console,53544d33-3220-4546-916c-6e657420636f,rev?*%
%TF.SameCoordinates,Original*%
%TF.FileFunction,Soldermask,Top*%
%TF.FilePolarity,Negative*%
%FSLAX46Y46*%
G04 Gerber Fmt 4.6, Leading zero omitted, Abs format (unit mm)*
G04 Created by KiCad (PCBNEW (7.0.0)) date 2023-04-30 17:40:28*
%MOMM*%
%LPD*%
G01*
G04 APERTURE LIST*
G04 Aperture macros list*
%AMRoundRect*
0 Rectangle with rounded corners*
0 $1 Rounding radius*
0 $2 $3 $4 $5 $6 $7 $8 $9 X,Y pos of 4 corners*
0 Add a 4 corners polygon primitive as box body*
4,1,4,$2,$3,$4,$5,$6,$7,$8,$9,$2,$3,0*
0 Add four circle primitives for the rounded corners*
1,1,$1+$1,$2,$3*
1,1,$1+$1,$4,$5*
1,1,$1+$1,$6,$7*
1,1,$1+$1,$8,$9*
0 Add four rect primitives between the rounded corners*
20,1,$1+$1,$2,$3,$4,$5,0*
20,1,$1+$1,$4,$5,$6,$7,0*
20,1,$1+$1,$6,$7,$8,$9,0*
20,1,$1+$1,$8,$9,$2,$3,0*%
%AMOutline4P*
0 Free polygon, 4 corners , with rotation*
0 The origin of the aperture is its center*
0 number of corners: always 4*
0 $1 to $8 corner X, Y*
0 $9 Rotation angle, in degrees counterclockwise*
0 create outline with 4 corners*
4,1,4,$1,$2,$3,$4,$5,$6,$7,$8,$1,$2,$9*%
%AMFreePoly0*
4,1,19,0.500000,-0.750000,0.000000,-0.750000,0.000000,-0.744911,-0.071157,-0.744911,-0.207708,-0.704816,-0.327430,-0.627875,-0.420627,-0.520320,-0.479746,-0.390866,-0.500000,-0.250000,-0.500000,0.250000,-0.479746,0.390866,-0.420627,0.520320,-0.327430,0.627875,-0.207708,0.704816,-0.071157,0.744911,0.000000,0.744911,0.000000,0.750000,0.500000,0.750000,0.500000,-0.750000,0.500000,-0.750000,
$1*%
%AMFreePoly1*
4,1,19,0.000000,0.744911,0.071157,0.744911,0.207708,0.704816,0.327430,0.627875,0.420627,0.520320,0.479746,0.390866,0.500000,0.250000,0.500000,-0.250000,0.479746,-0.390866,0.420627,-0.520320,0.327430,-0.627875,0.207708,-0.704816,0.071157,-0.744911,0.000000,-0.744911,0.000000,-0.750000,-0.500000,-0.750000,-0.500000,0.750000,0.000000,0.750000,0.000000,0.744911,0.000000,0.744911,
$1*%
G04 Aperture macros list end*
%ADD10RoundRect,0.250000X0.350000X0.450000X-0.350000X0.450000X-0.350000X-0.450000X0.350000X-0.450000X0*%
%ADD11R,1.500000X2.000000*%
%ADD12R,3.800000X2.000000*%
%ADD13R,2.000000X2.000000*%
%ADD14RoundRect,0.250000X0.475000X-0.337500X0.475000X0.337500X-0.475000X0.337500X-0.475000X-0.337500X0*%
%ADD15RoundRect,0.250000X0.450000X-0.350000X0.450000X0.350000X-0.450000X0.350000X-0.450000X-0.350000X0*%
%ADD16R,1.700000X1.700000*%
%ADD17O,1.700000X1.700000*%
%ADD18RoundRect,0.250000X-0.337500X-0.475000X0.337500X-0.475000X0.337500X0.475000X-0.337500X0.475000X0*%
%ADD19RoundRect,0.250000X-0.475000X0.337500X-0.475000X-0.337500X0.475000X-0.337500X0.475000X0.337500X0*%
%ADD20RoundRect,0.250000X-0.350000X-0.450000X0.350000X-0.450000X0.350000X0.450000X-0.350000X0.450000X0*%
%ADD21R,0.700000X2.000000*%
%ADD22C,2.300000*%
%ADD23C,2.000000*%
%ADD24RoundRect,0.250000X-0.450000X0.350000X-0.450000X-0.350000X0.450000X-0.350000X0.450000X0.350000X0*%
%ADD25Outline4P,-1.800000X-1.150000X1.800000X-0.550000X1.800000X0.550000X-1.800000X1.150000X0.000000*%
%ADD26Outline4P,-1.800000X-1.150000X1.800000X-0.550000X1.800000X0.550000X-1.800000X1.150000X180.000000*%
%ADD27RoundRect,0.250000X0.337500X0.475000X-0.337500X0.475000X-0.337500X-0.475000X0.337500X-0.475000X0*%
%ADD28FreePoly0,270.000000*%
%ADD29FreePoly1,270.000000*%
%ADD30C,0.650000*%
%ADD31R,0.600000X1.240000*%
%ADD32R,0.300000X1.240000*%
%ADD33O,1.000000X2.100000*%
%ADD34O,1.000000X1.800000*%
%ADD35C,6.200000*%
%ADD36C,1.440000*%
%ADD37O,2.200000X3.500000*%
%ADD38R,1.500000X2.500000*%
%ADD39O,1.500000X2.500000*%
%ADD40O,3.000000X8.100000*%
%ADD41R,0.250000X0.675000*%
%ADD42R,0.675000X0.250000*%
%ADD43R,2.000000X0.700000*%
%ADD44R,2.100000X1.800000*%
%ADD45R,1.600000X1.600000*%
%ADD46C,1.600000*%
%ADD47RoundRect,0.075000X0.075000X-0.700000X0.075000X0.700000X-0.075000X0.700000X-0.075000X-0.700000X0*%
%ADD48RoundRect,0.075000X0.700000X-0.075000X0.700000X0.075000X-0.700000X0.075000X-0.700000X-0.075000X0*%
%ADD49C,1.500000*%
%TA.AperFunction,Profile*%
%ADD50C,0.100000*%
%TD*%
G04 APERTURE END LIST*
D10*
%TO.C,R26*%
X157457100Y-85905000D03*
X155457100Y-85905000D03*
%TD*%
D11*
%TO.C,U3*%
X70871099Y-43345999D03*
X73171099Y-43345999D03*
D12*
X73171099Y-37045999D03*
D11*
X75471099Y-43345999D03*
%TD*%
D13*
%TO.C,SW5*%
X142707099Y-57999999D03*
X142707099Y-51999999D03*
%TD*%
D14*
%TO.C,C22*%
X159707100Y-75655000D03*
X159707100Y-73580000D03*
%TD*%
D10*
%TO.C,R28*%
X157457100Y-83905000D03*
X155457100Y-83905000D03*
%TD*%
D14*
%TO.C,C17*%
X157207100Y-40575000D03*
X157207100Y-38500000D03*
%TD*%
D15*
%TO.C,R3*%
X141407100Y-64650000D03*
X141407100Y-62650000D03*
%TD*%
D10*
%TO.C,R19*%
X107747100Y-38214000D03*
X105747100Y-38214000D03*
%TD*%
D16*
%TO.C,J2*%
X80732099Y-50624999D03*
D17*
X80732099Y-53164999D03*
X80732099Y-55704999D03*
X80732099Y-58244999D03*
X80732099Y-60784999D03*
X80732099Y-63324999D03*
X80732099Y-65864999D03*
X80732099Y-68404999D03*
%TD*%
D18*
%TO.C,C7*%
X89174037Y-48993286D03*
X91249037Y-48993286D03*
%TD*%
D19*
%TO.C,C15*%
X144207100Y-46462500D03*
X144207100Y-48537500D03*
%TD*%
D16*
%TO.C,J10*%
X162787099Y-75079999D03*
D17*
X162787099Y-77619999D03*
X162787099Y-80159999D03*
X162787099Y-82699999D03*
X162787099Y-85239999D03*
%TD*%
D14*
%TO.C,C8*%
X106379564Y-54089034D03*
X106379564Y-52014034D03*
%TD*%
%TO.C,C13*%
X140207100Y-43537500D03*
X140207100Y-41462500D03*
%TD*%
D20*
%TO.C,R24*%
X101707100Y-48500000D03*
X103707100Y-48500000D03*
%TD*%
D21*
%TO.C,Q1*%
X139457099Y-63049999D03*
X137557099Y-63049999D03*
X138507099Y-66449999D03*
%TD*%
D19*
%TO.C,C21*%
X68457100Y-39412500D03*
X68457100Y-41487500D03*
%TD*%
D22*
%TO.C,SW1*%
X138707100Y-36000000D03*
X145707100Y-36000000D03*
D23*
X139957100Y-33500000D03*
X144457100Y-33500000D03*
%TD*%
D24*
%TO.C,R1*%
X93491100Y-41498000D03*
X93491100Y-43498000D03*
%TD*%
D25*
%TO.C,D1*%
X78907100Y-38000000D03*
D26*
X84707100Y-38000000D03*
%TD*%
D27*
%TO.C,C20*%
X75994600Y-46000000D03*
X73919600Y-46000000D03*
%TD*%
D19*
%TO.C,C16*%
X162957100Y-66462500D03*
X162957100Y-68537500D03*
%TD*%
D16*
%TO.C,J9*%
X152627099Y-72529999D03*
D17*
X152627099Y-75069999D03*
X152627099Y-77609999D03*
X152627099Y-80149999D03*
X152627099Y-82689999D03*
X152627099Y-85229999D03*
X152627099Y-87769999D03*
%TD*%
D16*
%TO.C,J3*%
X133732099Y-55699999D03*
D17*
X133732099Y-58239999D03*
X133732099Y-60779999D03*
X133732099Y-63319999D03*
%TD*%
D10*
%TO.C,R29*%
X157457100Y-87905000D03*
X155457100Y-87905000D03*
%TD*%
%TO.C,R27*%
X157457100Y-81905000D03*
X155457100Y-81905000D03*
%TD*%
D24*
%TO.C,FB1*%
X103607100Y-70500000D03*
X103607100Y-72500000D03*
%TD*%
D28*
%TO.C,JP1*%
X106007100Y-70850000D03*
D29*
X106007100Y-72150000D03*
%TD*%
D20*
%TO.C,R23*%
X101707100Y-44500000D03*
X103707100Y-44500000D03*
%TD*%
D30*
%TO.C,J6*%
X115987100Y-33844000D03*
X110207100Y-33844000D03*
D31*
X116297099Y-34963999D03*
X115497099Y-34963999D03*
D32*
X114347099Y-34963999D03*
X113347099Y-34963999D03*
X112847099Y-34963999D03*
X111847099Y-34963999D03*
D31*
X110697099Y-34963999D03*
X109897099Y-34963999D03*
X109897099Y-34963999D03*
X110697099Y-34963999D03*
D32*
X111347099Y-34963999D03*
X112347099Y-34963999D03*
X113847099Y-34963999D03*
X114847099Y-34963999D03*
D31*
X115497099Y-34963999D03*
X116297099Y-34963999D03*
D33*
X117417099Y-34363999D03*
D34*
X117417099Y-30163999D03*
D33*
X108777099Y-34363999D03*
D34*
X108777099Y-30163999D03*
%TD*%
D19*
%TO.C,C6*%
X105207100Y-60750000D03*
X105207100Y-62825000D03*
%TD*%
D24*
%TO.C,R21*%
X109207100Y-60825000D03*
X109207100Y-62825000D03*
%TD*%
D35*
%TO.C,H1*%
X81207100Y-45250000D03*
%TD*%
D16*
%TO.C,J4*%
X70047099Y-92824999D03*
D17*
X70047099Y-90284999D03*
X70047099Y-87744999D03*
X70047099Y-85204999D03*
X70047099Y-82664999D03*
X70047099Y-80124999D03*
%TD*%
D16*
%TO.C,J1*%
X90707099Y-38474999D03*
D17*
X93247099Y-38474999D03*
X95787099Y-38474999D03*
X98327099Y-38474999D03*
%TD*%
D13*
%TO.C,SW2*%
X149207099Y-45499999D03*
X155207099Y-45499999D03*
%TD*%
D15*
%TO.C,R22*%
X107207100Y-62825000D03*
X107207100Y-60825000D03*
%TD*%
D36*
%TO.C,RV1*%
X161507100Y-94885000D03*
X158967100Y-92345000D03*
X156427100Y-94885000D03*
%TD*%
D37*
%TO.C,SW9*%
X81843099Y-32829999D03*
X73643099Y-32829999D03*
D38*
X79743099Y-32829999D03*
D39*
X77743099Y-32829999D03*
X75743099Y-32829999D03*
%TD*%
D15*
%TO.C,R13*%
X161207100Y-40537500D03*
X161207100Y-38537500D03*
%TD*%
D20*
%TO.C,R20*%
X118372100Y-38214000D03*
X120372100Y-38214000D03*
%TD*%
D23*
%TO.C,TP1*%
X125807100Y-40300000D03*
%TD*%
D35*
%TO.C,H3*%
X133207100Y-73750000D03*
%TD*%
D18*
%TO.C,C11*%
X103707100Y-66500000D03*
X105782100Y-66500000D03*
%TD*%
D16*
%TO.C,J8*%
X119447099Y-42013999D03*
D17*
X116907099Y-42013999D03*
X114367099Y-42013999D03*
X111827099Y-42013999D03*
X109287099Y-42013999D03*
X106747099Y-42013999D03*
%TD*%
D13*
%TO.C,SW3*%
X162207099Y-57999999D03*
X162207099Y-51999999D03*
%TD*%
D40*
%TO.C,J7*%
X76207099Y-89224999D03*
X146207099Y-89224999D03*
%TD*%
D35*
%TO.C,H2*%
X133207100Y-45250000D03*
%TD*%
D41*
%TO.C,U4*%
X156957099Y-79679999D03*
X157457099Y-79679999D03*
X157957099Y-79679999D03*
X158457099Y-79679999D03*
D42*
X158719599Y-78917499D03*
X158719599Y-78417499D03*
X158719599Y-77917499D03*
D41*
X158457099Y-77154999D03*
X157957099Y-77154999D03*
X157457099Y-77154999D03*
X156957099Y-77154999D03*
D42*
X156694599Y-77917499D03*
X156694599Y-78417499D03*
X156694599Y-78917499D03*
%TD*%
D18*
%TO.C,C1*%
X89174037Y-46993286D03*
X91249037Y-46993286D03*
%TD*%
D10*
%TO.C,R25*%
X103707100Y-46500000D03*
X101707100Y-46500000D03*
%TD*%
D22*
%TO.C,SW4*%
X128707100Y-36000000D03*
X135707100Y-36000000D03*
D23*
X129957100Y-33500000D03*
X134457100Y-33500000D03*
%TD*%
D24*
%TO.C,R9*%
X158957100Y-66500000D03*
X158957100Y-68500000D03*
%TD*%
D15*
%TO.C,R2*%
X95523100Y-43498000D03*
X95523100Y-41498000D03*
%TD*%
D24*
%TO.C,R8*%
X140207100Y-46537500D03*
X140207100Y-48537500D03*
%TD*%
D43*
%TO.C,Q2*%
X125907099Y-75699999D03*
X125907099Y-73799999D03*
X122507099Y-74749999D03*
%TD*%
D18*
%TO.C,C9*%
X103707100Y-74500000D03*
X105782100Y-74500000D03*
%TD*%
D15*
%TO.C,R14*%
X159207100Y-40537500D03*
X159207100Y-38537500D03*
%TD*%
%TO.C,R6*%
X142207100Y-43500000D03*
X142207100Y-41500000D03*
%TD*%
%TO.C,R7*%
X160957100Y-63500000D03*
X160957100Y-61500000D03*
%TD*%
D19*
%TO.C,C3*%
X89893100Y-72676500D03*
X89893100Y-74751500D03*
%TD*%
D15*
%TO.C,R12*%
X138207100Y-48500000D03*
X138207100Y-46500000D03*
%TD*%
%TO.C,R30*%
X108384688Y-54046861D03*
X108384688Y-52046861D03*
%TD*%
D19*
%TO.C,C12*%
X138207100Y-41425000D03*
X138207100Y-43500000D03*
%TD*%
D22*
%TO.C,SW7*%
X155707100Y-35000000D03*
X162707100Y-35000000D03*
D23*
X156957100Y-32500000D03*
X161457100Y-32500000D03*
%TD*%
D44*
%TO.C,Y1*%
X92507099Y-75117999D03*
X95407099Y-75117999D03*
X95407099Y-72817999D03*
X92507099Y-72817999D03*
%TD*%
D14*
%TO.C,C4*%
X98021099Y-74751500D03*
X98021099Y-72676500D03*
%TD*%
D43*
%TO.C,Q3*%
X85807099Y-41299999D03*
X85807099Y-43199999D03*
X89207099Y-42249999D03*
%TD*%
D24*
%TO.C,R10*%
X142207100Y-46537500D03*
X142207100Y-48537500D03*
%TD*%
D45*
%TO.C,BZ1*%
X145407099Y-71349999D03*
D46*
X141407100Y-71350000D03*
%TD*%
D15*
%TO.C,R4*%
X144207101Y-43500000D03*
X144207101Y-41500000D03*
%TD*%
D14*
%TO.C,C14*%
X158957100Y-63537500D03*
X158957100Y-61462500D03*
%TD*%
%TO.C,C5*%
X86768443Y-63754825D03*
X86768443Y-61679825D03*
%TD*%
D15*
%TO.C,R5*%
X162957100Y-63500000D03*
X162957100Y-61500000D03*
%TD*%
D18*
%TO.C,C10*%
X103707100Y-68500000D03*
X105782100Y-68500000D03*
%TD*%
D13*
%TO.C,SW6*%
X149207099Y-64499999D03*
X155207099Y-64499999D03*
%TD*%
D47*
%TO.C,U1*%
X91957100Y-63425000D03*
X92457100Y-63425000D03*
X92957100Y-63425000D03*
X93457100Y-63425000D03*
X93957100Y-63425000D03*
X94457100Y-63425000D03*
X94957100Y-63425000D03*
X95457100Y-63425000D03*
X95957100Y-63425000D03*
X96457100Y-63425000D03*
X96957100Y-63425000D03*
X97457100Y-63425000D03*
X97957100Y-63425000D03*
X98457100Y-63425000D03*
X98957100Y-63425000D03*
X99457100Y-63425000D03*
D48*
X101382100Y-61500000D03*
X101382100Y-61000000D03*
X101382100Y-60500000D03*
X101382100Y-60000000D03*
X101382100Y-59500000D03*
X101382100Y-59000000D03*
X101382100Y-58500000D03*
X101382100Y-58000000D03*
X101382100Y-57500000D03*
X101382100Y-57000000D03*
X101382100Y-56500000D03*
X101382100Y-56000000D03*
X101382100Y-55500000D03*
X101382100Y-55000000D03*
X101382100Y-54500000D03*
X101382100Y-54000000D03*
D47*
X99457100Y-52075000D03*
X98957100Y-52075000D03*
X98457100Y-52075000D03*
X97957100Y-52075000D03*
X97457100Y-52075000D03*
X96957100Y-52075000D03*
X96457100Y-52075000D03*
X95957100Y-52075000D03*
X95457100Y-52075000D03*
X94957100Y-52075000D03*
X94457100Y-52075000D03*
X93957100Y-52075000D03*
X93457100Y-52075000D03*
X92957100Y-52075000D03*
X92457100Y-52075000D03*
X91957100Y-52075000D03*
D48*
X90032100Y-54000000D03*
X90032100Y-54500000D03*
X90032100Y-55000000D03*
X90032100Y-55500000D03*
X90032100Y-56000000D03*
X90032100Y-56500000D03*
X90032100Y-57000000D03*
X90032100Y-57500000D03*
X90032100Y-58000000D03*
X90032100Y-58500000D03*
X90032100Y-59000000D03*
X90032100Y-59500000D03*
X90032100Y-60000000D03*
X90032100Y-60500000D03*
X90032100Y-61000000D03*
X90032100Y-61500000D03*
%TD*%
D35*
%TO.C,H4*%
X81207100Y-73750000D03*
%TD*%
%TO.C,H5*%
X152207100Y-55000000D03*
%TD*%
D23*
%TO.C,U2*%
X127207100Y-47750000D03*
X113207100Y-47750000D03*
X127207100Y-70750000D03*
X124207100Y-70750000D03*
X116207100Y-70750000D03*
X113207100Y-70750000D03*
%TD*%
D19*
%TO.C,C2*%
X104379564Y-52014034D03*
X104379564Y-54089034D03*
%TD*%
D49*
%TO.C,Y2*%
X91507100Y-68500000D03*
X96387100Y-68500000D03*
%TD*%
D24*
%TO.C,R11*%
X160957100Y-66500000D03*
X160957100Y-68500000D03*
%TD*%
D50*
X163207100Y-28250000D02*
X65207100Y-28250000D01*
X164207100Y-100000000D02*
X165207100Y-99000000D01*
X163207100Y-28250000D02*
X165207100Y-30250000D01*
X65207100Y-28250000D02*
X65207100Y-42000000D01*
X74207100Y-51000000D02*
X74207100Y-61000000D01*
X65207100Y-70000000D02*
X65207100Y-100000000D01*
X64207100Y-95000000D02*
X62207100Y-95000000D01*
X74207100Y-61000000D02*
X65207100Y-70000000D01*
X74207100Y-51000000D02*
X65207100Y-42000000D01*
X65207100Y-100000000D02*
X164207100Y-100000000D01*
X165207100Y-99000000D02*
X165207100Y-30250000D01*
M02*
